<svg id="Layer_x0020_1" xmlns="http://www.w3.org/2000/svg" width="135.5" height="70.261" viewBox="0 0 135.5 70.261">
  <g id="_2503367469328" transform="translate(0 0)">
    <path id="Path_503" data-name="Path 503" d="M48.477,22.78a9.2,9.2,0,0,0,9.186-9.186v-3A9.2,9.2,0,0,0,48.477,1.41H7.06s3.893,2.258,3.893,10.043c0,9.07-3.893,11.327-3.893,11.327Z" transform="translate(20.421 4.079)" fill="#e9e5cd"/>
    <path id="Path_504" data-name="Path 504" d="M96.992,0H5.4V5.489H53.278a9.2,9.2,0,0,1,9.186,9.186v3a9.2,9.2,0,0,1-9.186,9.186H5.4v5.489H96.992a14.686,14.686,0,0,0,14.675-14.675v-3A14.686,14.686,0,0,0,96.992,0Z" transform="translate(15.62 0)" fill="#f9c60c"/>
    <path id="Path_505" data-name="Path 505" d="M55.889,6.359a9.034,9.034,0,0,1-5.995,2.219H6.57v5.489H93.608A14.573,14.573,0,0,0,106.531,6.32H55.85Z" transform="translate(19.004 18.281)" fill="#ed9e12"/>
    <path id="Path_506" data-name="Path 506" d="M53.278,26.859a9.2,9.2,0,0,0,9.186-9.186v-3a9.2,9.2,0,0,0-9.186-9.186H5.4V0H55.575A14.685,14.685,0,0,1,70.25,14.675v3A14.685,14.685,0,0,1,55.575,32.347H5.4V26.859H53.278Z" transform="translate(15.62 0)" fill="#e8891c"/>
    <path id="Path_507" data-name="Path 507" d="M17.91,1.42a9.19,9.19,0,0,1,8.369,9.148v3a9.218,9.218,0,0,1-8.369,9.148A34.822,34.822,0,0,0,19.35,11.93c0-6.773-1.44-10.471-1.44-10.471Z" transform="translate(51.806 4.107)" fill="#424454"/>
    <path id="Path_508" data-name="Path 508" d="M14.909,8.24H135.5v5.605H14.909a9.3,9.3,0,0,0-9.3,9.3v8.33a9.336,9.336,0,0,0,9.3,9.342H135.5v5.605H14.909A14.91,14.91,0,0,1,0,31.518v-8.33A14.91,14.91,0,0,1,14.909,8.279Z" transform="translate(0 23.835)" fill="#9cb32c"/>
    <path id="Path_509" data-name="Path 509" d="M9.037,36.655c-5.138,0-7.007-4.165-7.007-9.342v-8.33c0-5.138,1.907-9.3,7.007-9.3H123.05a21.947,21.947,0,0,0-3.931,12.807c0,9.225,3.931,14.13,3.931,14.13H9.037Z" transform="translate(5.872 28)" fill="#e6e6e6"/>
    <path id="Path_510" data-name="Path 510" d="M11.589,6.368a1.129,1.129,0,0,1,0-2.258H37.474a1.129,1.129,0,1,1,0,2.258h-2.53l.234-1.129H13.885l-.234,1.129Z" transform="translate(30.256 11.888)" fill="#b8c3c5"/>
    <path id="Path_511" data-name="Path 511" d="M10.53,8.24h0Z" transform="translate(30.459 23.835)" fill="#c1c3c4"/>
    <path id="Path_512" data-name="Path 512" d="M10.22,13.845,11.427,8.24H32.719l-1.207,5.605Z" transform="translate(29.562 23.835)" fill="#6d8635"/>
    <path id="Path_513" data-name="Path 513" d="M10.53,18.509,13.449,4.69H34.742L31.822,18.509Z" transform="translate(30.459 13.566)" fill="#adbab8"/>
    <path id="Path_514" data-name="Path 514" d="M11.28,5.558l.234-1.168H32.806l-.234,1.168Z" transform="translate(32.628 12.698)" fill="#849092"/>
    <path id="Path_515" data-name="Path 515" d="M11.34,38.489l10.666-3.5,10.627,3.5V4.39H11.34Z" transform="translate(32.802 12.698)" fill="#ce3a27"/>
    <path id="Path_516" data-name="Path 516" d="M9.5,9.729s-1.752,3.7-1.752,13S9.5,36.471,9.5,36.471A9.32,9.32,0,0,1,1.44,27.245v-8.33A9.32,9.32,0,0,1,9.5,9.69Z" transform="translate(4.165 28.029)" fill="#ce3a27"/>
    <path id="Path_517" data-name="Path 517" d="M6.673,10.235c0,.039-1.635,3.7-1.635,12.534,0,8.914,1.635,13.313,1.674,13.351a1.15,1.15,0,0,1,.078.506A6.732,6.732,0,0,1,4.337,36.2C3.831,34.563,2.78,30.165,2.78,22.769c0-7.123,1.012-11.055,1.518-12.651A7.108,7.108,0,0,1,6.789,9.69a1.513,1.513,0,0,1-.078.584Z" transform="translate(8.041 28.029)" fill="#b56228"/>
  </g>
</svg>
