<svg xmlns="http://www.w3.org/2000/svg" width="118.538" height="107.857" viewBox="0 0 118.538 107.857">
  <g id="Group_919" data-name="Group 919" transform="translate(-233.637 -566.084)">
    <g id="_2141225368656" transform="translate(233.637 566.084)">
      <g id="Group_711" data-name="Group 711" transform="translate(48.272 8.893)">
        <g id="Group_706" data-name="Group 706">
          <g id="Group_705" data-name="Group 705">
            <path id="Path_852" data-name="Path 852" d="M312.637,290.186c-13.145-2.257-14.367,9.632-14.279,13.043s1.254,6.435,2.454,9.629.438,7.551-.573,10.81c-1.184,3.814-4.951,7.315-3.6,11.075,1.057,2.955,4.959,4.4,5.438,7.5.379,2.454-1.6,4.588-2.327,6.963-1.376,4.476,1.779,8.963,4.741,12.588,1.223,1.5,2.705,3.125,4.639,3.152,2.671.036,4.257-2.857,5.463-5.24a45.535,45.535,0,0,1,14.356-16.6l-16.307-52.92Z" transform="translate(-296.348 -289.903)" fill="#263138"/>
          </g>
        </g>
        <g id="Group_708" data-name="Group 708" transform="translate(2.674 17.205)">
          <g id="Group_707" data-name="Group 707">
            <path id="Path_853" data-name="Path 853" d="M318.3,396.414a2.443,2.443,0,0,1-.811.293,5.538,5.538,0,0,1-4.041-.64,2.468,2.468,0,0,1-.681-.529c.02-.026.282.173.744.415a6.251,6.251,0,0,0,3.953.627c.515-.088.826-.194.837-.164Z" transform="translate(-312.768 -395.536)" fill="#445964"/>
          </g>
        </g>
        <g id="Group_710" data-name="Group 710" transform="translate(2.119 19.127)">
          <g id="Group_709" data-name="Group 709">
            <path id="Path_854" data-name="Path 854" d="M311.5,436.544a6.714,6.714,0,0,1-.735-.99,9.682,9.682,0,0,1-.909-8.083,12.378,12.378,0,0,1,1.329-2.639c.549-.865,1.171-1.72,1.743-2.632a14.4,14.4,0,0,0,2.212-8.284,15.512,15.512,0,0,0-.259-2.29,14.188,14.188,0,0,0-1.021-3.178c-.15-.366-.311-.63-.4-.819a2.011,2.011,0,0,1-.135-.29,2.033,2.033,0,0,1,.168.27,8.459,8.459,0,0,1,.432.806,13.405,13.405,0,0,1,1.085,3.183,15.226,15.226,0,0,1,.285,2.31,13.891,13.891,0,0,1-.117,2.669,14.075,14.075,0,0,1-2.09,5.718c-.578.92-1.2,1.774-1.748,2.63a12.322,12.322,0,0,0-1.321,2.6,9.447,9.447,0,0,0-.342,4.872,9.784,9.784,0,0,0,1.15,3.117c.4.679.692,1.013.673,1.028Z" transform="translate(-309.357 -407.34)" fill="#445964"/>
          </g>
        </g>
      </g>
      <g id="Group_735" data-name="Group 735" transform="translate(25.88 43.631)">
        <g id="Group_712" data-name="Group 712" transform="translate(67.189 0.614)">
          <path id="Path_855" data-name="Path 855" d="M574.3,506.96s6.591,0,11.077,9.613c3.329,7.132,12.818,31.41,11.32,38.232-.336,1.529-1.293,4.93-3.738,4.977-4.163.08-7.078-.151-7.078-.151l-5.324-12.313-5.137-17.574S567.149,508.623,574.3,506.96Z" transform="translate(-571.39 -506.96)" fill="#0794ff"/>
        </g>
        <g id="Group_713" data-name="Group 713" transform="translate(32.762)">
          <path id="Path_856" data-name="Path 856" d="M405.6,556.091l-1.651-11.135L397.36,503.8l-8.193-.614-15.4,3.059s-9.088,1.472-13.748,4.8c0,0,1.383,22.528,1.461,24.874.173,5.13,3.367,9.728,6.578,13.8l.845,1.073-.436,6.458,37.133-1.166Z" transform="translate(-360.02 -503.19)" fill="#0794ff"/>
        </g>
        <g id="Group_714" data-name="Group 714" transform="translate(0 4.666)">
          <path id="Path_857" data-name="Path 857" d="M198.688,531.84a20.359,20.359,0,0,0-10.645,6.792c-3.363,4.344-19.045,23.69-19.045,23.69s-8.061,4.515-9.559,9.175.023,8.787,3.516,8.787,12.528-2.393,12.528-2.393l17.553-20.1.4,3.463,4.016-17.567,1.235-11.844Z" transform="translate(-158.865 -531.84)" fill="#0794ff"/>
        </g>
        <g id="Group_716" data-name="Group 716" transform="translate(69.5 18.375)">
          <g id="Group_715" data-name="Group 715">
            <path id="Path_858" data-name="Path 858" d="M585.58,616.01a1.047,1.047,0,0,1,.077.215l.182.627c.163.567.388,1.35.661,2.306.565,1.946,1.368,4.627,2.274,7.585s1.731,5.611,2.336,7.569l.7,2.295c.075.257.135.464.184.627a.967.967,0,0,1,.052.221,1.051,1.051,0,0,1-.088-.21c-.055-.16-.127-.363-.216-.615-.187-.56-.445-1.332-.759-2.277-.63-1.927-1.482-4.595-2.388-7.554s-1.691-5.647-2.223-7.6c-.264-.979-.476-1.772-.6-2.324-.06-.26-.111-.471-.148-.635a.973.973,0,0,1-.039-.225Z" transform="translate(-585.58 -616.01)" fill="#263138"/>
          </g>
        </g>
        <g id="Group_718" data-name="Group 718" transform="translate(52.44 37.686)">
          <g id="Group_717" data-name="Group 717">
            <path id="Path_859" data-name="Path 859" d="M491.833,737.649a2.294,2.294,0,0,1-.453.106,4.677,4.677,0,0,1-.541.081c-.212.023-.453.059-.722.065a12.5,12.5,0,0,1-1.886-.032,12.9,12.9,0,0,1-4.433-1.24,12.518,12.518,0,0,1-1.629-.949c-.226-.145-.414-.3-.581-.43a4.721,4.721,0,0,1-.419-.35,2.147,2.147,0,0,1-.332-.326c.024-.028.516.417,1.407,1a13.871,13.871,0,0,0,1.629.906,13.732,13.732,0,0,0,4.375,1.225,13.594,13.594,0,0,0,1.862.072c1.062-.032,1.713-.158,1.72-.122Z" transform="translate(-480.837 -734.572)" fill="#263138"/>
          </g>
        </g>
        <g id="Group_720" data-name="Group 720" transform="translate(33.985 19.124)">
          <g id="Group_719" data-name="Group 719">
            <path id="Path_860" data-name="Path 860" d="M369.007,620.612a.859.859,0,0,1-.036.2c-.037.151-.083.342-.138.575s-.14.552-.215.91-.176.759-.252,1.212c-.179.9-.34,1.979-.467,3.184a35.677,35.677,0,0,0,.067,7.865c.148,1.2.327,2.28.521,3.176.085.451.191.852.272,1.207s.161.658.23.906.109.422.148.572a.792.792,0,0,1,.039.2.816.816,0,0,1-.075-.192c-.047-.148-.109-.336-.182-.563-.08-.244-.171-.546-.261-.9s-.207-.754-.3-1.205c-.21-.9-.4-1.976-.563-3.183a36.45,36.45,0,0,1-.266-3.951,36.87,36.87,0,0,1,.2-3.953c.138-1.208.314-2.292.51-3.192.085-.453.194-.855.28-1.21s.169-.658.246-.9l.173-.567a.931.931,0,0,1,.072-.194Z" transform="translate(-367.528 -620.61)" fill="#263138"/>
          </g>
        </g>
        <g id="Group_722" data-name="Group 722" transform="translate(67.034 2.132)">
          <g id="Group_721" data-name="Group 721">
            <path id="Path_861" data-name="Path 861" d="M574.932,516.28c.018.033-.551.277-1.326.881a7.757,7.757,0,0,0-3,6.7c.065.98.262,1.565.226,1.575a1.709,1.709,0,0,1-.145-.406,6.606,6.606,0,0,1-.213-1.158,7.506,7.506,0,0,1,3.047-6.811,6.57,6.57,0,0,1,1-.612,1.749,1.749,0,0,1,.4-.163Z" transform="translate(-570.443 -516.28)" fill="#263138"/>
          </g>
        </g>
        <g id="Group_724" data-name="Group 724" transform="translate(34.411 22.764)">
          <g id="Group_723" data-name="Group 723">
            <path id="Path_862" data-name="Path 862" d="M406.408,643.273a2.008,2.008,0,0,1-.186.36,3.146,3.146,0,0,1-.785.857,4.428,4.428,0,0,1-1.663.78,5.865,5.865,0,0,1-2.433.049,14.539,14.539,0,0,1-2.824-.858,24.57,24.57,0,0,0-3.176-1.1,7.449,7.449,0,0,0-1.787-.218,6.626,6.626,0,0,0-1.847.3,13.086,13.086,0,0,0-3.494,1.867,39.5,39.5,0,0,1-3.327,2.246,8.424,8.424,0,0,1-3.547,1.182,5.554,5.554,0,0,1-1.749-.166,7.752,7.752,0,0,1-1.539-.606,28.355,28.355,0,0,1-2.507-1.554,8.965,8.965,0,0,0-3.86-1.65,4.872,4.872,0,0,0-1.544.083.375.375,0,0,1,.1-.033c.067-.016.163-.049.293-.072a4.2,4.2,0,0,1,1.161-.05,8.854,8.854,0,0,1,3.924,1.611,28.643,28.643,0,0,0,2.505,1.526,7.633,7.633,0,0,0,1.51.585,5.431,5.431,0,0,0,1.7.153,8.292,8.292,0,0,0,3.469-1.169c1.125-.627,2.182-1.451,3.31-2.24a13.2,13.2,0,0,1,3.546-1.888,6.727,6.727,0,0,1,1.9-.308,7.58,7.58,0,0,1,1.829.229,24.444,24.444,0,0,1,3.192,1.127,14.577,14.577,0,0,0,2.79.871,5.814,5.814,0,0,0,2.386-.019,4.443,4.443,0,0,0,1.643-.736,3.279,3.279,0,0,0,.8-.819c.148-.218.207-.345.217-.34Z" transform="translate(-370.14 -642.959)" fill="#f9f9f9"/>
          </g>
        </g>
        <g id="Group_726" data-name="Group 726" transform="translate(70.177 17.849)">
          <g id="Group_725" data-name="Group 725">
            <path id="Path_863" data-name="Path 863" d="M603.918,612.779a.528.528,0,0,1-.072.14,2.6,2.6,0,0,1-.259.37,3.88,3.88,0,0,1-1.323,1,6.2,6.2,0,0,1-2.394.562,14.939,14.939,0,0,1-2.994-.277,18.931,18.931,0,0,0-2.958-.34,6.707,6.707,0,0,0-2.371.393,4.293,4.293,0,0,0-1.388.832c-.283.262-.406.441-.423.428a.511.511,0,0,1,.083-.133,2.56,2.56,0,0,1,.29-.347,4.078,4.078,0,0,1,1.389-.9,6.61,6.61,0,0,1,2.42-.441,18.032,18.032,0,0,1,2.989.329,15.4,15.4,0,0,0,2.958.288,6.252,6.252,0,0,0,2.345-.51,4.084,4.084,0,0,0,1.323-.928c.26-.285.366-.474.384-.463Z" transform="translate(-589.737 -612.777)" fill="#f9f9f9"/>
          </g>
        </g>
        <g id="Group_728" data-name="Group 728" transform="translate(73.096 26.669)">
          <g id="Group_727" data-name="Group 727">
            <path id="Path_864" data-name="Path 864" d="M621.863,666.93a.512.512,0,0,1-.059.15,3.464,3.464,0,0,1-.215.409,5.774,5.774,0,0,1-1.065,1.322,6.837,6.837,0,0,1-.925.73,7.232,7.232,0,0,1-1.2.619,6.454,6.454,0,0,1-3.056.394,27.539,27.539,0,0,1-3.018-.6,9.774,9.774,0,0,0-2.464-.28,4.858,4.858,0,0,0-1.634.313c-.368.145-.555.265-.565.249s.041-.039.13-.1a2.985,2.985,0,0,1,.407-.22,4.613,4.613,0,0,1,1.656-.376,9.4,9.4,0,0,1,2.507.244,30.166,30.166,0,0,0,3,.586,6.382,6.382,0,0,0,2.976-.368,7.28,7.28,0,0,0,1.182-.59,6.823,6.823,0,0,0,.919-.7,6.488,6.488,0,0,0,1.093-1.264c.22-.331.319-.528.335-.52Z" transform="translate(-607.659 -666.93)" fill="#f9f9f9"/>
          </g>
        </g>
        <g id="Group_730" data-name="Group 730" transform="translate(35.445 31.617)">
          <g id="Group_729" data-name="Group 729">
            <path id="Path_865" data-name="Path 865" d="M376.492,703.324a3.267,3.267,0,0,0,1.4-.746,17.467,17.467,0,0,0,1.319-1.342,9.105,9.105,0,0,1,1.963-1.562,7.781,7.781,0,0,1,2.865-1.008,6.407,6.407,0,0,1,1.7-.007,6.918,6.918,0,0,1,1.738.489c1.147.464,2.24,1.158,3.45,1.694a7.012,7.012,0,0,0,1.915.57,4.92,4.92,0,0,0,1.016.028,5.764,5.764,0,0,0,1.015-.2,21.975,21.975,0,0,0,3.7-1.774,18.828,18.828,0,0,1,3.588-1.409,20.221,20.221,0,0,1,6.463-.725,19.362,19.362,0,0,1,4.329.72c.5.137.88.275,1.135.371.121.044.215.08.292.109a.6.6,0,0,1,.1.042.4.4,0,0,1-.1-.024l-.3-.091c-.259-.083-.64-.21-1.142-.335a20.187,20.187,0,0,0-10.725.1,18.724,18.724,0,0,0-3.551,1.406,21.859,21.859,0,0,1-3.728,1.79,5.956,5.956,0,0,1-1.051.2,5.09,5.09,0,0,1-1.057-.028,7.233,7.233,0,0,1-1.966-.586c-1.226-.547-2.314-1.243-3.442-1.7a6.837,6.837,0,0,0-1.7-.484,6.242,6.242,0,0,0-1.661,0,7.705,7.705,0,0,0-2.819.969,9.087,9.087,0,0,0-1.954,1.52,16.447,16.447,0,0,1-1.349,1.326,3.3,3.3,0,0,1-1.036.6,1.617,1.617,0,0,1-.407.091Z" transform="translate(-376.49 -697.311)" fill="#f9f9f9"/>
          </g>
        </g>
        <g id="Group_732" data-name="Group 732" transform="translate(18.62 24.302)">
          <g id="Group_731" data-name="Group 731">
            <path id="Path_866" data-name="Path 866" d="M285.69,661.872a1.226,1.226,0,0,0-.586-.306,2.307,2.307,0,0,0-.787.015c-.308.044-.655.13-1.051.186a2.986,2.986,0,0,1-1.308-.119,3.972,3.972,0,0,1-1.3-.749,5.858,5.858,0,0,1-1.095-1.248,9.425,9.425,0,0,1-.8-1.585,29.624,29.624,0,0,0-1.308-3.122,5.074,5.074,0,0,0-1.844-1.974,3.749,3.749,0,0,0-.963-.407,2.99,2.99,0,0,0-.785-.082c-.436.021-.668.117-.673.094a.619.619,0,0,1,.166-.067,2.067,2.067,0,0,1,.5-.1,2.856,2.856,0,0,1,.813.052,3.743,3.743,0,0,1,1,.394,5.115,5.115,0,0,1,1.928,2,27.1,27.1,0,0,1,1.331,3.135,9.628,9.628,0,0,0,.779,1.555,5.76,5.76,0,0,0,1.052,1.215,3.859,3.859,0,0,0,1.243.733,2.9,2.9,0,0,0,1.243.134,5.592,5.592,0,0,1,1.868-.138,1.048,1.048,0,0,1,.459.238.534.534,0,0,1,.112.14Z" transform="translate(-273.19 -652.398)" fill="#f9f9f9"/>
          </g>
        </g>
        <g id="Group_734" data-name="Group 734" transform="translate(24.125 17.468)">
          <g id="Group_733" data-name="Group 733">
            <path id="Path_867" data-name="Path 867" d="M317.382,616.212c0,.006-.037.024-.117.055a2.082,2.082,0,0,1-.36.1,2.887,2.887,0,0,1-1.368-.109,4.833,4.833,0,0,1-1.756-1.033,13.244,13.244,0,0,1-1.612-1.891,10.515,10.515,0,0,0-1.629-1.824,4.393,4.393,0,0,0-1.757-.884,2.8,2.8,0,0,0-1.323,0c-.306.082-.463.173-.471.155s.034-.031.109-.072a1.832,1.832,0,0,1,.342-.152,2.692,2.692,0,0,1,1.371-.057,4.4,4.4,0,0,1,1.837.88,10.065,10.065,0,0,1,1.669,1.845,14.19,14.19,0,0,0,1.58,1.876,4.88,4.88,0,0,0,1.681,1.034,3.031,3.031,0,0,0,1.318.163c.316-.037.482-.1.489-.085Z" transform="translate(-306.989 -610.439)" fill="#f9f9f9"/>
          </g>
        </g>
      </g>
      <g id="Group_822" data-name="Group 822" transform="translate(54.906)">
        <g id="Group_807" data-name="Group 807" transform="translate(0.149 6.063)">
          <g id="Group_801" data-name="Group 801" transform="translate(0 3.387)">
            <g id="Group_800" data-name="Group 800">
              <g id="Group_736" data-name="Group 736">
                <path id="Path_868" data-name="Path 868" d="M360.148,298.769c-4.153-9.372-16.357-3.8-16.357-3.8-5.754,2.114-6.57,8.587-5.241,13,1.477,4.906,3.472,10.837,5.368,14.2,3.811,6.769,9.663,5.639,9.663,5.639l1.956,4.818a8.178,8.178,0,0,0,15.22-5.987l-10.611-27.871Z" transform="translate(-337.997 -293.323)" fill="#ffbd9c"/>
              </g>
              <g id="Group_750" data-name="Group 750" transform="translate(3.042 16.391)">
                <g id="Group_742" data-name="Group 742" transform="translate(0.849 1.817)">
                  <g id="Group_741" data-name="Group 741">
                    <g id="Group_740" data-name="Group 740">
                      <g id="Group_739" data-name="Group 739">
                        <g id="Group_738" data-name="Group 738">
                          <g id="Group_737" data-name="Group 737">
                            <path id="Path_869" data-name="Path 869" d="M361.938,406.344a.984.984,0,0,0,1.235.6.939.939,0,0,0,.642-1.184.984.984,0,0,0-1.235-.6.943.943,0,0,0-.643,1.186Z" transform="translate(-361.891 -405.113)" fill="#263138"/>
                          </g>
                        </g>
                      </g>
                    </g>
                  </g>
                </g>
                <g id="Group_749" data-name="Group 749">
                  <g id="Group_748" data-name="Group 748">
                    <g id="Group_747" data-name="Group 747">
                      <g id="Group_746" data-name="Group 746">
                        <g id="Group_745" data-name="Group 745">
                          <g id="Group_744" data-name="Group 744">
                            <g id="Group_743" data-name="Group 743">
                              <path id="Path_870" data-name="Path 870" d="M356.715,395.768c.16.078.666-.7,1.66-1.064s1.906-.138,1.967-.3c.033-.073-.164-.248-.567-.36a2.7,2.7,0,0,0-1.63.091,2.6,2.6,0,0,0-1.265,1C356.661,395.478,356.638,395.734,356.715,395.768Z" transform="translate(-356.675 -393.958)" fill="#263138"/>
                            </g>
                          </g>
                        </g>
                      </g>
                    </g>
                  </g>
                </g>
              </g>
              <g id="Group_764" data-name="Group 764" transform="translate(12.801 12.77)">
                <g id="Group_756" data-name="Group 756" transform="translate(0.382 2.46)">
                  <g id="Group_755" data-name="Group 755">
                    <g id="Group_754" data-name="Group 754">
                      <g id="Group_753" data-name="Group 753">
                        <g id="Group_752" data-name="Group 752">
                          <g id="Group_751" data-name="Group 751">
                            <path id="Path_871" data-name="Path 871" d="M418.988,388.064a.984.984,0,0,0,1.235.6.939.939,0,0,0,.642-1.184.984.984,0,0,0-1.235-.6.943.943,0,0,0-.643,1.186Z" transform="translate(-418.941 -386.833)" fill="#263138"/>
                          </g>
                        </g>
                      </g>
                    </g>
                  </g>
                </g>
                <g id="Group_763" data-name="Group 763">
                  <g id="Group_762" data-name="Group 762">
                    <g id="Group_761" data-name="Group 761">
                      <g id="Group_760" data-name="Group 760">
                        <g id="Group_759" data-name="Group 759">
                          <g id="Group_758" data-name="Group 758">
                            <g id="Group_757" data-name="Group 757">
                              <path id="Path_872" data-name="Path 872" d="M416.635,373.538c.16.078.668-.7,1.66-1.064s1.906-.138,1.967-.3c.033-.073-.163-.248-.567-.36a2.705,2.705,0,0,0-1.63.091,2.6,2.6,0,0,0-1.266,1C416.581,373.248,416.558,373.5,416.635,373.538Z" transform="translate(-416.595 -371.728)" fill="#263138"/>
                            </g>
                          </g>
                        </g>
                      </g>
                    </g>
                  </g>
                </g>
              </g>
              <g id="Group_771" data-name="Group 771" transform="translate(9.336 14.865)">
                <g id="Group_770" data-name="Group 770">
                  <g id="Group_769" data-name="Group 769">
                    <g id="Group_768" data-name="Group 768">
                      <g id="Group_767" data-name="Group 767">
                        <g id="Group_766" data-name="Group 766">
                          <g id="Group_765" data-name="Group 765">
                            <path id="Path_873" data-name="Path 873" d="M398.2,393.028a6.931,6.931,0,0,0-1.72.308c-.264.068-.521.106-.629-.05a1.386,1.386,0,0,1-.109-.814c.011-.7.021-1.437.034-2.208a35.576,35.576,0,0,0-.189-5.673,35.555,35.555,0,0,0-.267,5.674c0,.77,0,1.505,0,2.209a1.568,1.568,0,0,0,.238,1.044.679.679,0,0,0,.554.217,1.87,1.87,0,0,0,.453-.1,6.87,6.87,0,0,0,1.635-.6Z" transform="translate(-395.32 -384.59)" fill="#263138"/>
                          </g>
                        </g>
                      </g>
                    </g>
                  </g>
                </g>
              </g>
              <g id="Group_777" data-name="Group 777" transform="translate(15.586 28.342)">
                <g id="Group_776" data-name="Group 776">
                  <g id="Group_775" data-name="Group 775">
                    <g id="Group_774" data-name="Group 774">
                      <g id="Group_773" data-name="Group 773">
                        <g id="Group_772" data-name="Group 772">
                          <path id="Path_874" data-name="Path 874" d="M433.69,473.484a19.522,19.522,0,0,0,8.679-6.144s-.572,5.831-8.02,7.828l-.658-1.686Z" transform="translate(-433.69 -467.34)" fill="#eb996e"/>
                        </g>
                      </g>
                    </g>
                  </g>
                </g>
              </g>
              <g id="Group_780" data-name="Group 780" transform="translate(13.544 23.663)">
                <g id="Group_779" data-name="Group 779">
                  <g id="Group_778" data-name="Group 778">
                    <path id="Path_875" data-name="Path 875" d="M421.519,441.5a.933.933,0,0,1,.482-1.668.825.825,0,0,1,.233-.987,1.185,1.185,0,0,1,1.042-.191,1.624,1.624,0,0,1,1.16,1.59,1.779,1.779,0,0,1-1.221,1.578,1.964,1.964,0,0,1-1.954-.51l.261.187Z" transform="translate(-421.157 -438.611)" fill="#eb996e"/>
                  </g>
                </g>
              </g>
              <g id="Group_787" data-name="Group 787" transform="translate(13.203 22.903)">
                <g id="Group_786" data-name="Group 786">
                  <g id="Group_785" data-name="Group 785">
                    <g id="Group_784" data-name="Group 784">
                      <g id="Group_783" data-name="Group 783">
                        <g id="Group_782" data-name="Group 782">
                          <g id="Group_781" data-name="Group 781">
                            <path id="Path_876" data-name="Path 876" d="M421.25,433.944c-.164.051.233,1.129-.406,2.236s-1.829,1.414-1.782,1.567c.01.073.334.114.823-.052a2.856,2.856,0,0,0,1.51-1.248,2.48,2.48,0,0,0,.27-1.849c-.125-.466-.345-.687-.417-.655Z" transform="translate(-419.062 -433.941)" fill="#263138"/>
                          </g>
                        </g>
                      </g>
                    </g>
                  </g>
                </g>
              </g>
              <g id="Group_793" data-name="Group 793" transform="translate(11.303 11.437)">
                <g id="Group_792" data-name="Group 792">
                  <g id="Group_791" data-name="Group 791">
                    <g id="Group_790" data-name="Group 790">
                      <g id="Group_789" data-name="Group 789">
                        <g id="Group_788" data-name="Group 788">
                          <path id="Path_877" data-name="Path 877" d="M407.423,365.27c.2.233,1.142-.262,2.358-.554,1.21-.316,2.277-.324,2.341-.624.026-.142-.231-.334-.709-.454a4.211,4.211,0,0,0-3.58.9C407.471,364.866,407.334,365.158,407.423,365.27Z" transform="translate(-407.397 -363.542)" fill="#263138"/>
                        </g>
                      </g>
                    </g>
                  </g>
                </g>
              </g>
              <g id="Group_799" data-name="Group 799" transform="translate(1.644 13.224)">
                <g id="Group_798" data-name="Group 798">
                  <g id="Group_797" data-name="Group 797">
                    <g id="Group_796" data-name="Group 796">
                      <g id="Group_795" data-name="Group 795">
                        <g id="Group_794" data-name="Group 794">
                          <path id="Path_878" data-name="Path 878" d="M348.167,376.354c.259.161.855-.327,1.674-.643.806-.345,1.575-.412,1.648-.707.028-.14-.166-.326-.549-.427a2.593,2.593,0,0,0-2.676,1.088c-.205.339-.213.607-.1.689Z" transform="translate(-348.093 -374.517)" fill="#263138"/>
                        </g>
                      </g>
                    </g>
                  </g>
                </g>
              </g>
            </g>
          </g>
          <g id="Group_805" data-name="Group 805" transform="translate(16.631 20.259)">
            <g id="Group_804" data-name="Group 804">
              <g id="Group_803" data-name="Group 803">
                <g id="Group_802" data-name="Group 802">
                  <path id="Path_879" data-name="Path 879" d="M440.551,397.152a.221.221,0,1,1-.215-.233A.224.224,0,0,1,440.551,397.152Z" transform="translate(-440.109 -396.92)" fill="#263138"/>
                </g>
              </g>
            </g>
          </g>
          <g id="Group_806" data-name="Group 806" transform="translate(0.378)">
            <path id="Path_880" data-name="Path 880" d="M380.867,310.712a21.722,21.722,0,0,0-6.6-12.88c-5.881-5.256,2.088-7.284-3.023-14.215a21.955,21.955,0,0,0-5.981-5.863,9,9,0,0,1-1.2-.909,37.225,37.225,0,0,0-2.951-2.679,5.1,5.1,0,0,0-2.782-1.016h0a8.088,8.088,0,0,0-1.871-.526c-2.868-.432-5.71.72-8.381,1.849-2.585,1.091-9.533.827-7.334,7.934h0a2.348,2.348,0,0,1,3.629-1,4.262,4.262,0,0,1,1.7,2.772c.309,1.655.8,3.489,2.8,3.915a3.488,3.488,0,0,0,1.485-.021c1.674-.376,3.018-2.907,6.212-2.3,0,0,3.109.966,3.293,2.92s-.9,5.586,1.015,7.316,2.238,1.681,2.184,3.174c-.013.342-.015.58-.033.749-.244,2.365-.65,12.639,9.829,10.891l3.525-.215,4.484.111h0Z" transform="translate(-340.319 -272.53)" fill="#263138"/>
          </g>
        </g>
        <g id="Group_808" data-name="Group 808" transform="translate(19.076)">
          <path id="Path_881" data-name="Path 881" d="M454.2,243.023a10.631,10.631,0,0,1,3.119-5.7,7.469,7.469,0,0,1,6.087-1.935,5.78,5.78,0,0,1,4.658,4.145,4.736,4.736,0,0,1-2.707,5.409c-1.56.59-3.292.2-4.959.163s-3.619.5-4.205,2.057l-1.994-4.139Z" transform="translate(-454.2 -235.302)" fill="#263138"/>
        </g>
        <g id="Group_809" data-name="Group 809" transform="translate(18.497 4.954)">
          <path id="Path_882" data-name="Path 882" d="M457.892,270.03a1.261,1.261,0,0,0-.818-.945,11.854,11.854,0,0,0-1.262-.35,3.562,3.562,0,0,1-1.594-1.011c-.357-.394-.622-.865-.972-1.264a1.9,1.9,0,0,0-1.358-.739,1.241,1.241,0,0,0-1.108,1.8,27.816,27.816,0,0,0,4.235,3.1,3.346,3.346,0,0,0,1.713.544c.606-.034,1.23-.529,1.169-1.134Z" transform="translate(-450.649 -265.72)" fill="#e8505b"/>
        </g>
        <g id="Group_811" data-name="Group 811" transform="translate(31.897 22.086)">
          <g id="Group_810" data-name="Group 810">
            <path id="Path_883" data-name="Path 883" d="M546.169,394.235a1.769,1.769,0,0,1,.023-.3c.028-.192.047-.479.068-.845a10.67,10.67,0,0,0-.334-3.085,10.3,10.3,0,0,0-2.077-4.072,18.226,18.226,0,0,0-4.41-3.505,21.353,21.353,0,0,1-4.526-3.451,8.183,8.183,0,0,1-1.41-2.059,6.072,6.072,0,0,1-.557-2.1,4.986,4.986,0,0,1,.652-3.041,3.612,3.612,0,0,1,.529-.671,1.668,1.668,0,0,1,.223-.2,6.087,6.087,0,0,0-.689.907,5,5,0,0,0-.583,2.992,6.038,6.038,0,0,0,.565,2.049,8.109,8.109,0,0,0,1.4,2.01,21.7,21.7,0,0,0,4.5,3.411,18.071,18.071,0,0,1,4.443,3.552,10.453,10.453,0,0,1,2.35,7.271c-.034.37-.065.655-.1.847a1.906,1.906,0,0,1-.06.292Z" transform="translate(-532.923 -370.909)" fill="#263138"/>
          </g>
        </g>
        <g id="Group_813" data-name="Group 813" transform="translate(0 9.598)">
          <g id="Group_812" data-name="Group 812">
            <path id="Path_884" data-name="Path 884" d="M359.582,294.23a1.609,1.609,0,0,1-.122.269c-.083.174-.215.427-.4.744a14.718,14.718,0,0,1-1.844,2.5,15.469,15.469,0,0,1-3.565,2.915,12.562,12.562,0,0,1-2.472,1.158,5.915,5.915,0,0,1-2.919.27,3.628,3.628,0,0,1-1.386-.591,4.408,4.408,0,0,1-1.024-1.041,23.215,23.215,0,0,1-1.345-2.37,9.214,9.214,0,0,0-.671-1.057,4.933,4.933,0,0,0-.814-.84,5.186,5.186,0,0,0-1.88-.927,5.316,5.316,0,0,0-3.026.08,8.1,8.1,0,0,0-1.033.461,1.72,1.72,0,0,1,.244-.165,1.986,1.986,0,0,1,.314-.173,3.438,3.438,0,0,1,.45-.192,5.379,5.379,0,0,1,5.026.795,5.013,5.013,0,0,1,.849.863,9.032,9.032,0,0,1,.692,1.073A23.762,23.762,0,0,0,346,300.351a4.232,4.232,0,0,0,.984,1,3.427,3.427,0,0,0,1.316.56,5.746,5.746,0,0,0,2.826-.262,12.622,12.622,0,0,0,2.441-1.132,15.725,15.725,0,0,0,3.555-2.857,15.988,15.988,0,0,0,1.878-2.45c.194-.309.337-.555.43-.723a1.809,1.809,0,0,1,.155-.251Z" transform="translate(-337.079 -294.23)" fill="#445964"/>
          </g>
        </g>
        <g id="Group_815" data-name="Group 815" transform="translate(16.411 10.311)">
          <g id="Group_814" data-name="Group 814">
            <path id="Path_885" data-name="Path 885" d="M444.968,298.61a2.454,2.454,0,0,1,.073.5c.015.161.013.358.02.59-.013.23-.013.493-.055.78a7.983,7.983,0,0,1-1.774,4.112,7.612,7.612,0,0,1-1.871,1.643,12.968,12.968,0,0,1-1.823.894c-.529.223-.954.409-1.244.547a3.559,3.559,0,0,1-.454.208,2.045,2.045,0,0,1,.422-.272c.282-.16.7-.365,1.225-.6a14.463,14.463,0,0,0,1.785-.919,7.746,7.746,0,0,0,1.819-1.616,8.242,8.242,0,0,0,1.787-4.013,12.833,12.833,0,0,0,.093-1.847Z" transform="translate(-437.839 -298.61)" fill="#445964"/>
          </g>
        </g>
        <g id="Group_817" data-name="Group 817" transform="translate(22.494 18.358)">
          <g id="Group_816" data-name="Group 816">
            <path id="Path_886" data-name="Path 886" d="M487.948,373.272a1.882,1.882,0,0,1,0-.3c.01-.2.026-.49.016-.866a12.487,12.487,0,0,0-.451-3.139,13.818,13.818,0,0,0-.777-2.049,12.692,12.692,0,0,0-1.324-2.134,11.73,11.73,0,0,0-1.938-1.977c-.752-.6-1.6-1.145-2.4-1.8a8.384,8.384,0,0,1-1.106-1.07,5.693,5.693,0,0,1-.8-1.267,9.251,9.251,0,0,1-.687-2.73c-.1-.889-.15-1.736-.231-2.523a10.563,10.563,0,0,0-.419-2.148,5.473,5.473,0,0,0-1.638-2.656,5.1,5.1,0,0,0-1-.591,1.824,1.824,0,0,1,.288.1,3.546,3.546,0,0,1,.756.436,5.43,5.43,0,0,1,1.718,2.673,10.654,10.654,0,0,1,.446,2.171c.089.79.14,1.637.247,2.518a9.144,9.144,0,0,0,.682,2.674,6.32,6.32,0,0,0,1.862,2.27c.79.648,1.638,1.192,2.4,1.8a11.837,11.837,0,0,1,1.961,2.016,12.5,12.5,0,0,1,1.327,2.171,13.814,13.814,0,0,1,.764,2.08,11.943,11.943,0,0,1,.4,3.174,7.8,7.8,0,0,1-.051.87,1.945,1.945,0,0,1-.041.3Z" transform="translate(-475.188 -348.015)" fill="#445964"/>
          </g>
        </g>
        <g id="Group_819" data-name="Group 819" transform="translate(22.474 1.932)">
          <g id="Group_818" data-name="Group 818">
            <path id="Path_887" data-name="Path 887" d="M485.133,248.206a6.63,6.63,0,0,0-1.7-.725,6.237,6.237,0,0,0-4.324.586,8.611,8.611,0,0,0-3.16,3.1,13.223,13.223,0,0,0-.655,1.2,3.047,3.047,0,0,1-.228.448,2.415,2.415,0,0,1,.163-.477,9.747,9.747,0,0,1,.607-1.235,8.357,8.357,0,0,1,3.186-3.194,6.18,6.18,0,0,1,4.445-.549,4.687,4.687,0,0,1,1.267.547,3.1,3.1,0,0,1,.306.217c.067.052.1.083.1.088Z" transform="translate(-475.063 -247.163)" fill="#445964"/>
          </g>
        </g>
        <g id="Group_821" data-name="Group 821" transform="translate(23.689 6.028)">
          <g id="Group_820" data-name="Group 820">
            <path id="Path_888" data-name="Path 888" d="M490.782,273.638c-.02.029-.423-.274-1.16-.588a6.73,6.73,0,0,0-6.007.332c-.7.394-1.067.739-1.088.712a1.157,1.157,0,0,1,.246-.254,5.5,5.5,0,0,1,.777-.572,6.427,6.427,0,0,1,6.127-.339,5.621,5.621,0,0,1,.834.482,1.116,1.116,0,0,1,.272.227Z" transform="translate(-482.527 -272.311)" fill="#445964"/>
          </g>
        </g>
      </g>
      <g id="Group_865" data-name="Group 865" transform="translate(0 92.625)">
        <g id="Group_826" data-name="Group 826" transform="translate(31.522 4.52)">
          <g id="Group_823" data-name="Group 823" transform="translate(0.453 0.096)">
            <path id="Path_889" data-name="Path 889" d="M227.923,842.956l-31.633-2.669L223.5,832.34l28.626.047Z" transform="translate(-196.29 -832.34)" fill="#fff"/>
          </g>
          <g id="Group_825" data-name="Group 825">
            <g id="Group_824" data-name="Group 824">
              <path id="Path_890" data-name="Path 890" d="M225.6,842.462s.148-.073.438-.205l1.285-.573,4.891-2.158,17.564-7.705.031.15-28.628-.031.026,0-2.42.707-24.8,7.228-.016-.163,22.862,1.964,6.463.568,1.71.156.44.044c.1.01.15.02.15.02s-.049,0-.148-.006l-.438-.031-1.707-.132-6.461-.523-22.885-1.9-.446-.037.43-.125,24.789-7.248,2.42-.707.013,0h.013c10.569.023,20.393.044,28.628.06h.375l-.344.15-17.6,7.65-4.9,2.117-1.288.551c-.292.124-.443.181-.443.181Z" transform="translate(-193.51 -831.75)" fill="#263138"/>
            </g>
          </g>
        </g>
        <g id="Group_830" data-name="Group 830" transform="translate(0.91 4.735)">
          <g id="Group_827" data-name="Group 827" transform="translate(0.637 0.091)">
            <path id="Path_891" data-name="Path 891" d="M39.9,841.366,9.47,839.12l29.019-5.49h27.5Z" transform="translate(-9.47 -833.63)" fill="#dfdfdf"/>
          </g>
          <g id="Group_829" data-name="Group 829">
            <g id="Group_828" data-name="Group 828">
              <path id="Path_892" data-name="Path 892" d="M36.624,840.9s.161-.057.476-.153l1.388-.423,5.28-1.588,18.926-5.645.023.155c-7.958,0-17.385.008-27.5.015l.018,0-2.614.5L6.211,838.735l-.01-.163,22.017,1.66,6.2.48,1.638.134.42.037.143.016s-.047,0-.142,0l-.42-.024-1.637-.109-6.2-.435L6.187,838.735l-.627-.046.619-.117,26.4-5.005c.9-.169,1.787-.337,2.614-.5l.008,0h.008l27.5.015h.547l-.524.155-18.957,5.585-5.288,1.546-1.391.4c-.314.09-.477.129-.477.129Z" transform="translate(-5.56 -833.07)" fill="#263138"/>
            </g>
          </g>
        </g>
        <g id="Group_834" data-name="Group 834">
          <g id="Group_831" data-name="Group 831" transform="translate(0.603 0.076)">
            <path id="Path_893" data-name="Path 893" d="M35.042,816.951s-.713-6.611-6.2-6.069-12.766,4.227-18.75,4.227l-6.424-.5,13.7-2.821s34-7.181,34-6.956S62.8,802.3,62.4,809.081L35.042,816.95Z" transform="translate(-3.67 -804.465)" fill="#fff"/>
          </g>
          <g id="Group_833" data-name="Group 833">
            <g id="Group_832" data-name="Group 832">
              <path id="Path_894" data-name="Path 894" d="M31.945,816.561s.174-.055.5-.153.824-.243,1.461-.428l5.541-1.614,19.823-5.746-.055.07a4.422,4.422,0,0,0-.243-1.821,3.315,3.315,0,0,0-1.121-1.484,7.173,7.173,0,0,0-3.71-1.171,21.456,21.456,0,0,0-4.126.129l-1.051.134c-.178.023-.352.049-.534.065a.777.777,0,0,1-.155,0l-.033-.008a.116.116,0,0,1-.055-.051c-.008-.041-.026-.052.008.016.052.041.047.021.044.026h-.01l-.06,0-.262.037c-.7.117-1.414.257-2.129.4-5.714,1.129-11.771,2.4-18.048,3.7l-14.17,2.969L.584,814.306l-.01-.165,6.424.5H6.991a25.834,25.834,0,0,0,6.152-.935c1.92-.495,3.715-1.063,5.407-1.575s3.282-.974,4.779-1.295c.748-.16,1.472-.285,2.169-.363a5.9,5.9,0,0,1,2,.062,4.831,4.831,0,0,1,2.8,1.811,7.792,7.792,0,0,1,1.169,2.2,9.8,9.8,0,0,1,.4,1.492,4.606,4.606,0,0,1,.073.524s-.01-.046-.024-.132-.037-.217-.073-.388a10.778,10.778,0,0,0-.42-1.481,7.868,7.868,0,0,0-1.179-2.171,4.756,4.756,0,0,0-2.762-1.766,5.845,5.845,0,0,0-1.972-.051c-.692.081-1.412.208-2.156.371-1.49.326-3.075.792-4.764,1.31s-3.484,1.089-5.409,1.591a25.909,25.909,0,0,1-6.187.953H6.986L.561,814.31l-.591-.046.58-.12,12.979-2.679L27.7,808.493c6.277-1.306,12.334-2.572,18.051-3.7.715-.138,1.423-.277,2.134-.394.717-.016,1.409-.16,2.116-.228a21.615,21.615,0,0,1,4.158-.124,7.319,7.319,0,0,1,3.795,1.21,3.483,3.483,0,0,1,1.171,1.557,4.6,4.6,0,0,1,.249,1.886l0,.055-.054.015-19.9,5.679c-2.384.676-4.254,1.208-5.533,1.572l-1.451.409c-.327.091-.492.134-.492.134Z" transform="translate(0.03 -803.999)" fill="#263138"/>
            </g>
          </g>
        </g>
        <g id="Group_838" data-name="Group 838" transform="translate(42.023 11.422)">
          <g id="Group_835" data-name="Group 835" transform="translate(0 0.005)">
            <path id="Path_895" data-name="Path 895" d="M278.894,875.756c-.575,0-20.914-1.6-20.914-1.6Z" transform="translate(-257.98 -874.16)" fill="#fff"/>
          </g>
          <g id="Group_837" data-name="Group 837">
            <g id="Group_836" data-name="Group 836">
              <path id="Path_896" data-name="Path 896" d="M257.98,874.134a.958.958,0,0,1,.213,0l.611.029,2.243.142c1.914.139,4.516.327,7.393.538l7.393.591,2.24.2.609.064a1.035,1.035,0,0,1,.212.034.967.967,0,0,1-.212,0l-.609-.029-2.241-.142c-1.915-.139-4.52-.327-7.4-.538l-7.394-.591-2.239-.2-.608-.063a1.088,1.088,0,0,1-.212-.034Z" transform="translate(-257.98 -874.129)" fill="#263138"/>
            </g>
          </g>
        </g>
        <g id="Group_842" data-name="Group 842" transform="translate(45.381 10.039)">
          <g id="Group_839" data-name="Group 839" transform="translate(0 0.005)">
            <path id="Path_897" data-name="Path 897" d="M299.514,867.266c-.575,0-20.914-1.6-20.914-1.6Z" transform="translate(-278.6 -865.67)" fill="#fff"/>
          </g>
          <g id="Group_841" data-name="Group 841">
            <g id="Group_840" data-name="Group 840">
              <path id="Path_898" data-name="Path 898" d="M278.6,865.642a.984.984,0,0,1,.213,0l.611.029,2.243.142,7.393.537,7.393.591,2.239.2.609.064a1.07,1.07,0,0,1,.212.034.951.951,0,0,1-.212,0l-.609-.029-2.241-.142-7.4-.537-7.394-.591-2.239-.2-.608-.063A.943.943,0,0,1,278.6,865.642Z" transform="translate(-278.6 -865.637)" fill="#263138"/>
            </g>
          </g>
        </g>
        <g id="Group_846" data-name="Group 846" transform="translate(49.743 8.767)">
          <g id="Group_843" data-name="Group 843" transform="translate(0.003 0.005)">
            <path id="Path_899" data-name="Path 899" d="M327.282,859.132c-.575,0-21.882-1.272-21.882-1.272Z" transform="translate(-305.4 -857.86)" fill="#fff"/>
          </g>
          <g id="Group_845" data-name="Group 845">
            <g id="Group_844" data-name="Group 844">
              <path id="Path_900" data-name="Path 900" d="M305.383,857.833a1.018,1.018,0,0,1,.223-.006l.638.02,2.345.107,7.735.422,7.735.477,2.344.166.637.054a1.046,1.046,0,0,1,.222.031,1.017,1.017,0,0,1-.222.006l-.637-.02-2.345-.107-7.74-.422-7.736-.477-2.344-.166-.637-.054a1.067,1.067,0,0,1-.222-.031Z" transform="translate(-305.38 -857.826)" fill="#263138"/>
            </g>
          </g>
        </g>
        <g id="Group_850" data-name="Group 850" transform="translate(54.111 7.491)">
          <g id="Group_847" data-name="Group 847" transform="translate(0 0.011)">
            <path id="Path_901" data-name="Path 901" d="M354.3,850.858c-.575,0-22.1-.8-22.1-.8Z" transform="translate(-332.2 -850.06)" fill="#fff"/>
          </g>
          <g id="Group_849" data-name="Group 849">
            <g id="Group_848" data-name="Group 848">
              <path id="Path_902" data-name="Path 902" d="M332.2,850a1.046,1.046,0,0,1,.225-.011l.645.007,2.37.055c2.021.067,4.772.156,7.813.254l7.813.309,2.368.116.643.041a1.219,1.219,0,0,1,.225.026,1.048,1.048,0,0,1-.225.011l-.643-.007-2.368-.055c-2.021-.065-4.774-.156-7.816-.254l-7.815-.309-2.368-.116-.643-.041A1.2,1.2,0,0,1,332.2,850Z" transform="translate(-332.2 -849.99)" fill="#263138"/>
            </g>
          </g>
        </g>
        <g id="Group_854" data-name="Group 854" transform="translate(58.476 6.173)">
          <g id="Group_851" data-name="Group 851" transform="translate(0.002 0.059)">
            <path id="Path_903" data-name="Path 903" d="M380.833,842.348c-.575,0-21.823-.088-21.823-.088Z" transform="translate(-359.01 -842.26)" fill="#fff"/>
          </g>
          <g id="Group_853" data-name="Group 853">
            <g id="Group_852" data-name="Group 852">
              <path id="Path_904" data-name="Path 904" d="M359,841.957c0-.052,4.886-.073,10.912-.049s10.912.086,10.912.137-4.885.073-10.912.049S359,842.007,359,841.957Z" transform="translate(-359 -841.898)" fill="#263138"/>
            </g>
          </g>
        </g>
        <g id="Group_856" data-name="Group 856" transform="translate(26.895 4.571)">
          <g id="Group_855" data-name="Group 855">
            <path id="Path_905" data-name="Path 905" d="M165.1,832.333a1.758,1.758,0,0,1,.428-.127,6.177,6.177,0,0,1,1.212-.14,6.861,6.861,0,0,1,6.446,4.093,6.1,6.1,0,0,1,.388,1.156,1.763,1.763,0,0,1,.067.441,13,13,0,0,0-.575-1.542,7.007,7.007,0,0,0-6.326-4.016,13.02,13.02,0,0,0-1.64.137Z" transform="translate(-165.1 -832.063)" fill="#263138"/>
          </g>
        </g>
        <g id="Group_858" data-name="Group 858" transform="translate(30.239 3.686)">
          <g id="Group_857" data-name="Group 857">
            <path id="Path_906" data-name="Path 906" d="M185.63,826.9a1.771,1.771,0,0,1,.428-.127,6.188,6.188,0,0,1,1.212-.14,6.856,6.856,0,0,1,6.446,4.091,6.09,6.09,0,0,1,.388,1.156,1.768,1.768,0,0,1,.067.441,13,13,0,0,0-.575-1.542,7.007,7.007,0,0,0-6.326-4.016A13.037,13.037,0,0,0,185.63,826.9Z" transform="translate(-185.63 -826.633)" fill="#263138"/>
          </g>
        </g>
        <g id="Group_860" data-name="Group 860" transform="translate(33.701 2.991)">
          <g id="Group_859" data-name="Group 859">
            <path id="Path_907" data-name="Path 907" d="M206.89,822.714a1.716,1.716,0,0,1,.42-.132,7.733,7.733,0,0,1,1.187-.192,6.721,6.721,0,0,1,1.787.083,5.621,5.621,0,0,1,2.036.813,6.98,6.98,0,0,1,2.547,3,6.236,6.236,0,0,1,.381,1.142,1.746,1.746,0,0,1,.065.437,13.6,13.6,0,0,0-.565-1.523,7.21,7.21,0,0,0-2.529-2.9,6.125,6.125,0,0,0-3.712-.92c-1,.055-1.609.228-1.616.192Z" transform="translate(-206.89 -822.365)" fill="#263138"/>
          </g>
        </g>
        <g id="Group_862" data-name="Group 862" transform="translate(37.395 2.183)">
          <g id="Group_861" data-name="Group 861">
            <path id="Path_908" data-name="Path 908" d="M229.57,817.794a1.713,1.713,0,0,1,.406-.132,8.335,8.335,0,0,1,1.143-.218,5.5,5.5,0,0,1,1.733.054,5.159,5.159,0,0,1,1.946.849,6.972,6.972,0,0,1,2.419,2.951,6.291,6.291,0,0,1,.363,1.107,1.713,1.713,0,0,1,.062.422,14.343,14.343,0,0,0-.544-1.476,7.236,7.236,0,0,0-2.406-2.852,5.173,5.173,0,0,0-1.875-.834,5.762,5.762,0,0,0-1.686-.09c-.966.09-1.554.254-1.562.22Z" transform="translate(-229.57 -817.399)" fill="#263138"/>
          </g>
        </g>
        <g id="Group_864" data-name="Group 864" transform="translate(41.195 1.451)">
          <g id="Group_863" data-name="Group 863">
            <path id="Path_909" data-name="Path 909" d="M252.9,813.443a1.663,1.663,0,0,1,.384-.135c.251-.073.616-.181,1.077-.279a4.3,4.3,0,0,1,1.661-.063,4.547,4.547,0,0,1,1.837.875,6.963,6.963,0,0,1,2.257,2.878,6.157,6.157,0,0,1,.339,1.062,1.587,1.587,0,0,1,.057.406c-.036.008-.13-.568-.516-1.414a7.245,7.245,0,0,0-2.248-2.78,4.552,4.552,0,0,0-1.759-.855,4.365,4.365,0,0,0-1.6.025c-.914.173-1.479.316-1.485.285Z" transform="translate(-252.9 -812.911)" fill="#263138"/>
          </g>
        </g>
      </g>
      <g id="Group_882" data-name="Group 882" transform="translate(28.806 71.529)">
        <g id="Group_866" data-name="Group 866" transform="translate(10.651 12.874)">
          <path id="Path_910" data-name="Path 910" d="M242.23,753.652a13.367,13.367,0,0,0,2.924-.129,2.8,2.8,0,0,1,2.593,1.041,2.315,2.315,0,0,1,0,2.125,6.842,6.842,0,0,1-1.331,1.754l-4.184-4.79Z" transform="translate(-242.23 -753.518)" fill="#ffbd9c"/>
        </g>
        <g id="Group_873" data-name="Group 873">
          <g id="Group_871" data-name="Group 871">
            <g id="Group_869" data-name="Group 869">
              <g id="Group_867" data-name="Group 867" transform="translate(0.482 0.961)">
                <path id="Path_911" data-name="Path 911" d="M196.815,699.937l-15.168-19.431a.347.347,0,0,0-.485-.06l-1.235.964a.347.347,0,0,0-.06.485l15.168,19.431a.347.347,0,0,0,.485.06l1.235-.964A.347.347,0,0,0,196.815,699.937Z" transform="translate(-179.793 -680.373)" fill="#263138"/>
              </g>
              <g id="Group_868" data-name="Group 868">
                <path id="Path_912" data-name="Path 912" d="M178.818,676.01l-1.151-1.476a.155.155,0,0,0-.218-.026l-.554.433a.155.155,0,0,0-.026.218l1.153,1.476a.155.155,0,0,0,.218.026l.554-.433a.155.155,0,0,0,.026-.218Z" transform="translate(-176.835 -674.475)" fill="#263138"/>
              </g>
            </g>
            <g id="Group_870" data-name="Group 870" transform="translate(15.381 20.524)">
              <path id="Path_913" data-name="Path 913" d="M271.27,801.41l2.492,1.917.256-.2-.728-2.637Z" transform="translate(-271.27 -800.49)" fill="#263138"/>
            </g>
          </g>
          <g id="Group_872" data-name="Group 872" transform="translate(0.466 1.472)">
            <path id="Path_914" data-name="Path 914" d="M184.949,692.137a.048.048,0,0,1-.036-.018l-4.8-6.153a1.615,1.615,0,0,1,.091-2.264l.231-.179a.044.044,0,0,1,.062.008.046.046,0,0,1-.008.063l-.231.179a1.528,1.528,0,0,0-.077,2.139l4.8,6.153a.046.046,0,0,1-.008.063.045.045,0,0,1-.028.01Z" transform="translate(-179.696 -683.514)" fill="#263138"/>
          </g>
        </g>
        <g id="Group_874" data-name="Group 874" transform="translate(0.078 9.895)">
          <path id="Path_915" data-name="Path 915" d="M185.695,736.414s-1.56-1.326-2.73-1.169-5.069,4.367-5.225,6.863-1.169,3.977.624,4.992,4.6,2.651,6.473,2.106c0,0,3.3.376,3.673-.508,0,0,2.9.927,3.112-1.052,0,0,2.077-.327,1.95-1.6s-7.876-9.632-7.876-9.632Z" transform="translate(-177.314 -735.231)" fill="#ffbd9c"/>
        </g>
        <g id="Group_881" data-name="Group 881" transform="translate(2.334 14.641)">
          <g id="Group_876" data-name="Group 876" transform="translate(4.111)">
            <g id="Group_875" data-name="Group 875">
              <path id="Path_916" data-name="Path 916" d="M224.347,772.033c-.036.037-1.842-1.65-4.034-3.766s-3.94-3.863-3.906-3.9,1.842,1.65,4.034,3.767,3.94,3.863,3.9,3.9Z" transform="translate(-216.407 -764.366)" fill="#eb996e"/>
            </g>
          </g>
          <g id="Group_878" data-name="Group 878" transform="translate(1.777 3.047)">
            <g id="Group_877" data-name="Group 877">
              <path id="Path_917" data-name="Path 917" d="M209.238,788.749a1.365,1.365,0,0,1-.337-.132,8.825,8.825,0,0,1-.871-.461,19.016,19.016,0,0,1-2.627-1.915c-.966-.826-1.793-1.622-2.388-2.2l-.7-.692c-.163-.166-.249-.262-.239-.272a1.374,1.374,0,0,1,.29.218c.178.15.43.371.739.648.619.554,1.458,1.334,2.419,2.155a24.615,24.615,0,0,0,2.575,1.946c.7.448,1.155.676,1.14.705Z" transform="translate(-202.075 -783.075)" fill="#eb996e"/>
            </g>
          </g>
          <g id="Group_880" data-name="Group 880" transform="translate(0 5.423)">
            <g id="Group_879" data-name="Group 879">
              <path id="Path_918" data-name="Path 918" d="M196.523,801.334a3.638,3.638,0,0,1-.883-.371,17.536,17.536,0,0,1-1.977-1.2,19.581,19.581,0,0,1-1.824-1.419,3.777,3.777,0,0,1-.673-.682,6.685,6.685,0,0,1,.757.582c.461.365,1.109.855,1.845,1.366s1.425.94,1.933,1.235A7.349,7.349,0,0,1,196.523,801.334Z" transform="translate(-191.165 -797.663)" fill="#eb996e"/>
            </g>
          </g>
        </g>
      </g>
      <g id="Group_918" data-name="Group 918" transform="translate(56.23 82.645)">
        <g id="Group_883" data-name="Group 883" transform="translate(14.393)">
          <path id="Path_919" data-name="Path 919" d="M473.348,743.857a11.886,11.886,0,0,0-7.42-.9c-4.253.829-13.168,2.954-16.248,3.309s-16.1,3.262-16.1,3.262l1.37,7.733,42.474-.091c.775-4.66,2.209-10.442-4.077-13.31Z" transform="translate(-433.58 -742.727)" fill="#ffbd9c"/>
        </g>
        <g id="Group_917" data-name="Group 917" transform="translate(0 1.596)">
          <g id="Group_916" data-name="Group 916">
            <g id="Group_885" data-name="Group 885" transform="translate(3.837 2.173)">
              <g id="Group_884" data-name="Group 884">
                <path id="Path_920" data-name="Path 920" d="M377.845,776.63h2.85l4.593-9.033c-.59-.1-12.854-1.914-13.577-1.715l-2.941,10.45S377.583,776.63,377.845,776.63Z" transform="translate(-368.77 -765.867)" fill="#ffbd9c"/>
              </g>
            </g>
            <g id="Group_915" data-name="Group 915">
              <g id="Group_914" data-name="Group 914">
                <g id="Group_911" data-name="Group 911" transform="translate(0 2.288)">
                  <g id="Group_910" data-name="Group 910">
                    <g id="Group_888" data-name="Group 888" transform="translate(3.101 7.842)">
                      <g id="Group_887" data-name="Group 887">
                        <g id="Group_886" data-name="Group 886">
                          <path id="Path_921" data-name="Path 921" d="M365.674,817.4c.01.018.081.033.2.047,1.013.111,5.691-.174,5.691-.174.213-.6-.191-2.419-.774-2.525s-5.56.23-5.56.23-.783.1-.979,1.42c-.12.814,1.419,1,1.419,1Z" transform="translate(-364.249 -814.723)" fill="#ffbd9c"/>
                        </g>
                      </g>
                    </g>
                    <g id="Group_891" data-name="Group 891" transform="translate(1.521 5.183)">
                      <g id="Group_890" data-name="Group 890">
                        <g id="Group_889" data-name="Group 889">
                          <path id="Path_922" data-name="Path 922" d="M355.974,801.067c.01.018.081.032.2.047,1.013.111,5.435.062,5.626-.477.213-.6-.125-2.116-.708-2.223s-5.56.23-5.56.23-.784.1-.979,1.42c-.12.814,1.419,1,1.419,1Z" transform="translate(-354.549 -798.393)" fill="#ffbd9c"/>
                        </g>
                      </g>
                    </g>
                    <g id="Group_894" data-name="Group 894" transform="translate(0.736 2.583)">
                      <g id="Group_893" data-name="Group 893">
                        <g id="Group_892" data-name="Group 892">
                          <path id="Path_923" data-name="Path 923" d="M351.154,785.107c.01.018.081.032.2.047,1.013.111,5.435.062,5.626-.477.213-.6-.125-2.117-.708-2.223s-5.56.23-5.56.23-.784.1-.979,1.42c-.121.814,1.419,1,1.419,1Z" transform="translate(-349.729 -782.433)" fill="#ffbd9c"/>
                        </g>
                      </g>
                    </g>
                    <g id="Group_897" data-name="Group 897">
                      <g id="Group_896" data-name="Group 896">
                        <g id="Group_895" data-name="Group 895">
                          <path id="Path_924" data-name="Path 924" d="M346.634,769.247c.01.018.081.033.2.047,1.013.111,5.435.062,5.626-.477.213-.6-.125-2.117-.708-2.223s-5.56.23-5.56.23-.783.1-.979,1.42C345.095,769.058,346.634,769.247,346.634,769.247Z" transform="translate(-345.209 -766.573)" fill="#ffbd9c"/>
                        </g>
                      </g>
                    </g>
                    <g id="Group_901" data-name="Group 901" transform="translate(4.074 7.747)">
                      <g id="Group_900" data-name="Group 900">
                        <g id="Group_899" data-name="Group 899">
                          <g id="Group_898" data-name="Group 898">
                            <path id="Path_925" data-name="Path 925" d="M374.5,814.228a8.716,8.716,0,0,1-2.153.2,8.2,8.2,0,0,1-2.129-.077,8.705,8.705,0,0,1,2.153-.2A8.192,8.192,0,0,1,374.5,814.228Z" transform="translate(-370.22 -814.139)" fill="#eb996e"/>
                          </g>
                        </g>
                      </g>
                    </g>
                    <g id="Group_905" data-name="Group 905" transform="translate(2.249 5.156)">
                      <g id="Group_904" data-name="Group 904">
                        <g id="Group_903" data-name="Group 903">
                          <g id="Group_902" data-name="Group 902">
                            <path id="Path_926" data-name="Path 926" d="M365.15,798.3a33.826,33.826,0,0,1-6.13.194,17.108,17.108,0,0,1,3.062-.236,16.844,16.844,0,0,1,3.07.043Z" transform="translate(-359.02 -798.23)" fill="#eb996e"/>
                          </g>
                        </g>
                      </g>
                    </g>
                    <g id="Group_909" data-name="Group 909" transform="translate(2.039 2.506)">
                      <g id="Group_908" data-name="Group 908">
                        <g id="Group_907" data-name="Group 907">
                          <g id="Group_906" data-name="Group 906">
                            <path id="Path_927" data-name="Path 927" d="M363.86,782.034a33.812,33.812,0,0,1-6.13.194,17.077,17.077,0,0,1,3.062-.236,16.859,16.859,0,0,1,3.07.042Z" transform="translate(-357.73 -781.961)" fill="#eb996e"/>
                          </g>
                        </g>
                      </g>
                    </g>
                  </g>
                </g>
                <g id="Group_913" data-name="Group 913" transform="translate(5.074)">
                  <g id="Group_912" data-name="Group 912">
                    <path id="Path_928" data-name="Path 928" d="M386.554,755.754s-8.349-3.712-8.87-3.176a12.274,12.274,0,0,0-1.324,2.259Z" transform="translate(-376.36 -752.525)" fill="#ffbd9c"/>
                  </g>
                </g>
              </g>
            </g>
          </g>
        </g>
      </g>
    </g>
  </g>
</svg>
