<svg xmlns="http://www.w3.org/2000/svg" width="115.443" height="114.569" viewBox="0 0 115.443 114.569">
  <g id="Layer_x0020_1" transform="translate(-0.01 0.001)">
    <g id="_2180009370208" transform="translate(1.96 80.75)">
      <path id="Path_670" data-name="Path 670" d="M28.057,464.27c-1.708-4.9-3.436-9.835-6.138-14.261s-6.487-8.362-11.289-10.32c1.638,6.226,3.251,12.788,7.467,17.651,2.705,3.118,6.272,5.069,9.958,6.929Z" transform="translate(-10.63 -439.69)" fill="#8cc63f"/>
      <path id="Path_671" data-name="Path 671" d="M46.844,484.6c-1.085-2.028-2.2-4.039-3.388-6.007-.659-1.091-1.339-2.171-2.048-3.229-1.521-2.274-3.254-4.529-5.668-5.816.957,2.527,1.914,5.054,2.975,7.539a27.933,27.933,0,0,0,2.992,5.594,21.632,21.632,0,0,0,3.609,3.745c.67.56,1.365,1.095,2.07,1.612a.3.3,0,0,0,.029.022q.567.295,1.14.584-.421-1.2-.847-2.41C47.422,485.691,47.136,485.146,46.844,484.6Z" transform="translate(-31.128 -464.066)" fill="#7cb331"/>
    </g>
    <g id="_2180009374720" transform="translate(0.01 95.463)">
      <path id="Path_672" data-name="Path 672" d="M17.562,528.418a47.649,47.649,0,0,0-7.927-6.191A15.982,15.982,0,0,0,.01,519.88c2.869,3.027,5.829,6.252,9.739,7.7a20.164,20.164,0,0,0,7.814.836Z" transform="translate(-0.01 -519.801)" fill="#8cc63f"/>
      <path id="Path_673" data-name="Path 673" d="M34.555,534.473c-1.247-.814-2.509-1.609-3.8-2.358q-1.072-.623-2.169-1.2a10.894,10.894,0,0,0-5.03-1.539c1.33,1.137,2.661,2.275,4.039,3.357a17.993,17.993,0,0,0,3.442,2.246,13.968,13.968,0,0,0,3.216,1c.556.11,1.117.2,1.677.272a.108.108,0,0,0,.024,0c.275-.007.553-.015.83-.024q-.614-.554-1.23-1.106-.5-.331-1-.659Z" transform="translate(-19.235 -527.619)" fill="#7cb331"/>
    </g>
    <g id="_2180009377552" transform="translate(9.871 74.534)">
      <path id="Path_674" data-name="Path 674" d="M59.921,424.384a47.491,47.491,0,0,0-1.074-10,15.978,15.978,0,0,0-5.016-8.544c-.176,4.167-.432,8.536,1.251,12.353a20.159,20.159,0,0,0,4.839,6.193Z" transform="translate(-53.703 -405.84)" fill="#8cc63f"/>
      <path id="Path_675" data-name="Path 675" d="M68.236,440.552c-.285-1.462-.591-2.92-.949-4.367-.2-.8-.415-1.6-.65-2.391a10.882,10.882,0,0,0-2.4-4.683c.11,1.747.219,3.495.4,5.236a18.092,18.092,0,0,0,.782,4.035,14,14,0,0,0,1.519,3.006c.309.476.635.938.973,1.394a.2.2,0,0,1,.013.02c.2.193.395.388.6.579-.02-.551-.04-1.1-.064-1.653-.073-.393-.147-.784-.222-1.177Z" transform="translate(-62.305 -424.836)" fill="#7cb331"/>
    </g>
    <g id="_2180009377984" transform="translate(74.688 80.39)">
      <path id="Path_676" data-name="Path 676" d="M406.968,456.005a47.622,47.622,0,0,0,5.421-8.472,15.979,15.979,0,0,0,1.436-9.8c-2.744,3.141-5.679,6.387-6.757,10.417A20.161,20.161,0,0,0,406.968,456.005Z" transform="translate(-406.63 -437.73)" fill="#8cc63f"/>
      <path id="Path_677" data-name="Path 677" d="M409.559,473.473c.694-1.319,1.368-2.648,1.993-4q.521-1.124.988-2.272a10.9,10.9,0,0,0,1.062-5.151c-1.008,1.431-2.017,2.863-2.964,4.334a17.959,17.959,0,0,0-1.914,3.636,14.024,14.024,0,0,0-.7,3.3c-.057.564-.092,1.129-.114,1.7,0,.007,0,.017,0,.024.033.274.066.549.1.825q.493-.664.984-1.33c.189-.353.376-.7.562-1.058Z" transform="translate(-407.675 -457.584)" fill="#7cb331"/>
    </g>
    <g id="_2180009378656" transform="translate(74.702 75.107)">
      <path id="Path_678" data-name="Path 678" d="M408.5,425.711a40.906,40.906,0,0,0,2.466-8.3,13.764,13.764,0,0,0-1.148-8.452c-1.522,3.251-3.177,6.637-3.107,10.226A17.364,17.364,0,0,0,408.5,425.711Z" transform="translate(-406.708 -408.96)" fill="#8cc63f"/>
      <path id="Path_679" data-name="Path 679" d="M413.514,441.141c.259-1.256.5-2.516.694-3.783q.163-1.055.277-2.114a9.389,9.389,0,0,0-.349-4.514c-.494,1.423-.986,2.848-1.42,4.292a15.576,15.576,0,0,0-.718,3.464,12.039,12.039,0,0,0,.208,2.893c.086.479.193.957.31,1.429a.078.078,0,0,1,0,.02c.092.219.185.439.281.657.167-.444.334-.889.5-1.335q.107-.5.213-1.008Z" transform="translate(-411.012 -426.732)" fill="#7cb331"/>
    </g>
    <path id="Path_680" data-name="Path 680" d="M375.656,159.36a22.611,22.611,0,0,0-8.165-6.7c-.619,8.222-.927,16.5-.747,24.738a28.992,28.992,0,0,0,6.23-4.112,12.938,12.938,0,0,0,3.989-6.213,9.282,9.282,0,0,0-1.3-7.713Z" transform="translate(-299.34 -124.624)" fill="#1c75bc"/>
    <path id="Path_681" data-name="Path 681" d="M369.918,153.81a2.576,2.576,0,0,0-.5.931.084.084,0,0,1-.006.02q-.1,1.4-.187,2.8-.036,4.89-.073,9.78a12.964,12.964,0,0,0,.6,4.907,8.621,8.621,0,0,0,1.23,2.077c.277.36.994,1.524,1.576,1.376.509-.13.681-1.748.823-2.213q.41-1.35.907-2.67a4.382,4.382,0,0,0,.365-1.416,4.179,4.179,0,0,0-.294-1.394,36.158,36.158,0,0,1-1.972-8.026,31.481,31.481,0,0,1-.007-4.709,22.387,22.387,0,0,0-2.461-1.456Z" transform="translate(-301.348 -125.563)" fill="#155e99"/>
    <g id="_2180009386528" transform="translate(7.514 -0.001)">
      <path id="Path_682" data-name="Path 682" d="M121.474,66.7s-2.749-.222-5.264,3.638c6.558-1.493,10.092-.255,10.092-.255s-1.86-3.561-4.828-3.385Z" transform="translate(-102.373 -54.446)" fill="#808285"/>
      <path id="Path_683" data-name="Path 683" d="M166.158,12.7a21.545,21.545,0,0,1-2.887-4.387c1.177-1.036,1.3-3.095.828-4.591a5.36,5.36,0,0,0-3.17-3.264,7.513,7.513,0,0,0-4.623-.18,6.3,6.3,0,0,0-4.343,3.387,3.833,3.833,0,0,0,1.642,4.887A21.554,21.554,0,0,1,150,15.078c4.588.039,9.175.077,13.761-.055a4.011,4.011,0,0,0,2.16-.479,1.24,1.24,0,0,0,.237-1.842Zm-5.381-6.32h0a3.118,3.118,0,0,1-2.907.3,2.4,2.4,0,0,1-1.32-1.164,2.389,2.389,0,0,1-.066-1.671,2.913,2.913,0,0,1,.992-1.429c.626-.494,3.783-1.335,4.507,1.242a2.683,2.683,0,0,1-1.2,2.724Z" transform="translate(-129.958 0.001)" fill="#bcbdbf"/>
      <path id="Path_684" data-name="Path 684" d="M153.814,18.459a37.683,37.683,0,0,1,2.417-6.523A4.547,4.547,0,0,1,153.1,7.781a4.557,4.557,0,0,1,1.87-3.671,5.783,5.783,0,0,0-3,2.907,3.833,3.833,0,0,0,1.642,4.887A21.555,21.555,0,0,1,150,18.431q1.909.017,3.816.028Z" transform="translate(-129.958 -3.355)" fill="#d1d3d4"/>
      <g id="Group_466" data-name="Group 466" transform="translate(0 13.715)">
        <path id="Path_685" data-name="Path 685" d="M52.96,74.69h59.172l7.561,86.251L61.241,167.99Z" transform="translate(-50.74 -74.688)" fill="#1c75bc"/>
        <path id="Path_686" data-name="Path 686" d="M275.592,83.69s5.339-1.978,3.609-9.01h-7.4Z" transform="translate(-229.389 -74.68)" fill="#155e99"/>
        <path id="Path_687" data-name="Path 687" d="M43.09,74.69l-2.22,1.618L49.2,167.13l2.171.859Z" transform="translate(-40.87 -74.688)" fill="#509ad6"/>
        <path id="Path_688" data-name="Path 688" d="M142,172.509l-5.212-59.458-4.167-23.159L80.3,88.86s-.567,68.114,10.1,89.871Z" transform="translate(-73.052 -86.256)" fill="#155e99"/>
      </g>
      <path id="Path_689" data-name="Path 689" d="M85.94,93.736q26.386-.474,52.773-.946a614.053,614.053,0,0,0,9.853,77.449,335.738,335.738,0,0,0-52.468,6.29C91.281,159.032,85.94,109.256,85.94,93.736Z" transform="translate(-77.663 -75.749)" fill="#fff"/>
      <path id="Path_690" data-name="Path 690" d="M280.12,93.97l2.264,5.379A6.583,6.583,0,0,0,286.3,93.86Z" transform="translate(-236.181 -76.622)" fill="#e6e6e8"/>
      <path id="Path_691" data-name="Path 691" d="M175.77,55.453l11.181-.509a21.661,21.661,0,0,1-1.967-2.834,16.1,16.1,0,0,0-3.747.771,29.116,29.116,0,0,0-5.467,2.573Z" transform="translate(-150.995 -42.54)" fill="#808285"/>
      <g id="Group_467" data-name="Group 467" transform="translate(19.1 11.353)">
        <path id="Path_692" data-name="Path 692" d="M147.753,73.171l24.22.017c1.275-2.762.72-6.079-.3-9.078a2.615,2.615,0,0,0-2.235-1.772,107.716,107.716,0,0,0-24.571.38C147.568,64.137,147.994,69.281,147.753,73.171Z" transform="translate(-144.87 -61.814)" fill="#bcbdbf"/>
        <path id="Path_693" data-name="Path 693" d="M183.047,86.77,158,86.84a19.857,19.857,0,0,1,.529,4.733l24.79-.13A12.626,12.626,0,0,0,183.047,86.77Z" transform="translate(-155.589 -82.187)" fill="#d1d3d4"/>
        <path id="Path_694" data-name="Path 694" d="M199.241,64.819a11.415,11.415,0,0,0-4.356.724c-.242.107-.52.3-.47.562.042.226.3.329.525.388a31.877,31.877,0,0,0,10.47.6c.687-.051,4.206.05,4.057-.885-.2-1.249-3.258-1.1-4.119-1.177a55.519,55.519,0,0,0-6.1-.209Z" transform="translate(-185.31 -64.256)" fill="#d1d3d4"/>
        <path id="Path_695" data-name="Path 695" d="M173.767,69.056c0,.362-.758.656-1.693.656s-1.693-.294-1.693-.656.758-.656,1.693-.656S173.767,68.694,173.767,69.056Z" transform="translate(-165.695 -67.191)" fill="#d1d3d4"/>
      </g>
      <g id="Group_468" data-name="Group 468" transform="translate(47.438 30.38)">
        <path id="Path_696" data-name="Path 696" d="M310.588,177.042l-9.585.485L299.17,165.9l9.585-.485Zm-8.6-.731h0l7.243-.367-1.467-9.306-7.243.367Z" transform="translate(-299.17 -165.42)" fill="#bcbdbf"/>
      </g>
      <g id="Group_469" data-name="Group 469" transform="translate(50.415 50.643)">
        <path id="Path_697" data-name="Path 697" d="M326.746,287.381l-9.587.443-1.78-11.631,9.587-.443,1.78,11.631Zm-8.593-.771h0l7.245-.334-1.425-9.313-7.245.334Z" transform="translate(-315.38 -275.75)" fill="#bcbdbf"/>
      </g>
      <g id="Group_470" data-name="Group 470" transform="translate(53.978 70.869)">
        <path id="Path_698" data-name="Path 698" d="M336.763,398.089l-1.983-11.6,9.578-.612,1.983,11.6Zm-.617-10.516h0l1.589,9.286,7.238-.461-1.589-9.286Z" transform="translate(-334.78 -385.88)" fill="#bcbdbf"/>
      </g>
      <g id="Group_475" data-name="Group 475" transform="translate(12.446 32.435)">
        <g id="Group_471" data-name="Group 471" transform="translate(0.67 2.556)">
          <path id="Path_699" data-name="Path 699" d="M113.016,192.951a.728.728,0,0,1-.022-1.456l30.2-.966a.729.729,0,1,1,.046,1.456l-30.2.966h-.024Z" transform="translate(-112.288 -190.529)" fill="#808285"/>
        </g>
        <g id="Group_472" data-name="Group 472" transform="translate(1.254 5.614)">
          <path id="Path_700" data-name="Path 700" d="M116.2,209.6a.728.728,0,0,1-.022-1.456l30.2-.966a.729.729,0,0,1,.046,1.456l-30.2.966Z" transform="translate(-115.468 -207.178)" fill="#808285"/>
        </g>
        <g id="Group_473" data-name="Group 473" transform="translate(1.838 9.153)">
          <path id="Path_701" data-name="Path 701" d="M119.376,228.388a.728.728,0,0,1-.022-1.456l15.1-.483a.729.729,0,1,1,.046,1.456l-15.1.483Z" transform="translate(-118.648 -226.448)" fill="#808285"/>
        </g>
        <g id="Group_474" data-name="Group 474">
          <path id="Path_702" data-name="Path 702" d="M109.366,178.548a.728.728,0,0,1-.022-1.456l15.1-.483a.729.729,0,0,1,.046,1.456l-15.1.483Z" transform="translate(-108.638 -176.608)" fill="#8cc63f"/>
        </g>
      </g>
      <g id="Group_480" data-name="Group 480" transform="translate(16.34 53.416)">
        <g id="Group_476" data-name="Group 476" transform="translate(0.861 1.572)">
          <path id="Path_703" data-name="Path 703" d="M135.259,303.706a.728.728,0,0,1-.066-1.453l30.081-2.839a.729.729,0,0,1,.136,1.451L135.328,303.7c-.024,0-.046,0-.07,0Z" transform="translate(-134.532 -299.41)" fill="#808285"/>
        </g>
        <g id="Group_477" data-name="Group 477" transform="translate(1.635 4.588)">
          <path id="Path_704" data-name="Path 704" d="M139.469,320.127a.728.728,0,0,1-.066-1.453l30.081-2.839a.729.729,0,0,1,.136,1.451l-30.081,2.839c-.024,0-.046,0-.07,0Z" transform="translate(-138.742 -315.831)" fill="#808285"/>
        </g>
        <g id="Group_478" data-name="Group 478" transform="translate(2.404 9.022)">
          <path id="Path_705" data-name="Path 705" d="M143.66,342.851a.728.728,0,0,1-.068-1.453l15.039-1.42a.729.729,0,0,1,.136,1.451l-15.039,1.42c-.024,0-.046,0-.07,0Z" transform="translate(-142.931 -339.976)" fill="#808285"/>
        </g>
        <g id="Group_479" data-name="Group 479">
          <path id="Path_706" data-name="Path 706" d="M130.57,293.727a.728.728,0,0,1-.068-1.453l15.039-1.42a.729.729,0,1,1,.136,1.451l-15.039,1.42c-.024,0-.046,0-.07,0Z" transform="translate(-129.842 -290.851)" fill="#8cc63f"/>
        </g>
      </g>
      <g id="Group_485" data-name="Group 485" transform="translate(19.861 74.502)">
        <g id="Group_481" data-name="Group 481" transform="translate(0.909 1.313)">
          <path id="Path_707" data-name="Path 707" d="M154.694,417.6a.729.729,0,0,1-.079-1.453l30.029-3.331a.729.729,0,0,1,.16,1.449L154.775,417.6A.611.611,0,0,1,154.694,417.6Z" transform="translate(-153.966 -412.814)" fill="#808285"/>
        </g>
        <g id="Group_482" data-name="Group 482" transform="translate(1.73 4.314)">
          <path id="Path_708" data-name="Path 708" d="M159.164,433.943a.729.729,0,0,1-.079-1.453l30.029-3.332a.729.729,0,1,1,.16,1.449l-30.029,3.332A.61.61,0,0,1,159.164,433.943Z" transform="translate(-158.436 -429.154)" fill="#808285"/>
        </g>
        <g id="Group_483" data-name="Group 483" transform="translate(2.551 8.981)">
          <path id="Path_709" data-name="Path 709" d="M163.634,457.687a.729.729,0,0,1-.079-1.453l15.016-1.666a.729.729,0,0,1,.16,1.449l-15.016,1.666A.606.606,0,0,1,163.634,457.687Z" transform="translate(-162.906 -454.564)" fill="#808285"/>
        </g>
        <g id="Group_484" data-name="Group 484">
          <path id="Path_710" data-name="Path 710" d="M149.744,408.786a.729.729,0,0,1-.079-1.453l15.016-1.666a.729.729,0,1,1,.16,1.449l-15.016,1.666A.606.606,0,0,1,149.744,408.786Z" transform="translate(-149.016 -405.662)" fill="#8cc63f"/>
        </g>
      </g>
      <path id="Path_711" data-name="Path 711" d="M296.57,157.55a12.911,12.911,0,0,1,5.592,3.273,31.857,31.857,0,0,1,6.779-7.073,37.421,37.421,0,0,0-6.286,10.819,20.731,20.731,0,0,0-6.084-7.017Z" transform="translate(-249.61 -125.513)" fill="#38b549"/>
      <path id="Path_712" data-name="Path 712" d="M312.64,273.02a12.911,12.911,0,0,1,5.592,3.273,31.857,31.857,0,0,1,6.779-7.073,37.421,37.421,0,0,0-6.286,10.819,20.731,20.731,0,0,0-6.084-7.017Z" transform="translate(-262.728 -219.777)" fill="#38b549"/>
      <path id="Path_713" data-name="Path 713" d="M332.57,380.94a12.911,12.911,0,0,1,5.592,3.273,31.857,31.857,0,0,1,6.779-7.073,37.421,37.421,0,0,0-6.286,10.819,20.731,20.731,0,0,0-6.084-7.017Z" transform="translate(-278.998 -307.877)" fill="#38b549"/>
    </g>
    <g id="_2142277235840" transform="translate(68.35 32.609)">
      <path id="Path_714" data-name="Path 714" d="M401.364,566.76l-5.827,2.828c-.228.11-.492.281-.472.534.024.307.424.4.731.411l8.239.294v-3.342a13.636,13.636,0,0,1-2.67-.725Z" transform="translate(-390.85 -495.281)" fill="#082842"/>
      <path id="Path_715" data-name="Path 715" d="M512.674,591.955c-.558,1.093-3.126,2.149-4.8,2.962-.2.1-.426.242-.408.461.022.264.365.345.632.354,1.712.061,4.441.123,6.718.184a1.414,1.414,0,0,0,1.306-2.039l-1.309-2.847C514.079,590.9,513.362,592.24,512.674,591.955Z" transform="translate(-482.608 -515.088)" fill="#082842"/>
      <path id="Path_716" data-name="Path 716" d="M479.532,318.68c-3.093,1.062-6.079,1.014-8.922,1.4-.5.7-2.421,3.526-2.92,4.224l8.018,1.006a3.748,3.748,0,0,0,1.3.011,2.9,2.9,0,0,0,1.55-1.115A6.306,6.306,0,0,0,479.532,318.68Z" transform="translate(-450.138 -292.762)" fill="#082842"/>
      <path id="Path_717" data-name="Path 717" d="M444.616,284.853c1.039-1.59,2.474-2.694,3.925-2.476-.118-.018-1.24,2.593-1.412,2.891a19.209,19.209,0,0,1-1.767,2.562,15.353,15.353,0,0,1-1.985,2.022c-.206.173-.766.823-.942.3-.112-.331.362-1.339.47-1.642a17.331,17.331,0,0,1,1.712-3.657Z" transform="translate(-429.507 -263.104)" fill="#082842"/>
      <g id="Group_487" data-name="Group 487">
        <g id="Group_486" data-name="Group 486" transform="translate(0.002)">
          <path id="Path_718" data-name="Path 718" d="M453.763,184.372l-32.556,28.819-5.166-5.835L448.6,178.537a3.9,3.9,0,0,1,5.5.334h0A3.9,3.9,0,0,1,453.763,184.372Z" transform="translate(-407.976 -177.558)" fill="#fbaf3f"/>
          <path id="Path_719" data-name="Path 719" d="M380.2,339.8l-8.066,12.345,13.23-6.511Z" transform="translate(-372.13 -310.004)" fill="#f98c6e"/>
          <path id="Path_720" data-name="Path 720" d="M456.318,208.065l-29.79,26.369-2.077-2.345,29.79-26.369Z" transform="translate(-414.841 -200.548)" fill="#9c671c"/>
          <path id="Path_721" data-name="Path 721" d="M375.023,382.91l-2.893,4.428L376.876,385Z" transform="translate(-372.13 -345.196)" fill="#38b549"/>
          <path id="Path_722" data-name="Path 722" d="M578.6,178.537l-3.311,2.931,5.166,5.835,3.311-2.931a3.9,3.9,0,0,0-5.166-5.835Z" transform="translate(-537.979 -177.558)" fill="#f98c6e"/>
          <path id="Path_723" data-name="Path 723" d="M572.991,202.055l-2.345,2.077L565.48,198.3l2.347-2.077Z" transform="translate(-529.97 -192.793)" fill="#fff"/>
        </g>
        <path id="Path_724" data-name="Path 724" d="M417.909,190.21a3.892,3.892,0,0,0,.334-5.5L372.12,225.538l13.23-6.509,32.556-28.819Z" transform="translate(-372.12 -183.397)" fill="rgba(35,31,31,0.25)"/>
      </g>
      <path id="Path_725" data-name="Path 725" d="M521.862,301.716c.751,1.341.81,5.012.465,6.509,1.148.193,2.444-1.629,3.592-1.436a9.661,9.661,0,0,1-.362-4.239,1.853,1.853,0,0,0-.132-1.372,1.428,1.428,0,0,0-1.653-.211c-.557.217-1.315.793-1.912.747Z" transform="translate(-494.36 -278.173)" fill="#e6795b"/>
      <path id="Path_726" data-name="Path 726" d="M439.439,420.1s-7.194,6.7-8.749,12.044-3.75,14.378-3.75,14.378l4.009.786,4.112-12.736,6.509-6.8s.3-6.7-2.132-7.673Z" transform="translate(-416.872 -375.556)" fill="#082842"/>
      <path id="Path_727" data-name="Path 727" d="M471.808,420.11a52.923,52.923,0,0,0-5.218,5.781c.391,2.051.859,4.09,1.32,6.09q.193.843.4,1.682l5.629-5.881S474.241,421.085,471.808,420.11Z" transform="translate(-449.24 -375.564)" fill="#051c2d"/>
      <path id="Path_728" data-name="Path 728" d="M500.951,338.61c-.365.972-3.091,2.2-4.132,2.4a2.83,2.83,0,0,1-2.461-.869,3.638,3.638,0,0,1-1.269-2.318c-.18-13.148,2.259-15.915,4.476-18.1a3.715,3.715,0,0,1,6.028.68c1.633,2.485.77,5.84.116,8.505A70.5,70.5,0,0,1,500.951,338.61Z" transform="translate(-470.864 -292.597)" fill="#0e3f66"/>
      <path id="Path_729" data-name="Path 729" d="M498.659,347.556a21.231,21.231,0,0,0,3.971-12.176,17.3,17.3,0,0,1-3.912,5.963,4.119,4.119,0,0,1-.854.735,4.2,4.2,0,0,1-3.133.169c-.23-.055-.463-.116-.694-.176-.187,1.216-.329,2.619-.417,4.244A31.46,31.46,0,0,0,498.659,347.556Z" transform="translate(-471.306 -306.395)" fill="#082842"/>
      <path id="Path_730" data-name="Path 730" d="M496.639,428.969c.964-2.962,1.666-4.586,1.557-7.807-4.986,1.517-8.024-1.052-8.024-1.052-.781,7.12-.964,10.938,0,18.04.566,4.169,4.775,10.222,7.148,13.807,1.023-.257,1.491-.465,2.514-.72-.882-3.309-2.494-9.286-4.248-12.285C496,435.232,495.46,432.591,496.639,428.969Z" transform="translate(-467.956 -375.564)" fill="#082842"/>
      <path id="Path_731" data-name="Path 731" d="M469.623,281.287a3.647,3.647,0,0,1,3.3-.612c.248.107.5.3.512.569.013.345-.364.56-.691.672a8.693,8.693,0,0,1-3.172.463C469.235,282.282,468.815,281.954,469.623,281.287Z" transform="translate(-451.336 -261.593)" fill="#f98c6e"/>
      <path id="Path_732" data-name="Path 732" d="M498.627,335.272a2.224,2.224,0,0,0,.942-.073,2.082,2.082,0,0,0,.973-1.052,14.638,14.638,0,0,0,1.552-4.577,3,3,0,0,0-.819-2.72,9.2,9.2,0,0,0-3.379,6.075c-.5-.015-1.036-.024-1.563-.033-.162.659-.309,1.387-.433,2.2l2.725.178Z" transform="translate(-473.167 -299.432)" fill="#082842"/>
      <g id="Group_488" data-name="Group 488" transform="translate(12.789 26.013)">
        <path id="Path_733" data-name="Path 733" d="M443.848,352.069a2.153,2.153,0,0,0-1-.848.838.838,0,0,0-1.074.5c-.136.621.694,1.208.444,1.794-.072.167-.222.29-.307.452a.871.871,0,0,0,.2.962,2.394,2.394,0,0,0,.9.525,3.582,3.582,0,0,0,1.423.329,1.116,1.116,0,0,0,.812-.332c.389-.444-.055-1.111-.266-1.539a12.012,12.012,0,0,0-1.133-1.846Z" transform="translate(-441.758 -345.306)" fill="#f98c6e"/>
        <path id="Path_734" data-name="Path 734" d="M464.758,327.906c.889-3.6.779-4.47,2.051-6.834a3.951,3.951,0,0,1,2.04-1.662,2.52,2.52,0,0,1,2.518.266,2.552,2.552,0,0,1,.83,1.838,6.161,6.161,0,0,1-.323,2.04c-1.357,4.623-2.064,5.284-4.889,9.185-3.851-.36-8.937-1.159-11.668-2.6a1.336,1.336,0,0,1-.259-1.767c.36-.575,1.188-.586,1.855-.463,2.143.4,4.567.055,7.842-.007Z" transform="translate(-452.443 -319.197)" fill="#0e3f66"/>
      </g>
      <path id="Path_735" data-name="Path 735" d="M424.1,559.27l4.724,1.275-.509,1.6-4.623-1.227Z" transform="translate(-414.219 -489.167)" fill="#0e3f66"/>
      <path id="Path_736" data-name="Path 736" d="M531.552,582.66l-3.412,1.557.746,1.53,3.3-1.53Z" transform="translate(-499.486 -508.261)" fill="#0e3f66"/>
      <path id="Path_737" data-name="Path 737" d="M404.034,584.387v-.9l-8.834-.116a.386.386,0,0,0-.136.312c.024.307.424.4.731.411l8.239.294Z" transform="translate(-390.849 -508.841)" fill="#808285"/>
      <path id="Path_738" data-name="Path 738" d="M507.74,611.683c-.152.094-.286.219-.274.388.022.264.365.345.632.354,1.712.061,4.441.123,6.718.184a1.41,1.41,0,0,0,1.425-1.139q-4.251.154-8.5.211Z" transform="translate(-482.609 -531.78)" fill="#808285"/>
      <g id="Group_491" data-name="Group 491" transform="translate(22.729 11.954)">
        <g id="Group_489" data-name="Group 489">
          <path id="Path_739" data-name="Path 739" d="M505.032,271.4a4.423,4.423,0,0,0,.63,3.091,2.314,2.314,0,0,0,2.119.626,5.066,5.066,0,0,0,2.061-1,13.03,13.03,0,0,0,2.792-2.793,4.048,4.048,0,0,0,.97-3.432,3.412,3.412,0,0,0-1.827-1.906,4.664,4.664,0,0,0-3.207-.421c-2.692.7-3.249,3.524-3.539,5.833Z" transform="translate(-503.319 -261.257)" fill="#f98c6e"/>
          <path id="Path_740" data-name="Path 740" d="M504.521,252.373A3.083,3.083,0,0,0,502,248.652a7.633,7.633,0,0,0-2.252.143,3.962,3.962,0,0,1-2.226-.167,2.746,2.746,0,0,1-1.317-1.44,4.779,4.779,0,0,1-.321-1.954,3.914,3.914,0,0,1,.241-1.374,2,2,0,0,1,.893-1.043,1.586,1.586,0,0,1,2.233,1.916,4.7,4.7,0,0,1,2.127-1.66,1.468,1.468,0,0,1,1.57.092,1.125,1.125,0,0,1,.264.984,2.847,2.847,0,0,1-.413.97,3.57,3.57,0,0,1,3.082-.986.6.6,0,0,1,.343.145.6.6,0,0,1,.037.615,2.57,2.57,0,0,1-1.188,1.365,4.584,4.584,0,0,1,2.217,1.412,3.033,3.033,0,0,1,.461,1.989,4.219,4.219,0,0,1-1.915,3.207,1.249,1.249,0,0,1-.834.239.677.677,0,0,1-.485-.731Z" transform="translate(-495.882 -242.646)" fill="#082842"/>
          <path id="Path_741" data-name="Path 741" d="M539.775,291.994a.805.805,0,0,1,.578-.09.61.61,0,0,1,.384.509,1.3,1.3,0,0,1-.118.654,3.03,3.03,0,0,1-1.53,1.587.477.477,0,0,1-.443.033c-.364-.23-.242-1.207-.094-1.556a2.575,2.575,0,0,1,1.223-1.139Z" transform="translate(-530.598 -282.838)" fill="#f98c6e"/>
        </g>
        <path id="Path_742" data-name="Path 742" d="M522.056,284.725c-.169.424-.492.694-.722.6s-.279-.511-.11-.935.492-.694.722-.6S522.225,284.3,522.056,284.725Z" transform="translate(-516.488 -276.219)" fill="#082842"/>
        <path id="Path_743" data-name="Path 743" d="M508.916,284.725c-.169.424-.492.694-.722.6s-.279-.511-.11-.935.492-.694.722-.6S509.085,284.3,508.916,284.725Z" transform="translate(-505.761 -276.219)" fill="#082842"/>
        <path id="Path_744" data-name="Path 744" d="M509.361,293.374a1.305,1.305,0,0,0-.285.11.268.268,0,0,0-.138.253.307.307,0,0,0,.209.209.873.873,0,0,0,.924-.217,1.072,1.072,0,0,0,.261-.933c-.018-.1-.09-.292-.219-.219-.086.05-.116.252-.167.336a1.122,1.122,0,0,1-.588.459Z" transform="translate(-506.539 -283.395)" fill="#d1674b"/>
        <g id="Group_490" data-name="Group 490" transform="translate(4.044 10.562)">
          <path id="Path_745" data-name="Path 745" d="M518.284,301.346a1.2,1.2,0,0,1-.268-.029.146.146,0,1,1,.064-.285.942.942,0,0,0,1.137-.755.146.146,0,1,1,.286.051,1.229,1.229,0,0,1-1.221,1.017Z" transform="translate(-517.902 -300.157)" fill="#d1674b"/>
        </g>
      </g>
    </g>
    <path id="Path_746" data-name="Path 746" d="M407.927,178.99a8.578,8.578,0,0,1-3.023,1.969c-2.34,3.673-.518,4.136,1.385,3.091l2.263-1.245a.764.764,0,0,0,.327-.27.774.774,0,0,0-.035-.617c-.318-.913-.2-2.281-.916-2.926Z" transform="translate(-329.632 -146.118)" fill="#e6795b"/>
    <path id="Path_747" data-name="Path 747" d="M371.8,342.7a16.2,16.2,0,0,0-1.262,2.09.682.682,0,0,0-.1.492.464.464,0,0,0,.36.288,1.37,1.37,0,0,0,.481-.015,13.739,13.739,0,0,0-.483,2.3.451.451,0,0,0,.367.389c.231.017.859-.871,1.37-1.756a5.558,5.558,0,0,0,1.071-.536,1.83,1.83,0,0,0,.733-.907,1.986,1.986,0,0,0-.36-1.688,2.422,2.422,0,0,0-.788-.757c-.32-.18-1.028.02-1.387.1Z" transform="translate(-302.382 -279.626)" fill="#f98c6e"/>
    <path id="Path_748" data-name="Path 748" d="M384.506,213.624c.514,8.415-2.272,17.623-6.086,25.2a6.239,6.239,0,0,1-2.83-.292A104.671,104.671,0,0,1,379.085,219a7.741,7.741,0,0,1,1.335-3.067c.724-.861,3.05-2.746,4.088-2.31Z" transform="translate(-306.603 -174.339)" fill="#1c75bc"/>
    <g id="_2142277248656" transform="translate(76.417 26.86)">
      <g id="Group_492" data-name="Group 492">
        <path id="Path_749" data-name="Path 749" d="M422.609,170.324a5.116,5.116,0,0,1-3.245,1.106,2.53,2.53,0,0,1-1.846-1.466,4.631,4.631,0,0,1-.3-2.277,11.906,11.906,0,0,1,.927-3.851,4.138,4.138,0,0,1,2.608-2.643,4.1,4.1,0,0,1,2.859.538,4.893,4.893,0,0,1,2.3,2.5c.957,2.656-1.332,4.624-3.3,6.1Z" transform="translate(-416.983 -158.384)" fill="#f98c6e"/>
        <path id="Path_750" data-name="Path 750" d="M419.2,151.786c1.585.457,2.814.219,3.609-1.315.393,1.807,3.814,7.96,7.124,5.014-1.624-.837-1.53-2.542-2.073-4.2a4.173,4.173,0,0,0-1.078-1.809,2.626,2.626,0,0,0-2.059-.713,8.056,8.056,0,0,0,1.256-.584c.134-.077.277-.178.286-.323.013-.209-.257-.336-.485-.369a2.19,2.19,0,0,0-1.638.419A2.5,2.5,0,0,0,423,146.431a1.1,1.1,0,0,0-.463-.171.477.477,0,0,0-.435.171.532.532,0,0,0-.05.387,2.536,2.536,0,0,0,.683,1.348,3.24,3.24,0,0,0-2.861,1.192,7.938,7.938,0,0,0-1.322,2.731c.154-.048.5-.255.65-.3Z" transform="translate(-418.091 -146.258)" fill="#082842"/>
        <path id="Path_751" data-name="Path 751" d="M418.141,171.032a.785.785,0,0,0-.261-.538.731.731,0,0,0-.7-.055,1.342,1.342,0,0,0-.536.448,2.8,2.8,0,0,0-.56,2.14.478.478,0,0,0,.233.393c.43.187,1.264-.433,1.5-.746a2.359,2.359,0,0,0,.327-1.64Z" transform="translate(-416.049 -165.946)" fill="#f98c6e"/>
      </g>
      <path id="Path_752" data-name="Path 752" d="M441.266,186.715c-.294.369-.351.786-.129.933s.641-.033.933-.4.351-.786.129-.933S441.558,186.345,441.266,186.715Z" transform="translate(-436.42 -178.914)" fill="#082842"/>
      <path id="Path_753" data-name="Path 753" d="M449.116,197.865c-.294.369-.351.786-.129.933s.641-.033.933-.4.351-.786.129-.933S449.408,197.5,449.116,197.865Z" transform="translate(-442.828 -188.017)" fill="#082842"/>
      <path id="Path_754" data-name="Path 754" d="M440.446,200.489a1.154,1.154,0,0,1,.066.3.264.264,0,0,1-.152.252.369.369,0,0,1-.32-.066.842.842,0,0,1-.351-.9,1.093,1.093,0,0,1,.711-.716c.1-.035.325-.079.332.07.005.1-.163.231-.211.32A1.011,1.011,0,0,0,440.446,200.489Z" transform="translate(-435.327 -189.577)" fill="#d1674b"/>
      <g id="Group_493" data-name="Group 493" transform="translate(2.296 8.878)">
        <path id="Path_755" data-name="Path 755" d="M428.77,196.21a1.274,1.274,0,0,0,.187.211.173.173,0,0,0,.228,0,.135.135,0,0,0,0-.206.924.924,0,0,1-.312-.691.9.9,0,0,1,.334-.674.135.135,0,0,0,.009-.206.173.173,0,0,0-.228-.011,1.145,1.145,0,0,0-.217,1.576Z" transform="translate(-428.549 -194.597)" fill="#d1674b"/>
      </g>
    </g>
    <g id="_2142277247024" transform="translate(15.969 66.951)">
      <path id="Path_756" data-name="Path 756" d="M228.953,519.889a6.906,6.906,0,0,1,1.982-.077,2.325,2.325,0,0,1,1.655.99,3.01,3.01,0,0,1,.092,2.358,20.519,20.519,0,0,1-1.888,4.25c-1.737,3.2-3.567,6.342-5.4,9.488a5.636,5.636,0,0,1-1.734-.108,1.728,1.728,0,0,1-1.159-1.1,2.556,2.556,0,0,1,.046-1.159l2-10.239a7.23,7.23,0,0,1,1.139-3.131c.689-.885,2.274-1.809,3.26-1.275Z" transform="translate(-197.56 -491.232)" fill="#082842"/>
      <path id="Path_757" data-name="Path 757" d="M241.508,526.6a3.214,3.214,0,0,1-.186-.31,11.25,11.25,0,0,1-1.21-4.308,10.9,10.9,0,0,1,.057-2.147c-.323.022-.645.064-.964.108a1.336,1.336,0,0,0-.468-.143q-.821.215-1.64.439a4.157,4.157,0,0,0-1.152.977,5.582,5.582,0,0,0-.935,2.169c.408.555.79,1.133,1.186,1.691a27.232,27.232,0,0,0,3.794,4.3q.532-.953,1.054-1.91.234-.43.463-.863Z" transform="translate(-207.81 -491.288)" fill="#051c2d"/>
      <path id="Path_758" data-name="Path 758" d="M233.811,549.9a20.573,20.573,0,0,0-1.938-2.766A2.607,2.607,0,0,0,229.355,546c-.044.013-.083.035-.125.051q-.479,2.457-.961,4.915a2.567,2.567,0,0,1,.47.156,4.86,4.86,0,0,1,2.22,2.538,9.143,9.143,0,0,1,.567,2.246q1.452-2.507,2.869-5.032c-.186-.334-.384-.661-.584-.983Z" transform="translate(-202.308 -512.623)" fill="#051c2d"/>
      <path id="Path_759" data-name="Path 759" d="M148.661,456.33a74.01,74.01,0,0,0,14.057,12.522,2.3,2.3,0,0,1-3.664.832,32.056,32.056,0,0,1-7.289-5.084A11.221,11.221,0,0,1,148.661,456.33Z" transform="translate(-137.305 -439.474)" fill="#8cc63f"/>
      <path id="Path_760" data-name="Path 760" d="M148.661,456.33a11.219,11.219,0,0,0,3.1,8.27,19.035,19.035,0,0,0,2.141,1.853c.015-.562.022-1.126.013-1.688-.017-1.047-.075-2.1-.174-3.148Q151.075,459.1,148.661,456.33Z" transform="translate(-137.305 -439.474)" fill="#7cb331"/>
      <path id="Path_761" data-name="Path 761" d="M96.7,447.016q-2.154.81-4.241,1.734a2.929,2.929,0,0,0-1.337.92,2.3,2.3,0,0,0,.05,1.954q2.683,8.129,6.015,16.116c.14.334,2.015,4.992,2.373,5.045,1.938.294,2.34-4.046,4.281-4.189a3.22,3.22,0,0,0,1.5-.371,2.286,2.286,0,0,0,.848-1.486c.624-2.5-1.715-15.126-3.3-17.513s-3.306-3.295-6.187-2.211Z" transform="translate(-90.183 -431.499)" fill="#8cc63f"/>
      <path id="Path_762" data-name="Path 762" d="M116.124,490.661a2.536,2.536,0,0,0,.766.154c-.118-1.117-.3-2.375-.514-3.671a16.836,16.836,0,0,1-3.754-1,20.466,20.466,0,0,1-2.108-.972A35.36,35.36,0,0,1,104.1,480.6a20.518,20.518,0,0,0,2.637,4.07,18.1,18.1,0,0,0,3.363,2.749,26.242,26.242,0,0,0,6.022,3.243Z" transform="translate(-100.943 -459.287)" fill="#7cb331"/>
      <path id="Path_763" data-name="Path 763" d="M112.726,429.191a8.879,8.879,0,0,0-.119,3.381.873.873,0,0,1-.927,1.014,8.461,8.461,0,0,1-1.335-.2,1.044,1.044,0,0,1-.479-.208,1.1,1.1,0,0,1-.268-.661l-.545-3.262a1.375,1.375,0,0,1,.059-.918,1.282,1.282,0,0,1,1.124-.463,3.024,3.024,0,0,1,1.355.2c.419.191,1.238.663,1.133,1.113Z" transform="translate(-104.944 -416.241)" fill="#e6795b"/>
      <g id="Group_495" data-name="Group 495">
        <path id="Path_764" data-name="Path 764" d="M105.36,396.519a5.114,5.114,0,0,1-.129,3.427,2.531,2.531,0,0,1-2.029,1.2,4.651,4.651,0,0,1-2.235-.529,11.864,11.864,0,0,1-3.265-2.242,3.53,3.53,0,0,1-.013-5.857,4.892,4.892,0,0,1,3.155-1.26c2.823.055,3.844,2.9,4.512,5.262Z" transform="translate(-94.445 -386.352)" fill="#f98c6e"/>
        <path id="Path_765" data-name="Path 765" d="M122.921,411.076c.239.406.61.608.825.454s.2-.61-.042-1.016-.61-.608-.825-.454S122.68,410.67,122.921,411.076Z" transform="translate(-116.149 -401.66)" fill="#082842"/>
        <path id="Path_766" data-name="Path 766" d="M136.133,407.736c.239.406.61.608.825.454s.2-.61-.042-1.016-.61-.608-.825-.454S135.895,407.33,136.133,407.736Z" transform="translate(-126.936 -398.933)" fill="#082842"/>
        <path id="Path_767" data-name="Path 767" d="M135.353,417.583a1.271,1.271,0,0,1,.3.044.261.261,0,0,1,.18.233.373.373,0,0,1-.176.275.839.839,0,0,1-.966.006,1.1,1.1,0,0,1-.415-.92c0-.1.042-.331.184-.286.1.029.158.237.222.312a1.015,1.015,0,0,0,.667.336Z" transform="translate(-125.578 -407.31)" fill="#d1674b"/>
        <g id="Group_494" data-name="Group 494" transform="translate(7.049 11.566)">
          <path id="Path_768" data-name="Path 768" d="M126.691,428.517a1.4,1.4,0,0,0,.264-.1.173.173,0,0,0,.081-.213.135.135,0,0,0-.193-.072.926.926,0,0,1-.757.044.907.907,0,0,1-.511-.553.136.136,0,0,0-.189-.083.174.174,0,0,0-.092.208,1.193,1.193,0,0,0,.669.724,1.176,1.176,0,0,0,.725.04Z" transform="translate(-125.288 -427.528)" fill="#d1674b"/>
        </g>
        <path id="Path_769" data-name="Path 769" d="M90.414,376.781a3.559,3.559,0,0,0,.178-4.259,23.228,23.228,0,0,0,4.883-1.249,3,3,0,0,0,1.75-1.243,2.355,2.355,0,0,0,.1-1.592,7.414,7.414,0,0,0-2.867-3.888l.678,2.026a7.626,7.626,0,0,0-2.22-1.642,16.636,16.636,0,0,1,1.091,2.852,8.181,8.181,0,0,0-4.619.779,4.582,4.582,0,0,0-2.485,3.776,4.367,4.367,0,0,0,.986,2.724,7.316,7.316,0,0,0,2.52,1.717Z" transform="translate(-86.908 -364.55)" fill="#082842"/>
        <path id="Path_770" data-name="Path 770" d="M100.609,424.4a.792.792,0,0,0-.6.051.737.737,0,0,0-.3.635,1.357,1.357,0,0,0,.226.661,2.789,2.789,0,0,0,1.8,1.287.479.479,0,0,0,.45-.077c.329-.334.046-1.335-.16-1.666a2.35,2.35,0,0,0-1.416-.891Z" transform="translate(-97.358 -413.382)" fill="#f98c6e"/>
      </g>
      <path id="Path_771" data-name="Path 771" d="M98.343,491.847A35.906,35.906,0,0,0,105,496.255a22.507,22.507,0,0,0,6.075,2.033c-.035-.8-.123-1.752-.255-2.8-.937-.334-1.864-.694-2.775-1.089A46.95,46.95,0,0,1,96.8,487.5q.749,2.179,1.543,4.349Z" transform="translate(-94.983 -464.92)" fill="#7cb331"/>
      <path id="Path_772" data-name="Path 772" d="M95.1,464.111c.619,2.569,2.817,4.709,5.434,6.083a30.557,30.557,0,0,0,8.639,2.624,2,2,0,0,1,.353.788.761.761,0,0,1-.3.81,1.57,1.57,0,0,1-.826.171,20.466,20.466,0,0,1-10.771-2.821,16.228,16.228,0,0,1-6.751-7.706,3.567,3.567,0,0,1-.329-1.429,1.576,1.576,0,0,1,.694-1.286,2.3,2.3,0,0,1,2.566.34,4.93,4.93,0,0,1,1.291,2.426Z" transform="translate(-89.876 -443.358)" fill="#8cc63f"/>
      <path id="Path_773" data-name="Path 773" d="M181.072,503.645c.125.545.108,2.1.215,2.793-5.315,1.925-10.837,2.676-16.516,4.266l-2.694.755a1.357,1.357,0,0,1-.986.022c-.3-.156-.386-.676-.073-.8,5.769-2.353,11.308-5.309,17.227-7.251a4.732,4.732,0,0,1,1.372-.3c.47-.009,1.35.061,1.455.52Z" transform="translate(-147.246 -477.676)" fill="#91c6ef"/>
      <g id="Group_496" data-name="Group 496" transform="translate(18.875 17.73)">
        <path id="Path_774" data-name="Path 774" d="M191.193,463.126l13.761-2.026a1.015,1.015,0,0,1,1.148,1.186,87.844,87.844,0,0,0-1.256,9.838c-4.871.65-9.533,1.232-15.166,2.088.375-3.8.553-6.819.643-10.1a1.017,1.017,0,0,1,.869-.981Z" transform="translate(-189.68 -461.089)" fill="#91c6ef"/>
        <path id="Path_775" data-name="Path 775" d="M233.522,489.488a1.479,1.479,0,1,1-1.137-1.961A1.615,1.615,0,0,1,233.522,489.488Z" transform="translate(-223.101 -482.656)" fill="#a5d6ff"/>
      </g>
      <path id="Path_776" data-name="Path 776" d="M132.249,539.246a8.614,8.614,0,0,0,5.392-.11c3.91-1.276,7.023-4.2,10-7.043,2.057,2.973,4.56,5.827,6.619,8.8a3.909,3.909,0,0,0,1.647,1.585c.724.277,2.593-1.963,2.5-2.556a5.317,5.317,0,0,0-.654-1.669,95.1,95.1,0,0,0-5.747-9.265,6.294,6.294,0,0,0-2.986-2.727c-1.368-.426-2.828.107-4.169.612-4.316,1.624-7.807,2.145-12.6,3.642-5.489,1.714-2.711,7.758,0,8.733Z" transform="translate(-121.343 -496.434)" fill="#082842"/>
      <path id="Path_777" data-name="Path 777" d="M282.321,604.1c.189.037.415.107.459.294.053.226-.2.395-.413.485a26.812,26.812,0,0,1-6.8,1.53,1.548,1.548,0,0,1-.859-.048,1.409,1.409,0,0,1-.619-.779,1.858,1.858,0,0,1-.195-1.016,1.655,1.655,0,0,1,.907-1.087,3.609,3.609,0,0,1,1.258-.547,7.218,7.218,0,0,1,1.348.25q1.587.281,3.17.582.873.165,1.745.336Z" transform="translate(-239.54 -559.155)" fill="#082842"/>
      <path id="Path_778" data-name="Path 778" d="M218.161,607.063a1.447,1.447,0,0,0-.035.966,1.057,1.057,0,0,0,.648.545,3.019,3.019,0,0,0,.861.118c1.556.057,3.113.051,4.67.048a8.381,8.381,0,0,0,1.306-.073c.241-.04.538-.18.509-.422-.022-.173-.2-.272-.358-.343q-1.758-.793-3.554-1.489-.912-.353-1.835-.681c-.345-.123-1.006-.5-1.387-.345-.472.193-.7,1.243-.825,1.68Z" transform="translate(-193.97 -561.124)" fill="#082842"/>
    </g>
  </g>
</svg>
