<?xml version="1.0" encoding="iso-8859-1"?>
<!-- Uploaded to: SVG Repo, www.svgrepo.com, Generator: SVG Repo Mixer Tools -->
<svg fill="#000000" version="1.1" id="Layer_1" xmlns="http://www.w3.org/2000/svg" xmlns:xlink="http://www.w3.org/1999/xlink" 
	 viewBox="0 0 64 64" xml:space="preserve">
<g>
	<g>
		<path d="M63,21.999H52V8.72l4-1.333v4.797c-1.161,0.414-2,1.514-2,2.816c0,1.654,1.346,3,3,3s3-1.346,3-3
			c0-1.302-0.839-2.402-2-2.816V6c0-0.431-0.275-0.812-0.684-0.948l-15-5c-0.206-0.068-0.427-0.068-0.633,0l-15,5
			C26.275,5.187,26,5.569,26,6c0,0.431,0.275,0.812,0.684,0.948L32,8.72v13.279H21c-0.552,0-1,0.448-1,1v24v4v4v4v4
			c0,0.553,0.448,1,1,1h42c0.552,0,1-0.447,1-1v-4v-4v-4v-4V23C64,22.447,63.552,21.999,63,21.999z M57,14c0.551,0,1,0.448,1,1
			s-0.449,1-1,1s-1-0.448-1-1S56.449,14,57,14z M30.162,6L42,2.053L53.838,6L42,9.946L30.162,6z M50,9.386v12.613H34V9.386
			l7.684,2.561C41.787,11.982,41.893,12,42,12s0.213-0.018,0.316-0.052L50,9.386z M62,61.999H22v-2h40V61.999z M62,57.999H22v-2h40
			V57.999z M62,53.999H22v-2h40V53.999z M62,49.999H22v-2h40V49.999z M62,45.999H22v-22h40V45.999z"/>
	</g>
</g>
<g>
	<g>
		<path d="M59.999,31c0-0.553-0.448-1-1-1c-1.654,0-2.999-1.346-3-3c0-0.553-0.448-1-1-1H29c-0.552,0-1,0.448-1,1
			c0,1.654-1.346,3-3,3c-0.265,0-0.519,0.106-0.707,0.293C24.105,30.48,24,30.734,24,31v8c0,0.552,0.448,1,1,1c1.654,0,3,1.345,3,3
			c0,0.553,0.448,1,1,1h26c0.552,0,1-0.447,1-1c0-1.654,1.346-3,3-3c0.265,0,0.519-0.105,0.707-0.293C59.895,39.519,60,39.264,60,39
			L59.999,31z M58,38.1c-1.956,0.398-3.5,1.899-3.899,3.899H29.899c-0.398-2-1.943-3.501-3.899-3.899v-6.201
			c1.956-0.398,3.501-1.9,3.899-3.9H54.1c0.399,2,1.944,3.501,3.9,3.9V38.1z"/>
	</g>
</g>
<g>
	<g>
		<path d="M42,30c-2.757,0-5,2.243-5,5c0,2.756,2.243,5,5,5s5-2.243,5-5S44.757,30,42,30z M42,38c-1.654,0-3-1.346-3-3s1.346-3,3-3
			s3,1.346,3,3S43.654,38,42,38z"/>
	</g>
</g>
<g>
	<g>
		<path d="M18,42.999v-4c0-0.552-0.448-1-1-1h-1v-3c0-0.553-0.448-1-1-1H1c-0.552,0-1,0.448-1,1v4c0,0.553,0.448,1,1,1h1v2
			c-0.552,0-1,0.447-1,1v4c0,0.553,0.448,1,1,1v2c-0.552,0-1,0.447-1,1v4c0,0.553,0.448,1,1,1v3v4c0,0.553,0.448,1,1,1h14
			c0.552,0,1-0.447,1-1v-4v-4c0-0.553-0.448-1-1-1v-2c0.552,0,1-0.447,1-1v-4c0-0.553-0.448-1-1-1v-2
			C17.552,43.999,18,43.552,18,42.999z M10,35.999h4v2h-4V35.999z M13,44h2v2h-2V44z M15,52v2h-2v-2H15z M9,39.999h3v2H9V39.999z
			 M9,49.999v-2h3v2H9z M11,51.999v2H8v-2H11z M6,36h2v2H6V36z M4,41.999v-2h3v2H4z M5,44v2H3v-2H5z M2,38v-2h2v2H3H2z M3,51.999h3
			v2H3V51.999z M6,56v2H4v-2H6z M7,61.999H4v-2h3V61.999z M7,49.999H4v-2h3V49.999z M7,43.999h4v2H7V43.999z M8,56h2v2H8V56z
			 M12,61.999H9v-2h3V61.999z M16,62h-2v-2h2V62z M16,57.999h-4v-2h4V57.999z M16,50h-2v-2h2V50z M16,42h-2v-2h1h1V42z"/>
	</g>
</g>
<g>
	<g>
		<polygon points="6,23.999 6,21.999 4,21.999 4,23.999 2,23.999 2,25.999 4,25.999 4,27.999 6,27.999 6,25.999 8,25.999 8,23.999 
					"/>
	</g>
</g>
<g>
	<g>
		<polygon points="12,16.999 12,14.999 10,14.999 10,16.999 8,16.999 8,18.999 10,18.999 10,20.999 12,20.999 12,18.999 14,18.999 
			14,16.999 		"/>
	</g>
</g>
<g>
	<g>
		<rect x="46" y="19" width="2" height="2"/>
	</g>
</g>
<g>
	<g>
		<rect x="42" y="19" width="2" height="2"/>
	</g>
</g>
<g>
	<g>
		<rect x="38" y="19" width="2" height="2"/>
	</g>
</g>
</svg>