<?xml version="1.0" encoding="UTF-8"?>
<!DOCTYPE svg PUBLIC "-//W3C//DTD SVG 1.1//EN" "http://www.w3.org/Graphics/SVG/1.1/DTD/svg11.dtd">
<svg xmlns="http://www.w3.org/2000/svg" version="1.1" width="24px" height="24px" style="shape-rendering:geometricPrecision; text-rendering:geometricPrecision; image-rendering:optimizeQuality; fill-rule:evenodd; clip-rule:evenodd" xmlns:xlink="http://www.w3.org/1999/xlink">
<g><path style="opacity:0.721" fill="#085b9b" d="M 1.5,-0.5 C 3.83333,-0.5 6.16667,-0.5 8.5,-0.5C 9.50449,0.682751 10.3378,2.01608 11,3.5C 12.3756,2.29493 13.5423,0.961599 14.5,-0.5C 16.8333,-0.5 19.1667,-0.5 21.5,-0.5C 21.8333,0.5 22.5,1.16667 23.5,1.5C 23.5,3.83333 23.5,6.16667 23.5,8.5C 19.1762,12.7859 15.3428,12.4526 12,7.5C 11.5045,9.4727 11.3379,11.4727 11.5,13.5C 12.8221,13.33 13.9887,13.6634 15,14.5C 15.4954,17.5314 15.3287,20.5314 14.5,23.5C 11.5,23.5 8.5,23.5 5.5,23.5C 3.97667,20.3652 3.31001,17.0318 3.5,13.5C 4.67504,13.719 5.67504,13.3857 6.5,12.5C 3.98554,11.4117 1.6522,10.0783 -0.5,8.5C -0.5,6.16667 -0.5,3.83333 -0.5,1.5C 0.5,1.16667 1.16667,0.5 1.5,-0.5 Z M 2.5,3.5 C 3.42714,1.52409 4.76047,1.19075 6.5,2.5C 5.56289,4.64235 4.22955,4.97569 2.5,3.5 Z M 16.5,2.5 C 17.2506,1.42654 18.2506,1.25988 19.5,2C 18.6477,3.72835 17.6477,3.89502 16.5,2.5 Z M 20.5,3.5 C 21.5735,4.25057 21.7401,5.25057 21,6.5C 19.2716,5.64767 19.105,4.64767 20.5,3.5 Z M 6.5,6.5 C 6.78281,5.71087 7.28281,5.0442 8,4.5C 8.52811,5.81602 8.02811,6.48269 6.5,6.5 Z M 6.5,6.5 C 5.9473,8.55182 4.9473,8.88516 3.5,7.5C 4.60895,7.44312 5.60895,7.10978 6.5,6.5 Z M 6.5,17.5 C 8.5909,16.1346 10.9242,15.4679 13.5,15.5C 13.1667,17.5 12.8333,19.5 12.5,21.5C 9.11243,22.0306 7.11243,20.6973 6.5,17.5 Z"/></g>
</svg>
