<?xml version="1.0" encoding="UTF-8"?>
<!DOCTYPE svg PUBLIC "-//W3C//DTD SVG 1.1//EN" "http://www.w3.org/Graphics/SVG/1.1/DTD/svg11.dtd">
<svg xmlns="http://www.w3.org/2000/svg" version="1.1" width="24px" height="24px" style="shape-rendering:geometricPrecision; text-rendering:geometricPrecision; image-rendering:optimizeQuality; fill-rule:evenodd; clip-rule:evenodd" xmlns:xlink="http://www.w3.org/1999/xlink">
<g><path style="opacity:0.915" fill="#2c5a96" d="M 9.5,0.5 C 9.17964,3.89838 9.51298,7.23171 10.5,10.5C 11.4841,7.57186 11.8174,4.57186 11.5,1.5C 13.7354,1.79472 15.7354,1.46138 17.5,0.5C 19.2132,1.63535 19.8799,3.30202 19.5,5.5C 19.5,6.16667 19.5,6.83333 19.5,7.5C 18.6522,14.5673 15.1522,16.234 9,12.5C 8.50137,8.84841 8.3347,5.18174 8.5,1.5C 8.5,0.833333 8.83333,0.5 9.5,0.5 Z"/></g>
<g><path style="opacity:0.263" fill="#6fa977" d="M 9.5,0.5 C 12.1667,0.5 14.8333,0.5 17.5,0.5C 15.7354,1.46138 13.7354,1.79472 11.5,1.5C 11.8174,4.57186 11.4841,7.57186 10.5,10.5C 9.51298,7.23171 9.17964,3.89838 9.5,0.5 Z"/></g>
<g><path style="opacity:0.239" fill="#748184" d="M 8.5,1.5 C 8.3347,5.18174 8.50137,8.84841 9,12.5C 15.1522,16.234 18.6522,14.5673 19.5,7.5C 19.5,6.83333 19.5,6.16667 19.5,5.5C 20.9587,5.43255 22.2921,5.76589 23.5,6.5C 23.5,6.83333 23.5,7.16667 23.5,7.5C 22.5,10.1667 21.5,12.8333 20.5,15.5C 16.5,15.5 12.5,15.5 8.5,15.5C 8.01473,12.444 7.34806,10.1106 6.5,8.5C 5.18344,11.2301 5.18344,14.0635 6.5,17C 11.2519,17.7734 15.9185,17.6068 20.5,16.5C 21.6505,19.2115 20.8171,21.2115 18,22.5C 16.013,20.3717 13.513,19.3717 10.5,19.5C 10.5,20.5 10.5,21.5 10.5,22.5C 9.16667,22.5 7.83333,22.5 6.5,22.5C 5.35998,19.9752 4.69332,17.3085 4.5,14.5C -0.797012,13.9675 -0.797012,13.1342 4.5,12C 0.5,11.3333 0.5,10.6667 4.5,10C 2.86586,9.50649 1.19919,9.33982 -0.5,9.5C -0.5,8.83333 -0.5,8.16667 -0.5,7.5C 1.28801,7.78522 2.95467,7.45189 4.5,6.5C 2.98851,6.65822 1.32184,6.32488 -0.5,5.5C -0.5,4.83333 -0.5,4.16667 -0.5,3.5C 2.83099,2.07308 5.33099,3.07308 7,6.5C 7.19808,4.61828 7.69808,2.95161 8.5,1.5 Z M 8.5,15.5 C 6.65649,13.7211 5.98983,11.3878 6.5,8.5C 7.34806,10.1106 8.01473,12.444 8.5,15.5 Z M 19.5,7.5 C 20.2389,7.36899 20.9056,7.53566 21.5,8C 20.1192,14.0199 19.4526,13.8532 19.5,7.5 Z"/></g>
<g><path style="opacity:0.467" fill="#7757ca" d="M 6.5,8.5 C 5.98983,11.3878 6.65649,13.7211 8.5,15.5C 12.5,15.5 16.5,15.5 20.5,15.5C 20.5,15.8333 20.5,16.1667 20.5,16.5C 15.9185,17.6068 11.2519,17.7734 6.5,17C 5.18344,14.0635 5.18344,11.2301 6.5,8.5 Z"/></g>
</svg>
