<?xml version="1.0" encoding="UTF-8"?>
<!DOCTYPE svg PUBLIC "-//W3C//DTD SVG 1.1//EN" "http://www.w3.org/Graphics/SVG/1.1/DTD/svg11.dtd">
<svg xmlns="http://www.w3.org/2000/svg" version="1.1" width="24px" height="24px" style="shape-rendering:geometricPrecision; text-rendering:geometricPrecision; image-rendering:optimizeQuality; fill-rule:evenodd; clip-rule:evenodd" xmlns:xlink="http://www.w3.org/1999/xlink">
<g><path style="opacity:0.427" fill="#409c3b" d="M 13.5,0.5 C 13.5,1.16667 13.5,1.83333 13.5,2.5C 12.1667,1.16667 10.8333,1.16667 9.5,2.5C 8.83333,2.5 8.5,2.83333 8.5,3.5C 7.66175,3.15829 7.32842,2.49162 7.5,1.5C 9.3792,0.658588 11.3792,0.325255 13.5,0.5 Z"/></g>
<g><path style="opacity:0.62" fill="#688463" d="M 13.5,0.5 C 14.9952,0.988689 16.3285,1.65536 17.5,2.5C 15.5188,3.10541 15.1854,4.10541 16.5,5.5C 15.209,5.73731 14.209,5.40397 13.5,4.5C 14.1667,4.5 14.5,4.16667 14.5,3.5C 14.5,2.83333 14.1667,2.5 13.5,2.5C 13.5,1.83333 13.5,1.16667 13.5,0.5 Z"/></g>
<g><path style="opacity:0.212" fill="#af5185" d="M 13.5,2.5 C 14.1667,2.5 14.5,2.83333 14.5,3.5C 14.5,4.16667 14.1667,4.5 13.5,4.5C 12.8333,4.5 12.1667,4.5 11.5,4.5C 11.1583,3.66175 10.4916,3.32842 9.5,3.5C 9.5,3.16667 9.5,2.83333 9.5,2.5C 10.8333,1.16667 12.1667,1.16667 13.5,2.5 Z"/></g>
<g><path style="opacity:0.447" fill="#729daa" d="M 17.5,2.5 C 18.6266,3.12167 19.6266,3.95501 20.5,5C 19.8288,5.98619 19.8288,7.15286 20.5,8.5C 19.8485,9.09065 19.1818,9.75731 18.5,10.5C 17.8933,10.3764 17.56,10.0431 17.5,9.5C 18.6441,8.15071 18.6441,7.81738 17.5,8.5C 16.8333,8.16667 16.1667,7.83333 15.5,7.5C 15.8333,6.83333 16.1667,6.16667 16.5,5.5C 15.1854,4.10541 15.5188,3.10541 17.5,2.5 Z"/></g>
<g><path style="opacity:0.592" fill="#7e99ad" d="M 7.5,1.5 C 7.32842,2.49162 7.66175,3.15829 8.5,3.5C 8.83333,3.5 9.16667,3.5 9.5,3.5C 10.4916,3.32842 11.1583,3.66175 11.5,4.5C 9.82115,4.89233 8.15448,5.39233 6.5,6C 7.05596,6.38258 7.38929,6.88258 7.5,7.5C 6.83333,7.5 6.16667,7.5 5.5,7.5C 4.16667,8.16667 4.16667,8.83333 5.5,9.5C 4.83333,10.1667 4.16667,10.8333 3.5,11.5C 3.5,12.1667 3.16667,12.5 2.5,12.5C 1.83333,12.8333 1.16667,13.1667 0.5,13.5C 1.72305,11.1276 2.72305,8.6276 3.5,6C 3.16667,5.66667 2.83333,5.33333 2.5,5C 3.78925,3.19784 5.45592,2.03118 7.5,1.5 Z"/></g>
<g><path style="opacity:0.635" fill="#897ea5" d="M 14.5,10.5 C 13.8333,10.1667 13.1667,9.83333 12.5,9.5C 11.3774,8.24258 10.7107,8.57591 10.5,10.5C 9.83333,10.8333 9.16667,11.1667 8.5,11.5C 8.5,11.1667 8.5,10.8333 8.5,10.5C 8.70072,6.65003 10.5341,5.65003 14,7.5C 14.4828,8.44802 14.6495,9.44802 14.5,10.5 Z M 12.5,9.5 C 12.1583,10.3382 11.4916,10.6716 10.5,10.5C 10.7107,8.57591 11.3774,8.24258 12.5,9.5 Z"/></g>
<g><path style="opacity:0.039" fill="#918784" d="M 5.5,7.5 C 6.16667,7.5 6.83333,7.5 7.5,7.5C 7.26269,8.79105 7.59603,9.79105 8.5,10.5C 8.5,10.8333 8.5,11.1667 8.5,11.5C 8.5,12.1667 8.5,12.8333 8.5,13.5C 8.5,13.8333 8.5,14.1667 8.5,14.5C 7.83333,13.8333 7.16667,13.1667 6.5,12.5C 5.79105,11.596 4.79105,11.2627 3.5,11.5C 4.16667,10.8333 4.83333,10.1667 5.5,9.5C 5.5,8.83333 5.5,8.16667 5.5,7.5 Z"/></g>
<g><path style="opacity:0.729" fill="#82ba8f" d="M 15.5,7.5 C 16.1667,7.83333 16.8333,8.16667 17.5,8.5C 17.5,8.83333 17.5,9.16667 17.5,9.5C 17.56,10.0431 17.8933,10.3764 18.5,10.5C 19.1818,9.75731 19.8485,9.09065 20.5,8.5C 20.5569,9.60895 20.8902,10.609 21.5,11.5C 20.8333,11.5 20.5,11.8333 20.5,12.5C 19.0387,11.3143 17.7054,11.3143 16.5,12.5C 15.6618,12.1583 15.3284,11.4916 15.5,10.5C 15.5,9.5 15.5,8.5 15.5,7.5 Z"/></g>
<g><path style="opacity:0.769" fill="#868a71" d="M 12.5,9.5 C 13.1667,9.83333 13.8333,10.1667 14.5,10.5C 14.8333,10.5 15.1667,10.5 15.5,10.5C 15.3284,11.4916 15.6618,12.1583 16.5,12.5C 16.5,12.8333 16.5,13.1667 16.5,13.5C 15.6618,13.8417 15.3284,14.5084 15.5,15.5C 15.1667,15.5 14.8333,15.5 14.5,15.5C 13.311,12.5774 11.311,11.9107 8.5,13.5C 8.5,12.8333 8.5,12.1667 8.5,11.5C 9.16667,11.1667 9.83333,10.8333 10.5,10.5C 11.4916,10.6716 12.1583,10.3382 12.5,9.5 Z"/></g>
<g><path style="opacity:0.367" fill="#5c56a2" d="M 2.5,12.5 C 3.56764,13.4345 4.90097,13.7678 6.5,13.5C 6.44312,14.609 6.10978,15.609 5.5,16.5C 5.16667,16.5 4.83333,16.5 4.5,16.5C 4.5,15.8333 4.16667,15.5 3.5,15.5C 3.15829,14.6618 2.49162,14.3284 1.5,14.5C 0.833333,14.5 0.5,14.1667 0.5,13.5C 1.16667,13.1667 1.83333,12.8333 2.5,12.5 Z"/></g>
<g><path style="opacity:0.367" fill="#495da2" d="M 16.5,13.5 C 17.5,13.5 18.5,13.5 19.5,13.5C 19.8417,14.3382 20.5084,14.6716 21.5,14.5C 21.7373,15.791 21.404,16.791 20.5,17.5C 19.5084,17.6716 18.8417,17.3382 18.5,16.5C 18.1667,16.5 17.8333,16.5 17.5,16.5C 16.8902,15.609 16.5569,14.609 16.5,13.5 Z"/></g>
<g><path style="opacity:0.702" fill="#9c58a8" d="M 21.5,11.5 C 22.8333,12.5 22.8333,13.5 21.5,14.5C 20.5084,14.6716 19.8417,14.3382 19.5,13.5C 20.1667,13.5 20.5,13.1667 20.5,12.5C 20.5,11.8333 20.8333,11.5 21.5,11.5 Z"/></g>
<g><path style="opacity:0.165" fill="#416596" d="M 1.5,14.5 C 2.49162,14.3284 3.15829,14.6618 3.5,15.5C 4.16667,15.5 4.5,15.8333 4.5,16.5C 4.83333,16.5 5.16667,16.5 5.5,16.5C 5.5,17.1667 5.5,17.8333 5.5,18.5C 4.60895,17.8902 3.60895,17.5569 2.5,17.5C 1.59603,16.791 1.26269,15.791 1.5,14.5 Z"/></g>
<g><path style="opacity:0.11" fill="#7b9d74" d="M 6.5,12.5 C 7.16667,13.1667 7.83333,13.8333 8.5,14.5C 8.5,15.1667 8.83333,15.5 9.5,15.5C 8.49367,16.3957 8.49367,17.0623 9.5,17.5C 9.5,17.8333 9.5,18.1667 9.5,18.5C 9.5,18.8333 9.5,19.1667 9.5,19.5C 9.16667,19.5 8.83333,19.5 8.5,19.5C 7.89459,17.5188 6.89459,17.1854 5.5,18.5C 5.5,17.8333 5.5,17.1667 5.5,16.5C 6.10978,15.609 6.44312,14.609 6.5,13.5C 6.5,13.1667 6.5,12.8333 6.5,12.5 Z"/></g>
<g><path style="opacity:0.267" fill="#7d5d7f" d="M 9.5,15.5 C 11.1667,15.5 12.8333,15.5 14.5,15.5C 14.8333,15.5 15.1667,15.5 15.5,15.5C 14.8902,16.391 14.5569,17.391 14.5,18.5C 14.1667,18.5 13.8333,18.5 13.5,18.5C 12.4324,17.5655 11.099,17.2322 9.5,17.5C 8.49367,17.0623 8.49367,16.3957 9.5,15.5 Z"/></g>
<g><path style="opacity:0.11" fill="#65a171" d="M 16.5,13.5 C 16.5569,14.609 16.8902,15.609 17.5,16.5C 16.8333,16.5 16.5,16.8333 16.5,17.5C 15.8333,17.8333 15.1667,18.1667 14.5,18.5C 14.5569,17.391 14.8902,16.391 15.5,15.5C 15.3284,14.5084 15.6618,13.8417 16.5,13.5 Z"/></g>
<g><path style="opacity:0.247" fill="#627b81" d="M 16.5,17.5 C 16.5,16.8333 16.8333,16.5 17.5,16.5C 17.8333,16.5 18.1667,16.5 18.5,16.5C 18.8417,17.3382 19.5084,17.6716 20.5,17.5C 19.8333,18.8333 18.8333,19.8333 17.5,20.5C 16.8973,19.3652 16.5639,18.3652 16.5,17.5 Z"/></g>
<g><path style="opacity:0.376" fill="#859085" d="M 2.5,17.5 C 3.60895,17.5569 4.60895,17.8902 5.5,18.5C 6.89459,17.1854 7.89459,17.5188 8.5,19.5C 8.5,19.8333 8.5,20.1667 8.5,20.5C 8.5,20.8333 8.5,21.1667 8.5,21.5C 5.70789,21.3775 3.70789,20.0442 2.5,17.5 Z"/></g>
<g><path style="opacity:0.192" fill="#67c796" d="M 12.5,19.5 C 12.8333,19.5 13.1667,19.5 13.5,19.5C 13.5,20.1667 13.8333,20.5 14.5,20.5C 15.1667,20.5 15.5,20.8333 15.5,21.5C 14.8333,21.8333 14.1667,22.1667 13.5,22.5C 12.9423,21.2101 11.9423,20.3768 10.5,20C 11.0944,19.5357 11.7611,19.369 12.5,19.5 Z"/></g>
<g><path style="opacity:0.38" fill="#895fc2" d="M 16.5,17.5 C 16.5639,18.3652 16.8973,19.3652 17.5,20.5C 17.1583,21.3382 16.4916,21.6716 15.5,21.5C 15.5,20.8333 15.1667,20.5 14.5,20.5C 13.8333,20.5 13.5,20.1667 13.5,19.5C 13.1667,19.5 12.8333,19.5 12.5,19.5C 12.5,19.1667 12.5,18.8333 12.5,18.5C 12.8333,18.5 13.1667,18.5 13.5,18.5C 13.8333,18.5 14.1667,18.5 14.5,18.5C 15.1667,18.1667 15.8333,17.8333 16.5,17.5 Z"/></g>
<g><path style="opacity:0.157" fill="#7f838b" d="M 9.5,18.5 C 10.5,18.5 11.5,18.5 12.5,18.5C 12.5,18.8333 12.5,19.1667 12.5,19.5C 11.7611,19.369 11.0944,19.5357 10.5,20C 11.9423,20.3768 12.9423,21.2101 13.5,22.5C 11.5853,22.7845 9.91866,22.4511 8.5,21.5C 8.5,21.1667 8.5,20.8333 8.5,20.5C 9.16667,20.5 9.5,20.1667 9.5,19.5C 9.5,19.1667 9.5,18.8333 9.5,18.5 Z"/></g>
</svg>
