<?xml version="1.0" encoding="UTF-8"?>
<!DOCTYPE svg PUBLIC "-//W3C//DTD SVG 1.1//EN" "http://www.w3.org/Graphics/SVG/1.1/DTD/svg11.dtd">
<svg xmlns="http://www.w3.org/2000/svg" version="1.1" width="24px" height="24px" style="shape-rendering:geometricPrecision; text-rendering:geometricPrecision; image-rendering:optimizeQuality; fill-rule:evenodd; clip-rule:evenodd" xmlns:xlink="http://www.w3.org/1999/xlink">
<g><path style="opacity:0.6" fill="#ab259f" d="M 21.5,0.5 C 22.1667,0.833333 22.8333,1.16667 23.5,1.5C 23.5,1.83333 23.5,2.16667 23.5,2.5C 22.8333,2.5 22.1667,2.5 21.5,2.5C 19.1667,2.5 16.8333,2.5 14.5,2.5C 10.1539,2.66568 5.82056,2.49902 1.5,2C 8.34597,1.82825 15.0126,1.32825 21.5,0.5 Z"/></g>
<g><path style="opacity:0.267" fill="#7c884a" d="M 21.5,0.5 C 15.0126,1.32825 8.34597,1.82825 1.5,2C 5.82056,2.49902 10.1539,2.66568 14.5,2.5C 14.7373,3.79105 14.404,4.79105 13.5,5.5C 13.1667,5.5 12.8333,5.5 12.5,5.5C 9.37518,4.52056 6.04185,4.18723 2.5,4.5C 2.44001,3.95691 2.10667,3.62358 1.5,3.5C 0.833126,8.3167 0.16646,12.9834 -0.5,17.5C -0.5,12.1667 -0.5,6.83333 -0.5,1.5C 6.74629,0.536007 14.0796,0.202673 21.5,0.5 Z"/></g>
<g><path style="opacity:0.125" fill="#d3e1e5" d="M 2.5,4.5 C 2.5,4.83333 2.5,5.16667 2.5,5.5C 1.52056,8.62482 1.18723,11.9581 1.5,15.5C 1.5,15.8333 1.5,16.1667 1.5,16.5C 1.5,17.1667 1.5,17.8333 1.5,18.5C 1.5,18.8333 1.5,19.1667 1.5,19.5C 0.833333,19.1667 0.166667,18.8333 -0.5,18.5C -0.5,18.1667 -0.5,17.8333 -0.5,17.5C 0.16646,12.9834 0.833126,8.3167 1.5,3.5C 2.10667,3.62358 2.44001,3.95691 2.5,4.5 Z"/></g>
<g><path style="opacity:0.376" fill="#ced5cd" d="M 11.5,5.5 C 11.8333,5.5 12.1667,5.5 12.5,5.5C 12.8333,5.5 13.1667,5.5 13.5,5.5C 13.6633,7.85684 13.4966,10.1902 13,12.5C 11.2714,12.9743 10.1047,13.9743 9.5,15.5C 8.76109,15.631 8.09442,15.4643 7.5,15C 8.59084,13.4499 9.92417,12.2832 11.5,11.5C 11.5,9.5 11.5,7.5 11.5,5.5 Z"/></g>
<g><path style="opacity:0.424" fill="#8ca093" d="M 21.5,2.5 C 22.1667,2.5 22.8333,2.5 23.5,2.5C 23.5,7.16667 23.5,11.8333 23.5,16.5C 21.7261,15.9831 20.0595,15.6498 18.5,15.5C 17.8333,14.1667 17.1667,14.1667 16.5,15.5C 15.9232,16.7733 15.2565,16.7733 14.5,15.5C 14.9943,13.9745 15.661,12.6412 16.5,11.5C 18.2239,11.5393 18.5573,11.206 17.5,10.5C 16.4722,7.90173 15.4722,7.90173 14.5,10.5C 14.4077,6.92857 16.0743,5.7619 19.5,7C 20.2638,9.06934 20.7638,11.236 21,13.5C 21.4986,9.84841 21.6653,6.18174 21.5,2.5 Z"/></g>
<g><path style="opacity:0.776" fill="#79b66c" d="M 9.5,6.5 C 9.83333,6.5 10.1667,6.5 10.5,6.5C 10.6716,7.49162 10.3382,8.15829 9.5,8.5C 8.25025,8.57735 7.41691,9.24402 7,10.5C 6.53566,9.90558 6.36899,9.23891 6.5,8.5C 6.97306,7.09368 7.97306,6.42702 9.5,6.5 Z"/></g>
<g><path style="opacity:0.6" fill="#974296" d="M 2.5,4.5 C 6.04185,4.18723 9.37518,4.52056 12.5,5.5C 12.1667,5.5 11.8333,5.5 11.5,5.5C 10.8333,5.5 10.5,5.83333 10.5,6.5C 10.1667,6.5 9.83333,6.5 9.5,6.5C 8.43236,5.56552 7.09903,5.23219 5.5,5.5C 5.26269,6.79105 5.59603,7.79105 6.5,8.5C 6.36899,9.23891 6.53566,9.90558 7,10.5C 7.41691,9.24402 8.25025,8.57735 9.5,8.5C 9.93205,9.70951 10.5987,10.7095 11.5,11.5C 9.92417,12.2832 8.59084,13.4499 7.5,15C 8.09442,15.4643 8.76109,15.631 9.5,15.5C 10.8333,15.5 12.1667,15.5 13.5,15.5C 9.70159,16.4834 5.70159,16.8168 1.5,16.5C 1.5,16.1667 1.5,15.8333 1.5,15.5C 3.28801,15.7852 4.95467,15.4519 6.5,14.5C 5.31116,13.5713 3.97782,13.238 2.5,13.5C 2.5,10.8333 2.5,8.16667 2.5,5.5C 2.5,5.16667 2.5,4.83333 2.5,4.5 Z"/></g>
<g><path style="opacity:0.267" fill="#9d527b" d="M 17.5,10.5 C 16.8333,10.5 16.5,10.8333 16.5,11.5C 15.661,12.6412 14.9943,13.9745 14.5,15.5C 15.2565,16.7733 15.9232,16.7733 16.5,15.5C 17.1667,15.5 17.8333,15.5 18.5,15.5C 20.0595,15.6498 21.7261,15.9831 23.5,16.5C 23.5,17.1667 23.5,17.8333 23.5,18.5C 21.6208,19.3414 19.6208,19.6747 17.5,19.5C 17.7373,20.791 17.404,21.791 16.5,22.5C 13.5,21.8333 10.5,21.1667 7.5,20.5C 10.5184,20.6646 13.5184,20.498 16.5,20C 15.9558,19.2828 15.2891,18.7828 14.5,18.5C 10.1667,18.5 5.83333,18.5 1.5,18.5C 1.5,17.8333 1.5,17.1667 1.5,16.5C 5.70159,16.8168 9.70159,16.4834 13.5,15.5C 14.038,13.8828 14.3713,12.2161 14.5,10.5C 15.4722,7.90173 16.4722,7.90173 17.5,10.5 Z"/></g>
<g><path style="opacity:0.133" fill="#7e5932" d="M 1.5,19.5 C 1.5,19.1667 1.5,18.8333 1.5,18.5C 5.83333,18.5 10.1667,18.5 14.5,18.5C 11.5618,19.0703 9.2285,19.7369 7.5,20.5C 10.5,21.1667 13.5,21.8333 16.5,22.5C 12.8333,22.5 9.16667,22.5 5.5,22.5C 5.5,21.5 5.5,20.5 5.5,19.5C 4.16667,19.5 2.83333,19.5 1.5,19.5 Z"/></g>
<g><path style="opacity:0.733" fill="#77bc34" d="M 14.5,18.5 C 15.2891,18.7828 15.9558,19.2828 16.5,20C 13.5184,20.498 10.5184,20.6646 7.5,20.5C 9.2285,19.7369 11.5618,19.0703 14.5,18.5 Z"/></g>
</svg>
