<?xml version="1.0" encoding="UTF-8"?>
<!DOCTYPE svg PUBLIC "-//W3C//DTD SVG 1.1//EN" "http://www.w3.org/Graphics/SVG/1.1/DTD/svg11.dtd">
<svg xmlns="http://www.w3.org/2000/svg" version="1.1" width="24px" height="24px" style="shape-rendering:geometricPrecision; text-rendering:geometricPrecision; image-rendering:optimizeQuality; fill-rule:evenodd; clip-rule:evenodd" xmlns:xlink="http://www.w3.org/1999/xlink">
<g><path style="opacity:1" fill="#4f68b5" d="M 14.5,3.5 C 15.5676,2.56552 16.901,2.23219 18.5,2.5C 18.5,3.83333 18.5,5.16667 18.5,6.5C 19.791,6.26269 20.791,6.59603 21.5,7.5C 20.0357,8.40536 18.7024,8.40536 17.5,7.5C 15.4086,6.48875 14.4086,5.15541 14.5,3.5 Z"/></g>
<g><path style="opacity:0.192" fill="#4dc39d" d="M 14.5,3.5 C 14.4086,5.15541 15.4086,6.48875 17.5,7.5C 13.9652,7.66309 12.9652,6.32975 14.5,3.5 Z"/></g>
<g><path style="opacity:1" fill="#727f9e" d="M 8.5,9.5 C 7.83333,9.5 7.5,9.83333 7.5,10.5C 6.17793,10.33 5.01127,10.6634 4,11.5C 3.50999,10.2068 3.34332,8.87344 3.5,7.5C 4.55832,3.06623 6.22499,2.73289 8.5,6.5C 7.20859,7.52717 7.20859,8.52717 8.5,9.5 Z"/></g>
<g><path style="opacity:0.494" fill="#73a366" d="M -0.5,6.5 C 0.166667,6.5 0.5,6.83333 0.5,7.5C 0.57735,8.74975 1.24402,9.58309 2.5,10C 2.38419,11.2682 2.05085,12.6015 1.5,14C 2.25286,15.487 3.0862,15.6537 4,14.5C 4.46434,15.0944 4.63101,15.7611 4.5,16.5C 3.5,16.5 2.5,16.5 1.5,16.5C 1.56544,16.0618 1.39877,15.7284 1,15.5C 0.721579,16.4158 0.221579,17.0825 -0.5,17.5C -0.5,13.8333 -0.5,10.1667 -0.5,6.5 Z"/></g>
<g><path style="opacity:1" fill="#78858b" d="M 23.5,6.5 C 23.5,9.16667 23.5,11.8333 23.5,14.5C 22.5,14.8333 21.8333,15.5 21.5,16.5C 20.5,16.5 19.5,16.5 18.5,16.5C 19.7939,14.6447 19.4606,14.3113 17.5,15.5C 16.6906,17.0709 16.3573,18.7376 16.5,20.5C 15.5,20.5 14.5,20.5 13.5,20.5C 13.5,19.1667 13.5,17.8333 13.5,16.5C 14.2679,17.2625 14.7679,18.2625 15,19.5C 15.711,17.1009 15.5443,14.7676 14.5,12.5C 14.9569,11.7025 15.6236,11.3691 16.5,11.5C 16.5,10.8333 16.5,10.1667 16.5,9.5C 16.8333,8.83333 17.1667,8.16667 17.5,7.5C 18.7024,8.40536 20.0357,8.40536 21.5,7.5C 22.1667,7.16667 22.8333,6.83333 23.5,6.5 Z"/></g>
<g><path style="opacity:1" fill="#665e9a" d="M 0.5,7.5 C 1.5,8.83333 2.5,8.83333 3.5,7.5C 3.34332,8.87344 3.50999,10.2068 4,11.5C 5.01127,10.6634 6.17793,10.33 7.5,10.5C 7.97041,11.6935 8.97041,12.3601 10.5,12.5C 12.5885,12.3802 13.9218,11.3802 14.5,9.5C 15.1667,9.5 15.8333,9.5 16.5,9.5C 16.5,10.1667 16.5,10.8333 16.5,11.5C 15.6236,11.3691 14.9569,11.7025 14.5,12.5C 15.5443,14.7676 15.711,17.1009 15,19.5C 14.7679,18.2625 14.2679,17.2625 13.5,16.5C 13.5,16.1667 13.5,15.8333 13.5,15.5C 12.0821,13.6921 10.0821,13.0254 7.5,13.5C 7.66212,15.5273 7.49546,17.5273 7,19.5C 6.2917,18.6195 5.45837,17.9528 4.5,17.5C 4.5,17.1667 4.5,16.8333 4.5,16.5C 4.63101,15.7611 4.46434,15.0944 4,14.5C 3.0862,15.6537 2.25286,15.487 1.5,14C 2.05085,12.6015 2.38419,11.2682 2.5,10C 1.24402,9.58309 0.57735,8.74975 0.5,7.5 Z"/></g>
<g><path style="opacity:0.667" fill="#75a769" d="M 8.5,9.5 C 10.4513,10.6414 12.4513,10.6414 14.5,9.5C 13.9218,11.3802 12.5885,12.3802 10.5,12.5C 8.97041,12.3601 7.97041,11.6935 7.5,10.5C 7.5,9.83333 7.83333,9.5 8.5,9.5 Z"/></g>
<g><path style="opacity:0.039" fill="#4766a2" d="M 18.5,16.5 C 18.5,16.8333 18.5,17.1667 18.5,17.5C 19.5,18.1667 20.5,18.8333 21.5,19.5C 19.7839,19.6287 18.1172,19.962 16.5,20.5C 16.3573,18.7376 16.6906,17.0709 17.5,15.5C 19.4606,14.3113 19.7939,14.6447 18.5,16.5 Z"/></g>
<g><path style="opacity:0.671" fill="#9273a2" d="M 1.5,16.5 C 2.20895,17.404 3.20895,17.7373 4.5,17.5C 4.5,18.1667 4.5,18.8333 4.5,19.5C 2.7839,19.6287 1.11723,19.962 -0.5,20.5C -0.5,19.5 -0.5,18.5 -0.5,17.5C 0.221579,17.0825 0.721579,16.4158 1,15.5C 1.39877,15.7284 1.56544,16.0618 1.5,16.5 Z"/></g>
<g><path style="opacity:0.671" fill="#9e6fa6" d="M 23.5,14.5 C 23.5,16.5 23.5,18.5 23.5,20.5C 22.5084,20.6716 21.8417,20.3382 21.5,19.5C 20.5,18.8333 19.5,18.1667 18.5,17.5C 19.791,17.7373 20.791,17.404 21.5,16.5C 21.8333,15.5 22.5,14.8333 23.5,14.5 Z"/></g>
<g><path style="opacity:0.973" fill="#8baf85" d="M 13.5,15.5 C 11.9582,14.6993 10.2915,14.366 8.5,14.5C 8.5,16.5 8.5,18.5 8.5,20.5C 6.90097,20.7678 5.56764,20.4345 4.5,19.5C 4.5,18.8333 4.5,18.1667 4.5,17.5C 5.45837,17.9528 6.2917,18.6195 7,19.5C 7.49546,17.5273 7.66212,15.5273 7.5,13.5C 10.0821,13.0254 12.0821,13.6921 13.5,15.5 Z"/></g>
</svg>
