<?xml version="1.0" encoding="UTF-8"?>
<!DOCTYPE svg PUBLIC "-//W3C//DTD SVG 1.1//EN" "http://www.w3.org/Graphics/SVG/1.1/DTD/svg11.dtd">
<svg xmlns="http://www.w3.org/2000/svg" version="1.1" width="24px" height="24px" style="shape-rendering:geometricPrecision; text-rendering:geometricPrecision; image-rendering:optimizeQuality; fill-rule:evenodd; clip-rule:evenodd" xmlns:xlink="http://www.w3.org/1999/xlink">
<g><path style="opacity:0.322" fill="#7db166" d="M 18.5,0.5 C 18.5,0.166667 18.5,-0.166667 18.5,-0.5C 19.1667,-0.5 19.8333,-0.5 20.5,-0.5C 21.968,0.779138 22.6347,2.4458 22.5,4.5C 21.1667,3.16667 19.8333,1.83333 18.5,0.5 Z"/></g>
<g><path style="opacity:0.376" fill="#8f6e79" d="M 0.5,-0.5 C 6.5,-0.5 12.5,-0.5 18.5,-0.5C 18.5,-0.166667 18.5,0.166667 18.5,0.5C 18.5,0.833333 18.5,1.16667 18.5,1.5C 17.5084,1.32842 16.8417,1.66175 16.5,2.5C 15.8333,2.16667 15.1667,1.83333 14.5,1.5C 11.7531,1.18665 9.08645,1.51998 6.5,2.5C 6.86273,3.18346 7.19607,3.85013 7.5,4.5C 6.50155,4.58715 5.33488,4.92048 4,5.5C 3.0053,4.93406 2.17197,4.26739 1.5,3.5C 5.28865,2.40393 5.28865,1.73727 1.5,1.5C 1.16667,0.833333 0.833333,0.166667 0.5,-0.5 Z"/></g>
<g><path style="opacity:0.627" fill="#805f73" d="M 18.5,0.5 C 19.8333,1.83333 21.1667,3.16667 22.5,4.5C 22.1667,5.5 21.5,6.16667 20.5,6.5C 19.209,6.73731 18.209,6.40397 17.5,5.5C 16.8333,5.5 16.5,5.83333 16.5,6.5C 14.7868,5.36465 14.1201,3.69798 14.5,1.5C 15.1667,1.83333 15.8333,2.16667 16.5,2.5C 17.4916,2.67158 18.1583,2.33825 18.5,1.5C 18.5,1.16667 18.5,0.833333 18.5,0.5 Z"/></g>
<g><path style="opacity:0.35" fill="#7eba9d" d="M -0.5,-0.5 C -0.166667,-0.5 0.166667,-0.5 0.5,-0.5C 0.833333,0.166667 1.16667,0.833333 1.5,1.5C 1.5,2.16667 1.5,2.83333 1.5,3.5C 2.17197,4.26739 3.0053,4.93406 4,5.5C 5.33488,4.92048 6.50155,4.58715 7.5,4.5C 8.16667,4.5 8.5,4.83333 8.5,5.5C 8.5,6.16667 8.5,6.83333 8.5,7.5C 6.07603,7.19244 3.74269,7.52577 1.5,8.5C 3.65509,9.00136 5.32176,10.0014 6.5,11.5C 4.58533,11.2155 2.91866,11.5489 1.5,12.5C 0.833333,12.5 0.166667,12.5 -0.5,12.5C -0.5,8.16667 -0.5,3.83333 -0.5,-0.5 Z"/></g>
<g><path style="opacity:0.694" fill="#a96c7e" d="M 14.5,7.5 C 13.6618,7.84171 13.3284,8.50838 13.5,9.5C 13.6716,10.4916 13.3382,11.1583 12.5,11.5C 11.5,9.83333 10.1667,8.5 8.5,7.5C 8.5,6.83333 8.5,6.16667 8.5,5.5C 11.1974,3.95461 13.1974,4.62128 14.5,7.5 Z"/></g>
<g><path style="opacity:0.298" fill="#95a87b" d="M 17.5,5.5 C 18.209,6.40397 19.209,6.73731 20.5,6.5C 21.209,7.40397 22.209,7.73731 23.5,7.5C 23.5,9.83333 23.5,12.1667 23.5,14.5C 22.9779,12.7809 21.9779,11.4475 20.5,10.5C 19.791,9.59603 18.791,9.26269 17.5,9.5C 17.5,10.5 17.5,11.5 17.5,12.5C 16.5655,13.5676 16.2322,14.901 16.5,16.5C 15.8333,16.5 15.5,16.1667 15.5,15.5C 10.6042,13.5539 5.27087,12.8872 -0.5,13.5C -0.5,13.1667 -0.5,12.8333 -0.5,12.5C 0.166667,12.5 0.833333,12.5 1.5,12.5C 6.17853,12.6658 10.8452,12.4992 15.5,12C 16.1513,10.692 15.4846,9.85862 13.5,9.5C 13.3284,8.50838 13.6618,7.84171 14.5,7.5C 15.4916,7.67158 16.1583,7.33825 16.5,6.5C 16.5,5.83333 16.8333,5.5 17.5,5.5 Z M 20.5,10.5 C 20.1788,12.0481 19.1788,12.7148 17.5,12.5C 17.5,11.5 17.5,10.5 17.5,9.5C 18.791,9.26269 19.791,9.59603 20.5,10.5 Z"/></g>
<g><path style="opacity:0.572" fill="#b4239e" d="M 13.5,9.5 C 15.4846,9.85862 16.1513,10.692 15.5,12C 10.8452,12.4992 6.17853,12.6658 1.5,12.5C 2.91866,11.5489 4.58533,11.2155 6.5,11.5C 8.5,11.5 10.5,11.5 12.5,11.5C 13.3382,11.1583 13.6716,10.4916 13.5,9.5 Z"/></g>
<g><path style="opacity:0.773" fill="#926f7f" d="M 20.5,10.5 C 21.9779,11.4475 22.9779,12.7809 23.5,14.5C 23.5,14.8333 23.5,15.1667 23.5,15.5C 21.7202,16.9899 21.0535,18.9899 21.5,21.5C 20.5,20.1667 19.5,20.1667 18.5,21.5C 17.791,20.596 16.791,20.2627 15.5,20.5C 14.8333,20.5 14.5,20.1667 14.5,19.5C 14.2322,17.901 14.5655,16.5676 15.5,15.5C 15.5,16.1667 15.8333,16.5 16.5,16.5C 16.2322,14.901 16.5655,13.5676 17.5,12.5C 19.1788,12.7148 20.1788,12.0481 20.5,10.5 Z M 16.5,16.5 C 19.0009,16.5109 19.1676,17.1776 17,18.5C 16.5357,17.9056 16.369,17.2389 16.5,16.5 Z"/></g>
<g><path style="opacity:0.741" fill="#8fb498" d="M 7.5,19.5 C 7.5,20.5 7.5,21.5 7.5,22.5C 6.77765,21.4489 5.77765,20.7822 4.5,20.5C 3.83333,15.1667 3.16667,15.1667 2.5,20.5C 1.44886,21.2223 0.782189,22.2223 0.5,23.5C 0.166667,23.5 -0.166667,23.5 -0.5,23.5C -0.5,22.1667 -0.5,20.8333 -0.5,19.5C 2.36159,12.8935 5.02825,12.8935 7.5,19.5 Z M 4.5,20.5 C 3.83333,20.5 3.16667,20.5 2.5,20.5C 3.16667,15.1667 3.83333,15.1667 4.5,20.5 Z"/></g>
<g><path style="opacity:0.604" fill="#907963" d="M 14.5,19.5 C 14.5,20.1667 14.8333,20.5 15.5,20.5C 16.209,21.404 17.209,21.7373 18.5,21.5C 19.5,20.1667 20.5,20.1667 21.5,21.5C 21.5,22.1667 21.5,22.8333 21.5,23.5C 21.1667,23.5 20.8333,23.5 20.5,23.5C 16.3656,22.5151 12.0323,22.1818 7.5,22.5C 7.5,21.5 7.5,20.5 7.5,19.5C 6.91465,16.7395 7.91465,15.0728 10.5,14.5C 13.0103,15.3422 13.677,16.8422 12.5,19C 13.0944,19.4643 13.7611,19.631 14.5,19.5 Z M 9.5,16.5 C 11.337,16.6395 11.6704,17.3061 10.5,18.5C 9.70245,18.0431 9.36912,17.3764 9.5,16.5 Z"/></g>
<g><path style="opacity:0.6" fill="#ab2f9a" d="M 2.5,20.5 C 3.16667,20.5 3.83333,20.5 4.5,20.5C 5.77765,20.7822 6.77765,21.4489 7.5,22.5C 12.0323,22.1818 16.3656,22.5151 20.5,23.5C 13.8333,23.5 7.16667,23.5 0.5,23.5C 0.782189,22.2223 1.44886,21.2223 2.5,20.5 Z"/></g>
</svg>
