<?xml version="1.0" encoding="UTF-8"?>
<!DOCTYPE svg PUBLIC "-//W3C//DTD SVG 1.1//EN" "http://www.w3.org/Graphics/SVG/1.1/DTD/svg11.dtd">
<svg xmlns="http://www.w3.org/2000/svg" version="1.1" width="24px" height="24px" style="shape-rendering:geometricPrecision; text-rendering:geometricPrecision; image-rendering:optimizeQuality; fill-rule:evenodd; clip-rule:evenodd" xmlns:xlink="http://www.w3.org/1999/xlink">
<g><path style="opacity:0.635" fill="#6299a1" d="M 5.5,3.5 C 4.66175,3.84171 4.32842,4.50838 4.5,5.5C 4.5,5.83333 4.5,6.16667 4.5,6.5C 3.66175,6.84171 3.32842,7.50838 3.5,8.5C 2.83333,8.5 2.5,8.16667 2.5,7.5C 2.5,6.5 2.5,5.5 2.5,4.5C -0.188,2.77535 0.145333,1.44202 3.5,0.5C 4.91851,1.00475 5.58517,2.00475 5.5,3.5 Z"/></g>
<g><path style="opacity:0.714" fill="#7a8274" d="M 17.5,3.5 C 17.5,3.83333 17.5,4.16667 17.5,4.5C 17.5,4.83333 17.5,5.16667 17.5,5.5C 15.1732,5.33538 13.0065,4.66871 11,3.5C 8.99348,4.66871 6.82682,5.33538 4.5,5.5C 4.32842,4.50838 4.66175,3.84171 5.5,3.5C 9.48411,2.25746 13.4841,2.25746 17.5,3.5 Z"/></g>
<g><path style="opacity:0.882" fill="#8d4ebc" d="M 2.5,4.5 C 2.5,5.5 2.5,6.5 2.5,7.5C 0.015476,6.73993 0.015476,5.73993 2.5,4.5 Z"/></g>
<g><path style="opacity:0.333" fill="#73889b" d="M 17.5,-0.5 C 18.5,-0.5 19.5,-0.5 20.5,-0.5C 21.881,1.27413 21.5477,2.77413 19.5,4C 20.3279,4.91471 21.3279,5.58138 22.5,6C 21.944,6.38258 21.6107,6.88258 21.5,7.5C 21.1667,7.5 20.8333,7.5 20.5,7.5C 19.6618,7.84171 19.3284,8.50838 19.5,9.5C 19.6107,10.1174 19.944,10.6174 20.5,11C 19.2068,11.49 17.8734,11.6567 16.5,11.5C 18.0311,10.0755 17.6977,9.40879 15.5,9.5C 15.5,8.83333 15.5,8.16667 15.5,7.5C 16.5,7.16667 17.1667,6.5 17.5,5.5C 17.5,5.16667 17.5,4.83333 17.5,4.5C 18.8333,4.16667 18.8333,3.83333 17.5,3.5C 16.1667,2.16667 16.1667,0.833333 17.5,-0.5 Z"/></g>
<g><path style="opacity:0.769" fill="#847b82" d="M 4.5,6.5 C 8.14698,9.31288 11.8136,9.64621 15.5,7.5C 15.5,8.16667 15.5,8.83333 15.5,9.5C 13.2273,9.95681 11.894,11.2901 11.5,13.5C 10.8333,14.1667 10.1667,14.8333 9.5,15.5C 9.5,14.8333 9.16667,14.5 8.5,14.5C 8.5,13.8333 8.5,13.1667 8.5,12.5C 9.37644,12.6309 10.0431,12.2975 10.5,11.5C 8.61358,10.5937 6.78025,9.59374 5,8.5C 4.33333,9.16667 4.33333,9.83333 5,10.5C 5.9947,11.0659 6.82803,11.7326 7.5,12.5C 5.16667,13.1667 2.83333,13.8333 0.5,14.5C 0.166667,14.5 -0.166667,14.5 -0.5,14.5C -0.5,13.8333 -0.5,13.1667 -0.5,12.5C 0.833333,12.5 2.16667,12.5 3.5,12.5C 3.5,11.1667 3.5,9.83333 3.5,8.5C 3.32842,7.50838 3.66175,6.84171 4.5,6.5 Z M 8.5,12.5 C 8.16667,12.5 7.83333,12.5 7.5,12.5C 6.82803,11.7326 5.9947,11.0659 5,10.5C 4.33333,9.83333 4.33333,9.16667 5,8.5C 6.78025,9.59374 8.61358,10.5937 10.5,11.5C 10.0431,12.2975 9.37644,12.6309 8.5,12.5 Z"/></g>
<g><path style="opacity:0.545" fill="#a06698" d="M 20.5,7.5 C 20.8333,7.5 21.1667,7.5 21.5,7.5C 23.0635,10.1316 22.7301,12.4649 20.5,14.5C 19.6522,15.625 18.6522,15.625 17.5,14.5C 15.5853,14.2155 13.9187,14.5489 12.5,15.5C 11.6618,15.1583 11.3284,14.4916 11.5,13.5C 13.0495,12.5592 14.7162,11.8925 16.5,11.5C 17.8734,11.6567 19.2068,11.49 20.5,11C 19.944,10.6174 19.6107,10.1174 19.5,9.5C 20.3382,9.15829 20.6716,8.49162 20.5,7.5 Z"/></g>
<g><path style="opacity:0.733" fill="#78b421" d="M 11.5,13.5 C 11.3284,14.4916 11.6618,15.1583 12.5,15.5C 14.1667,15.5 15.8333,15.5 17.5,15.5C 17.5,15.8333 17.5,16.1667 17.5,16.5C 12.5,16.5 7.5,16.5 2.5,16.5C 1.16667,16.1667 1.16667,15.8333 2.5,15.5C 4.83333,15.5 7.16667,15.5 9.5,15.5C 10.1667,14.8333 10.8333,14.1667 11.5,13.5 Z"/></g>
<g><path style="opacity:0.933" fill="#8b55af" d="M 7.5,12.5 C 7.83333,12.5 8.16667,12.5 8.5,12.5C 8.5,13.1667 8.5,13.8333 8.5,14.5C 6.26465,14.2053 4.26465,14.5386 2.5,15.5C 1.16667,15.8333 1.16667,16.1667 2.5,16.5C 2.5,16.8333 2.5,17.1667 2.5,17.5C 1.83333,17.5 1.5,17.8333 1.5,18.5C 0.833333,18.5 0.5,18.8333 0.5,19.5C 0.166667,19.5 -0.166667,19.5 -0.5,19.5C -0.5,18.8333 -0.5,18.1667 -0.5,17.5C 0.403972,16.791 0.737305,15.791 0.5,14.5C 2.83333,13.8333 5.16667,13.1667 7.5,12.5 Z"/></g>
<g><path style="opacity:0.6" fill="#b3189a" d="M 1.5,18.5 C 1.5,17.8333 1.83333,17.5 2.5,17.5C 7.5,17.5 12.5,17.5 17.5,17.5C 14.0811,18.2239 10.0811,18.8905 5.5,19.5C 4.29208,18.7659 2.95875,18.4326 1.5,18.5 Z"/></g>
<g><path style="opacity:0.133" fill="#96723f" d="M 17.5,14.5 C 18.6522,15.625 19.6522,15.625 20.5,14.5C 21.404,15.209 21.7373,16.209 21.5,17.5C 16.4682,19.3699 11.1348,20.0366 5.5,19.5C 10.0811,18.8905 14.0811,18.2239 17.5,17.5C 17.5,17.1667 17.5,16.8333 17.5,16.5C 17.5,16.1667 17.5,15.8333 17.5,15.5C 17.5,15.1667 17.5,14.8333 17.5,14.5 Z"/></g>
<g><path style="opacity:0.4" fill="#626f7d" d="M 21.5,17.5 C 22.1667,17.5 22.8333,17.5 23.5,17.5C 23.5,18.1667 23.5,18.8333 23.5,19.5C 22.1667,20.1667 22.1667,20.8333 23.5,21.5C 23.5,22.1667 23.5,22.8333 23.5,23.5C 23.1667,23.5 22.8333,23.5 22.5,23.5C 16.7661,22.8142 10.9328,22.1476 5,21.5C 4.53566,22.0944 4.36899,22.7611 4.5,23.5C 3.83333,23.5 3.16667,23.5 2.5,23.5C 2.01131,22.0048 1.34464,20.6715 0.5,19.5C 0.5,18.8333 0.833333,18.5 1.5,18.5C 2.95875,18.4326 4.29208,18.7659 5.5,19.5C 11.1348,20.0366 16.4682,19.3699 21.5,17.5 Z"/></g>
<g><path style="opacity:0.6" fill="#b20597" d="M 22.5,23.5 C 16.5,23.5 10.5,23.5 4.5,23.5C 4.36899,22.7611 4.53566,22.0944 5,21.5C 10.9328,22.1476 16.7661,22.8142 22.5,23.5 Z"/></g>
</svg>
