<?xml version="1.0" encoding="UTF-8"?>
<!DOCTYPE svg PUBLIC "-//W3C//DTD SVG 1.1//EN" "http://www.w3.org/Graphics/SVG/1.1/DTD/svg11.dtd">
<svg xmlns="http://www.w3.org/2000/svg" version="1.1" width="24px" height="24px" style="shape-rendering:geometricPrecision; text-rendering:geometricPrecision; image-rendering:optimizeQuality; fill-rule:evenodd; clip-rule:evenodd" xmlns:xlink="http://www.w3.org/1999/xlink">
<g><path style="opacity:0.73" fill="#055a9b" d="M 1.5,-0.5 C 5.16667,-0.5 8.83333,-0.5 12.5,-0.5C 12.1667,0.166667 11.8333,0.833333 11.5,1.5C 8.5,1.5 5.5,1.5 2.5,1.5C 2.16667,0.833333 1.83333,0.166667 1.5,-0.5 Z"/></g>
<g><path style="opacity:1" fill="#855c92" d="M 12.5,-0.5 C 13.5,-0.5 14.5,-0.5 15.5,-0.5C 15.5,-0.166667 15.5,0.166667 15.5,0.5C 14.5028,0.470076 13.8361,0.970076 13.5,2C 13.9783,3.30264 14.645,4.46931 15.5,5.5C 11.5,5.5 7.5,5.5 3.5,5.5C 5.5,4.83333 7.5,4.16667 9.5,3.5C 10.8333,3.5 11.5,2.83333 11.5,1.5C 11.8333,0.833333 12.1667,0.166667 12.5,-0.5 Z"/></g>
<g><path style="opacity:1" fill="#626f94" d="M -0.5,-0.5 C 0.166667,-0.5 0.833333,-0.5 1.5,-0.5C 1.83333,0.166667 2.16667,0.833333 2.5,1.5C 2.16667,1.5 1.83333,1.5 1.5,1.5C 0.166667,8.16667 0.166667,14.8333 1.5,21.5C 1.83333,21.5 2.16667,21.5 2.5,21.5C 2.16667,22.1667 1.83333,22.8333 1.5,23.5C 0.833333,23.5 0.166667,23.5 -0.5,23.5C -0.5,15.5 -0.5,7.5 -0.5,-0.5 Z"/></g>
<g><path style="opacity:0.408" fill="#e51319" d="M 1.5,1.5 C 1.5,2.16667 1.5,2.83333 1.5,3.5C 1.5,4.16667 1.5,4.83333 1.5,5.5C 1.5,6.16667 1.5,6.83333 1.5,7.5C 1.5,8.16667 1.5,8.83333 1.5,9.5C 1.26269,10.791 1.59603,11.791 2.5,12.5C 2.5,12.8333 2.5,13.1667 2.5,13.5C 1.16667,14.5 1.16667,15.5 2.5,16.5C 2.5,16.8333 2.5,17.1667 2.5,17.5C 1.56552,18.5676 1.23219,19.901 1.5,21.5C 0.166667,14.8333 0.166667,8.16667 1.5,1.5 Z"/></g>
<g><path style="opacity:0.027" fill="#4a736d" d="M 1.5,3.5 C 4.16667,3.5 6.83333,3.5 9.5,3.5C 7.5,4.16667 5.5,4.83333 3.5,5.5C 2.83333,5.5 2.16667,5.5 1.5,5.5C 1.5,4.83333 1.5,4.16667 1.5,3.5 Z"/></g>
<g><path style="opacity:0.282" fill="#80aa8d" d="M 15.5,0.5 C 18.1717,2.3914 19.1717,5.05806 18.5,8.5C 18.5,10.1667 18.5,11.8333 18.5,13.5C 18.1667,13.5 17.8333,13.5 17.5,13.5C 17.665,10.1501 17.4983,6.81677 17,3.5C 16.502,6.48162 16.3354,9.48162 16.5,12.5C 15.8333,12.5 15.5,12.1667 15.5,11.5C 15.6716,10.5084 15.3382,9.84171 14.5,9.5C 14.8333,8.83333 15.1667,8.16667 15.5,7.5C 15.5,6.83333 15.5,6.16667 15.5,5.5C 14.645,4.46931 13.9783,3.30264 13.5,2C 13.8361,0.970076 14.5028,0.470076 15.5,0.5 Z"/></g>
<g><path style="opacity:0.867" fill="#b6724d" d="M 1.5,7.5 C 6.16667,7.5 10.8333,7.5 15.5,7.5C 15.1667,8.16667 14.8333,8.83333 14.5,9.5C 10.1667,9.5 5.83333,9.5 1.5,9.5C 1.5,8.83333 1.5,8.16667 1.5,7.5 Z"/></g>
<g><path style="opacity:0.267" fill="#7e756b" d="M 15.5,11.5 C 15.5,12.1667 15.8333,12.5 16.5,12.5C 16.6427,14.2624 16.3094,15.9291 15.5,17.5C 15.8148,19.483 16.8148,20.8163 18.5,21.5C 18.1667,22.1667 17.8333,22.8333 17.5,23.5C 16.8333,23.5 16.1667,23.5 15.5,23.5C 15.5,22.8333 15.5,22.1667 15.5,21.5C 14.8333,20.1667 14.1667,20.1667 13.5,21.5C 13.1667,21.5 12.8333,21.5 12.5,21.5C 11.8902,20.609 11.5569,19.609 11.5,18.5C 12.2485,17.469 12.9152,16.3024 13.5,15C 9.6437,14.8227 5.97703,14.3227 2.5,13.5C 2.5,13.1667 2.5,12.8333 2.5,12.5C 6.63441,11.5151 10.9677,11.1818 15.5,11.5 Z"/></g>
<g><path style="opacity:0.945" fill="#978f62" d="M 21.5,7.5 C 22.1667,7.5 22.8333,7.5 23.5,7.5C 23.5,9.16667 23.5,10.8333 23.5,12.5C 22.5,13.1667 21.5,13.8333 20.5,14.5C 19.615,12.327 20.2816,10.4937 22.5,9C 21.944,8.61742 21.6107,8.11742 21.5,7.5 Z"/></g>
<g><path style="opacity:0.988" fill="#837995" d="M 21.5,7.5 C 21.6107,8.11742 21.944,8.61742 22.5,9C 20.2816,10.4937 19.615,12.327 20.5,14.5C 20.1667,15.1667 19.8333,15.8333 19.5,16.5C 18.6618,16.1583 18.3284,15.4916 18.5,14.5C 18.5,14.1667 18.5,13.8333 18.5,13.5C 18.5,11.8333 18.5,10.1667 18.5,8.5C 19.391,7.89022 20.391,7.55688 21.5,7.5 Z"/></g>
<g><path style="opacity:0.467" fill="#276196" d="M 11.5,18.5 C 8.2869,18.81 5.2869,18.4767 2.5,17.5C 2.5,17.1667 2.5,16.8333 2.5,16.5C 4.96638,15.3659 7.63305,15.1993 10.5,16C 11.2524,16.6708 11.5858,17.5041 11.5,18.5 Z"/></g>
<g><path style="opacity:0.282" fill="#3d7497" d="M 17.5,13.5 C 17.5,14.1667 17.8333,14.5 18.5,14.5C 18.3284,15.4916 18.6618,16.1583 19.5,16.5C 18.6993,18.0418 18.366,19.7085 18.5,21.5C 16.8148,20.8163 15.8148,19.483 15.5,17.5C 16.3094,15.9291 16.6427,14.2624 16.5,12.5C 16.3354,9.48162 16.502,6.48162 17,3.5C 17.4983,6.81677 17.665,10.1501 17.5,13.5 Z"/></g>
<g><path style="opacity:0.711" fill="#055a9b" d="M 2.5,21.5 C 5.83333,21.5 9.16667,21.5 12.5,21.5C 12.8333,21.5 13.1667,21.5 13.5,21.5C 14.1667,21.5 14.8333,21.5 15.5,21.5C 15.5,22.1667 15.5,22.8333 15.5,23.5C 10.8333,23.5 6.16667,23.5 1.5,23.5C 1.83333,22.8333 2.16667,22.1667 2.5,21.5 Z"/></g>
</svg>
