<?xml version="1.0" encoding="UTF-8"?>
<!DOCTYPE svg PUBLIC "-//W3C//DTD SVG 1.1//EN" "http://www.w3.org/Graphics/SVG/1.1/DTD/svg11.dtd">
<svg xmlns="http://www.w3.org/2000/svg" version="1.1" width="24px" height="24px" style="shape-rendering:geometricPrecision; text-rendering:geometricPrecision; image-rendering:optimizeQuality; fill-rule:evenodd; clip-rule:evenodd" xmlns:xlink="http://www.w3.org/1999/xlink">
<g><path style="opacity:0.133" fill="#986b7e" d="M 3.5,-0.5 C 3.83333,-0.5 4.16667,-0.5 4.5,-0.5C 4.5,-0.166667 4.5,0.166667 4.5,0.5C 4.5,1.16667 4.5,1.83333 4.5,2.5C 4.16667,2.5 3.83333,2.5 3.5,2.5C 2.44802,2.35055 1.44802,2.51722 0.5,3C 1.30501,4.11268 1.97168,5.27935 2.5,6.5C 1.83333,6.5 1.5,6.83333 1.5,7.5C 0.833333,7.16667 0.166667,6.83333 -0.5,6.5C -0.5,4.5 -0.5,2.5 -0.5,0.5C 1.09903,0.767809 2.43236,0.434475 3.5,-0.5 Z"/></g>
<g><path style="opacity:0.133" fill="#a75557" d="M 4.5,0.5 C 4.5,0.166667 4.5,-0.166667 4.5,-0.5C 9.5,-0.5 14.5,-0.5 19.5,-0.5C 20.5676,0.434475 21.901,0.767809 23.5,0.5C 23.5,1.16667 23.5,1.83333 23.5,2.5C 23.1667,2.5 22.8333,2.5 22.5,2.5C 21.5,2.5 20.5,2.5 19.5,2.5C 19.1667,2.5 18.8333,2.5 18.5,2.5C 14.2853,0.563563 9.6186,-0.103103 4.5,0.5 Z"/></g>
<g><path style="opacity:0.808" fill="#c9c36b" d="M 3.5,2.5 C 3.83333,2.5 4.16667,2.5 4.5,2.5C 4.5,4.5 4.5,6.5 4.5,8.5C 4.5,9.16667 4.16667,9.5 3.5,9.5C 3.5,8.16667 2.83333,7.5 1.5,7.5C 1.5,6.83333 1.83333,6.5 2.5,6.5C 3.43448,5.43236 3.76781,4.09903 3.5,2.5 Z"/></g>
<g><path style="opacity:0.808" fill="#bda564" d="M 18.5,2.5 C 18.8333,2.5 19.1667,2.5 19.5,2.5C 19.2322,4.09903 19.5655,5.43236 20.5,6.5C 20.5,6.83333 20.5,7.16667 20.5,7.5C 19.6618,7.84171 19.3284,8.50838 19.5,9.5C 18.8333,9.83333 18.1667,10.1667 17.5,10.5C 18.2653,7.90391 18.5987,5.23725 18.5,2.5 Z"/></g>
<g><path style="opacity:0.102" fill="#7f8ba6" d="M 10.5,1.5 C 11.9819,3.91047 13.3152,6.57714 14.5,9.5C 12.8333,10.8333 11.1667,10.8333 9.5,9.5C 11.0396,8.46792 11.5396,7.13459 11,5.5C 10.1072,6.71118 9.2739,6.71118 8.5,5.5C 9.63023,4.37765 10.2969,3.04432 10.5,1.5 Z"/></g>
<g><path style="opacity:0.02" fill="#6d7ca5" d="M 22.5,2.5 C 22.8333,2.5 23.1667,2.5 23.5,2.5C 23.5,3.83333 23.5,5.16667 23.5,6.5C 22.609,7.10978 21.609,7.44312 20.5,7.5C 20.5,7.16667 20.5,6.83333 20.5,6.5C 21.1667,5.16667 21.8333,3.83333 22.5,2.5 Z"/></g>
<g><path style="opacity:0.631" fill="#7181a2" d="M 4.5,8.5 C 5.59302,10.3492 6.92635,12.0158 8.5,13.5C 7.83333,13.5 7.16667,13.5 6.5,13.5C 4.73758,12.7377 3.73758,11.4044 3.5,9.5C 4.16667,9.5 4.5,9.16667 4.5,8.5 Z"/></g>
<g><path style="opacity:0.012" fill="#8172ac" d="M 19.5,9.5 C 18.9202,11.7488 17.5869,13.4154 15.5,14.5C 15.5,13.8333 15.1667,13.5 14.5,13.5C 15.5,12.5 16.5,11.5 17.5,10.5C 18.1667,10.1667 18.8333,9.83333 19.5,9.5 Z"/></g>
<g><path style="opacity:0.282" fill="#828381" d="M 6.5,13.5 C 7.16667,13.5 7.83333,13.5 8.5,13.5C 10.5,13.5 12.5,13.5 14.5,13.5C 15.1667,13.5 15.5,13.8333 15.5,14.5C 15.5,15.1667 15.5,15.8333 15.5,16.5C 15.1667,16.5 14.8333,16.5 14.5,16.5C 12.7354,15.5386 10.7354,15.2053 8.5,15.5C 8.5,14.8333 8.16667,14.5 7.5,14.5C 6.83333,14.5 6.5,14.1667 6.5,13.5 Z"/></g>
<g><path style="opacity:0.22" fill="#895471" d="M 7.5,14.5 C 8.16667,14.5 8.5,14.8333 8.5,15.5C 10.2646,16.4614 12.2646,16.7947 14.5,16.5C 12.5,17.1667 10.5,17.8333 8.5,18.5C 8.5,19.1667 8.16667,19.5 7.5,19.5C 6.49291,19.4524 6.15957,20.4524 6.5,22.5C 9.83333,22.5 13.1667,22.5 16.5,22.5C 16.8333,22.5 17.1667,22.5 17.5,22.5C 17.5,22.8333 17.5,23.1667 17.5,23.5C 13.5,23.5 9.5,23.5 5.5,23.5C 5.28951,20.248 5.95617,17.248 7.5,14.5 Z"/></g>
<g><path style="opacity:0.22" fill="#4f6d7d" d="M 14.5,16.5 C 14.8333,16.5 15.1667,16.5 15.5,16.5C 17.3079,17.9179 17.9746,19.9179 17.5,22.5C 17.1667,22.5 16.8333,22.5 16.5,22.5C 16.8404,20.4524 16.5071,19.4524 15.5,19.5C 13.283,18.6314 10.9496,18.298 8.5,18.5C 10.5,17.8333 12.5,17.1667 14.5,16.5 Z"/></g>
<g><path style="opacity:0.067" fill="#70528d" d="M 8.5,18.5 C 10.9496,18.298 13.283,18.6314 15.5,19.5C 14.6661,20.7479 13.3328,21.4146 11.5,21.5C 9.66723,21.4146 8.3339,20.7479 7.5,19.5C 8.16667,19.5 8.5,19.1667 8.5,18.5 Z"/></g>
</svg>
