<?xml version="1.0" encoding="UTF-8"?>
<!DOCTYPE svg PUBLIC "-//W3C//DTD SVG 1.1//EN" "http://www.w3.org/Graphics/SVG/1.1/DTD/svg11.dtd">
<svg xmlns="http://www.w3.org/2000/svg" version="1.1" width="24px" height="24px" style="shape-rendering:geometricPrecision; text-rendering:geometricPrecision; image-rendering:optimizeQuality; fill-rule:evenodd; clip-rule:evenodd" xmlns:xlink="http://www.w3.org/1999/xlink">
<g><path style="opacity:0.692" fill="#075b9b" d="M 23.5,1.5 C 23.5,8.16667 23.5,14.8333 23.5,21.5C 15.5,22.8333 7.5,22.8333 -0.5,21.5C -0.5,14.8333 -0.5,8.16667 -0.5,1.5C 7.46977,0.195548 15.4698,0.195548 23.5,1.5 Z M 1.5,2.5 C 8.17499,2.33375 14.8417,2.50042 21.5,3C 22.4601,6.72998 22.7935,10.5633 22.5,14.5C 15.1667,14.5 7.83333,14.5 0.5,14.5C 0.236737,10.3998 0.57007,6.39977 1.5,2.5 Z M 0.5,16.5 C 2.02568,17.1047 3.02568,18.2714 3.5,20C 1.06577,20.3329 0.0657728,19.1662 0.5,16.5 Z M 5.5,17.5 C 10.9753,16.5111 16.642,16.1778 22.5,16.5C 22.67,17.8221 22.3366,18.9887 21.5,20C 16.1357,20.8295 10.8023,20.6628 5.5,19.5C 6.54982,18.5712 6.54982,17.9046 5.5,17.5 Z"/></g>
<g><path style="opacity:0.566" fill="#085b9b" d="M 8.5,5.5 C 11.5715,4.92454 13.5715,6.09121 14.5,9C 13.0558,11.0345 11.0558,11.8678 8.5,11.5C 8.5,9.5 8.5,7.5 8.5,5.5 Z"/></g>
<g><path style="opacity:0.329" fill="#065a9b" d="M 7.5,17.5 C 11.8839,17.1744 16.2172,17.5078 20.5,18.5C 18.3333,18.8333 16.1667,19.1667 14,19.5C 11.3897,19.4668 9.22299,18.8001 7.5,17.5 Z"/></g>
</svg>
