<?xml version="1.0" encoding="UTF-8"?>
<!DOCTYPE svg PUBLIC "-//W3C//DTD SVG 1.1//EN" "http://www.w3.org/Graphics/SVG/1.1/DTD/svg11.dtd">
<svg xmlns="http://www.w3.org/2000/svg" version="1.1" width="24px" height="24px" style="shape-rendering:geometricPrecision; text-rendering:geometricPrecision; image-rendering:optimizeQuality; fill-rule:evenodd; clip-rule:evenodd" xmlns:xlink="http://www.w3.org/1999/xlink">
<g><path style="opacity:0.588" fill="#065b9b" d="M -0.5,1.5 C 6.5,1.5 13.5,1.5 20.5,1.5C 20.5,1.83333 20.5,2.16667 20.5,2.5C 18.7078,3.30912 16.7078,3.80912 14.5,4C 18.4778,7.62264 18.4778,11.1226 14.5,14.5C 12.5879,14.4877 10.5879,14.821 8.5,15.5C 4.5548,11.6639 4.5548,7.83059 8.5,4C 5.85397,3.50258 3.1873,3.33591 0.5,3.5C 0.183249,7.70159 0.516582,11.7016 1.5,15.5C 7.98736,16.3283 14.654,16.8283 21.5,17C 14.8417,17.4996 8.17499,17.6663 1.5,17.5C 0.355943,18.8493 0.355943,19.1826 1.5,18.5C 8.07223,20.0868 14.7389,21.0868 21.5,21.5C 14.1667,21.5 6.83333,21.5 -0.5,21.5C -0.5,14.8333 -0.5,8.16667 -0.5,1.5 Z M 8.5,15.5 C 6.16667,15.5 3.83333,15.5 1.5,15.5C 0.516582,11.7016 0.183249,7.70159 0.5,3.5C 3.1873,3.33591 5.85397,3.50258 8.5,4C 4.5548,7.83059 4.5548,11.6639 8.5,15.5 Z M 9.5,6.5 C 12.639,4.80571 14.639,5.80571 15.5,9.5C 14.639,13.1943 12.639,14.1943 9.5,12.5C 16.1667,10.5 16.1667,8.5 9.5,6.5 Z M 9.5,6.5 C 9.5,8.5 9.5,10.5 9.5,12.5C 6.83333,10.5 6.83333,8.5 9.5,6.5 Z"/></g>
<g><path style="opacity:0.566" fill="#055a9b" d="M 20.5,2.5 C 20.5,2.16667 20.5,1.83333 20.5,1.5C 21.5,1.5 22.5,1.5 23.5,1.5C 23.5,8.16667 23.5,14.8333 23.5,21.5C 22.8333,21.5 22.1667,21.5 21.5,21.5C 14.7389,21.0868 8.07223,20.0868 1.5,18.5C 1.5,18.1667 1.5,17.8333 1.5,17.5C 8.17499,17.6663 14.8417,17.4996 21.5,17C 14.654,16.8283 7.98736,16.3283 1.5,15.5C 3.83333,15.5 6.16667,15.5 8.5,15.5C 10.5879,14.821 12.5879,14.4877 14.5,14.5C 16.9479,15.4731 19.6146,15.8064 22.5,15.5C 22.6655,11.4862 22.4988,7.48617 22,3.5C 21.6174,2.94404 21.1174,2.61071 20.5,2.5 Z"/></g>
<g><path style="opacity:0.61" fill="#055a9b" d="M 9.5,6.5 C 16.1667,8.5 16.1667,10.5 9.5,12.5C 9.5,10.5 9.5,8.5 9.5,6.5 Z"/></g>
</svg>
