<?xml version="1.0" encoding="UTF-8"?>
<!DOCTYPE svg PUBLIC "-//W3C//DTD SVG 1.1//EN" "http://www.w3.org/Graphics/SVG/1.1/DTD/svg11.dtd">
<svg xmlns="http://www.w3.org/2000/svg" version="1.1" width="24px" height="24px" style="shape-rendering:geometricPrecision; text-rendering:geometricPrecision; image-rendering:optimizeQuality; fill-rule:evenodd; clip-rule:evenodd" xmlns:xlink="http://www.w3.org/1999/xlink">
<g><path style="opacity:0.333" fill="#585c78" d="M 16.5,2.5 C 16.1667,2.5 15.8333,2.5 15.5,2.5C 12.8333,2.5 10.1667,2.5 7.5,2.5C 6.56552,3.56764 6.23219,4.90097 6.5,6.5C 6.16667,6.5 5.83333,6.5 5.5,6.5C 4.49212,1.50787 6.49212,-0.492126 11.5,0.5C 13.6397,0.556082 15.3064,1.22275 16.5,2.5 Z"/></g>
<g><path style="opacity:0.2" fill="#567379" d="M 15.5,2.5 C 15.8333,2.5 16.1667,2.5 16.5,2.5C 16.5,3.83333 16.5,5.16667 16.5,6.5C 16.4431,7.60895 16.1098,8.60895 15.5,9.5C 15.1667,9.5 14.8333,9.5 14.5,9.5C 14.5,8.83333 14.1667,8.5 13.5,8.5C 11.9581,7.83652 10.2914,7.16985 8.5,6.5C 10.9977,5.06228 13.1644,5.39562 15,7.5C 15.4935,5.86586 15.6602,4.19919 15.5,2.5 Z"/></g>
<g><path style="opacity:0.486" fill="#8b7db5" d="M 22.5,7.5 C 22.1667,7.5 21.8333,7.5 21.5,7.5C 20.209,7.26269 19.209,7.59603 18.5,8.5C 17.8333,8.5 17.5,8.83333 17.5,9.5C 16.8333,9.5 16.5,9.83333 16.5,10.5C 15.8333,10.5 15.5,10.1667 15.5,9.5C 16.1098,8.60895 16.4431,7.60895 16.5,6.5C 18.4672,6.73943 20.3005,6.40609 22,5.5C 22.4643,6.09442 22.631,6.76109 22.5,7.5 Z"/></g>
<g><path style="opacity:0.494" fill="#538077" d="M 5.5,6.5 C 5.83333,6.5 6.16667,6.5 6.5,6.5C 6.5,7.16667 6.16667,7.5 5.5,7.5C 4.16667,7.5 2.83333,7.5 1.5,7.5C 1.5,10.5 1.5,13.5 1.5,16.5C 2.83333,16.5 4.16667,16.5 5.5,16.5C 5.5,16.8333 5.5,17.1667 5.5,17.5C 4.06953,17.4208 2.73619,17.7542 1.5,18.5C 0.339148,14.2047 0.172482,9.87132 1,5.5C 2.35613,6.38017 3.85613,6.71351 5.5,6.5 Z"/></g>
<g><path style="opacity:0.071" fill="#0f6074" d="M 7.5,2.5 C 7.5,6.16667 7.5,9.83333 7.5,13.5C 6.83333,13.5 6.5,13.8333 6.5,14.5C 5.53178,12.3926 5.19845,10.0593 5.5,7.5C 6.16667,7.5 6.5,7.16667 6.5,6.5C 6.23219,4.90097 6.56552,3.56764 7.5,2.5 Z"/></g>
<g><path style="opacity:0.494" fill="#357e79" d="M 21.5,7.5 C 21.8333,7.5 22.1667,7.5 22.5,7.5C 22.8226,11.226 22.4892,14.8927 21.5,18.5C 20.2638,17.7542 18.9305,17.4208 17.5,17.5C 17.5,17.1667 17.5,16.8333 17.5,16.5C 18.8333,16.5 20.1667,16.5 21.5,16.5C 21.5,13.5 21.5,10.5 21.5,7.5 Z"/></g>
<g><path style="opacity:0.549" fill="#81786d" d="M 13.5,8.5 C 14.1667,8.5 14.5,8.83333 14.5,9.5C 14.7107,11.4241 15.3774,11.7574 16.5,10.5C 17.1667,10.5 17.5,10.1667 17.5,9.5C 17.5,8.83333 17.8333,8.5 18.5,8.5C 19.2724,10.5295 18.6057,12.3629 16.5,14C 13.1832,14.4983 9.8499,14.665 6.5,14.5C 6.5,13.8333 6.83333,13.5 7.5,13.5C 9.85684,13.6633 12.1902,13.4966 14.5,13C 12.4233,12.8078 10.4233,12.3078 8.5,11.5C 13.7208,10.3756 13.7208,9.54227 8.5,9C 10.1341,8.50649 11.8008,8.33982 13.5,8.5 Z M 14.5,9.5 C 14.8333,9.5 15.1667,9.5 15.5,9.5C 15.5,10.1667 15.8333,10.5 16.5,10.5C 15.3774,11.7574 14.7107,11.4241 14.5,9.5 Z"/></g>
<g><path style="opacity:0.267" fill="#857676" d="M 5.5,17.5 C 5.5,17.1667 5.5,16.8333 5.5,16.5C 9.5,16.5 13.5,16.5 17.5,16.5C 17.5,16.8333 17.5,17.1667 17.5,17.5C 15.901,17.2322 14.5676,17.5655 13.5,18.5C 13.1667,18.5 12.8333,18.5 12.5,18.5C 11.8333,17.1667 11.1667,17.1667 10.5,18.5C 11.7175,19.1614 13.0508,19.8281 14.5,20.5C 12.3052,21.7691 10.1385,21.7691 8,20.5C 7.53566,21.0944 7.36899,21.7611 7.5,22.5C 6.06453,20.335 6.7312,18.835 9.5,18C 8.20677,17.51 6.87344,17.3433 5.5,17.5 Z"/></g>
<g><path style="opacity:0.222" fill="#3b5b9e" d="M 10.5,18.5 C 11.1667,18.5 11.8333,18.5 12.5,18.5C 12.8333,18.5 13.1667,18.5 13.5,18.5C 15.9118,18.6941 16.9118,20.0274 16.5,22.5C 13.5,22.5 10.5,22.5 7.5,22.5C 7.36899,21.7611 7.53566,21.0944 8,20.5C 10.1385,21.7691 12.3052,21.7691 14.5,20.5C 13.0508,19.8281 11.7175,19.1614 10.5,18.5 Z"/></g>
</svg>
