<svg id="svg" version="1.1" xmlns="http://www.w3.org/2000/svg" xmlns:xlink="http://www.w3.org/1999/xlink" width="400" height="266.6666666666667" viewBox="0, 0, 400,266.6666666666667"><g id="svgg"><path id="path0" d="M139.667 44.526 C 133.596 44.855,127.153 45.941,120.833 47.702 C 119.128 48.177,115.202 49.464,114.558 49.759 C 114.269 49.892,113.947 50.000,113.842 50.000 C 113.737 50.000,113.340 50.150,112.961 50.333 C 112.581 50.517,112.165 50.667,112.036 50.667 C 111.907 50.667,111.602 50.775,111.359 50.908 C 111.116 51.041,110.054 51.525,109.000 51.983 C 106.613 53.020,101.436 55.638,101.361 55.846 C 101.331 55.931,101.231 56.000,101.141 56.000 C 100.888 56.000,98.000 57.717,98.000 57.868 C 98.000 57.940,97.926 58.000,97.837 58.000 C 97.747 58.000,97.240 58.280,96.712 58.623 C 96.183 58.966,95.629 59.322,95.480 59.415 C 94.822 59.826,94.083 60.359,91.583 62.225 C 90.117 63.320,88.793 64.336,88.642 64.483 C 88.491 64.630,88.043 65.012,87.648 65.333 C 86.284 66.439,83.579 68.920,81.917 70.590 C 79.167 73.351,74.000 79.378,74.000 79.823 C 74.000 79.920,73.932 80.000,73.850 80.000 C 73.717 80.000,73.335 80.527,72.723 81.554 C 72.617 81.732,72.465 81.924,72.384 81.981 C 72.304 82.037,71.941 82.524,71.578 83.062 C 70.604 84.503,70.373 84.863,70.065 85.417 C 69.912 85.692,69.735 85.954,69.672 86.000 C 69.609 86.046,69.338 86.496,69.070 87.000 C 68.802 87.504,68.537 87.954,68.481 88.000 C 68.424 88.046,68.216 88.383,68.017 88.750 C 67.819 89.117,67.463 89.754,67.227 90.167 C 65.577 93.051,62.822 99.041,61.669 102.250 C 61.472 102.800,61.165 103.626,60.988 104.087 C 60.811 104.547,60.667 105.005,60.667 105.106 C 60.667 105.207,60.525 105.655,60.353 106.103 C 60.065 106.848,59.865 107.526,59.000 110.667 C 56.571 119.493,55.458 131.827,56.339 140.165 C 56.430 141.035,56.576 142.548,56.662 143.528 C 56.847 145.632,57.505 149.575,58.217 152.833 C 58.327 153.337,58.406 153.844,58.394 153.958 C 58.381 154.073,58.437 154.167,58.519 154.167 C 58.600 154.167,58.667 154.346,58.667 154.566 C 58.667 154.785,58.817 155.479,59.002 156.107 C 59.186 156.736,59.489 157.775,59.677 158.417 C 60.328 160.651,60.905 162.419,61.118 162.833 C 61.235 163.063,61.332 163.349,61.332 163.469 C 61.333 163.670,61.583 164.339,62.308 166.078 C 62.459 166.442,62.583 166.779,62.583 166.828 C 62.584 166.914,63.179 168.302,63.874 169.833 C 64.677 171.605,67.388 176.971,67.621 177.250 C 67.698 177.342,67.960 177.801,68.204 178.270 C 68.607 179.046,69.295 180.163,69.627 180.583 C 69.700 180.675,69.977 181.125,70.243 181.583 C 70.689 182.351,71.920 184.144,72.327 184.618 C 72.422 184.729,72.500 184.859,72.500 184.908 C 72.500 185.053,73.692 186.578,73.852 186.639 C 73.934 186.669,74.000 186.768,74.000 186.858 C 74.000 186.949,74.342 187.449,74.760 187.970 C 75.178 188.490,75.610 189.030,75.719 189.169 C 76.171 189.746,77.419 191.256,77.507 191.333 C 77.560 191.379,78.191 192.092,78.910 192.917 C 80.593 194.847,84.493 198.688,86.417 200.309 C 87.242 201.004,87.977 201.669,88.050 201.787 C 88.123 201.904,88.292 202.000,88.425 202.000 C 88.558 202.000,88.667 202.066,88.667 202.147 C 88.667 202.227,89.098 202.617,89.625 203.012 C 90.152 203.407,90.608 203.791,90.639 203.865 C 90.669 203.939,90.784 204.000,90.894 204.000 C 91.003 204.000,91.216 204.131,91.368 204.292 C 91.778 204.726,93.665 206.089,95.695 207.417 C 95.835 207.508,96.280 207.807,96.683 208.080 C 97.584 208.690,97.785 208.817,98.602 209.296 C 98.959 209.505,99.513 209.834,99.833 210.028 C 100.154 210.223,100.829 210.607,101.333 210.882 C 101.837 211.157,102.662 211.619,103.167 211.910 C 104.092 212.443,105.607 213.187,107.750 214.160 C 108.392 214.451,109.217 214.827,109.583 214.996 C 109.950 215.165,110.625 215.451,111.083 215.632 C 111.542 215.813,112.292 216.111,112.750 216.294 C 114.497 216.992,115.429 217.333,115.583 217.333 C 115.671 217.333,116.120 217.476,116.580 217.650 C 117.040 217.824,117.904 218.114,118.500 218.293 C 119.096 218.473,120.108 218.778,120.750 218.970 C 126.214 220.611,133.454 221.814,140.099 222.186 C 145.360 222.480,154.084 222.155,156.917 221.559 C 157.100 221.521,157.813 221.421,158.500 221.338 C 161.592 220.964,168.510 219.376,171.333 218.393 C 171.746 218.249,172.308 218.075,172.583 218.006 C 172.858 217.937,173.374 217.757,173.729 217.607 C 174.084 217.456,174.481 217.333,174.612 217.333 C 174.742 217.333,175.160 217.183,175.539 217.000 C 175.919 216.817,176.326 216.667,176.444 216.667 C 176.651 216.667,177.546 216.298,178.917 215.648 C 179.283 215.475,179.650 215.333,179.732 215.333 C 179.813 215.333,180.188 215.191,180.565 215.017 C 180.942 214.844,181.775 214.459,182.417 214.164 C 184.603 213.155,188.154 211.343,188.566 211.025 C 188.667 210.947,189.162 210.666,189.667 210.400 C 190.171 210.134,190.846 209.747,191.167 209.539 C 191.487 209.331,191.862 209.088,192.000 209.000 C 192.137 208.912,192.535 208.651,192.882 208.420 C 193.230 208.189,193.545 208.000,193.582 208.000 C 193.663 208.000,195.213 206.975,195.333 206.842 C 195.379 206.791,195.567 206.655,195.750 206.539 C 196.879 205.826,200.000 203.481,200.000 203.347 C 200.000 203.294,199.046 202.462,197.879 201.500 C 155.053 166.164,155.706 98.971,199.216 64.105 C 199.656 63.753,199.994 63.406,199.966 63.333 C 199.903 63.165,198.185 61.834,197.000 61.035 C 196.496 60.696,196.046 60.377,196.000 60.328 C 195.954 60.279,195.476 59.941,194.938 59.578 C 193.532 58.628,193.155 58.385,192.500 58.002 C 192.179 57.814,191.317 57.288,190.583 56.832 C 189.850 56.377,189.181 56.003,189.096 56.002 C 189.012 56.001,188.823 55.892,188.677 55.759 C 188.305 55.423,183.507 53.001,181.362 52.067 C 178.896 50.993,178.733 50.925,177.417 50.421 C 176.775 50.175,175.899 49.830,175.469 49.654 C 175.040 49.478,174.585 49.333,174.459 49.333 C 174.333 49.333,173.919 49.183,173.539 49.000 C 173.160 48.817,172.752 48.667,172.633 48.667 C 172.514 48.667,171.967 48.518,171.417 48.337 C 169.470 47.696,166.828 47.000,163.917 46.361 C 156.327 44.696,148.068 44.071,139.667 44.526 " stroke="none" fill="#ec041b" fill-rule="evenodd"></path><path id="path1" d="M199.167 64.141 C 155.715 99.301,155.020 165.848,197.734 201.376 L 199.884 203.165 200.651 202.546 C 201.072 202.206,201.454 201.886,201.500 201.834 C 201.546 201.782,202.294 201.142,203.162 200.412 C 207.625 196.656,214.030 189.624,217.351 184.833 C 217.764 184.237,218.365 183.375,218.686 182.917 C 234.939 159.752,238.274 127.944,227.372 100.083 C 224.549 92.868,218.555 82.694,214.067 77.500 C 213.869 77.271,213.118 76.371,212.398 75.500 C 209.946 72.534,204.209 66.976,200.667 64.136 L 199.917 63.534 199.167 64.141 " stroke="none" fill="#fb5b04" fill-rule="evenodd"></path><path id="path2" d="M249.667 44.509 C 248.796 44.579,247.483 44.675,246.750 44.723 C 246.017 44.772,244.592 44.928,243.583 45.070 C 242.575 45.213,241.450 45.371,241.083 45.422 C 239.846 45.594,239.578 45.641,238.210 45.918 C 237.460 46.070,236.749 46.212,236.631 46.233 C 235.812 46.379,233.622 46.891,233.000 47.081 C 232.588 47.207,231.950 47.363,231.583 47.427 C 231.217 47.492,230.703 47.653,230.441 47.785 C 230.179 47.918,229.767 48.053,229.524 48.085 C 229.282 48.117,229.083 48.155,229.083 48.168 C 229.083 48.181,228.971 48.216,228.833 48.245 C 228.599 48.294,225.599 49.311,223.750 49.968 C 223.292 50.131,222.753 50.355,222.553 50.466 C 222.352 50.576,222.050 50.667,221.881 50.667 C 221.712 50.667,221.426 50.769,221.245 50.895 C 220.853 51.167,218.838 52.022,218.542 52.042 C 218.427 52.049,218.333 52.118,218.333 52.194 C 218.333 52.271,218.277 52.321,218.208 52.307 C 217.957 52.254,213.111 54.623,212.292 55.200 C 212.040 55.378,211.833 55.477,211.833 55.422 C 211.833 55.366,211.675 55.467,211.482 55.647 C 211.290 55.827,210.896 56.069,210.607 56.186 C 210.319 56.302,210.046 56.441,210.000 56.495 C 209.912 56.598,206.696 58.536,206.425 58.650 C 206.337 58.687,206.116 58.856,205.935 59.025 C 205.753 59.195,205.505 59.333,205.385 59.333 C 205.265 59.333,205.167 59.408,205.167 59.500 C 205.167 59.592,205.089 59.667,204.993 59.667 C 204.897 59.667,204.729 59.739,204.618 59.828 C 203.269 60.911,202.500 61.489,202.500 61.420 C 202.500 61.373,202.331 61.479,202.125 61.654 C 201.919 61.829,201.355 62.281,200.872 62.659 L 199.994 63.346 201.789 64.812 C 229.722 87.638,240.955 126.477,229.607 161.000 C 227.856 166.329,223.842 175.314,222.154 177.684 C 221.978 177.932,221.833 178.174,221.833 178.221 C 221.833 178.515,218.351 183.815,216.614 186.167 C 212.522 191.704,207.270 197.280,202.038 201.643 C 200.382 203.024,199.836 203.667,200.318 203.667 C 200.401 203.667,200.884 204.004,201.390 204.417 C 201.897 204.829,202.387 205.167,202.480 205.167 C 202.574 205.167,202.710 205.262,202.783 205.379 C 202.857 205.496,203.142 205.733,203.417 205.905 C 203.692 206.078,203.977 206.320,204.050 206.443 C 204.123 206.566,204.323 206.667,204.494 206.667 C 204.666 206.667,204.831 206.727,204.861 206.801 C 204.928 206.965,206.657 208.149,207.355 208.510 C 207.632 208.653,207.909 208.841,207.971 208.928 C 208.033 209.015,208.496 209.304,209.000 209.571 C 209.504 209.839,209.954 210.102,210.000 210.157 C 210.046 210.212,210.271 210.346,210.500 210.455 C 210.729 210.565,211.367 210.915,211.917 211.233 C 212.467 211.552,213.442 212.084,214.083 212.415 C 214.725 212.746,215.362 213.079,215.500 213.155 C 215.999 213.430,218.662 214.667,218.755 214.667 C 218.884 214.667,220.259 215.269,221.057 215.674 C 221.410 215.853,221.804 216.000,221.933 216.000 C 222.062 216.000,222.448 216.150,222.790 216.333 C 223.132 216.517,223.526 216.667,223.667 216.667 C 223.807 216.667,224.202 216.817,224.544 217.000 C 224.887 217.184,225.167 217.297,225.167 217.252 C 225.167 217.179,225.393 217.251,226.750 217.759 C 226.933 217.827,227.199 217.907,227.341 217.935 C 227.482 217.964,228.304 218.218,229.167 218.500 C 230.029 218.782,230.851 219.036,230.993 219.065 C 231.134 219.093,231.362 219.154,231.500 219.200 C 231.970 219.357,234.083 219.872,234.833 220.012 C 236.010 220.231,236.322 220.307,236.499 220.416 C 236.589 220.472,237.020 220.555,237.456 220.602 C 237.893 220.648,238.775 220.800,239.417 220.940 C 240.058 221.079,240.958 221.227,241.417 221.268 C 241.875 221.309,242.362 221.377,242.500 221.418 C 242.993 221.565,245.182 221.832,246.702 221.930 C 247.553 221.985,249.037 222.091,250.000 222.165 C 251.739 222.299,259.794 222.251,260.750 222.100 C 261.025 222.057,262.037 221.979,263.000 221.926 C 263.962 221.874,264.923 221.798,265.135 221.757 C 265.581 221.670,267.814 221.359,268.667 221.264 C 269.391 221.184,272.573 220.565,273.925 220.242 C 274.479 220.110,275.154 219.974,275.425 219.941 C 275.695 219.908,276.276 219.758,276.714 219.607 C 277.153 219.457,277.621 219.333,277.755 219.333 C 277.889 219.333,278.430 219.191,278.958 219.017 C 280.357 218.556,282.799 217.810,283.041 217.769 C 283.156 217.750,283.414 217.644,283.614 217.534 C 283.814 217.423,284.118 217.333,284.289 217.333 C 284.460 217.333,284.671 217.271,284.758 217.195 C 284.845 217.119,285.254 216.961,285.667 216.844 C 286.079 216.728,286.751 216.481,287.159 216.296 C 287.568 216.112,287.980 215.945,288.076 215.927 C 288.172 215.908,288.587 215.740,289.000 215.553 C 289.412 215.366,290.087 215.073,290.500 214.903 C 291.311 214.569,296.756 211.929,297.167 211.671 C 298.064 211.106,298.906 210.667,299.090 210.667 C 299.209 210.667,299.331 210.603,299.361 210.525 C 299.392 210.448,299.754 210.196,300.167 209.967 C 301.486 209.233,303.573 207.926,303.906 207.625 C 304.084 207.465,304.294 207.333,304.372 207.333 C 304.450 207.333,304.605 207.257,304.715 207.164 C 304.939 206.976,306.967 205.511,307.366 205.250 C 308.136 204.745,308.642 204.352,309.245 203.794 C 309.614 203.451,309.994 203.170,310.088 203.169 C 310.183 203.168,310.365 203.021,310.494 202.842 C 310.622 202.664,310.785 202.553,310.855 202.597 C 310.926 202.640,311.065 202.524,311.164 202.338 C 311.264 202.152,311.412 202.000,311.493 202.000 C 311.574 202.000,311.857 201.794,312.120 201.542 C 312.384 201.290,313.037 200.708,313.573 200.250 C 314.108 199.792,314.918 199.060,315.372 198.625 C 315.826 198.190,316.266 197.833,316.349 197.833 C 316.432 197.833,316.500 197.721,316.500 197.583 C 316.500 197.446,316.568 197.333,316.651 197.333 C 316.833 197.333,319.009 195.159,320.500 193.487 C 321.096 192.819,321.826 192.005,322.123 191.678 C 323.094 190.607,323.496 190.108,324.952 188.167 C 325.742 187.112,326.473 186.175,326.576 186.083 C 326.680 185.992,326.936 185.635,327.146 185.292 C 327.355 184.948,327.595 184.667,327.677 184.667 C 327.760 184.667,327.874 184.479,327.932 184.250 C 327.989 184.021,328.085 183.833,328.145 183.833 C 328.205 183.833,328.440 183.533,328.667 183.167 C 328.893 182.800,329.136 182.500,329.206 182.500 C 329.276 182.500,329.320 182.444,329.303 182.375 C 329.262 182.204,329.851 181.183,330.208 180.807 C 330.369 180.638,330.444 180.499,330.375 180.497 C 330.306 180.496,330.331 180.440,330.431 180.372 C 330.593 180.263,330.923 179.704,332.055 177.625 C 332.242 177.281,332.461 177.000,332.541 177.000 C 332.621 177.000,332.649 176.939,332.603 176.865 C 332.557 176.790,332.668 176.509,332.850 176.240 C 333.032 175.970,333.289 175.525,333.420 175.250 C 333.552 174.975,333.732 174.637,333.819 174.500 C 333.907 174.362,334.077 174.006,334.197 173.708 C 334.317 173.410,334.471 173.167,334.541 173.167 C 334.610 173.167,334.668 173.035,334.670 172.875 C 334.672 172.715,334.821 172.396,335.000 172.167 C 335.179 171.938,335.328 171.663,335.330 171.557 C 335.332 171.451,335.475 171.076,335.648 170.724 C 336.292 169.415,337.333 167.060,337.333 166.913 C 337.333 166.863,337.458 166.544,337.610 166.203 C 337.762 165.862,337.894 165.546,337.904 165.500 C 337.922 165.408,338.290 164.438,338.504 163.917 C 338.579 163.733,338.808 163.058,339.012 162.417 C 339.217 161.775,339.476 160.987,339.588 160.667 C 339.864 159.877,340.506 157.736,340.575 157.375 C 340.606 157.214,340.790 156.601,340.983 156.014 C 341.175 155.426,341.333 154.779,341.333 154.577 C 341.333 154.374,341.443 153.898,341.577 153.519 C 341.711 153.139,341.823 152.773,341.827 152.706 C 341.849 152.314,342.050 151.290,342.271 150.443 C 342.411 149.908,342.592 148.896,342.674 148.193 C 342.755 147.491,342.898 146.557,342.990 146.117 C 343.083 145.677,343.197 144.890,343.242 144.367 C 343.482 141.593,343.548 140.880,343.598 140.500 C 343.886 138.343,343.999 130.970,343.785 128.250 C 343.467 124.191,343.284 122.424,343.000 120.667 C 342.831 119.612,342.620 118.300,342.532 117.750 C 342.444 117.200,342.322 116.563,342.261 116.333 C 342.201 116.104,342.111 115.654,342.062 115.333 C 341.914 114.360,341.178 111.332,340.747 109.917 C 340.523 109.183,340.230 108.133,340.096 107.583 C 339.963 107.033,339.724 106.208,339.566 105.750 C 339.272 104.894,339.131 104.479,339.087 104.333 C 339.073 104.287,338.944 103.987,338.800 103.667 C 338.657 103.346,338.407 102.671,338.244 102.167 C 338.082 101.662,337.793 100.912,337.603 100.500 C 337.413 100.087,337.251 99.675,337.244 99.583 C 337.230 99.386,337.034 98.919,336.324 97.385 C 336.035 96.761,335.688 95.987,335.552 95.667 C 335.416 95.346,335.225 94.934,335.126 94.752 C 334.180 92.999,333.208 91.000,333.301 90.997 C 333.365 90.996,333.333 90.940,333.231 90.872 C 333.128 90.805,332.883 90.450,332.686 90.083 C 332.488 89.717,332.104 89.042,331.833 88.583 C 331.562 88.125,331.145 87.384,330.906 86.936 C 330.667 86.489,330.328 85.969,330.153 85.780 C 329.977 85.591,329.833 85.339,329.833 85.219 C 329.833 85.098,329.766 85.000,329.683 85.000 C 329.600 85.000,329.454 84.775,329.358 84.500 C 329.262 84.225,329.110 84.000,329.020 84.000 C 328.930 84.000,328.808 83.850,328.750 83.668 C 328.692 83.485,328.556 83.241,328.447 83.126 C 328.339 83.011,328.025 82.579,327.750 82.167 C 327.475 81.754,327.120 81.272,326.960 81.096 C 326.801 80.919,326.629 80.645,326.579 80.486 C 326.529 80.327,326.378 80.155,326.244 80.104 C 326.110 80.053,326.000 79.902,326.000 79.769 C 326.000 79.636,325.943 79.503,325.874 79.472 C 325.805 79.442,325.338 78.892,324.836 78.250 C 324.334 77.608,323.642 76.783,323.297 76.417 C 322.952 76.050,322.669 75.697,322.668 75.633 C 322.667 75.568,322.498 75.338,322.292 75.122 C 322.085 74.905,321.420 74.170,320.812 73.488 C 319.525 72.043,316.167 68.582,316.167 68.701 C 316.167 68.746,315.732 68.363,315.202 67.850 C 314.671 67.336,313.832 66.579,313.337 66.167 C 312.843 65.754,312.254 65.248,312.028 65.042 C 311.803 64.835,311.569 64.667,311.510 64.667 C 311.451 64.667,311.097 64.385,310.723 64.042 C 309.737 63.133,309.177 62.667,309.072 62.667 C 308.979 62.667,307.651 61.666,307.500 61.482 C 307.454 61.426,307.192 61.264,306.917 61.123 C 306.642 60.982,306.221 60.685,305.981 60.463 C 305.742 60.241,305.217 59.857,304.815 59.610 C 303.581 58.853,303.448 58.762,303.011 58.375 C 302.777 58.169,302.498 58.000,302.389 58.000 C 302.280 58.000,302.090 57.899,301.966 57.776 C 301.843 57.652,301.462 57.419,301.121 57.257 C 300.779 57.095,300.500 56.896,300.500 56.814 C 300.500 56.733,300.350 56.667,300.167 56.667 C 299.983 56.667,299.833 56.610,299.833 56.541 C 299.833 56.471,299.590 56.309,299.292 56.179 C 298.994 56.049,298.712 55.900,298.667 55.847 C 298.621 55.794,298.021 55.458,297.333 55.100 C 296.646 54.743,295.952 54.337,295.792 54.199 C 295.631 54.061,295.500 54.000,295.500 54.064 C 295.500 54.127,295.220 53.988,294.878 53.756 C 294.536 53.524,294.184 53.333,294.096 53.333 C 294.008 53.333,293.369 53.066,292.676 52.739 C 291.983 52.412,291.108 52.000,290.732 51.822 C 290.355 51.645,289.980 51.500,289.898 51.499 C 289.817 51.499,289.381 51.311,288.930 51.083 C 288.479 50.854,287.992 50.666,287.847 50.666 C 287.702 50.666,287.338 50.516,287.038 50.333 C 286.738 50.150,286.378 50.000,286.238 50.000 C 286.098 50.000,285.753 49.881,285.472 49.735 C 285.190 49.590,284.767 49.436,284.531 49.393 C 284.296 49.350,283.761 49.177,283.343 49.007 C 282.925 48.838,282.021 48.534,281.333 48.332 C 280.646 48.130,279.708 47.844,279.250 47.696 C 278.792 47.548,278.242 47.410,278.029 47.389 C 277.816 47.368,277.329 47.240,276.946 47.103 C 276.563 46.967,275.725 46.765,275.083 46.655 C 274.442 46.546,273.797 46.394,273.651 46.319 C 273.505 46.245,273.018 46.138,272.568 46.084 C 272.118 46.029,271.225 45.869,270.583 45.727 C 269.942 45.586,269.004 45.440,268.500 45.402 C 267.996 45.365,267.246 45.262,266.833 45.174 C 265.825 44.960,264.832 44.836,263.333 44.738 C 262.646 44.694,261.183 44.594,260.083 44.516 C 257.625 44.342,251.807 44.338,249.667 44.509 M333.500 185.244 C 333.500 185.615,333.570 185.667,334.077 185.667 L 334.654 185.667 334.702 187.123 C 334.743 188.355,334.795 188.588,335.042 188.635 C 335.302 188.685,335.333 188.530,335.333 187.189 L 335.333 185.687 335.958 185.635 C 336.455 185.594,336.583 185.515,336.583 185.250 C 336.583 184.944,336.456 184.913,335.042 184.869 L 333.500 184.821 333.500 185.244 M337.085 184.997 C 336.757 185.528,337.042 188.667,337.419 188.667 C 337.872 188.667,337.995 188.397,338.015 187.361 C 338.029 186.628,338.039 186.612,338.184 187.083 C 338.592 188.411,339.363 188.527,339.845 187.333 L 340.148 186.583 340.157 187.361 C 340.170 188.402,340.293 188.667,340.768 188.667 C 341.165 188.667,341.167 188.660,341.167 186.750 L 341.167 184.833 340.606 184.833 C 340.075 184.833,340.018 184.893,339.554 185.931 L 339.063 187.028 338.762 186.306 C 338.168 184.883,338.130 184.833,337.648 184.833 C 337.394 184.833,337.141 184.907,337.085 184.997 " stroke="none" fill="#f49c1c" fill-rule="evenodd"></path><path id="path3" d="M201.500 64.719 C 201.500 64.748,201.744 64.991,202.042 65.260 L 202.583 65.750 202.094 65.208 C 201.638 64.703,201.500 64.590,201.500 64.719 M202.667 65.719 C 202.667 65.748,202.910 65.991,203.208 66.260 L 203.750 66.750 203.260 66.208 C 202.804 65.703,202.667 65.590,202.667 65.719 M204.417 67.333 C 204.775 67.700,205.105 68.000,205.151 68.000 C 205.197 68.000,204.941 67.700,204.583 67.333 C 204.225 66.967,203.895 66.667,203.849 66.667 C 203.803 66.667,204.059 66.967,204.417 67.333 M205.524 68.292 C 205.537 68.360,206.606 69.428,207.899 70.664 L 210.250 72.912 207.919 70.539 C 205.570 68.149,205.480 68.064,205.524 68.292 M210.667 73.552 C 210.667 73.581,210.910 73.825,211.208 74.094 L 211.750 74.583 211.260 74.042 C 210.804 73.537,210.667 73.423,210.667 73.552 M211.833 74.885 C 211.833 74.914,212.077 75.158,212.375 75.427 L 212.917 75.917 212.427 75.375 C 211.971 74.870,211.833 74.757,211.833 74.885 M213.517 76.833 C 213.911 77.337,214.256 77.781,214.284 77.819 C 214.311 77.858,214.332 77.820,214.330 77.736 C 214.328 77.652,213.983 77.208,213.563 76.750 L 212.800 75.917 213.517 76.833 M215.750 79.667 C 216.173 80.217,216.557 80.667,216.603 80.667 C 216.649 80.667,216.340 80.217,215.917 79.667 C 215.493 79.117,215.110 78.667,215.064 78.667 C 215.018 78.667,215.327 79.117,215.750 79.667 M218.167 83.000 C 218.362 83.275,218.560 83.500,218.606 83.500 C 218.652 83.500,218.529 83.275,218.333 83.000 C 218.138 82.725,217.940 82.500,217.894 82.500 C 217.848 82.500,217.971 82.725,218.167 83.000 M220.312 86.250 C 220.402 86.433,220.598 86.733,220.747 86.917 L 221.018 87.250 220.855 86.917 C 220.765 86.733,220.569 86.433,220.420 86.250 L 220.148 85.917 220.312 86.250 M223.417 91.667 C 223.559 91.942,223.713 92.167,223.759 92.167 C 223.804 92.167,223.726 91.942,223.583 91.667 C 223.441 91.392,223.287 91.167,223.241 91.167 C 223.196 91.167,223.274 91.392,223.417 91.667 M226.012 96.917 C 226.012 97.008,226.119 97.271,226.250 97.500 C 226.381 97.729,226.488 97.842,226.488 97.750 C 226.488 97.658,226.381 97.396,226.250 97.167 C 226.119 96.938,226.012 96.825,226.012 96.917 M228.020 101.667 C 228.017 101.804,228.118 102.142,228.244 102.417 C 228.539 103.060,228.543 102.761,228.250 102.000 C 228.126 101.679,228.023 101.529,228.020 101.667 M228.687 103.500 C 228.684 103.638,228.785 103.975,228.911 104.250 C 229.205 104.894,229.210 104.594,228.917 103.833 C 228.793 103.513,228.690 103.362,228.687 103.500 M232.039 115.500 C 232.039 115.729,232.097 116.142,232.167 116.417 C 232.280 116.863,232.294 116.872,232.294 116.500 C 232.294 116.271,232.237 115.858,232.167 115.583 C 232.053 115.137,232.039 115.128,232.039 115.500 M232.872 120.333 C 232.872 120.654,232.906 120.785,232.948 120.625 C 232.990 120.465,232.990 120.202,232.948 120.042 C 232.906 119.881,232.872 120.013,232.872 120.333 M233.379 124.333 C 233.379 124.746,233.411 124.915,233.451 124.708 C 233.491 124.502,233.491 124.165,233.451 123.958 C 233.411 123.752,233.379 123.921,233.379 124.333 M233.550 126.167 C 233.550 126.671,233.581 126.877,233.619 126.625 C 233.658 126.373,233.658 125.960,233.619 125.708 C 233.581 125.456,233.550 125.662,233.550 126.167 M233.718 128.583 C 233.719 129.133,233.750 129.338,233.787 129.039 C 233.825 128.739,233.824 128.289,233.786 128.039 C 233.748 127.788,233.717 128.033,233.718 128.583 M233.892 133.250 C 233.892 134.075,233.920 134.434,233.955 134.047 C 233.990 133.660,233.990 132.985,233.956 132.547 C 233.922 132.109,233.893 132.425,233.892 133.250 M233.717 138.000 C 233.717 138.504,233.748 138.710,233.786 138.458 C 233.824 138.206,233.824 137.794,233.786 137.542 C 233.748 137.290,233.717 137.496,233.717 138.000 M233.550 140.500 C 233.550 141.004,233.581 141.210,233.619 140.958 C 233.658 140.706,233.658 140.294,233.619 140.042 C 233.581 139.790,233.550 139.996,233.550 140.500 M233.381 142.250 C 233.382 142.708,233.415 142.876,233.453 142.623 C 233.491 142.369,233.490 141.994,233.451 141.789 C 233.411 141.584,233.380 141.792,233.381 142.250 M232.872 146.333 C 232.872 146.654,232.906 146.785,232.948 146.625 C 232.990 146.465,232.990 146.202,232.948 146.042 C 232.906 145.881,232.872 146.012,232.872 146.333 M232.091 150.591 C 232.027 151.016,232.009 151.398,232.051 151.440 C 232.092 151.481,232.179 151.168,232.242 150.742 C 232.306 150.317,232.324 149.935,232.283 149.894 C 232.241 149.852,232.155 150.166,232.091 150.591 M230.095 158.595 C 230.034 158.839,230.016 159.071,230.055 159.111 C 230.094 159.150,230.177 158.982,230.238 158.738 C 230.299 158.494,230.317 158.262,230.278 158.223 C 230.239 158.183,230.157 158.351,230.095 158.595 M229.429 160.762 C 229.367 161.006,229.349 161.238,229.389 161.277 C 229.428 161.317,229.510 161.149,229.571 160.905 C 229.633 160.661,229.651 160.429,229.611 160.389 C 229.572 160.350,229.490 160.518,229.429 160.762 M228.853 162.516 C 228.750 162.810,228.672 163.132,228.678 163.233 C 228.685 163.334,228.798 163.123,228.929 162.765 C 229.060 162.406,229.139 162.083,229.103 162.048 C 229.068 162.012,228.955 162.223,228.853 162.516 M228.185 164.352 C 228.083 164.646,228.028 164.917,228.063 164.952 C 228.099 164.988,228.212 164.776,228.315 164.481 C 228.417 164.187,228.472 163.917,228.437 163.881 C 228.401 163.845,228.288 164.057,228.185 164.352 M227.352 166.519 C 227.249 166.813,227.194 167.083,227.230 167.119 C 227.266 167.155,227.379 166.943,227.481 166.648 C 227.584 166.354,227.639 166.083,227.603 166.048 C 227.568 166.012,227.455 166.224,227.352 166.519 M224.909 172.015 C 224.762 172.299,224.672 172.561,224.708 172.597 C 224.744 172.633,224.898 172.401,225.051 172.081 C 225.394 171.362,225.275 171.308,224.909 172.015 M223.500 174.833 C 223.313 175.200,223.197 175.500,223.243 175.500 C 223.289 175.500,223.480 175.200,223.667 174.833 C 223.854 174.467,223.969 174.167,223.923 174.167 C 223.878 174.167,223.687 174.467,223.500 174.833 M217.500 184.583 C 217.216 184.996,217.021 185.333,217.067 185.333 C 217.113 185.333,217.383 184.996,217.667 184.583 C 217.950 184.171,218.145 183.833,218.099 183.833 C 218.054 183.833,217.784 184.171,217.500 184.583 M214.704 188.319 C 213.769 189.502,212.324 191.246,211.492 192.194 C 210.299 193.552,210.231 193.652,211.171 192.667 C 212.653 191.111,216.685 186.167,216.471 186.167 C 216.433 186.167,215.638 187.135,214.704 188.319 M207.645 196.245 C 206.396 197.480,205.496 198.422,205.645 198.339 C 205.941 198.175,210.129 194.000,209.997 194.000 C 209.953 194.001,208.895 195.011,207.645 196.245 M204.491 199.292 L 203.917 199.917 204.542 199.342 C 205.123 198.808,205.243 198.667,205.116 198.667 C 205.088 198.667,204.807 198.948,204.491 199.292 M202.533 200.925 C 201.956 201.425,201.543 201.832,201.617 201.829 C 201.690 201.827,202.200 201.417,202.750 200.919 C 204.046 199.745,203.893 199.749,202.533 200.925 " stroke="none" fill="#fc6a05" fill-rule="evenodd"></path><path id="path4" d="M310.500 63.879 C 310.500 63.911,310.744 64.116,311.042 64.334 C 311.377 64.579,311.493 64.619,311.347 64.439 C 311.125 64.166,310.500 63.753,310.500 63.879 M202.833 65.719 C 202.833 65.748,203.077 65.991,203.375 66.260 L 203.917 66.750 203.427 66.208 C 202.971 65.703,202.833 65.590,202.833 65.719 M204.750 67.500 C 205.108 67.867,205.438 68.167,205.484 68.167 C 205.530 68.167,205.275 67.867,204.917 67.500 C 204.559 67.133,204.228 66.833,204.182 66.833 C 204.137 66.833,204.392 67.133,204.750 67.500 M206.833 69.379 C 206.833 69.404,207.415 69.986,208.125 70.671 L 209.417 71.917 208.171 70.625 C 207.014 69.425,206.833 69.257,206.833 69.379 M210.667 73.417 C 210.978 73.737,211.270 74.000,211.315 74.000 C 211.361 74.000,211.144 73.737,210.833 73.417 C 210.522 73.096,210.230 72.833,210.185 72.833 C 210.139 72.833,210.356 73.096,210.667 73.417 M233.714 126.917 C 233.716 127.375,233.748 127.543,233.786 127.289 C 233.825 127.036,233.824 126.661,233.784 126.456 C 233.744 126.251,233.713 126.458,233.714 126.917 M233.888 130.750 C 233.889 131.392,233.919 131.634,233.955 131.288 C 233.991 130.942,233.990 130.417,233.954 130.121 C 233.917 129.825,233.887 130.108,233.888 130.750 M233.889 135.833 C 233.889 136.521,233.919 136.802,233.955 136.458 C 233.991 136.115,233.991 135.552,233.955 135.208 C 233.919 134.865,233.889 135.146,233.889 135.833 M233.717 139.667 C 233.717 140.171,233.748 140.377,233.786 140.125 C 233.824 139.873,233.824 139.460,233.786 139.208 C 233.748 138.956,233.717 139.162,233.717 139.667 M210.491 193.458 L 209.917 194.083 210.542 193.509 C 211.123 192.974,211.243 192.833,211.116 192.833 C 211.088 192.833,210.807 193.115,210.491 193.458 M207.824 196.292 L 207.250 196.917 207.875 196.342 C 208.457 195.808,208.577 195.667,208.449 195.667 C 208.422 195.667,208.140 195.948,207.824 196.292 M205.073 198.875 L 204.583 199.417 205.125 198.927 C 205.630 198.471,205.743 198.333,205.615 198.333 C 205.586 198.333,205.342 198.577,205.073 198.875 M203.406 200.375 L 202.917 200.917 203.458 200.427 C 203.963 199.971,204.077 199.833,203.948 199.833 C 203.919 199.833,203.675 200.077,203.406 200.375 M200.334 202.916 C 200.119 203.145,199.975 203.360,200.013 203.394 C 200.052 203.428,200.258 203.241,200.471 202.978 C 200.948 202.390,200.864 202.352,200.334 202.916 " stroke="none" fill="#fc8f14" fill-rule="evenodd"></path></g></svg>