<svg width="26" height="32" viewBox="0 0 26 32" fill="none" xmlns="http://www.w3.org/2000/svg">
<path d="M11.2881 8.06103H19.7501C24.2931 8.06103 26.0041 10.361 25.7391 13.745C25.3031 19.324 21.9301 22.409 17.4561 22.409H15.1981C14.5851 22.409 14.1721 22.814 14.0051 23.916L13.0361 30.316C12.9731 30.731 12.7551 30.975 12.4261 31.005H7.12109C6.62109 31.005 6.44409 30.623 6.57509 29.796L9.81509 9.27503C9.82443 9.09574 9.87097 8.92036 9.95176 8.76004C10.0326 8.59971 10.1458 8.45796 10.2844 8.34378C10.4229 8.2296 10.5837 8.14549 10.7565 8.09681C10.9293 8.04814 11.1103 8.03595 11.2881 8.06103Z" fill="#009DE2"/>
<path d="M5.998 1.00003H14.469C16.854 1.00003 19.684 1.07703 21.577 2.74703C22.2244 3.355 22.7217 4.10504 23.0297 4.93802C23.3377 5.77099 23.4481 6.66413 23.352 7.54703C22.833 14.015 18.964 17.638 13.775 17.638H9.597C8.886 17.638 8.415 18.109 8.214 19.385L7.048 26.8C6.972 27.281 6.764 27.565 6.383 27.6H1.165C0.584002 27.6 0.384002 27.157 0.532002 26.2L4.289 2.40703C4.29984 2.19908 4.35386 1.99566 4.44761 1.80973C4.54137 1.6238 4.67281 1.45943 4.83357 1.32708C4.99433 1.19472 5.18089 1.09729 5.38136 1.04099C5.58184 0.98468 5.79184 0.970731 5.998 1.00003Z" fill="#113984"/>
<path d="M8.33496 18.637L9.81396 9.27504C9.82329 9.09566 9.86985 8.92019 9.9507 8.75979C10.0316 8.59939 10.1449 8.45757 10.2836 8.34338C10.4222 8.22918 10.5831 8.14511 10.756 8.0965C10.929 8.04789 11.1101 8.03582 11.288 8.06104H19.75C20.9212 8.02356 22.087 8.23558 23.17 8.68304C22.32 14.439 18.597 17.638 13.721 17.638H9.54296C8.99296 17.638 8.58196 17.919 8.33496 18.637Z" fill="#172C70"/>
</svg>
