<?xml version="1.0" encoding="UTF-8"?>
<!DOCTYPE svg PUBLIC "-//W3C//DTD SVG 1.1//EN" "http://www.w3.org/Graphics/SVG/1.1/DTD/svg11.dtd">
<!-- Creator: CorelDRAW -->
<svg xmlns="http://www.w3.org/2000/svg" xml:space="preserve" width="123.043mm" height="111.679mm" version="1.1" shape-rendering="geometricPrecision" text-rendering="geometricPrecision" image-rendering="optimizeQuality" fill-rule="evenodd" clip-rule="evenodd"
viewBox="0 0 1643.55 1491.75"
 xmlns:xlink="http://www.w3.org/1999/xlink"
 xmlns:xodm="http://www.corel.com/coreldraw/odm/2003">
 <g id="Layer_x0020_1">
  <metadata id="CorelCorpID_0Corel-Layer"/>
  <g id="_2501054372496">
   <path fill="#EBF3FA" fill-rule="nonzero" d="M11.64 1151.82c-24.71,-106.72 -18.06,-242.49 99.55,-369.2 138.77,-149.51 139.54,-308.11 143.3,-442.98 10.53,-377.21 305.19,-395.34 596.64,-269.96 108.7,46.76 228.55,93.53 422.07,57.03 356.57,-67.24 349,458.13 243.61,645.62 -67.93,120.88 126.73,194.25 126.73,382 0,499.72 -1539.2,397.91 -1631.9,-2.51z"/>
   <path fill="#D9E5FC" fill-rule="nonzero" d="M1041.03 409.42l-14.03 0c4.17,-47.92 21.66,-115.11 83.47,-148.68 0,0 5.12,-2.68 12.22,-2.68 6.93,0 15.74,2.56 23.5,12.68 15.7,20.48 -25.98,36.38 -48.28,55.39 -15.16,12.93 -40.96,45.77 -56.88,83.29zm-687.4 903.74c-30.4,-53.02 53.04,-110.34 53.04,-110.34 0,0 120.78,25.23 136.43,13.07 15.64,-12.15 -99.05,-41.74 -99.05,-41.74 24.34,-29.54 126.02,-65.13 126.02,-65.13 0,0 80.79,89.52 92.95,73.88 12.17,-15.63 -75.57,-75.62 -75.57,-75.62 33.89,-18.24 88.63,-12.14 88.63,-12.14 79.94,19.14 51.24,120.8 51.24,120.8 0,0 28.67,30.42 80.8,46.08 0,0 10.37,2.14 25.2,8.6l-7.1 7.1c-2.49,-1.32 -4.97,-2.52 -7.45,-3.59l-0.04 -0.01 -0.11 -0.05c-1.58,-0.61 -3.85,-1.47 -6.62,-2.51l-0.02 0 -0.01 -0.01c-6.43,-2.08 -11.03,-3.75 -14.22,-5.1l-0.03 -0.01c-19.85,-6.84 -46.6,-14.86 -56.5,-12.27 0,0 -0.32,-1.89 -1.74,-4.77 0.55,1.52 1.13,3.11 1.74,4.77 13.89,38.24 -42.61,103.4 -83.46,130.32 -40.85,26.93 -35.62,2.6 -32.88,-31.16 2.75,-33.76 45.08,-67.9 50.3,-85.27 5.22,-17.38 -17.38,-6.96 -38.24,17.37 -20.86,24.33 -9.57,58.22 -42.61,98.18 -33.03,39.96 -129.47,-0.91 -129.47,-0.91 33.03,-17.36 64.32,-76.44 57.38,-86.88 -6.95,-10.43 -73.01,57.33 -86.05,65.15 -13.03,7.82 -52.14,5.2 -82.54,-47.82zm150.69 -1049.28c17.35,-49.37 101.2,-27.37 101.2,-27.37 0,0 51.23,92.4 67.86,95.74 16.64,3.33 -28.37,-87.56 -28.37,-87.56 32.76,-0.75 112.73,45.23 112.73,45.23 0,0 -12.82,102.46 4.13,101.6 16.95,-0.86 6.72,-91.3 6.72,-91.3 30.79,11.76 57.47,50.66 57.47,50.66 32.32,62.52 -49.63,100.81 -49.63,100.81 0,0 -3.68,35.6 15.35,78.16 0,0 4.41,7.92 8.53,21.14l-8.58 -0.63c-0.53,-2.35 -1.14,-4.63 -1.84,-6.83l-0.01 -0.04 -0.03 -0.09c-0.49,-1.37 -1.2,-3.32 -2.08,-5.7l0 -0.01 -0.01 -0.02c-2.24,-5.33 -3.73,-9.25 -4.66,-12.07l-0.01 -0.02c-6.66,-16.7 -16.44,-38.52 -23.67,-43.49 0,0 1.05,-1.26 2.12,-3.8 -0.67,1.21 -1.39,2.48 -2.12,3.8 -17.01,30.4 -90.86,30.24 -131.17,18.83 -40.31,-11.41 -21.62,-21.64 1.8,-38.75 23.41,-17.11 69.23,-8.77 83.41,-15.12 14.18,-6.34 -5.21,-15.16 -32.65,-15.06 -27.44,0.09 -43.1,26.37 -87.48,27.32 -44.39,0.95 -71.87,-84.43 -71.87,-84.43 29.74,11.69 85.55,-1.09 88.42,-11.43 2.87,-10.34 -78.02,-15.24 -90.38,-19.31 -12.36,-4.08 -32.55,-30.89 -15.2,-80.25zm792.27 428.96c-44.77,0 -113.74,-17.65 -123.36,-51.23 -2.23,0.87 -4.9,2.85 -7.84,5.58l0 -177.87c12.53,-7.65 27.68,-14.89 42.4,-16.88 0,0 -32.39,90.49 -15.17,95.48 0.38,0.11 0.77,0.17 1.15,0.17 16.57,-0.01 27.66,-103.6 27.66,-103.6 0,0 69.87,-20.9 110.41,-20.9 6.31,0 11.91,0.51 16.42,1.68 0,0 -68.24,82.54 -50.34,83.14 0.06,0 0.13,0 0.19,0 18.24,-0 92.73,-82 92.73,-82 0,0 0.54,-0.01 1.59,-0.01 12.22,0 90.36,1.98 95.8,52.62 5.9,54.95 -21.33,77.62 -35.03,78.82 -0.54,0.05 -1.21,0.07 -1.98,0.07 -6.47,0 -20.28,-1.6 -35.46,-3.21 -15.17,-1.6 -31.69,-3.21 -43.59,-3.21 -9.96,0 -16.66,1.13 -16.53,4.35 0.41,10.4 46.22,33.71 79.57,33.71 2.97,0 5.82,-0.18 8.55,-0.58 0,0 -42.54,70.56 -85.09,70.56 -3.08,0 -6.16,-0.37 -9.21,-1.15 -45.4,-11.71 -55.12,-42.52 -83.31,-49.25 -9.31,-2.22 -17.96,-3.24 -24.88,-3.24 -14.05,0 -21.06,4.16 -12.32,10.82 13.04,9.95 62.15,12.46 82.08,35.71 19.94,23.26 36.67,38.29 -7.52,40.27 -2.23,0.1 -4.53,0.15 -6.91,0.15zm-124.63 -55.65c0.5,2.86 1.27,4.42 1.27,4.42 -0.44,-1.54 -0.87,-3.01 -1.27,-4.42zm-71.77 -227.76l-35.34 0c26.62,-49.39 71.92,-103.57 145.28,-115.88 0,0 1.31,-0.2 3.45,-0.2 7.72,0 26.32,2.57 34.23,26.21 10.1,30.21 -44.93,32.02 -78.59,45.27 -16.28,6.41 -42.9,22.42 -69.03,44.6z"/>
   <g>
    <g>
     <g>
      <g>
       <g>
        <g>
         <g>
          <g>
           <g>
            <g>
             <path fill="#233862" fill-rule="nonzero" d="M1101.85 1316.19l-313.81 -1.45c-37.74,-0.17 -68.2,-30.9 -68.04,-68.65l3.32 -786.73c0.16,-37.76 30.91,-68.24 68.67,-68.07l313.81 1.45c37.74,0.17 68.2,30.91 68.04,68.65l-3.33 786.73c-0.16,37.76 -30.91,68.24 -68.67,68.07z"/>
            </g>
           </g>
          </g>
          <g>
           <path fill="#F9F9F9" fill-rule="nonzero" d="M1105.36 419.89l-60.84 -0.28 -177.69 -0.82 -21.4 -0.1 -53.25 -0.25c-26.45,-0.12 -47.98,21.23 -48.09,47.67l-3.25 767.9c-0.11,26.44 21.22,47.96 47.65,48.08l313.18 1.45c26.45,0.12 47.98,-21.22 48.09,-47.67l3.25 -767.91c0.11,-26.43 -21.22,-47.95 -47.65,-48.08z"/>
          </g>
         </g>
        </g>
       </g>
      </g>
     </g>
     <g>
      <g>
       <g>
        <g>
         <g>
          <path fill="#233862" fill-rule="nonzero" d="M1107.68 489.68c-0.01,2.16 -1.77,3.91 -3.93,3.9 -2.17,-0.01 -3.91,-1.77 -3.9,-3.93 0.01,-2.16 1.77,-3.91 3.93,-3.9 2.16,0.01 3.91,1.77 3.9,3.93z"/>
         </g>
        </g>
       </g>
       <g>
        <g>
         <g>
          <path fill="#233862" fill-rule="nonzero" d="M1107.63 503.78c-0.01,2.16 -1.77,3.91 -3.93,3.9 -2.16,-0.01 -3.91,-1.77 -3.9,-3.93 0.01,-2.16 1.77,-3.91 3.93,-3.9 2.16,0.01 3.91,1.77 3.9,3.93z"/>
         </g>
        </g>
       </g>
       <g>
        <g>
         <g>
          <path fill="#233862" fill-rule="nonzero" d="M1107.57 517.87c-0.01,2.17 -1.77,3.91 -3.93,3.9 -2.16,-0.01 -3.91,-1.77 -3.9,-3.93 0.01,-2.16 1.77,-3.91 3.93,-3.9 2.17,0.01 3.91,1.77 3.9,3.93z"/>
         </g>
        </g>
       </g>
      </g>
     </g>
     <g>
      <g>
       <path fill="#EBEBEB" fill-rule="nonzero" d="M1121.47 835.29l-313.91 0c-5.5,0 -9.96,-4.46 -9.96,-9.96l0 -191.87c0,-5.5 4.46,-9.96 9.96,-9.96l313.91 0c5.5,0 9.96,4.46 9.96,9.96l0 191.87c0,5.5 -4.46,9.96 -9.96,9.96z"/>
      </g>
      <g>
       <path fill="#DFDFDF" fill-rule="nonzero" d="M1112.29 821.54l-313.91 0c-5.5,0 -9.96,-4.46 -9.96,-9.96l0 -191.87c0,-5.5 4.46,-9.96 9.96,-9.96l313.91 0c5.5,0 9.96,4.46 9.96,9.96l0 191.87c0,5.5 -4.46,9.96 -9.96,9.96z"/>
      </g>
      <g>
       <g>
        <g>
         <path fill="#337FC9" fill-rule="nonzero" d="M1101.7 810.11l-313.91 0c-5.5,0 -9.96,-4.46 -9.96,-9.96l0 -191.87c0,-5.5 4.46,-9.96 9.96,-9.96l313.91 0c5.5,0 9.96,4.46 9.96,9.96l0 191.87c0,5.5 -4.46,9.96 -9.96,9.96z"/>
        </g>
       </g>
       <g>
        <g>
         <path fill="white" fill-rule="nonzero" d="M832.81 646.7c0,2.71 -2.15,4.28 -6.27,4.28l-8.11 0 0 -15.67 7.66 0c3.92,0 5.93,1.63 5.93,4.07 0,1.57 -0.81,2.78 -2.08,3.45 1.75,0.56 2.87,1.9 2.87,3.87zm-10.77 -8.66l0 0 0 3.69 3.6 0c1.77,0 2.73,-0.63 2.73,-1.86 0,-1.23 -0.97,-1.84 -2.73,-1.84l-3.6 0zm7.12 8.28l0 0c0,-1.32 -1.01,-1.95 -2.89,-1.95l-4.23 0 0 3.87 4.23 0c1.88,0 2.89,-0.58 2.89,-1.93z"/>
        </g>
        <g>
         <path fill="white" fill-rule="nonzero" d="M845.87 647.62l-7.28 0 -1.39 3.36 -3.72 0 6.98 -15.67 3.58 0 7.01 15.67 -3.81 0 -1.39 -3.36zm-1.14 -2.75l0 0 -2.48 -6 -2.49 6 4.97 0z"/>
        </g>
        <g>
         <polygon fill="white" fill-rule="nonzero" points="867.06,635.3 867.06,650.98 864.08,650.98 856.27,641.46 856.27,650.98 852.68,650.98 852.68,635.3 855.68,635.3 863.47,644.82 863.47,635.3 "/>
        </g>
        <g>
         <polygon fill="white" fill-rule="nonzero" points="876.47,644.82 874.36,647.01 874.36,650.98 870.76,650.98 870.76,635.3 874.36,635.3 874.36,642.62 881.3,635.3 885.33,635.3 878.84,642.29 885.71,650.98 881.48,650.98 "/>
        </g>
       </g>
       <g>
        <g>
         <polygon fill="white" fill-rule="nonzero" points="829.87,711.86 826.99,711.86 826.99,715.64 825.52,715.64 825.52,711.86 817.4,711.86 817.4,710.79 825.02,701.26 826.67,701.26 819.31,710.55 825.56,710.55 825.56,707.22 826.99,707.22 826.99,710.55 829.87,710.55 "/>
        </g>
        <g>
         <path fill="white" fill-rule="nonzero" d="M840.43 711.51c0,2.4 -1.75,4.25 -5.22,4.25 -2.08,0 -4.07,-0.72 -5.18,-1.85l0.72 -1.17c0.92,0.97 2.59,1.67 4.46,1.67 2.38,0 3.7,-1.11 3.7,-2.9 0,-1.73 -1.21,-2.86 -3.89,-2.86l-1.03 0 0 -1.09 3.99 -4.99 -7.36 0 0 -1.32 9.25 0 0 1.05 -4.07 5.12c3.08,0.17 4.62,1.79 4.62,4.09z"/>
        </g>
        <g>
         <path fill="white" fill-rule="nonzero" d="M852.07 711.41c0,2.44 -1.71,4.36 -5.22,4.36 -2.07,0 -4.05,-0.72 -5.16,-1.85l0.72 -1.17c0.92,0.97 2.57,1.67 4.42,1.67 2.45,0 3.74,-1.19 3.74,-2.94 0,-1.85 -1.15,-3 -4.81,-3l-3.06 0 0.74 -7.21 7.87 0 0 1.32 -6.58 0 -0.49 4.58 1.85 0c4.34,0 5.98,1.71 5.98,4.25z"/>
        </g>
        <g>
         <path fill="white" fill-rule="nonzero" d="M864.74 711.35c0,2.69 -2.12,4.42 -4.91,4.42 -3.82,0 -5.9,-2.65 -5.9,-7.19 0,-4.89 2.67,-7.44 6.58,-7.44 1.29,0 2.51,0.23 3.41,0.78l-0.6 1.19c-0.74,-0.49 -1.73,-0.68 -2.79,-0.68 -3.1,0 -5.1,1.99 -5.1,5.9 0,0.33 0.02,0.74 0.06,1.17 0.72,-1.58 2.4,-2.47 4.4,-2.47 2.86,0 4.85,1.68 4.85,4.31zm-1.46 0.04l0 0c0,-1.89 -1.4,-3.1 -3.62,-3.1 -2.2,0 -3.7,1.36 -3.7,3.14 0,1.58 1.32,3.08 3.8,3.08 2.08,0 3.51,-1.21 3.51,-3.12z"/>
        </g>
        <g>
         <polygon fill="white" fill-rule="nonzero" points="895.83,715.64 892.4,711.12 888.94,715.64 887.3,715.64 891.57,710.1 887.5,704.84 889.15,704.84 892.4,709.07 895.64,704.84 897.25,704.84 893.18,710.1 897.49,715.64 "/>
        </g>
        <g>
         <polygon fill="white" fill-rule="nonzero" points="906.8,715.64 903.37,711.12 899.92,715.64 898.27,715.64 902.55,710.1 898.48,704.84 900.12,704.84 903.37,709.07 906.62,704.84 908.22,704.84 904.15,710.1 908.47,715.64 "/>
        </g>
        <g>
         <polygon fill="white" fill-rule="nonzero" points="917.77,715.64 914.34,711.12 910.89,715.64 909.24,715.64 913.52,710.1 909.45,704.84 911.09,704.84 914.34,709.07 917.59,704.84 919.19,704.84 915.12,710.1 919.44,715.64 "/>
        </g>
        <g>
         <polygon fill="white" fill-rule="nonzero" points="928.74,715.64 925.31,711.12 921.86,715.64 920.22,715.64 924.49,710.1 920.42,704.84 922.07,704.84 925.31,709.07 928.56,704.84 930.16,704.84 926.09,710.1 930.41,715.64 "/>
        </g>
        <g>
         <polygon fill="white" fill-rule="nonzero" points="966.63,715.64 963.2,711.12 959.75,715.64 958.11,715.64 962.38,710.1 958.31,704.84 959.96,704.84 963.2,709.07 966.45,704.84 968.05,704.84 963.98,710.1 968.3,715.64 "/>
        </g>
        <g>
         <polygon fill="white" fill-rule="nonzero" points="977.61,715.64 974.17,711.12 970.72,715.64 969.08,715.64 973.35,710.1 969.28,704.84 970.93,704.84 974.17,709.07 977.42,704.84 979.02,704.84 974.95,710.1 979.27,715.64 "/>
        </g>
        <g>
         <polygon fill="white" fill-rule="nonzero" points="988.58,715.64 985.15,711.12 981.7,715.64 980.05,715.64 984.33,710.1 980.26,704.84 981.9,704.84 985.15,709.07 988.39,704.84 990,704.84 985.93,710.1 990.25,715.64 "/>
        </g>
        <g>
         <polygon fill="white" fill-rule="nonzero" points="999.55,715.64 996.12,711.12 992.67,715.64 991.02,715.64 995.3,710.1 991.23,704.84 992.87,704.84 996.12,709.07 999.37,704.84 1000.97,704.84 996.9,710.1 1001.22,715.64 "/>
        </g>
        <g>
         <polygon fill="white" fill-rule="nonzero" points="1033.58,701.26 1033.58,715.64 1032.1,715.64 1032.1,702.57 1028.71,702.57 1028.71,701.26 "/>
        </g>
        <g>
         <path fill="white" fill-rule="nonzero" d="M1046.52 711.51c0,2.4 -1.75,4.25 -5.22,4.25 -2.08,0 -4.07,-0.72 -5.18,-1.85l0.72 -1.17c0.93,0.97 2.59,1.67 4.46,1.67 2.38,0 3.7,-1.11 3.7,-2.9 0,-1.73 -1.21,-2.86 -3.89,-2.86l-1.03 0 0 -1.09 3.99 -4.99 -7.36 0 0 -1.32 9.25 0 0 1.05 -4.07 5.12c3.08,0.17 4.62,1.79 4.62,4.09z"/>
        </g>
        <g>
         <polygon fill="white" fill-rule="nonzero" points="1060.82,711.86 1057.95,711.86 1057.95,715.64 1056.47,715.64 1056.47,711.86 1048.35,711.86 1048.35,710.79 1055.97,701.26 1057.62,701.26 1050.26,710.55 1056.51,710.55 1056.51,707.22 1057.95,707.22 1057.95,710.55 1060.82,710.55 "/>
        </g>
        <g>
         <path fill="white" fill-rule="nonzero" d="M1071.92 714.33l0 1.32 -10.09 0 0 -1.05 5.98 -5.86c1.62,-1.6 1.93,-2.57 1.93,-3.55 0,-1.66 -1.17,-2.69 -3.37,-2.69 -1.69,0 -2.98,0.51 -3.92,1.6l-1.05 -0.9c1.11,-1.32 2.9,-2.06 5.1,-2.06 2.92,0 4.77,1.48 4.77,3.88 0,1.38 -0.43,2.61 -2.36,4.5l-4.89 4.81 7.91 0z"/>
        </g>
       </g>
       <g>
        <g>
         <path fill="white" fill-rule="nonzero" d="M810 745.5c0,-2.07 1.59,-3.55 3.73,-3.55 1.19,0 2.18,0.43 2.82,1.22l-1.02 0.94c-0.46,-0.53 -1.04,-0.8 -1.73,-0.8 -1.28,0 -2.2,0.9 -2.2,2.2 0,1.29 0.91,2.2 2.2,2.2 0.69,0 1.26,-0.27 1.73,-0.81l1.02 0.94c-0.65,0.79 -1.64,1.23 -2.83,1.23 -2.13,0 -3.72,-1.48 -3.72,-3.55z"/>
        </g>
        <g>
         <path fill="white" fill-rule="nonzero" d="M822.02 747.46l-3.19 0 -0.61 1.47 -1.63 0 3.06 -6.86 1.57 0 3.07 6.86 -1.67 0 -0.61 -1.47zm-0.5 -1.21l0 0 -1.09 -2.63 -1.09 2.63 2.18 0z"/>
        </g>
        <g>
         <path fill="white" fill-rule="nonzero" d="M829.39 748.93l-1.33 -1.91 -0.08 0 -1.38 0 0 1.91 -1.59 0 0 -6.86 2.97 0c1.84,0 2.98,0.95 2.98,2.49 0,1.03 -0.52,1.78 -1.41,2.17l1.54 2.21 -1.71 0zm-1.49 -5.57l0 0 -1.29 0 0 2.39 1.29 0c0.97,0 1.46,-0.45 1.46,-1.2 0,-0.75 -0.49,-1.2 -1.46,-1.2z"/>
        </g>
        <g>
         <path fill="white" fill-rule="nonzero" d="M831.7 748.26l0.54 -1.2c0.58,0.42 1.44,0.72 2.27,0.72 0.94,0 1.32,-0.31 1.32,-0.74 0,-1.28 -3.99,-0.4 -3.99,-2.95 0,-1.17 0.94,-2.14 2.89,-2.14 0.86,0 1.75,0.21 2.38,0.61l-0.49 1.21c-0.64,-0.36 -1.3,-0.54 -1.9,-0.54 -0.94,0 -1.3,0.35 -1.3,0.78 0,1.26 3.99,0.39 3.99,2.91 0,1.15 -0.95,2.13 -2.91,2.13 -1.09,0 -2.19,-0.32 -2.79,-0.79z"/>
        </g>
        <g>
         <polygon fill="white" fill-rule="nonzero" points="847.58,742.07 847.58,748.93 845.99,748.93 845.99,746.12 842.87,746.12 842.87,748.93 841.28,748.93 841.28,742.07 842.87,742.07 842.87,744.77 845.99,744.77 845.99,742.07 "/>
        </g>
        <g>
         <path fill="white" fill-rule="nonzero" d="M848.78 745.5c0,-2.04 1.59,-3.55 3.76,-3.55 2.15,0 3.75,1.5 3.75,3.55 0,2.05 -1.6,3.55 -3.75,3.55 -2.17,0 -3.76,-1.51 -3.76,-3.55zm5.9 0l0 0c0,-1.3 -0.92,-2.2 -2.15,-2.2 -1.23,0 -2.15,0.89 -2.15,2.2 0,1.3 0.92,2.2 2.15,2.2 1.22,0 2.15,-0.89 2.15,-2.2z"/>
        </g>
        <g>
         <polygon fill="white" fill-rule="nonzero" points="857.51,742.07 859.09,742.07 859.09,747.64 862.54,747.64 862.54,748.93 857.51,748.93 "/>
        </g>
        <g>
         <path fill="white" fill-rule="nonzero" d="M863.44 742.07l3.12 0c2.25,0 3.79,1.35 3.79,3.43 0,2.08 -1.54,3.43 -3.79,3.43l-3.12 0 0 -6.86zm3.04 5.56l0 0c1.36,0 2.26,-0.81 2.26,-2.13 0,-1.31 -0.89,-2.13 -2.26,-2.13l-1.45 0 0 4.25 1.45 0z"/>
        </g>
        <g>
         <polygon fill="white" fill-rule="nonzero" points="876.87,747.66 876.87,748.93 871.55,748.93 871.55,742.07 876.74,742.07 876.74,743.34 873.13,743.34 873.13,744.83 876.32,744.83 876.32,746.07 873.13,746.07 873.13,747.66 "/>
        </g>
        <g>
         <path fill="white" fill-rule="nonzero" d="M882.51 748.93l-1.32 -1.91 -0.08 0 -1.38 0 0 1.91 -1.59 0 0 -6.86 2.97 0c1.83,0 2.98,0.95 2.98,2.49 0,1.03 -0.52,1.78 -1.41,2.17l1.54 2.21 -1.71 0zm-1.49 -5.57l0 0 -1.29 0 0 2.39 1.29 0c0.97,0 1.46,-0.45 1.46,-1.2 0,-0.75 -0.49,-1.2 -1.46,-1.2z"/>
        </g>
       </g>
       <g>
        <path fill="white" fill-rule="nonzero" d="M906.57 774.8l-94.47 0c-2.03,0 -3.68,-1.65 -3.68,-3.68l0 -1.45c0,-2.03 1.65,-3.68 3.68,-3.68l94.47 0c2.03,0 3.68,1.65 3.68,3.68l0 1.45c0,2.03 -1.65,3.68 -3.68,3.68z"/>
       </g>
       <g>
        <path fill="white" fill-rule="nonzero" d="M1074.87 774.8l-49.21 0c-2.03,0 -3.68,-1.65 -3.68,-3.68l0 -1.45c0,-2.03 1.65,-3.68 3.68,-3.68l49.21 0c2.03,0 3.68,1.65 3.68,3.68l0 1.45c0,2.03 -1.65,3.68 -3.68,3.68z"/>
       </g>
      </g>
      <g>
       <g>
        <g>
         <path fill="white" fill-rule="nonzero" fill-opacity="0.200000" d="M1100.6 598.32l-311.71 0c-6.11,0 -11.06,4.95 -11.06,11.06l0 55.93c19.7,13.73 46.75,16.15 70.74,11.13 28.29,-5.91 53.91,-20.38 80.26,-32.23 26.36,-11.86 55.31,-21.37 83.79,-16.49 26.88,4.61 49.8,21.35 74.09,33.74 7.85,4 16.3,7.53 24.94,10.05l0 -62.12c0,-6.11 -4.95,-11.06 -11.06,-11.06z"/>
        </g>
       </g>
      </g>
     </g>
     <g>
      <g>
       <g>
        <g>
         <path fill="#337FC9" fill-rule="nonzero" d="M851.13 979.29l-45.97 0c-11.24,0 -20.34,-9.11 -20.34,-20.34l0 -45.97c0,-11.24 9.11,-20.35 20.34,-20.35l45.97 0c11.24,0 20.34,9.11 20.34,20.35l0 45.97c0,11.24 -9.11,20.34 -20.34,20.34z"/>
        </g>
       </g>
       <g>
        <g>
         <g>
          <path fill="white" fill-rule="nonzero" d="M836.69 949.22l-18.94 0c-0.51,0 -0.96,-0.35 -1.09,-0.85l-7.01 -27.88 -6.57 0c-0.62,0 -1.12,-0.5 -1.12,-1.12 0,-0.62 0.5,-1.12 1.12,-1.12l7.44 0c0.51,0 0.96,0.35 1.08,0.85l7.01 27.88 18.07 0c0.62,0 1.12,0.5 1.12,1.12 0,0.62 -0.5,1.12 -1.12,1.12z"/>
         </g>
        </g>
        <g>
         <g>
          <path fill="#337FC9" fill-rule="nonzero" d="M824.89 954.57c0,1.96 -1.59,3.55 -3.55,3.55 -1.96,0 -3.55,-1.59 -3.55,-3.55 0,-1.96 1.59,-3.55 3.55,-3.55 1.96,0 3.55,1.59 3.55,3.55z"/>
         </g>
         <g>
          <path fill="white" fill-rule="nonzero" d="M821.34 959.23c-2.57,0 -4.67,-2.09 -4.67,-4.67 0,-2.57 2.09,-4.67 4.67,-4.67 2.57,0 4.67,2.09 4.67,4.67 0,2.57 -2.09,4.67 -4.67,4.67zm0 -7.1l0 0c-1.34,0 -2.43,1.09 -2.43,2.43 0,1.34 1.09,2.43 2.43,2.43 1.34,0 2.43,-1.09 2.43,-2.43 0,-1.34 -1.09,-2.43 -2.43,-2.43z"/>
         </g>
        </g>
        <g>
         <g>
          <path fill="#337FC9" fill-rule="nonzero" d="M844.59 954.57c0,1.96 -1.59,3.55 -3.55,3.55 -1.96,0 -3.55,-1.59 -3.55,-3.55 0,-1.96 1.59,-3.55 3.55,-3.55 1.96,0 3.55,1.59 3.55,3.55z"/>
         </g>
         <g>
          <path fill="white" fill-rule="nonzero" d="M841.04 959.23c-2.57,0 -4.67,-2.09 -4.67,-4.67 0,-2.57 2.09,-4.67 4.67,-4.67 2.57,0 4.67,2.09 4.67,4.67 0,2.57 -2.09,4.67 -4.67,4.67zm0 -7.1l0 0c-1.34,0 -2.43,1.09 -2.43,2.43 0,1.34 1.09,2.43 2.43,2.43 1.34,0 2.43,-1.09 2.43,-2.43 0,-1.34 -1.09,-2.43 -2.43,-2.43z"/>
         </g>
        </g>
        <g>
         <g>
          <path fill="white" fill-rule="nonzero" d="M844.09 944.07l-26.98 0c-0.62,0 -1.12,-0.5 -1.12,-1.12 0,-0.62 0.5,-1.12 1.12,-1.12l26.05 0 2.97 -16.69c-6.51,0 -33.79,0 -34.02,0 -0.62,-0.01 -1.11,-0.51 -1.11,-1.13 0.01,-0.61 0.5,-1.11 1.12,-1.11 0.05,-0.02 3.96,0 9.23,0 10.47,0 26.11,-0 26.11,-0 0.33,0 0.65,0.15 0.86,0.4 0.21,0.25 0.3,0.59 0.24,0.91l-3.36 18.93c-0.09,0.53 -0.56,0.92 -1.1,0.92z"/>
         </g>
        </g>
       </g>
      </g>
      <g>
       <path fill="#DFDFDF" fill-rule="nonzero" d="M1067.27 928.78l-158.31 0c-4.83,0 -8.74,-3.92 -8.74,-8.74l0 -3.44c0,-4.83 3.92,-8.74 8.74,-8.74l158.31 0c4.83,0 8.75,3.92 8.75,8.74l0 3.44c0,4.83 -3.92,8.74 -8.75,8.74z"/>
      </g>
      <g>
       <path fill="#DFDFDF" fill-rule="nonzero" d="M980.34 969.9l-71.38 0c-4.83,0 -8.74,-3.91 -8.74,-8.74l0 -3.44c0,-4.83 3.92,-8.75 8.74,-8.75l71.38 0c4.83,0 8.74,3.92 8.74,8.75l0 3.44c0,4.83 -3.92,8.74 -8.74,8.74z"/>
      </g>
     </g>
     <g>
      <g>
       <path fill="#DFDFDF" fill-rule="nonzero" d="M1149.07 859.99c0,0.33 -91.49,0.6 -204.31,0.6 -112.87,0 -204.33,-0.27 -204.33,-0.6 0,-0.33 91.47,-0.6 204.33,-0.6 112.83,0 204.31,0.27 204.31,0.6z"/>
      </g>
     </g>
     <g>
      <g>
       <path fill="#337FC9" fill-rule="nonzero" d="M1042.63 1103.9l-191.41 0c-20.74,0 -37.55,-16.81 -37.55,-37.55l0 -14.77c0,-20.74 16.81,-37.55 37.55,-37.55l191.41 0c20.73,0 37.55,16.81 37.55,37.55l0 14.77c0,20.73 -16.81,37.55 -37.55,37.55z"/>
      </g>
      <g>
       <path fill="white" fill-rule="nonzero" d="M941.67 1054.71c0,4.51 -3.4,7.31 -8.82,7.31l-3.46 0 0 5.19 -5.61 0 0 -19.85 9.07 0c5.42,0 8.82,2.81 8.82,7.34zm-5.67 0l0 0c0,-1.84 -1.16,-2.92 -3.48,-2.92l-3.12 0 0 5.81 3.12 0c2.32,0 3.48,-1.08 3.48,-2.89z"/>
       <path fill="white" fill-rule="nonzero" d="M956.7 1063.36l-8.39 0 -1.56 3.85 -5.73 0 8.76 -19.85 5.53 0 8.79 19.85 -5.84 0 -1.56 -3.85zm-1.64 -4.14l0 0 -2.55 -6.35 -2.55 6.35 5.1 0z"/>
       <polygon fill="white" fill-rule="nonzero" points="975.07,1060.1 975.07,1067.21 969.46,1067.21 969.46,1060.01 961.89,1047.37 967.81,1047.37 972.52,1055.25 977.23,1047.37 982.67,1047.37 "/>
      </g>
     </g>
     <g>
      <path fill="#337FC9" fill-rule="nonzero" d="M807.41 510.07c0,9.55 -7.74,17.3 -17.3,17.3 -9.55,0 -17.3,-7.74 -17.3,-17.3 0,-9.55 7.74,-17.3 17.3,-17.3 9.55,0 17.3,7.74 17.3,17.3z"/>
     </g>
     <g>
      <path fill="#DFDFDF" fill-rule="nonzero" d="M1003.2 516.35l-116.91 0c-3.5,0 -6.34,-2.84 -6.34,-6.34l0 -2.49c0,-3.5 2.84,-6.34 6.34,-6.34l116.91 0c3.5,0 6.34,2.84 6.34,6.34l0 2.49c0,3.5 -2.84,6.34 -6.34,6.34z"/>
     </g>
     <g>
      <polygon fill="#233862" fill-rule="nonzero" points="1092.29,1147.47 827.76,1147.47 827.76,1129.8 1092.29,1129.8 "/>
     </g>
     <g>
      <g>
       <path fill="#F9F9F9" fill-rule="nonzero" d="M840.29 1138.64c2.32,0.77 33.31,0.77 33.31,61.96 0,61.19 -1.55,137.09 30.98,139.42 32.53,2.32 203.71,0 203.71,0l0 -153.57c0,-25.59 -20.67,-46.39 -46.27,-46.53l-221.72 -1.28z"/>
      </g>
      <g>
       <g>
        <path fill="#233862" fill-rule="nonzero" d="M840.29 1138.64c3.31,0.01 49.51,0.15 128.66,0.38 19.96,0.07 41.82,0.15 65.29,0.24 5.87,0.03 11.83,0.05 17.9,0.08 6.03,0.13 12.26,-0.32 18.49,0.91 6.19,1.17 12.24,3.63 17.61,7.28 5.35,3.67 10.01,8.5 13.51,14.16 3.51,5.65 5.85,12.14 6.69,18.91 0.41,3.39 0.42,6.83 0.41,10.22 0,3.41 0,6.83 0,10.28 0.01,13.78 0.01,27.85 0.01,42.17 0,28.64 0.01,58.3 0.01,88.68 0,2.76 0,5.52 0,8.07l0 0.6 -0.6 0.01c-59.86,0.72 -116.8,1.26 -168.53,0.85 -6.47,-0.05 -12.85,-0.16 -19.15,-0.3 -6.32,-0.24 -12.48,-0.16 -18.69,-1.01 -3.08,-0.66 -5.95,-2.05 -8.39,-3.94 -2.38,-1.97 -4.36,-4.32 -6.02,-6.83 -3.25,-5.08 -5.29,-10.67 -6.91,-16.19 -3.14,-11.12 -4.53,-22.2 -5.5,-32.82 -0.95,-10.63 -1.36,-20.86 -1.6,-30.62 -0.5,-19.52 -0.11,-37.18 -0.34,-52.65 -0.3,-15.42 -2.7,-28.8 -7.47,-38.58 -2.34,-4.91 -5.34,-8.75 -8.28,-11.69 -3.04,-2.88 -6.15,-4.64 -8.73,-5.83 -5.29,-2.16 -8.45,-2.19 -8.37,-2.37 0.34,0.05 0.93,0.14 2.2,0.33 1.44,0.27 3.6,0.72 6.27,1.82 2.62,1.16 5.79,2.91 8.88,5.79 3,2.95 6.07,6.8 8.46,11.74 4.88,9.84 7.36,23.29 7.72,38.76 0.29,15.5 -0.04,33.14 0.52,52.65 0.27,9.75 0.7,19.96 1.67,30.56 1,10.58 2.41,21.62 5.54,32.63 1.61,5.47 3.64,10.97 6.81,15.91 1.62,2.44 3.53,4.7 5.81,6.57 2.34,1.79 5.05,3.09 7.96,3.72 5.93,0.8 12.24,0.74 18.5,0.96 6.29,0.13 12.67,0.23 19.14,0.27 51.71,0.35 108.65,-0.22 168.51,-0.95l-0.6 0.6c0,-2.55 0,-5.31 0,-8.07 0,-30.37 0.01,-60.03 0.01,-88.68 0.01,-14.32 0.01,-28.39 0.01,-42.17 0,-3.44 0,-6.87 0.01,-10.28 0.02,-3.42 0.01,-6.78 -0.39,-10.08 -0.82,-6.61 -3.09,-12.94 -6.51,-18.46 -3.41,-5.53 -7.96,-10.26 -13.18,-13.85 -5.24,-3.57 -11.15,-5.98 -17.2,-7.13 -6.05,-1.22 -12.22,-0.79 -18.25,-0.93 -6.03,-0.04 -11.97,-0.08 -17.81,-0.12 -23.35,-0.18 -45.1,-0.36 -64.96,-0.51 -79.43,-0.68 -125.8,-1.08 -129.12,-1.1z"/>
       </g>
      </g>
     </g>
     <g>
      <path fill="#DFDFDF" fill-rule="nonzero" d="M905.36 1340.02c0,0 26.78,0 32.52,-39.5 6.84,-47.06 0,-88.3 36.4,-89.85 36.4,-1.55 134,0 134,0l0 129.35 -202.92 0z"/>
     </g>
     <g>
      <g>
       <path fill="#F9F9F9" fill-rule="nonzero" d="M969.71 1211.13c0,0 29.36,-3.56 29.36,45.24 0,48.8 0.77,81.07 33.31,84.68 32.53,3.61 232.36,0 232.36,0 0,0 -31.76,-14.97 -34.08,-59.12 -2.32,-44.15 -11.62,-71.09 -43.37,-71.95 -31.76,-0.86 -217.57,1.15 -217.57,1.15z"/>
      </g>
      <g>
       <g>
        <path fill="#233862" fill-rule="nonzero" d="M969.71 1211.13c0.34,-0.01 0.86,-0.03 1.97,-0.08 1.33,-0.03 3.26,-0.07 5.78,-0.12 5.12,-0.08 12.61,-0.19 22.25,-0.34 19.36,-0.21 47.32,-0.52 81.91,-0.9 17.3,-0.12 36.26,-0.25 56.62,-0.39 10.18,-0.01 20.71,-0.03 31.57,-0.05 5.43,0.03 10.93,0.05 16.52,0.16 5.6,0.22 11.37,0.94 16.76,3.22 5.35,2.33 10.08,6.18 13.62,10.95 3.57,4.77 6.12,10.27 8.04,16 3.62,11.54 5.24,23.82 6.1,36.28 0.21,3.12 0.37,6.26 0.71,9.36l0.46 4.68 0.87 4.64 0.44 2.33 0.63 2.28 1.31 4.57c1.16,2.95 2.17,5.98 3.68,8.81 5.58,11.42 14.58,21.7 26.03,27.97l2.03 1.11 -2.27 0.04c-1.75,0.03 -3.64,0.06 -5.54,0.09 -53.63,0.88 -104.72,1.46 -151.2,1.45 -23.24,-0.05 -45.32,-0.11 -65.99,-0.99 -5.16,-0.35 -10.28,-0.46 -15.21,-1.64 -4.89,-1.19 -9.53,-3.37 -13.17,-6.64 -3.67,-3.23 -6.32,-7.33 -8.16,-11.58 -1.88,-4.25 -3.06,-8.65 -3.91,-12.98 -1.68,-8.67 -2.19,-17.07 -2.51,-24.98 -0.3,-7.92 -0.32,-15.39 -0.33,-22.37 0.03,-3.49 0.01,-6.86 -0.15,-10.09 -0.08,-1.61 -0.06,-3.21 -0.23,-4.75 -0.19,-1.54 -0.38,-3.05 -0.56,-4.53 -0.09,-0.74 -0.18,-1.47 -0.27,-2.19 -0.16,-0.71 -0.32,-1.41 -0.47,-2.11 -0.31,-1.39 -0.62,-2.74 -0.91,-4.07 -0.44,-1.28 -0.87,-2.53 -1.28,-3.75 -0.21,-0.61 -0.42,-1.21 -0.63,-1.8 -0.28,-0.56 -0.55,-1.12 -0.82,-1.66 -1.98,-4.48 -4.83,-7.9 -7.69,-10.3 -2.85,-2.45 -5.8,-3.83 -8.26,-4.56 -2.45,-0.78 -4.43,-1 -5.75,-1.06 -0.66,-0.05 -1.16,-0.03 -1.49,-0.03 -0.24,0 -0.38,0 -0.51,0 -0.02,0.01 0.16,-0.05 0.5,-0.06 0.34,-0.02 0.84,-0.06 1.5,-0.03 1.33,0.02 3.32,0.2 5.81,0.95 2.5,0.69 5.5,2.06 8.42,4.51 2.92,2.41 5.84,5.86 7.88,10.37 4.6,8.88 5.65,21.27 5.59,35.16 0.04,6.98 0.09,14.44 0.42,22.34 0.34,7.89 0.89,16.26 2.58,24.84 0.85,4.28 2.04,8.62 3.89,12.78 1.82,4.16 4.41,8.13 7.96,11.25 3.53,3.14 8.01,5.24 12.78,6.4 4.79,1.13 9.9,1.24 15.03,1.58 20.62,0.83 42.71,0.86 65.94,0.88 46.46,-0.05 97.55,-0.67 151.18,-1.55 1.9,-0.03 3.79,-0.07 5.54,-0.09l-0.25 1.15c-11.84,-6.48 -20.88,-16.89 -26.6,-28.54 -1.53,-2.88 -2.56,-5.95 -3.73,-8.96l-1.33 -4.64 -0.64 -2.32 -0.44 -2.36 -0.88 -4.7 -0.47 -4.74c-0.35,-3.16 -0.51,-6.28 -0.71,-9.38 -0.85,-12.41 -2.46,-24.62 -6.02,-36 -1.89,-5.64 -4.38,-11.04 -7.85,-15.68 -3.44,-4.64 -7.99,-8.35 -13.16,-10.62 -5.22,-2.22 -10.83,-2.93 -16.35,-3.16 -5.57,-0.12 -11.07,-0.15 -16.5,-0.19 -10.85,-0.01 -21.38,-0.01 -31.56,-0.02 -20.36,0.09 -39.31,0.17 -56.62,0.24 -34.58,0.22 -62.55,0.39 -81.91,0.51 -9.64,0.05 -17.13,0.09 -22.25,0.11 -2.52,0 -4.45,0 -5.79,0 -1.11,-0.02 -1.63,-0.03 -1.97,-0.04z"/>
       </g>
      </g>
     </g>
     <g>
      <g>
       <path fill="#233862" fill-rule="nonzero" d="M977.45 1211.05c0,0.15 -2.35,-0.1 -6.49,0.48 -4.07,0.58 -10.19,2.36 -15.57,7.58 -5.46,5.08 -9.53,13.38 -11.57,23.01 -2.11,9.68 -2.22,20.65 -2.72,32.12 -0.48,11.47 -1.24,22.49 -3.74,32.22 -1.2,4.87 -2.98,9.32 -4.79,13.37 -1.85,4.05 -3.92,7.69 -6.33,10.66 -2.4,2.97 -5.16,5.16 -7.83,6.6 -2.69,1.43 -5.23,2.1 -7.3,2.53 -2.1,0.33 -3.73,0.48 -4.85,0.45 -1.11,0.01 -1.69,-0.01 -1.69,-0.05 0,-0.04 0.58,-0.11 1.68,-0.2 1.1,-0.04 2.72,-0.27 4.77,-0.66 2.02,-0.49 4.49,-1.21 7.07,-2.66 2.56,-1.46 5.19,-3.62 7.49,-6.55 2.3,-2.92 4.29,-6.51 6.08,-10.53 1.76,-4.04 3.47,-8.42 4.63,-13.23 2.41,-9.61 3.13,-20.55 3.61,-32 0.5,-11.44 0.64,-22.48 2.84,-32.3 2.13,-9.77 6.37,-18.24 12.07,-23.4 5.62,-5.3 11.95,-6.99 16.09,-7.43 1.05,-0.13 1.99,-0.2 2.81,-0.2 0.81,-0.03 1.5,-0.03 2.06,0.02 1.11,0.06 1.69,0.12 1.69,0.16z"/>
      </g>
     </g>
     <g>
      <g>
       <path fill="#DFDFDF" fill-rule="nonzero" d="M1074.92 1174.09c0,0.33 -37.53,0.6 -83.82,0.6 -46.3,0 -83.82,-0.27 -83.82,-0.6 0,-0.33 37.52,-0.6 83.82,-0.6 46.29,0 83.82,0.27 83.82,0.6z"/>
      </g>
     </g>
     <g>
      <g>
       <path fill="#DFDFDF" fill-rule="nonzero" d="M1078.38 1199.03c0,0.33 -36.29,0.6 -81.04,0.6 -44.77,0 -81.05,-0.27 -81.05,-0.6 0,-0.33 36.28,-0.6 81.05,-0.6 44.75,0 81.04,0.27 81.04,0.6z"/>
      </g>
     </g>
     <g>
      <g>
       <path fill="#DFDFDF" fill-rule="nonzero" d="M1192.68 1247.52c0,0.33 -37.53,0.6 -83.82,0.6 -46.3,0 -83.82,-0.27 -83.82,-0.6 0,-0.33 37.52,-0.6 83.82,-0.6 46.29,0 83.82,0.27 83.82,0.6z"/>
      </g>
     </g>
     <g>
      <g>
       <path fill="#DFDFDF" fill-rule="nonzero" d="M1194.76 1276.62c0,0.33 -34.43,0.6 -76.89,0.6 -42.48,0 -76.9,-0.27 -76.9,-0.6 0,-0.33 34.42,-0.6 76.9,-0.6 42.46,0 76.89,0.27 76.89,0.6z"/>
      </g>
     </g>
    </g>
    <path fill="white" fill-rule="nonzero" d="M1054.68 658.6l-16.32 0c-4.03,0 -7.3,-3.27 -7.3,-7.3l0 -16.32c0,-4.03 3.27,-7.29 7.3,-7.29l16.32 0c4.03,0 7.3,3.27 7.3,7.29l0 16.32c0,4.03 -3.27,7.3 -7.3,7.3z"/>
    <g>
     <g>
      <g>
       <g>
        <g>
         <g>
          <g>
           <g>
            <g>
             <g>
              <g>
               <g>
                <g>
                 <g>
                  <g>
                   <path fill="white" fill-rule="nonzero" d="M483.64 593.75l-15.32 -1.85c-9.7,6.48 -21.46,10.17 -34.17,9.85 -29.98,-0.75 -54.94,-24.65 -57.04,-54.57 -2.43,-34.57 25.34,-63.82 60.24,-62.92 29.63,0.76 54.38,24.1 56.92,53.63 1.26,14.66 -2.93,28.39 -10.8,39.35l0.03 -0.02 0.14 16.54z"/>
                  </g>
                 </g>
                </g>
                <g>
                 <g>
                  <g>
                   <g>
                    <path fill="#233862" fill-rule="nonzero" d="M483.64 593.75c0,0 -0.03,-0.39 -0.05,-1.12 -0.02,-0.76 -0.04,-1.83 -0.08,-3.2 -0.05,-2.83 -0.13,-6.93 -0.23,-12.22l0.35 0.16c0,0 -0.02,0.01 -0.03,0.02 -0.09,0.08 -0.23,0.06 -0.3,-0.03 -0.06,-0.08 -0.06,-0.19 -0.01,-0.26 4.17,-5.92 8.8,-14.71 10.31,-26.19 0.77,-5.7 0.68,-12 -0.49,-18.55 -1.23,-6.53 -3.71,-13.28 -7.59,-19.63 -3.91,-6.33 -9.26,-12.22 -15.87,-16.97 -6.59,-4.73 -14.43,-8.41 -23.03,-9.95 -8.56,-1.61 -17.77,-1.28 -26.64,1.15 -8.9,2.38 -17.32,7.22 -24.27,13.81 -3.61,3.25 -6.51,7.13 -9.18,11.06 -1.18,2.06 -2.4,4.1 -3.41,6.22l-1.39 3.23 -0.68 1.61 -0.52 1.67c-2.95,8.83 -3.61,18.11 -2.41,26.83 1.16,8.75 4.57,16.81 9.07,23.64 4.53,6.84 10.27,12.45 16.5,16.62 6.25,4.15 12.95,6.88 19.47,8.35 1.65,0.29 3.27,0.57 4.86,0.85 1.6,0.24 3.19,0.28 4.74,0.42 3.11,0.24 6.13,0.1 8.99,-0.17 11.54,-1.14 20.46,-5.46 26.45,-9.38 0.04,-0.03 0.1,-0.04 0.14,-0.03 4.87,0.64 8.67,1.14 11.29,1.49 1.27,0.17 2.25,0.31 2.97,0.41 0.67,0.09 1.04,0.16 1.04,0.16 0,0 -0.31,-0.01 -0.97,-0.08 -0.7,-0.07 -1.68,-0.17 -2.93,-0.3 -2.66,-0.29 -6.51,-0.71 -11.45,-1.26l0.14 -0.03c-5.98,4.03 -14.95,8.48 -26.61,9.71 -2.9,0.29 -5.95,0.45 -9.1,0.23 -1.57,-0.14 -3.19,-0.16 -4.81,-0.4 -1.61,-0.28 -3.26,-0.55 -4.93,-0.84 -6.62,-1.46 -13.42,-4.2 -19.79,-8.39 -6.34,-4.21 -12.19,-9.88 -16.81,-16.82 -4.59,-6.93 -8.08,-15.12 -9.27,-24.02 -1.23,-8.86 -0.58,-18.31 2.42,-27.31l0.53 -1.7 0.69 -1.64c0.47,-1.1 0.94,-2.19 1.41,-3.29 1.03,-2.16 2.27,-4.24 3.47,-6.33 2.71,-4 5.67,-7.95 9.35,-11.26 7.08,-6.71 15.65,-11.64 24.72,-14.05 9.04,-2.47 18.4,-2.79 27.12,-1.14 8.75,1.58 16.71,5.35 23.4,10.17 6.7,4.84 12.11,10.85 16.06,17.29 3.92,6.47 6.41,13.32 7.62,19.95 1.15,6.65 1.21,13.02 0.39,18.79 -1.61,11.6 -6.36,20.43 -10.64,26.34l-0.31 -0.29c0.01,-0.01 0.03,-0.02 0.03,-0.02 0.09,-0.08 0.23,-0.06 0.3,0.03 0.03,0.04 0.05,0.09 0.05,0.14 -0.01,5.35 -0.01,9.5 -0.02,12.36 -0.01,1.35 -0.02,2.39 -0.02,3.14 -0.01,0.7 -0.03,1.04 -0.03,1.04z"/>
                   </g>
                  </g>
                 </g>
                </g>
               </g>
              </g>
             </g>
            </g>
           </g>
          </g>
         </g>
        </g>
       </g>
      </g>
     </g>
     <g>
      <g>
       <g>
        <g>
         <g>
          <g>
           <g>
            <g>
             <g>
              <g>
               <g>
                <polygon fill="#233862" fill-rule="nonzero" points="409.78,546.6 417.14,538.72 432.28,551.28 460.19,522.54 467.52,529.92 431.69,566.02 "/>
               </g>
              </g>
             </g>
            </g>
           </g>
          </g>
         </g>
        </g>
       </g>
      </g>
     </g>
    </g>
    <g>
     <g>
      <g>
       <g>
        <g>
         <g>
          <g>
           <g>
            <g>
             <g>
              <g>
               <g>
                <g>
                 <g>
                  <path fill="#FFBF9C" fill-rule="nonzero" d="M539.38 518.79c3.54,-22.9 24.06,-39.24 47.18,-37.56l2.3 0.17c24.66,3.25 35.67,26.01 31.74,50.56l-8.58 87.16 -0.42 18.01 -58.72 5.33 1.26 -38.04c0,0 -23.53,-5.44 -22.09,-29.26 0.7,-11.5 4.06,-35.08 7.34,-56.38z"/>
                 </g>
                </g>
               </g>
              </g>
             </g>
            </g>
           </g>
          </g>
          <g>
           <g>
            <g>
             <g>
              <g>
               <g>
                <g>
                 <g>
                  <g>
                   <g>
                    <path fill="#FF9A6C" fill-rule="nonzero" d="M553.94 604.38c0,0 15.13,2.02 31.85,-6.86 0,0 -8.28,17.18 -31.87,13.31l0.02 -6.45z"/>
                   </g>
                  </g>
                 </g>
                </g>
               </g>
              </g>
             </g>
            </g>
           </g>
          </g>
          <g>
           <g>
            <g>
             <g>
              <g>
               <g>
                <g>
                 <g>
                  <g>
                   <g>
                    <g>
                     <g>
                      <g>
                       <path fill="#263138" fill-rule="nonzero" d="M548.6 542.53c-0.19,1.79 1.16,3.43 3.03,3.67 1.86,0.24 3.53,-1.02 3.73,-2.81 0.19,-1.79 -1.16,-3.43 -3.02,-3.67 -1.87,-0.24 -3.54,1.02 -3.73,2.81z"/>
                      </g>
                     </g>
                    </g>
                   </g>
                  </g>
                 </g>
                </g>
               </g>
              </g>
             </g>
            </g>
           </g>
          </g>
          <g>
           <g>
            <g>
             <g>
              <g>
               <g>
                <g>
                 <g>
                  <g>
                   <g>
                    <g>
                     <g>
                      <g>
                       <g>
                        <path fill="#263138" fill-rule="nonzero" d="M543.65 530.81c0.39,0.47 3.1,-1.24 6.76,-0.97 3.66,0.22 6.2,2.3 6.63,1.88 0.21,-0.19 -0.16,-1.02 -1.27,-1.95 -1.09,-0.93 -2.99,-1.9 -5.27,-2.06 -2.28,-0.15 -4.26,0.55 -5.42,1.32 -1.19,0.78 -1.63,1.56 -1.43,1.77z"/>
                       </g>
                      </g>
                     </g>
                    </g>
                   </g>
                  </g>
                 </g>
                </g>
               </g>
              </g>
             </g>
            </g>
           </g>
          </g>
          <g>
           <g>
            <g>
             <g>
              <g>
               <g>
                <g>
                 <g>
                  <g>
                   <g>
                    <g>
                     <g>
                      <g>
                       <path fill="#263138" fill-rule="nonzero" d="M582.87 545.79c-0.2,1.79 1.16,3.43 3.03,3.67 1.86,0.24 3.53,-1.02 3.73,-2.81 0.19,-1.79 -1.16,-3.43 -3.02,-3.67 -1.87,-0.24 -3.54,1.02 -3.73,2.81z"/>
                      </g>
                     </g>
                    </g>
                   </g>
                  </g>
                 </g>
                </g>
               </g>
              </g>
             </g>
            </g>
           </g>
          </g>
          <g>
           <g>
            <g>
             <g>
              <g>
               <g>
                <g>
                 <g>
                  <g>
                   <g>
                    <g>
                     <g>
                      <g>
                       <g>
                        <path fill="#263138" fill-rule="nonzero" d="M579.55 534.11c0.39,0.47 3.11,-1.24 6.76,-0.97 3.65,0.22 6.2,2.3 6.63,1.88 0.21,-0.18 -0.16,-1.02 -1.27,-1.95 -1.09,-0.93 -2.99,-1.9 -5.27,-2.05 -2.28,-0.15 -4.26,0.55 -5.42,1.32 -1.18,0.78 -1.63,1.55 -1.43,1.77z"/>
                       </g>
                      </g>
                     </g>
                    </g>
                   </g>
                  </g>
                 </g>
                </g>
               </g>
              </g>
             </g>
            </g>
           </g>
          </g>
          <g>
           <g>
            <g>
             <g>
              <g>
               <g>
                <g>
                 <g>
                  <g>
                   <g>
                    <g>
                     <g>
                      <g>
                       <path fill="#263138" fill-rule="nonzero" d="M564.3 560.27c0.03,-0.21 -2.21,-0.77 -5.86,-1.51 -0.93,-0.16 -1.8,-0.41 -1.91,-1.06 -0.17,-0.69 0.29,-1.67 0.82,-2.72 1.04,-2.2 2.13,-4.5 3.28,-6.91 4.57,-9.84 7.96,-17.97 7.56,-18.15 -0.4,-0.18 -4.43,7.65 -9,17.5 -1.11,2.43 -2.16,4.74 -3.17,6.96 -0.43,1.04 -1.13,2.19 -0.75,3.63 0.2,0.72 0.85,1.27 1.44,1.48 0.59,0.23 1.11,0.28 1.57,0.34 3.69,0.47 5.99,0.65 6.02,0.45z"/>
                      </g>
                     </g>
                    </g>
                   </g>
                  </g>
                 </g>
                </g>
               </g>
              </g>
             </g>
            </g>
           </g>
          </g>
          <g>
           <g>
            <g>
             <g>
              <g>
               <g>
                <g>
                 <g>
                  <g>
                   <g>
                    <g>
                     <g>
                      <g>
                       <path fill="#263138" fill-rule="nonzero" d="M574.88 563.58c-0.59,-0.08 -0.89,3.89 -4.49,6.46 -3.6,2.58 -7.8,1.83 -7.87,2.38 -0.07,0.25 0.89,0.84 2.67,1.02 1.75,0.19 4.35,-0.19 6.55,-1.76 2.2,-1.58 3.26,-3.82 3.51,-5.44 0.27,-1.65 -0.1,-2.66 -0.37,-2.66z"/>
                      </g>
                     </g>
                    </g>
                   </g>
                  </g>
                 </g>
                </g>
               </g>
              </g>
             </g>
            </g>
           </g>
          </g>
          <g>
           <g>
            <g>
             <g>
              <g>
               <g>
                <g>
                 <g>
                  <g>
                   <path fill="#263138" fill-rule="nonzero" d="M579.65 519.71c0.29,1.02 3.98,0.82 8.23,1.65 4.27,0.74 7.64,2.25 8.27,1.4 0.28,-0.41 -0.25,-1.39 -1.58,-2.45 -1.32,-1.06 -3.46,-2.14 -6.02,-2.61 -2.56,-0.47 -4.94,-0.23 -6.55,0.29 -1.62,0.52 -2.47,1.24 -2.35,1.73z"/>
                  </g>
                 </g>
                </g>
               </g>
              </g>
             </g>
            </g>
           </g>
          </g>
          <g>
           <g>
            <g>
             <g>
              <g>
               <g>
                <g>
                 <g>
                  <g>
                   <path fill="#263138" fill-rule="nonzero" d="M545.76 520.32c0.58,0.88 3.16,0.2 6.2,0.38 3.04,0.07 5.55,0.96 6.21,0.14 0.29,-0.4 -0.05,-1.26 -1.12,-2.13 -1.05,-0.86 -2.85,-1.64 -4.94,-1.73 -2.09,-0.09 -3.94,0.54 -5.06,1.31 -1.13,0.78 -1.55,1.61 -1.29,2.03z"/>
                  </g>
                 </g>
                </g>
               </g>
              </g>
             </g>
            </g>
           </g>
          </g>
          <g>
           <g>
            <g>
             <g>
              <g>
               <g>
                <g>
                 <g>
                  <path fill="#FFBF9C" fill-rule="nonzero" d="M615.08 554.85c0.42,-3.66 3.79,-6.33 7.43,-5.72 4.41,0.75 9.16,3.63 8.2,12.78 -1.71,16.23 -17.65,11.17 -17.63,10.7 0.01,-0.32 1.22,-10.98 2,-17.76z"/>
                 </g>
                </g>
               </g>
              </g>
             </g>
            </g>
           </g>
          </g>
          <g>
           <g>
            <g>
             <g>
              <g>
               <g>
                <g>
                 <g>
                  <path fill="#FF9A6C" fill-rule="nonzero" d="M617.25 566.87c0.08,-0.04 0.26,0.23 0.72,0.5 0.44,0.26 1.23,0.49 2.11,0.26 1.78,-0.45 3.51,-3.02 3.9,-5.94 0.2,-1.47 0.03,-2.91 -0.37,-4.13 -0.37,-1.24 -1.05,-2.15 -1.9,-2.39 -0.84,-0.29 -1.5,0.16 -1.75,0.6 -0.26,0.43 -0.2,0.77 -0.29,0.78 -0.05,0.04 -0.32,-0.31 -0.12,-0.96 0.1,-0.32 0.33,-0.68 0.75,-0.95 0.42,-0.28 1.01,-0.38 1.61,-0.25 1.24,0.22 2.25,1.49 2.69,2.83 0.51,1.35 0.73,2.97 0.5,4.63 -0.45,3.26 -2.44,6.15 -4.86,6.58 -1.17,0.18 -2.09,-0.27 -2.54,-0.7 -0.46,-0.45 -0.51,-0.83 -0.45,-0.85z"/>
                 </g>
                </g>
               </g>
              </g>
             </g>
            </g>
           </g>
          </g>
         </g>
        </g>
       </g>
       <g>
        <g>
         <g>
          <g>
           <g>
            <g>
             <g>
              <path fill="#233862" fill-rule="nonzero" d="M628.09 538.3c-1.34,4.65 -0.85,12.38 -5.02,11.33 -8.26,-2.08 -6.28,14.84 -10.24,13.19 -3.91,-1.63 -7.36,-6.45 -7.61,-16.86 -0.31,-13.22 5.01,-22.76 -0.2,-37.9 -3.49,-6.07 -9.71,-10.21 -16.71,-10.37 -7,-0.16 -13.77,3.38 -17.54,9.29 -0.74,-4.61 -2.99,-11.57 -7.1,-13.79 -4.11,-2.22 -8.94,-1.4 -12.48,1.65 -3.54,3.05 -5.16,8.31 -2.37,12.06 -1.88,0.61 -4.13,-0.2 -5.19,-1.87 -0.17,2.15 0.6,4.36 2.06,5.94 -1.69,-0.42 -3.21,-1.48 -4.19,-2.92 0.41,1.91 0.82,3.82 1.23,5.73 -6.96,0.19 -13.77,-6.55 -15.71,-12.55 -2.93,-9.09 -0.67,-18.26 4.41,-26.35 5.08,-8.09 14.18,-13.79 23.73,-13.7 9.55,0.09 17.55,4.61 21.24,13.43 6.2,-4.39 18.76,-5.91 25.67,-2.77 6.91,3.14 11.93,10.12 12.7,17.67 4.32,-1.83 9.51,-0.41 13.16,2.55 0.3,0.25 0.6,0.5 0.88,0.77 5,4.61 7.04,11.63 5.77,18.31 -0.51,2.65 -1.42,5.39 -1.96,7.51 -1.6,6.31 -4.54,19.65 -4.54,19.65z"/>
             </g>
            </g>
           </g>
          </g>
         </g>
        </g>
        <g>
         <g>
          <g>
           <g>
            <g>
             <g>
              <g>
               <path fill="#337FC9" fill-rule="nonzero" d="M542.55 504.6c-0.02,0.02 -0.21,-0.13 -0.56,-0.44 -0.35,-0.3 -0.84,-0.79 -1.37,-1.5 -1.08,-1.38 -2.35,-3.73 -2.73,-6.91 -0.39,-3.11 0.34,-7.24 3.24,-10.42 2.78,-3.15 7.49,-5.4 12.42,-4.69 2.44,0.34 4.68,1.32 6.59,2.58 1.92,1.27 3.53,2.81 4.85,4.44 2.67,3.26 4.2,6.8 4.98,9.85 0.8,3.06 0.88,5.65 0.81,7.4 -0.06,0.88 -0.12,1.56 -0.2,2.02 -0.07,0.46 -0.12,0.7 -0.14,0.69 -0.2,0.02 0.7,-3.94 -0.96,-9.98 -0.83,-2.98 -2.38,-6.42 -5,-9.56 -2.57,-3.11 -6.37,-6.05 -11.03,-6.73 -4.65,-0.67 -9.15,1.44 -11.82,4.42 -2.79,3 -3.54,6.9 -3.23,9.92 0.29,3.07 1.46,5.4 2.45,6.8 1,1.42 1.75,2.05 1.7,2.1z"/>
              </g>
             </g>
            </g>
           </g>
          </g>
         </g>
        </g>
        <g>
         <g>
          <g>
           <g>
            <g>
             <g>
              <g>
               <path fill="#337FC9" fill-rule="nonzero" d="M539.36 511.87c-0.02,0.01 -0.19,-0.26 -0.49,-0.79 -0.3,-0.53 -0.74,-1.32 -1.27,-2.35 -1.05,-2.06 -2.63,-5.06 -3.82,-9.07 -0.58,-2 -1.02,-4.27 -1.07,-6.75 -0.03,-2.46 0.31,-5.14 1.41,-7.73 1.08,-2.58 3.03,-4.96 5.58,-6.63 2.54,-1.67 5.62,-2.73 8.84,-2.93 3.22,-0.21 6.37,0.42 9.19,1.47 2.83,1.08 5.35,2.58 7.53,4.29 4.37,3.41 7.24,7.82 8.23,11.92 1.02,4.11 0.37,7.62 -0.48,9.77 -0.41,1.1 -0.9,1.87 -1.22,2.39 -0.36,0.5 -0.55,0.75 -0.57,0.74 -0.07,-0.04 0.76,-1.06 1.52,-3.23 0.75,-2.14 1.3,-5.57 0.25,-9.55 -1.02,-3.96 -3.85,-8.22 -8.14,-11.53 -4.24,-3.28 -10.01,-5.94 -16.27,-5.56 -3.1,0.19 -6.05,1.21 -8.5,2.8 -2.44,1.6 -4.3,3.85 -5.36,6.31 -1.08,2.46 -1.43,5.06 -1.42,7.46 0.02,2.41 0.42,4.63 0.96,6.62 1.11,3.97 2.61,6.98 3.58,9.08 0.47,0.99 0.86,1.79 1.15,2.41 0.26,0.55 0.39,0.85 0.36,0.86z"/>
              </g>
             </g>
            </g>
           </g>
          </g>
         </g>
        </g>
        <g>
         <g>
          <g>
           <g>
            <g>
             <g>
              <g>
               <path fill="#337FC9" fill-rule="nonzero" d="M622.35 527.78c-0.09,-0.11 1.5,-1.22 3.48,-3.57 1.97,-2.32 4.24,-6.03 5.19,-10.61 0.95,-4.58 0.35,-8.89 -0.54,-11.8 -0.88,-2.94 -1.89,-4.59 -1.77,-4.66 0.04,-0.02 0.33,0.36 0.76,1.12 0.43,0.76 0.98,1.9 1.49,3.38 1.03,2.93 1.74,7.37 0.76,12.1 -0.98,4.73 -3.4,8.52 -5.51,10.8 -1.06,1.15 -2.02,1.98 -2.72,2.51 -0.7,0.52 -1.12,0.76 -1.14,0.73z"/>
              </g>
             </g>
            </g>
           </g>
          </g>
         </g>
        </g>
        <g>
         <g>
          <g>
           <g>
            <g>
             <g>
              <g>
               <path fill="#337FC9" fill-rule="nonzero" d="M607.54 527.31c-0.03,-0.07 0.81,-0.36 2.1,-1.24 1.26,-0.87 3,-2.44 4.1,-4.94l0.68 -1.55 -0.15 1.7c-0.21,2.29 -0.44,4.92 -0.7,7.78l-0.53 -0.32c1.92,-1.3 3.79,-3.06 5.31,-5.2 1.95,-2.7 3.13,-5.73 3.63,-8.56 0.5,-2.85 0.35,-5.49 -0.05,-7.64 -0.83,-4.33 -2.45,-6.66 -2.3,-6.72 0.02,-0.01 0.13,0.12 0.31,0.4 0.19,0.27 0.43,0.69 0.72,1.24 0.58,1.1 1.28,2.79 1.77,4.98 0.47,2.19 0.68,4.9 0.2,7.85 -0.48,2.94 -1.69,6.08 -3.7,8.87 -1.58,2.21 -3.52,4.02 -5.52,5.35l-0.61 0.4 0.08 -0.72c0.3,-2.85 0.58,-5.49 0.83,-7.77l0.53 0.14c-1.22,2.61 -3.09,4.16 -4.44,4.97 -0.68,0.42 -1.26,0.66 -1.65,0.81 -0.4,0.14 -0.61,0.19 -0.62,0.17z"/>
              </g>
             </g>
            </g>
           </g>
          </g>
         </g>
        </g>
        <g>
         <g>
          <g>
           <g>
            <g>
             <g>
              <g>
               <path fill="#337FC9" fill-rule="nonzero" d="M603.03 493.07c-0.14,0.1 -0.84,-2.32 -3.76,-4.69 -1.45,-1.15 -3.45,-2.24 -5.85,-2.72 -2.39,-0.49 -5.17,-0.27 -7.83,0.71 -2.66,0.99 -4.91,2.61 -6.55,4.43 -1.67,1.82 -2.78,3.78 -3.53,5.49 -1.47,3.46 -1.63,5.85 -1.77,5.82 -0.04,-0 -0.04,-0.6 0.12,-1.65 0.16,-1.06 0.49,-2.58 1.19,-4.37 0.71,-1.78 1.81,-3.83 3.51,-5.74 1.68,-1.92 4.02,-3.63 6.8,-4.66 2.77,-1.02 5.7,-1.24 8.21,-0.68 2.52,0.54 4.58,1.73 6.04,2.98 1.46,1.27 2.36,2.58 2.85,3.53 0.24,0.48 0.41,0.86 0.49,1.13 0.09,0.27 0.13,0.41 0.11,0.42z"/>
              </g>
             </g>
            </g>
           </g>
          </g>
         </g>
        </g>
        <g>
         <g>
          <g>
           <g>
            <g>
             <g>
              <g>
               <path fill="#337FC9" fill-rule="nonzero" d="M599.22 480.66c-0.07,0.14 -1.58,-1.06 -4.48,-1.73 -2.85,-0.69 -7.18,-0.58 -11.16,1.58 -3.98,2.18 -6.52,5.62 -7.91,8.22 -1.41,2.63 -1.86,4.45 -1.99,4.41 -0.04,-0.01 0.03,-0.48 0.25,-1.29 0.22,-0.82 0.63,-1.98 1.29,-3.35 1.29,-2.71 3.86,-6.34 8.01,-8.62 4.17,-2.26 8.71,-2.28 11.63,-1.44 1.48,0.41 2.6,0.96 3.32,1.42 0.72,0.46 1.07,0.77 1.05,0.81z"/>
              </g>
             </g>
            </g>
           </g>
          </g>
         </g>
        </g>
       </g>
      </g>
      <g>
       <g>
        <g>
         <g>
          <g>
           <g>
            <g>
             <g>
              <g>
               <g>
                <g>
                 <g>
                  <g>
                   <g>
                    <g>
                     <g>
                      <g>
                       <path fill="#263138" fill-rule="nonzero" d="M546.93 1247.8l1.64 44.55c0,0 -44.74,16.63 -45.23,24.89l86.5 -0.07 0.3 -69.52 -43.2 0.15z"/>
                      </g>
                     </g>
                    </g>
                   </g>
                  </g>
                 </g>
                </g>
               </g>
              </g>
             </g>
            </g>
           </g>
          </g>
         </g>
        </g>
        <g>
         <g>
          <g>
           <g>
            <g>
             <g>
              <g>
               <g>
                <g>
                 <g>
                  <g>
                   <g>
                    <g>
                     <g>
                      <g>
                       <g>
                        <path fill="#DFDFDF" fill-rule="nonzero" d="M575.31 1288.58c1.68,0.46 2.83,2.34 2.45,4.03 -0.39,1.69 -2.29,2.89 -3.97,2.46 -1.68,-0.43 -3.14,-2.64 -2.57,-4.28 0.57,-1.64 2.89,-2.92 4.42,-2.1l-0.32 -0.11z"/>
                       </g>
                      </g>
                     </g>
                    </g>
                   </g>
                  </g>
                 </g>
                </g>
               </g>
              </g>
             </g>
            </g>
           </g>
          </g>
         </g>
        </g>
        <g>
         <g>
          <g>
           <g>
            <g>
             <g>
              <g>
               <g>
                <g>
                 <g>
                  <g>
                   <g>
                    <g>
                     <g>
                      <g>
                       <path fill="#263138" fill-rule="nonzero" d="M589.84 1317.17l-0.24 -7.01 -82.84 2.69c0,0 -3.85,1.68 -3.41,4.39l86.5 -0.07z"/>
                      </g>
                     </g>
                    </g>
                   </g>
                  </g>
                 </g>
                </g>
               </g>
              </g>
             </g>
            </g>
           </g>
          </g>
         </g>
        </g>
        <g>
         <g>
          <g>
           <g>
            <g>
             <g>
              <g>
               <g>
                <g>
                 <g>
                  <g>
                   <g>
                    <g>
                     <g>
                      <g>
                       <g>
                        <path fill="white" fill-rule="nonzero" d="M547.17 1291.92c0.02,0.42 2.13,0.61 4.21,1.97 2.12,1.3 3.19,3.13 3.58,2.96 0.39,-0.08 -0.24,-2.61 -2.79,-4.2 -2.53,-1.62 -5.09,-1.12 -4.99,-0.73z"/>
                       </g>
                      </g>
                     </g>
                    </g>
                   </g>
                  </g>
                 </g>
                </g>
               </g>
              </g>
             </g>
            </g>
           </g>
          </g>
         </g>
        </g>
        <g>
         <g>
          <g>
           <g>
            <g>
             <g>
              <g>
               <g>
                <g>
                 <g>
                  <g>
                   <g>
                    <g>
                     <g>
                      <g>
                       <g>
                        <path fill="white" fill-rule="nonzero" d="M538.1 1295.68c-0.1,0.41 1.73,1.13 3.17,2.91 1.49,1.74 1.85,3.67 2.27,3.65 0.4,0.07 0.69,-2.41 -1.14,-4.59 -1.81,-2.2 -4.29,-2.38 -4.3,-1.97z"/>
                       </g>
                      </g>
                     </g>
                    </g>
                   </g>
                  </g>
                 </g>
                </g>
               </g>
              </g>
             </g>
            </g>
           </g>
          </g>
         </g>
        </g>
        <g>
         <g>
          <g>
           <g>
            <g>
             <g>
              <g>
               <g>
                <g>
                 <g>
                  <g>
                   <g>
                    <g>
                     <g>
                      <g>
                       <g>
                        <path fill="white" fill-rule="nonzero" d="M532.96 1306.54c0.38,0.09 0.97,-2.02 -0.12,-4.33 -1.07,-2.32 -3.06,-3.23 -3.24,-2.88 -0.24,0.35 1.05,1.59 1.91,3.5 0.91,1.89 1.03,3.67 1.45,3.71z"/>
                       </g>
                      </g>
                     </g>
                    </g>
                   </g>
                  </g>
                 </g>
                </g>
               </g>
              </g>
             </g>
            </g>
           </g>
          </g>
         </g>
        </g>
        <g>
         <g>
          <g>
           <g>
            <g>
             <g>
              <g>
               <g>
                <g>
                 <g>
                  <g>
                   <g>
                    <g>
                     <g>
                      <g>
                       <g>
                        <path fill="white" fill-rule="nonzero" d="M547.92 1281.72c0.18,0.38 2.11,-0.2 4.5,-0.04 2.39,0.11 4.25,0.91 4.47,0.55 0.24,-0.31 -1.57,-1.87 -4.39,-2.02 -2.81,-0.17 -4.79,1.18 -4.58,1.51z"/>
                       </g>
                      </g>
                     </g>
                    </g>
                   </g>
                  </g>
                 </g>
                </g>
               </g>
              </g>
             </g>
            </g>
           </g>
          </g>
         </g>
        </g>
       </g>
      </g>
      <g>
       <g>
        <g>
         <g>
          <g>
           <g>
            <g>
             <g>
              <g>
               <g>
                <g>
                 <g>
                  <path fill="#263138" fill-rule="nonzero" d="M646.19 1251.88l3.44 53.83 -9.55 43.36c-0.69,3.13 1.41,6.18 4.58,6.65 1.77,0.26 3.55,-0.33 4.79,-1.62 7.9,-8.23 36.81,-38.63 36.34,-42.55 -0.55,-4.55 0.14,-57.02 0.14,-57.02l-39.74 -2.65z"/>
                 </g>
                </g>
               </g>
              </g>
             </g>
            </g>
           </g>
          </g>
         </g>
        </g>
        <g>
         <g>
          <g>
           <g>
            <g>
             <g>
              <g>
               <g>
                <g>
                 <g>
                  <path fill="#263138" fill-rule="nonzero" d="M644.66 1355.72l40.98 -47.81 0.09 2.28c0.08,1.97 -0.53,3.91 -1.75,5.47 -3.26,4.16 -12.5,15.46 -34.37,38.43 -1.27,1.34 -3.14,1.95 -4.96,1.63z"/>
                 </g>
                </g>
               </g>
              </g>
             </g>
            </g>
           </g>
          </g>
         </g>
        </g>
        <g>
         <g>
          <g>
           <g>
            <g>
             <g>
              <g>
               <g>
                <g>
                 <g>
                  <g>
                   <path fill="white" fill-rule="nonzero" fill-opacity="0.600000" d="M673.87 1290.98c-1.31,0.99 -1.67,3.05 -0.73,4.4 0.93,1.35 3.03,1.73 4.36,0.77 1.33,-0.97 1.83,-3.43 0.75,-4.66 -1.08,-1.24 -3.56,-1.55 -4.62,-0.3l0.24 -0.21z"/>
                  </g>
                 </g>
                </g>
               </g>
              </g>
             </g>
            </g>
           </g>
          </g>
         </g>
        </g>
        <g>
         <g>
          <g>
           <g>
            <g>
             <g>
              <g>
               <g>
                <g>
                 <g>
                  <g>
                   <path fill="white" fill-rule="nonzero" d="M656.01 1331.67c-0.3,0.16 -1.63,-2.61 -4.9,-4 -3.22,-1.49 -6.17,-0.6 -6.25,-0.93 -0.05,-0.13 0.61,-0.58 1.87,-0.81 1.24,-0.24 3.07,-0.13 4.87,0.66 1.79,0.79 3.1,2.08 3.76,3.16 0.67,1.08 0.79,1.88 0.66,1.92z"/>
                  </g>
                 </g>
                </g>
               </g>
              </g>
             </g>
            </g>
           </g>
          </g>
         </g>
        </g>
        <g>
         <g>
          <g>
           <g>
            <g>
             <g>
              <g>
               <g>
                <g>
                 <g>
                  <g>
                   <path fill="white" fill-rule="nonzero" d="M652.47 1339.05c-0.25,0.24 -2.05,-1.44 -4.87,-2.12 -2.81,-0.75 -5.19,-0.13 -5.29,-0.46 -0.17,-0.27 2.38,-1.52 5.58,-0.69 3.21,0.8 4.85,3.11 4.58,3.27z"/>
                  </g>
                 </g>
                </g>
               </g>
              </g>
             </g>
            </g>
           </g>
          </g>
         </g>
        </g>
        <g>
         <g>
          <g>
           <g>
            <g>
             <g>
              <g>
               <g>
                <g>
                 <g>
                  <g>
                   <path fill="white" fill-rule="nonzero" d="M662.78 1322.13c-0.24,0.27 -3,-2.33 -7.29,-3.78 -4.27,-1.51 -8.05,-1.18 -8.07,-1.53 -0.1,-0.28 3.87,-1.2 8.46,0.42 4.6,1.57 7.16,4.74 6.9,4.9z"/>
                  </g>
                 </g>
                </g>
               </g>
              </g>
             </g>
            </g>
           </g>
          </g>
         </g>
        </g>
        <g>
         <g>
          <g>
           <g>
            <g>
             <g>
              <g>
               <g>
                <g>
                 <g>
                  <g>
                   <path fill="white" fill-rule="nonzero" d="M663.1 1305.68c-0.13,0.33 -3.16,-0.79 -7.04,-0.77 -3.88,-0.03 -6.91,1.08 -7.04,0.75 -0.16,-0.26 2.87,-1.96 7.04,-1.93 4.17,-0.01 7.2,1.7 7.04,1.96z"/>
                  </g>
                 </g>
                </g>
               </g>
              </g>
             </g>
            </g>
           </g>
          </g>
         </g>
        </g>
        <g>
         <g>
          <g>
           <g>
            <g>
             <g>
              <g>
               <g>
                <g>
                 <g>
                  <g>
                   <path fill="white" fill-rule="nonzero" d="M662.49 1289.85c-0.15,0.32 -3.22,-1.35 -7.31,-1 -4.09,0.26 -6.87,2.38 -7.07,2.09 -0.09,-0.11 0.47,-0.81 1.68,-1.58 1.2,-0.77 3.1,-1.52 5.3,-1.69 2.2,-0.16 4.19,0.29 5.5,0.87 1.31,0.58 1.97,1.19 1.9,1.31z"/>
                  </g>
                 </g>
                </g>
               </g>
              </g>
             </g>
            </g>
           </g>
          </g>
         </g>
        </g>
        <g>
         <g>
          <g>
           <g>
            <g>
             <g>
              <g>
               <g>
                <g>
                 <g>
                  <g>
                   <path fill="white" fill-rule="nonzero" d="M655.15 1285.84c-0.07,0 -0.22,-0.72 -0.16,-2.04 0.07,-1.31 0.37,-3.25 1.4,-5.41 0.54,-1.02 1.1,-2.34 2.57,-3.11 0.73,-0.39 1.85,-0.3 2.52,0.39 0.66,0.67 0.9,1.54 0.95,2.4 0.08,3.42 -2.72,6.85 -6.54,7.5 -3.85,0.58 -7.44,-1.48 -9.09,-4.37 -0.37,-0.75 -0.64,-1.68 -0.26,-2.61 0.37,-0.94 1.45,-1.35 2.23,-1.24 1.61,0.17 2.66,1.05 3.63,1.7 1.92,1.42 3.13,2.94 3.85,4.04 0.72,1.1 0.97,1.8 0.9,1.83 -0.18,0.15 -1.47,-2.59 -5.23,-5.18 -0.95,-0.59 -2.04,-1.35 -3.2,-1.4 -0.56,-0.03 -1.04,0.21 -1.22,0.67 -0.19,0.44 -0.05,1.11 0.27,1.7 1.39,2.36 4.68,4.24 7.92,3.7 3.23,-0.51 5.69,-3.53 5.65,-6.29 -0.02,-0.66 -0.22,-1.32 -0.59,-1.7 -0.36,-0.37 -0.9,-0.46 -1.39,-0.24 -1.03,0.47 -1.69,1.63 -2.23,2.59 -2.11,4.05 -1.75,7.1 -1.99,7.06z"/>
                  </g>
                 </g>
                </g>
               </g>
              </g>
             </g>
            </g>
           </g>
          </g>
         </g>
        </g>
       </g>
      </g>
      <g>
       <g>
        <g>
         <g>
          <g>
           <g>
            <g>
             <path fill="#233862" fill-rule="nonzero" d="M509.03 871.23c0,0 -7.14,25.23 -5.48,56.22 0.64,11.99 39.15,358.39 39.15,358.39l48.99 -4.41 -8.47 -323.87 2.05 1.83c0,0 29.18,136.25 31.12,157.8 1.74,19.36 25.03,174.9 25.03,174.9l47.54 -2.26 -10.77 -196.62 -14.42 -178.5 -5.77 -52 -148.97 8.52z"/>
            </g>
           </g>
          </g>
         </g>
        </g>
       </g>
       <g>
        <g>
         <g>
          <g>
           <g>
            <g>
             <g>
              <path fill="#445964" fill-rule="nonzero" d="M592.65 929.64c0.03,0.07 -0.78,0.52 -2.3,1.23 -1.53,0.68 -3.77,1.71 -6.81,2.21 -1.51,0.24 -3.23,0.28 -5.03,-0.08 -1.78,-0.36 -3.68,-1.16 -5.19,-2.64 -1.52,-1.48 -2.47,-3.53 -3.06,-5.64 -0.59,-2.13 -0.91,-4.34 -1.31,-6.59 -1.53,-9.02 -2.52,-17.25 -3.07,-23.21 -0.28,-2.98 -0.45,-5.4 -0.53,-7.08 -0.08,-1.67 -0.09,-2.6 -0.01,-2.61 0.08,-0.01 0.24,0.91 0.46,2.57 0.24,1.9 0.54,4.25 0.9,7.03 0.76,5.93 1.87,14.12 3.4,23.11 0.78,4.45 1.27,8.97 3.98,11.67 2.7,2.65 6.54,3.01 9.36,2.67 2.91,-0.37 5.18,-1.27 6.75,-1.81 1.57,-0.58 2.44,-0.89 2.48,-0.81z"/>
             </g>
            </g>
           </g>
          </g>
         </g>
        </g>
       </g>
       <g>
        <g>
         <g>
          <g>
           <g>
            <g>
             <g>
              <path fill="#445964" fill-rule="nonzero" d="M577.21 887.06c-0.02,-0.05 0.36,-0.28 1.13,-0.31 0.76,-0.04 1.91,0.22 3.03,1.05 1.07,0.83 2.2,2.3 2.2,4.27 0.04,1.99 -1.56,3.92 -3.6,4.6 -2.02,0.74 -4.48,0.23 -5.68,-1.36 -1.22,-1.54 -1.26,-3.39 -0.93,-4.71 0.36,-1.35 1.1,-2.26 1.72,-2.71 0.62,-0.45 1.06,-0.51 1.07,-0.46 0.15,0.15 -1.56,0.88 -1.99,3.34 -0.19,1.16 -0.04,2.71 0.95,3.85 0.95,1.17 2.81,1.55 4.49,0.96 1.68,-0.58 2.9,-2.04 2.92,-3.54 0.06,-1.51 -0.78,-2.82 -1.65,-3.61 -1.87,-1.65 -3.66,-1.16 -3.64,-1.37z"/>
             </g>
            </g>
           </g>
          </g>
         </g>
        </g>
       </g>
       <g>
        <g>
         <g>
          <g>
           <g>
            <g>
             <g>
              <path fill="#445964" fill-rule="nonzero" d="M663.1 911.5c0,0.08 -0.66,0.16 -1.86,0.25 -1.2,0.1 -2.96,0.09 -5.11,-0.06 -4.31,-0.29 -10.27,-1.48 -16.33,-4.18 -6.05,-2.73 -10.9,-6.39 -13.99,-9.42 -1.55,-1.51 -2.72,-2.81 -3.44,-3.78 -0.74,-0.96 -1.12,-1.51 -1.05,-1.56 0.16,-0.13 1.86,1.91 5.05,4.74 3.18,2.83 7.99,6.3 13.91,8.97 5.93,2.65 11.71,3.93 15.94,4.42 4.23,0.51 6.89,0.42 6.9,0.62z"/>
             </g>
            </g>
           </g>
          </g>
         </g>
        </g>
       </g>
       <g>
        <g>
         <g>
          <g>
           <g>
            <g>
             <g>
              <path fill="#445964" fill-rule="nonzero" d="M531.05 887c0.12,0.06 -0.86,2.25 -2.96,5.5 -2.09,3.24 -5.4,7.48 -9.73,11.51 -4.34,4.02 -8.81,7.01 -12.2,8.85 -3.39,1.85 -5.64,2.66 -5.7,2.54 -0.08,-0.17 2.04,-1.24 5.29,-3.25 3.25,-2 7.57,-5.04 11.83,-8.99 4.25,-3.96 7.61,-8.04 9.84,-11.13 2.24,-3.09 3.47,-5.12 3.63,-5.03z"/>
             </g>
            </g>
           </g>
          </g>
         </g>
        </g>
       </g>
      </g>
      <g>
       <g>
        <g>
         <g>
          <g>
           <g>
            <g>
             <g>
              <g>
               <g>
                <g>
                 <path fill="#FFBF9C" fill-rule="nonzero" d="M482.44 691.33c-7.29,21.24 -6.48,19.43 -20.09,82.9 -2.51,11.71 1.92,30.02 12.48,35.67 10.56,5.65 29.33,-0.55 35.61,-10.75l10.12 -95.8 -38.11 -12.02z"/>
                </g>
               </g>
              </g>
             </g>
            </g>
           </g>
          </g>
          <g>
           <g>
            <g>
             <g>
              <g>
               <g>
                <path fill="#337FC9" fill-rule="nonzero" d="M658.04 806.44l-0.28 -50.47 0.2 -4.95 51.23 -11.96c0,0 -10.06,-33.14 -19.28,-68.74 -5.33,-20.56 -23.06,-30.89 -27.34,-33.13l0 -0.03 -0.94 -0.44c0,0 -0.01,-0 -0.01,-0l-49.3 -20.87c-9.95,10.62 -24.47,19.14 -38.44,15.06 -7.64,-2.23 -15.48,-7.87 -20.27,-13.84l-33.23 11.4 -0 0.01c-8.53,3.11 -17.56,9.06 -22.97,18.62 -6.95,12.3 -29.16,68.7 -29.55,69.96l41.15 3.7c0,0 -7.3,133.47 -4.72,157.32 0,0 9.99,6.91 35.21,8.1 51.13,2.41 127.23,-1.22 127.23,-1.22 -1.19,-7.7 -2.44,-20.57 -3.15,-27.08l-5.55 -51.45z"/>
               </g>
              </g>
             </g>
            </g>
           </g>
          </g>
          <g>
           <g>
            <g>
             <g>
              <g>
               <g>
                <g>
                 <g>
                  <path fill="#263138" fill-rule="nonzero" d="M510.4 671.05c0.21,0.01 -0.89,31.84 -2.44,71.09 -1.56,39.26 -2.99,71.08 -3.2,71.07 -0.21,-0.01 0.89,-31.83 2.44,-71.1 1.56,-39.25 2.99,-71.07 3.2,-71.06z"/>
                 </g>
                </g>
               </g>
              </g>
             </g>
            </g>
           </g>
          </g>
         </g>
        </g>
       </g>
       <g>
        <g>
         <g>
          <g>
           <g>
            <g>
             <path fill="#263138" fill-rule="nonzero" d="M652.42 679.95c-0.36,0.02 0.67,28.26 2.31,63.08 1.64,34.83 3.27,63.04 3.63,63.03 0.36,-0.02 -0.67,-28.26 -2.31,-63.09 -1.64,-34.82 -3.27,-63.04 -3.63,-63.02z"/>
            </g>
           </g>
          </g>
         </g>
        </g>
       </g>
       <g>
        <g>
         <g>
          <g>
           <g>
            <g>
             <path fill="#FFBF9C" fill-rule="nonzero" d="M709.42 763.09c-1.67,-12.53 -3.05,-23.61 -3.05,-23.61l-40.96 9.51 1.75 6.6 -31.66 -32.16 -5.01 0.43 -15.94 16.58c0,0 13.89,29.35 21.98,40.77 10.51,14.86 27.05,37.53 49.68,35.62 20.92,-1.76 26.22,-31.27 23.23,-53.75z"/>
            </g>
           </g>
          </g>
         </g>
        </g>
        <g>
         <g>
          <g>
           <g>
            <g>
             <g>
              <path fill="#FF9A6C" fill-rule="nonzero" d="M687.23 770.58c0.25,-0.24 -3.49,-4.31 -9,-8.27 -5.5,-3.98 -10.55,-6.22 -10.7,-5.91 -0.18,0.34 4.52,3.08 9.93,6.99 5.42,3.89 9.51,7.47 9.78,7.19z"/>
             </g>
            </g>
           </g>
          </g>
         </g>
        </g>
        <g>
         <g>
          <g>
           <g>
            <g>
             <g>
              <path fill="#FFBF9C" fill-rule="nonzero" d="M580.21 681.45l14.07 -7.19 18.25 5.8 9.05 8.34 13.91 35.02 11.14 14.1 -19.66 25.61 -12.43 -22.7c0,0 -10.56,-4.61 -14.78,-11.27 -4.22,-6.66 -6.13,-10.28 -6.13,-10.28 0,0 -6.1,-2.93 -7.23,-5.74 -1.13,-2.81 -1.08,-5 -1.08,-5l3.09 -4.5c0,0 -0.3,-4.18 0.93,-5.75 1.23,-1.56 2.43,-1.93 2.43,-1.93 0,0 -0.91,-3.8 0.52,-5.16 1.42,-1.36 8.43,-3.86 8.43,-3.86l-6.14 -3.49c0,0 -13.62,4.22 -14.38,-2.01z"/>
             </g>
            </g>
           </g>
          </g>
         </g>
         <g>
          <g>
           <g>
            <g>
             <g>
              <g>
               <path fill="#FF9A6C" fill-rule="nonzero" d="M601.1 694.16c-0,0.18 -2.16,0.23 -4.73,0.78 -2.58,0.53 -4.57,1.36 -4.65,1.19 -0.07,-0.13 1.86,-1.23 4.52,-1.78 2.66,-0.57 4.87,-0.35 4.86,-0.2z"/>
              </g>
             </g>
            </g>
           </g>
          </g>
         </g>
         <g>
          <g>
           <g>
            <g>
             <g>
              <g>
               <path fill="#FF9A6C" fill-rule="nonzero" d="M596.88 702.02c-0.01,0.18 -1.85,0.17 -4.07,0.52 -2.22,0.33 -3.98,0.88 -4.04,0.71 -0.06,-0.14 1.65,-0.97 3.95,-1.31 2.3,-0.35 4.18,-0.08 4.16,0.08z"/>
              </g>
             </g>
            </g>
           </g>
          </g>
         </g>
         <g>
          <g>
           <g>
            <g>
             <g>
              <g>
               <path fill="#FF9A6C" fill-rule="nonzero" d="M590.92 714.33c-0.17,-0 -0.28,-0.81 -0.26,-1.79 0.02,-0.99 0.17,-1.78 0.34,-1.78 0.17,0 0.28,0.81 0.26,1.79 -0.02,0.99 -0.17,1.78 -0.34,1.78z"/>
              </g>
             </g>
            </g>
           </g>
          </g>
         </g>
         <g>
          <g>
           <g>
            <g>
             <g>
              <g>
               <path fill="#FF9A6C" fill-rule="nonzero" d="M593.62 718.13c-0.17,0 -0.06,-1.71 -1.3,-3.24 -1.19,-1.57 -2.88,-1.88 -2.83,-2.05 0.01,-0.07 0.45,-0.11 1.12,0.1 0.66,0.21 1.53,0.73 2.19,1.58 0.66,0.85 0.96,1.81 1,2.51 0.04,0.7 -0.11,1.11 -0.17,1.1z"/>
              </g>
             </g>
            </g>
           </g>
          </g>
         </g>
         <g>
          <g>
           <g>
            <g>
             <g>
              <g>
               <path fill="#FF9A6C" fill-rule="nonzero" d="M604.62 706.9c-0.16,0.07 -0.75,-1.49 -2.46,-2.41 -1.67,-0.97 -3.32,-0.65 -3.34,-0.83 -0.02,-0.07 0.37,-0.26 1.05,-0.31 0.68,-0.05 1.65,0.1 2.58,0.61 0.92,0.52 1.56,1.26 1.88,1.87 0.32,0.61 0.35,1.04 0.29,1.06z"/>
              </g>
             </g>
            </g>
           </g>
          </g>
         </g>
         <g>
          <g>
           <g>
            <g>
             <g>
              <g>
               <path fill="#FF9A6C" fill-rule="nonzero" d="M611.03 699.12c-0.16,0.07 -0.71,-1.39 -2.25,-2.34 -1.51,-0.99 -3.06,-0.88 -3.07,-1.06 -0.01,-0.07 0.37,-0.22 1.02,-0.2 0.64,0.01 1.54,0.22 2.38,0.75 0.84,0.54 1.41,1.26 1.69,1.84 0.28,0.58 0.31,0.99 0.24,1.01z"/>
              </g>
             </g>
            </g>
           </g>
          </g>
         </g>
         <g>
          <g>
           <g>
            <g>
             <g>
              <g>
               <path fill="#FF9A6C" fill-rule="nonzero" d="M615.33 695.3c-0.09,-0.01 -0.05,-0.48 -0.15,-1.21 -0.09,-0.72 -0.38,-1.7 -1.03,-2.58 -0.65,-0.87 -1.51,-1.43 -2.17,-1.73 -0.66,-0.3 -1.12,-0.4 -1.11,-0.49 0,-0.07 0.5,-0.13 1.26,0.09 0.75,0.22 1.77,0.77 2.51,1.77 0.74,0.99 0.98,2.13 0.97,2.91 -0.01,0.79 -0.21,1.25 -0.28,1.23z"/>
              </g>
             </g>
            </g>
           </g>
          </g>
         </g>
         <g>
          <g>
           <g>
            <g>
             <g>
              <g>
               <path fill="#FF9A6C" fill-rule="nonzero" d="M609.37 686.14c0.01,0.21 -2.95,0.26 -6.5,0.8 -3.56,0.55 -6.24,1.8 -6.31,1.62 -0.08,-0.12 2.56,-1.64 6.22,-2.22 1.81,-0.3 3.47,-0.35 4.66,-0.35 1.19,0.01 1.93,0.06 1.93,0.14z"/>
              </g>
             </g>
            </g>
           </g>
          </g>
         </g>
        </g>
       </g>
      </g>
     </g>
     <g>
      <g>
       <path fill="black" fill-rule="nonzero" fill-opacity="0.301961" d="M569.29 765.24c-0.52,-4.07 -1.1,-8.32 -3.48,-11.67 -4.12,-5.81 -12.2,-7.05 -19.31,-6.7 -7.11,0.35 -14.48,1.74 -21.17,-0.69l-19.95 59.27c7.4,-1.81 14.02,-6.63 18.02,-13.12 2.04,-3.31 3.52,-7.16 6.61,-9.53 4.25,-3.27 10.15,-2.79 15.51,-2.84 5.6,-0.06 11.2,-0.88 16.58,-2.44 2.28,-0.66 4.67,-1.55 6.08,-3.46 1.81,-2.45 1.51,-5.8 1.12,-8.82z"/>
      </g>
     </g>
     <g>
      <g>
       <g>
        <g>
         <g>
          <g>
           <g>
            <g>
             <g>
              <path fill="#263138" fill-rule="nonzero" d="M517.89 695.87l6.2 65.95c0.34,3.66 1.76,6.2 4.08,7.6l40 -0.85c1.63,-1.47 3.41,-6.18 3.06,-11.21l-4.43 -63.13c-0.27,-3.79 -1.68,-6.53 -3.4,-6.57l-42.13 -0.97c-2.15,-0.05 -3.82,4.5 -3.37,9.19z"/>
             </g>
            </g>
           </g>
          </g>
         </g>
        </g>
       </g>
       <g>
        <g>
         <g>
          <g>
           <g>
            <g>
             <g>
              <g>
               <path fill="#FFBF9C" fill-rule="nonzero" d="M512.07 709.13c-1.69,-1.95 -1.47,-5.12 0.13,-7.15 1.6,-2.03 4.27,-3.01 6.85,-3.05 2.58,-0.04 5.11,0.76 7.5,1.74 2.95,1.21 5.79,2.71 8.45,4.46 1.88,1.24 3.82,2.85 4.14,5.08 0.32,2.23 -2.15,4.71 -4.08,3.55 2.52,1.13 5.02,3.88 5.37,6.7 0.34,2.82 -1.19,4.3 -3.94,5.05 2.05,0.85 3.32,3.49 2.32,5.48 -1.05,2.09 -3.97,2.6 -6.14,1.72 -2.17,-0.89 -3.73,-2.77 -5.21,-4.58 1.49,2.7 1.37,7.03 0.71,10.05 -5.96,-2.19 -11.85,-8.83 -10.07,-15.13 -2.9,-2.28 -4.21,-7 -2.4,-10.21 -2.41,-0.81 -5.07,-4.57 -4.82,-7.1l1.17 3.41z"/>
              </g>
             </g>
            </g>
           </g>
          </g>
         </g>
        </g>
       </g>
      </g>
      <g>
       <g>
        <path fill="#FFBF9C" fill-rule="nonzero" d="M511.4 703.38l-0.48 28.2 -7.31 10.99 -33.54 29.98c0,0 4.97,40.74 20.11,36.29 15.13,-4.45 18.8,-7.34 27.75,-23.78 4.79,-8.81 7.75,-23.12 10.51,-31.34 1.62,-4.82 0.19,-20.34 0.19,-20.34l-17.24 -30z"/>
       </g>
      </g>
      <g>
       <g>
        <g>
         <g>
          <g>
           <g>
            <g>
             <g>
              <path fill="#FF9A6C" fill-rule="nonzero" d="M536.45 725.54c-0.07,0.07 -1,-0.77 -2.56,-2.05 -1.56,-1.24 -3.83,-2.96 -6.77,-3.67 -1.46,-0.34 -2.92,-0.38 -4.17,-0.09 -1.26,0.28 -2.31,0.85 -3.08,1.45 -1.56,1.24 -1.93,2.52 -2.04,2.45 -0.03,-0.01 0.01,-0.33 0.25,-0.86 0.24,-0.53 0.71,-1.25 1.49,-1.95 0.78,-0.69 1.88,-1.35 3.24,-1.68 1.35,-0.34 2.92,-0.32 4.46,0.04 3.12,0.75 5.43,2.61 6.92,3.95 1.5,1.38 2.31,2.34 2.25,2.4z"/>
             </g>
            </g>
           </g>
          </g>
         </g>
        </g>
       </g>
      </g>
      <g>
       <g>
        <g>
         <g>
          <g>
           <g>
            <g>
             <g>
              <path fill="#FF9A6C" fill-rule="nonzero" d="M536.05 714.06c-0.04,0.09 -1.26,-0.42 -3.13,-1.39 -0.94,-0.47 -2.05,-1.05 -3.33,-1.55 -1.27,-0.48 -2.76,-0.91 -4.3,-1.22 -1.55,-0.3 -3.06,-0.37 -4.39,-0.14 -1.33,0.22 -2.46,0.75 -3.29,1.34 -1.69,1.2 -2.07,2.55 -2.18,2.49 -0.03,-0.01 0.01,-0.34 0.27,-0.89 0.26,-0.54 0.77,-1.29 1.63,-1.97 0.85,-0.68 2.04,-1.29 3.46,-1.56 1.42,-0.28 3.02,-0.22 4.63,0.09 1.61,0.33 3.08,0.77 4.4,1.31 1.31,0.54 2.41,1.17 3.32,1.7 1.82,1.08 2.94,1.72 2.91,1.8z"/>
             </g>
            </g>
           </g>
          </g>
         </g>
        </g>
       </g>
      </g>
      <g>
       <g>
        <g>
         <path fill="#FF9A6C" fill-rule="nonzero" d="M473.7 788.75c0.27,-0.03 -1.49,-4 -0.42,-10.5 0.54,-3.21 1.79,-6.94 3.96,-10.66 2.16,-3.73 5.27,-7.38 8.86,-10.86 3.61,-3.48 7.32,-6.52 10.63,-9.38 3.32,-2.85 6.22,-5.55 8.47,-7.99 2.26,-2.44 3.88,-4.6 4.89,-6.16 1.01,-1.56 1.45,-2.49 1.39,-2.52 -0.08,-0.05 -0.64,0.81 -1.75,2.28 -1.1,1.47 -2.8,3.52 -5.1,5.87 -2.3,2.34 -5.23,4.95 -8.57,7.75 -3.33,2.81 -7.08,5.84 -10.74,9.36 -3.64,3.53 -6.8,7.28 -8.97,11.15 -2.19,3.86 -3.4,7.73 -3.85,11.05 -0.44,3.33 -0.17,6.07 0.26,7.88 0.22,0.91 0.42,1.6 0.61,2.06 0.17,0.46 0.28,0.69 0.32,0.68z"/>
        </g>
       </g>
      </g>
     </g>
    </g>
   </g>
  </g>
 </g>
</svg>
