<?xml version="1.0" encoding="UTF-8"?>
<!DOCTYPE svg PUBLIC "-//W3C//DTD SVG 1.1//EN" "http://www.w3.org/Graphics/SVG/1.1/DTD/svg11.dtd">
<!-- Creator: CorelDRAW -->
<svg xmlns="http://www.w3.org/2000/svg" xml:space="preserve" width="123.043mm" height="111.679mm" version="1.1" shape-rendering="geometricPrecision" text-rendering="geometricPrecision" image-rendering="optimizeQuality" fill-rule="evenodd" clip-rule="evenodd"
viewBox="0 0 1240.99 1126.38"
 xmlns:xlink="http://www.w3.org/1999/xlink"
 xmlns:xodm="http://www.corel.com/coreldraw/odm/2003">
 <g id="Layer_x0020_1">
  <metadata id="CorelCorpID_0Corel-Layer"/>
  <g id="_2463288428384">
   <path fill="#EBF3FA" fill-rule="nonzero" d="M8.79 869.7c-18.65,-80.58 -13.63,-183.1 75.16,-278.77 104.78,-112.89 105.36,-232.65 108.2,-334.48 7.95,-284.82 230.44,-298.51 450.51,-203.84 82.08,35.31 172.57,70.62 318.69,43.06 269.24,-50.77 263.52,345.92 183.94,487.48 -51.29,91.27 95.69,146.67 95.69,288.44 0,377.33 -1162.21,300.45 -1232.2,-1.89z"/>
   <path fill="#D9E5FC" fill-rule="nonzero" d="M797.12 312.04l-26.68 0c20.1,-37.29 54.3,-78.2 109.69,-87.5 0,0 0.99,-0.15 2.61,-0.15 5.83,0 19.87,1.94 25.84,19.79 7.62,22.81 -33.92,24.18 -59.34,34.18 -12.29,4.84 -32.4,16.93 -52.12,33.68z"/>
   <path fill="#D9E5FC" fill-rule="nonzero" d="M752.44 312.04l-10.59 0c3.15,-36.18 16.35,-86.91 63.03,-112.26 0,0 3.87,-2.03 9.23,-2.03 5.23,0 11.89,1.93 17.74,9.58 11.85,15.47 -19.62,27.47 -36.46,41.82 -11.45,9.76 -30.93,34.56 -42.95,62.89z"/>
   <path fill="#CDE0FB" fill-rule="nonzero" d="M308.19 312.42c13.1,-37.28 76.41,-20.67 76.41,-20.67 0,0 38.68,69.77 51.24,72.29 12.57,2.52 -21.42,-66.11 -21.42,-66.11 24.74,-0.57 85.12,34.15 85.12,34.15 0,0 -9.68,77.36 3.11,76.71 12.8,-0.65 5.08,-68.94 5.08,-68.94 23.25,8.88 43.4,38.25 43.4,38.25 24.41,47.21 -37.47,76.11 -37.47,76.11 0,0 -2.78,26.88 11.59,59.01l0 0c0,0 3.33,5.98 6.44,15.96l-6.48 -0.48c-0.4,-1.77 -0.86,-3.5 -1.39,-5.15l-0.01 -0.03 -0.02 -0.07c-0.37,-1.04 -0.91,-2.51 -1.57,-4.3l0 -0.01 -0.01 -0.01c-1.69,-4.02 -2.82,-6.98 -3.51,-9.11l-0.01 -0.02c-5.03,-12.61 -12.41,-29.09 -17.87,-32.83 0,0 0.79,-0.96 1.6,-2.87 -0.51,0.91 -1.05,1.87 -1.6,2.87 -12.84,22.95 -68.61,22.83 -99.04,14.22 -30.44,-8.61 -16.32,-16.34 1.36,-29.26 17.68,-12.92 52.27,-6.62 62.98,-11.41 10.71,-4.79 -3.94,-11.44 -24.65,-11.37 -20.72,0.07 -32.54,19.91 -66.05,20.63 -33.52,0.72 -54.27,-63.75 -54.27,-63.75 22.46,8.82 64.59,-0.82 66.77,-8.63 2.17,-7.81 -58.91,-11.51 -68.24,-14.58 -9.33,-3.08 -24.57,-23.32 -11.47,-60.6z"/>
   <path fill="#AFCDFB" fill-rule="nonzero" d="M211.16 898.34c-22.95,-40.03 40.05,-83.31 40.05,-83.31 0,0 91.19,19.05 103.01,9.87 11.81,-9.18 -74.79,-31.51 -74.79,-31.51 18.38,-22.31 95.15,-49.18 95.15,-49.18 0,0 61,67.59 70.19,55.79 9.19,-11.8 -57.06,-57.1 -57.06,-57.1 25.59,-13.77 66.92,-9.16 66.92,-9.16 60.36,14.45 38.69,91.21 38.69,91.21 0,0 21.65,22.97 61.01,34.79l0 0c0,0 7.83,1.61 19.03,6.49l-5.36 5.36c-1.88,-1 -3.75,-1.91 -5.63,-2.71l-0.03 -0.01 -0.08 -0.04c-1.19,-0.46 -2.9,-1.11 -5,-1.89l-0.01 0 -0.01 -0.01c-4.85,-1.57 -8.33,-2.83 -10.74,-3.85l-0.03 -0.01c-14.98,-5.17 -35.19,-11.22 -42.66,-9.26 0,0 -0.24,-1.43 -1.31,-3.61 0.42,1.15 0.85,2.35 1.31,3.61 10.49,28.88 -32.17,78.07 -63.02,98.4 -30.84,20.33 -26.9,1.96 -24.83,-23.53 2.07,-25.49 34.04,-51.27 37.98,-64.39 3.94,-13.12 -13.12,-5.25 -28.88,13.12 -15.75,18.37 -7.23,43.96 -32.17,74.13 -24.94,30.17 -97.76,-0.69 -97.76,-0.69 24.94,-13.11 48.57,-57.72 43.32,-65.6 -5.25,-7.87 -55.13,43.29 -64.97,49.19 -9.84,5.91 -39.37,3.93 -62.32,-36.11z"/>
   <path fill="#CDE0FB" fill-rule="nonzero" d="M945.41 526.04c-33.81,0 -85.88,-13.33 -93.15,-38.68l0 0c-1.68,0.65 -3.7,2.15 -5.92,4.21l0 -134.3c9.46,-5.78 20.9,-11.25 32.02,-12.74 0,0 -24.45,68.33 -11.46,72.09 0.29,0.08 0.58,0.13 0.87,0.13 12.51,-0.01 20.88,-78.23 20.88,-78.23 0,0 52.75,-15.79 83.36,-15.79 4.76,0 8.99,0.38 12.4,1.27 0,0 -51.53,62.33 -38.01,62.77 0.05,0 0.1,0 0.15,0 13.78,-0 70.02,-61.92 70.02,-61.92 0,0 0.41,-0.01 1.2,-0.01 9.23,0 68.23,1.5 72.34,39.73 4.45,41.49 -16.11,58.61 -26.45,59.51 -0.41,0.04 -0.92,0.05 -1.5,0.05 -4.89,0 -15.32,-1.21 -26.77,-2.42 -11.46,-1.21 -23.93,-2.42 -32.91,-2.42 -7.52,0 -12.58,0.85 -12.48,3.28 0.31,7.85 34.9,25.45 60.08,25.45 2.24,0 4.39,-0.14 6.46,-0.44 0,0 -32.12,53.28 -64.25,53.28 -2.33,0 -4.65,-0.28 -6.95,-0.87 -34.28,-8.84 -41.62,-32.1 -62.91,-37.18 -7.03,-1.68 -13.56,-2.44 -18.79,-2.44 -10.61,0 -15.91,3.14 -9.3,8.17 9.85,7.51 46.93,9.41 61.98,26.97 15.06,17.56 27.69,28.91 -5.68,30.41 -1.68,0.08 -3.42,0.11 -5.22,0.11zm-94.1 -42.02c0.38,2.16 0.96,3.34 0.96,3.34 -0.33,-1.17 -0.65,-2.27 -0.96,-3.34z"/>
   <path fill="#DFEBFA" fill-rule="nonzero" d="M1065.17 895.17c-14.95,0 -25.6,-5.44 -29.98,-10.99 -8.75,-11.1 -42.76,-89.03 -54.21,-89.03 -0.47,0 -0.92,0.13 -1.31,0.42 -9.89,7.06 -1.86,71.34 22.08,98.43 0,0 -1.95,0.08 -5.38,0.08 -13.24,0 -48.36,-1.11 -76.23,-11.97 5.52,-3.31 11.42,-6.52 13.79,-12.54 0,0 10.53,-35.13 -20.14,-36.17 -0.16,-0.01 -0.33,-0.01 -0.48,-0.01 -2.8,0 -5.77,0.81 -8.85,2.29 -2.86,-2.6 -7.14,-4.32 -13.36,-4.53 -0.16,0 -0.32,-0.01 -0.47,-0.01 -3.21,0 -6.72,1.1 -10.43,3.07 0.22,-2.96 0.08,-5.88 -0.3,-9.27 8.92,-3.77 14.47,-12.4 14.47,-12.4 0,0 -11.17,-6.86 -16.05,-8.2 1.53,-22.06 7.63,-39.39 1.04,-57.66 -7.6,-21.1 -18.52,-35.94 -24.48,-35.94 -2.28,0 -3.84,2.19 -4.18,7.05 -1.13,15.83 20.44,54.43 17.93,84.98 -2.78,-0.34 -4.45,-0.47 -4.48,-0.47l0 0c2.46,1.79 1.34,3.85 -1.6,4.59 -0.16,0.04 -0.28,0.07 -0.35,0.08 -0.36,0.07 -0.76,0.11 -1.18,0.11 -3.73,0 -9.56,-2.65 -14.67,-5.44l0 -215.65c11.51,-14.63 28.16,-25.85 52.22,-25.85 3.44,0 7.04,0.23 10.78,0.71 0,0 51.68,13.31 76.12,41.49 0,0 -100.12,24.14 -94.48,42.5 0.83,2.69 3.77,3.84 8.21,3.84 25.74,0 101.41,-38.79 101.41,-38.79 0,0 79.85,67.23 91.74,102.35 0,0 -42.04,-4.66 -72.85,-4.66 -19.92,0 -35.16,1.95 -31.23,8.4 9.98,16.4 128.06,35.09 128.06,35.09 0,0 55.85,80.63 10.08,118.19 -23.8,19.53 -45.05,25.91 -61.24,25.91z"/>
   <path fill="#FFB27D" fill-rule="nonzero" d="M422.8 587.44c-2.17,5.84 -5.94,12.63 -9.89,14.31 -4.48,1.91 -6.35,4.62 -6.35,4.62l-3.62 -2.1 -4.32 -2.52c0,0 0.1,-0.48 0.31,-1.26 0.21,-0.78 0.53,-1.86 0.97,-3.07 0,0 1.33,-1.7 0.51,-3.84 -0.81,-2.14 -0.65,-5.45 0.74,-7.46 1.39,-2.02 2.72,-6.98 3.56,-6.83 2.02,0.34 -0.99,7.17 -0.13,8.43 0.78,1.14 1.76,0.75 1.94,0.67l0.03 -0.02c5.67,-2.49 12.55,-15.94 15.59,-14.12 1.14,0.68 1.58,10.7 0.65,13.19z"/>
   <path fill="#2B478B" fill-rule="nonzero" d="M403.18 595.57l7.1 4.99c0.5,0.36 1.2,0.23 1.55,-0.27l18.2 -25.89c0.35,-0.5 0.23,-1.2 -0.27,-1.55l-7.1 -4.99c-0.5,-0.35 -1.2,-0.23 -1.56,0.27l-18.19 25.89c-0.35,0.5 -0.23,1.2 0.27,1.55z"/>
   <path fill="#233862" fill-rule="nonzero" d="M409.68 600.14l4.17 2.93c0.38,0.27 0.91,0.18 1.18,-0.21l18.5 -26.32c0.27,-0.39 0.18,-0.92 -0.2,-1.19l-4.16 -2.93c-0.38,-0.27 -0.91,-0.18 -1.18,0.21l-18.51 26.32c-0.27,0.38 -0.18,0.91 0.2,1.18z"/>
   <path fill="#94B0ED" fill-rule="nonzero" d="M301.28 558.42c0,0 36.14,63.04 49.25,74.64l48.08 -35.84c0,0 6.98,2.14 10.03,9.14 0,0 -29.2,59.48 -57.94,62 -28.75,2.52 -69.09,-71.3 -69.09,-71.3l19.67 -38.65z"/>
   <path fill="#233862" fill-rule="nonzero" d="M219.5 987.18l-20.88 0c-2.63,-1.43 -4.97,-4.69 -5.71,-9.57 -1.02,-6.73 -8.56,-10.39 -10.19,-15.9 -1.63,-5.5 6.73,-13.24 6.73,-13.24l1.4 -1.8 1.45 -1.87 13.86 3.26c0,0 0.34,3.3 0.55,7.51 0.15,3.03 0.23,6.54 0.06,9.61 -0.41,7.34 2.05,15.24 8.57,16.67 4.82,1.05 4.6,3.91 4.16,5.34z"/>
   <path fill="#233862" fill-rule="nonzero" d="M340.69 987.18l-47.76 0c-2.3,-2.8 -1.45,-13.15 -1.1,-16.52 0.07,-0.68 0.12,-1.08 0.12,-1.08 0,0 16.31,-13.04 18.55,-3.05 0.07,0.31 0.15,0.62 0.24,0.92 2.82,9.34 15.48,13.59 22.79,14.77 4.75,0.77 6.51,3.24 7.16,4.97z"/>
   <path fill="#F99746" fill-rule="nonzero" d="M331.59 720.6c0,0 -2.48,30.9 -5.39,68.04 -3.95,50.44 -8.71,112.41 -9.18,124.15 -0.81,20.38 -4.08,52.99 -4.08,52.99 0,0 -7.74,7.74 -23.23,4.48 0,0 -13.81,-46.55 -17.75,-95.8 -0.06,-0.81 -0.12,-1.62 -0.18,-2.43 -3.67,-50.14 -9.37,-155.71 -9.37,-155.71l69.19 4.28z"/>
   <path fill="#ED7D2B" fill-rule="nonzero" d="M331.59 720.6c0,0 -2.48,30.9 -5.39,68.04l-54.24 85.83c-0.06,-0.81 -0.12,-1.62 -0.18,-2.43 -3.67,-50.14 -9.37,-155.71 -9.37,-155.71l69.19 4.28z"/>
   <path fill="#F99746" fill-rule="nonzero" d="M320.28 724.28c0,0 -44.64,111.89 -73.98,164.47 -29.35,52.58 -38.52,67.26 -38.52,67.26 0,0 -16.81,-6.73 -18.34,-11.31 0,0 11.22,-101.51 30.88,-126.26 11.11,-13.99 24.15,-55.95 24.76,-70.62 0.61,-14.68 3.97,-43.72 3.97,-43.72l71.23 20.18z"/>
   <path fill="#FFB27D" fill-rule="nonzero" d="M309.17 561.16c-17.44,5.51 -47.62,-9.35 -47.62,-9.35 0,0 16.08,-12.07 15.24,-37.16l13.49 10.87 9.16 7.38c0,0 -0.04,4.36 -1.04,11.98 -0.26,2.01 2,6.43 3.96,8.92 5.29,6.7 6.81,7.36 6.81,7.36z"/>
   <path fill="#ED975D" fill-rule="nonzero" d="M299.43 532.9c0,0 -0.04,4.36 -1.04,11.98 -10.15,-1.74 -21.67,-18.14 -21.67,-18.14 5.17,-1.49 9.69,-1.76 13.54,-1.22l9.16 7.38z"/>
   <path fill="#FFB27D" fill-rule="nonzero" d="M304.77 532.48c0,0 -28.81,4.79 -31.52,-13.2 -2.7,-17.99 -8.24,-29.48 10.04,-33.3 18.28,-3.82 22.89,2.51 25.26,8.29 2.36,5.78 3.65,36.5 -3.78,38.21z"/>
   <path fill="#AEC3FF" fill-rule="nonzero" d="M333.51 723.18c-0.53,0.44 -1.14,0.7 -1.83,0.7 -6.55,-0.09 -25.65,3.55 -41.81,1.89 -13.62,-1.31 -25.68,-5.34 -38.63,-11.14 -1.72,-0.77 -5.68,-2.89 -5.59,-4.81 0.06,-2.1 0.27,-5.15 0.53,-9 0.92,-13.36 2.51,-36.35 0.96,-62.88 -0.28,-4.94 -0.43,-9.84 -0.44,-14.66 -0.14,-35.95 6.99,-67.57 21.32,-78.27 1.22,-0.88 8.73,2.79 15.64,6.2 6.38,3.15 12.75,3.49 18.78,2.27l6.03 5.33c7.34,6.81 15.37,16.07 18.87,30.13 2.97,11.97 4.71,33.54 5.67,55.9 0.44,10.13 0.79,20.35 0.88,30.05l0 0.34c0.08,0.96 0.08,2.01 0.08,2.98 0.35,24.89 0,44.62 -0.44,44.98z"/>
   <path fill="#94B0ED" fill-rule="nonzero" d="M246.18 700.81c0.92,-13.36 2.51,-36.35 0.96,-62.88 -0.28,-4.94 -0.43,-9.84 -0.44,-14.66 5.97,-14.47 10.84,-24.97 10.84,-24.97l15.04 0c0,0 11.03,75.31 -26.39,102.51z"/>
   <path fill="#233862" fill-rule="nonzero" d="M169.14 786.17l64.14 9.14c8.35,1.19 16.15,-4.67 17.34,-13.02l3.96 -27.79c1.19,-8.35 -4.67,-16.15 -13.02,-17.34l-64.14 -9.14c-8.35,-1.19 -16.15,4.66 -17.34,13.01l-3.96 27.8c-1.19,8.34 4.67,16.15 13.01,17.34z"/>
   <path fill="#2B478B" fill-rule="nonzero" d="M195.09 724.34c0.12,-0.84 0.78,-1.48 1.58,-1.6 0.18,-0.03 0.37,-0.04 0.57,-0.01l2.85 0.4 10.55 1.51 5.75 0.82c1.03,0.15 1.76,1.11 1.61,2.14l-0.85 6 -22.91 -3.27 0.85 -6zm50.1 21.1l0 0c-1.8,-4.51 -5.69,-8.08 -10.63,-9.28l-0 0 -0.01 -0.01c-0.48,-0.11 -0.97,-0.22 -1.48,-0.29l-12.77 -1.81 0.85 -6c0.19,-1.34 -0.15,-2.68 -0.97,-3.76 -0.81,-1.09 -2.01,-1.79 -3.34,-1.98l-3.33 -0.47 -13.41 -1.91 -2.42 -0.34c-2.77,-0.39 -5.35,1.54 -5.74,4.31l-0.85 6 -22.05 -3.14c-8.38,-1.2 -16.21,4.68 -17.41,13.06l-4 28.12c-1.19,8.38 4.68,16.21 13.06,17.41l64.03 9.12c1.13,0.16 2.25,0.19 3.34,0.11l0.01 0c1.75,-0.13 3.44,-0.58 5,-1.27 4.71,-2.07 8.28,-6.47 9.06,-11.91l4.01 -28.11c0.39,-2.75 0.02,-5.42 -0.94,-7.83z"/>
   <path fill="#FFB27D" fill-rule="nonzero" d="M217.92 703.4c0,0 -3.37,4.49 -3.5,6.28 -0.91,12.15 4.65,13.84 -9.73,20.58 0,0 -6.14,2.34 -6.24,-2.42 -0.1,-4.77 4.26,-4.85 3.46,-11.51 -0.92,-7.69 -0.83,-7.77 4.22,-11.79l3.34 -5.53 8.45 4.39z"/>
   <path fill="#AEC3FF" fill-rule="nonzero" d="M209.35 706.84c5.42,1.05 11.29,0.62 11.29,0.62 0,0 16.08,-49.66 18.15,-54.2 2.07,-4.54 47.76,-58.24 47.76,-58.24l-19.03 -47.63c0,0 -49.42,82.54 -54.43,94.14 -8.29,19.17 -11.17,62.14 -11.17,62.14 0,0 3.19,2.34 7.44,3.17z"/>
   <path fill="#2B478B" fill-rule="nonzero" d="M273.23 517.55c0,0 2.96,-0.5 2.48,-4.57 -0.48,-4.07 -0.47,-9.39 2.84,-8.4 3.31,0.99 3.47,3.64 4.84,2.09 1.36,-1.54 1.39,-8.06 11.24,-8.52 9.85,-0.46 13.85,2.97 18.43,0.96 4.58,-2.01 4.82,-8.95 4.82,-8.95 0,0 -1.3,2.48 -3.27,3.27 0,0 7.64,-10.45 -1.21,-17.62 -8.85,-7.17 -17.87,-2.48 -22.99,-2.17 -11.28,0.68 -18.57,1.36 -22.26,8.77 -3.69,7.42 -2.16,28 5.08,35.14z"/>
   <path fill="#FFB27D" fill-rule="nonzero" d="M212.6 708.74c0,0 3.24,3.38 3.45,4.79 0.66,4.51 2.17,6.47 1.41,6.96 -1.57,1.02 -3.65,-2.32 -4.64,-5.32 -0.99,-3 -0.21,-6.42 -0.21,-6.42z"/>
   <path fill="#337FC9" fill-rule="nonzero" d="M810.74 982.02l-313 0c-19.67,0 -35.61,-15.95 -35.61,-35.62l0 -598.75c0,-19.67 15.94,-35.61 35.61,-35.61l313 0c19.67,0 35.61,15.94 35.61,35.61l0 598.75c0,19.67 -15.94,35.62 -35.61,35.62z"/>
   <path fill="#2B478B" fill-rule="nonzero" d="M497.74 316.51c-17.17,0 -31.14,13.97 -31.14,31.14l0 598.75c0,17.18 13.97,31.15 31.14,31.15l313 0c17.17,0 31.15,-13.97 31.15,-31.15l0 -598.75c0,-17.17 -13.97,-31.14 -31.15,-31.14l-313 0zm313 669.98l-313 0c-22.1,0 -40.08,-17.98 -40.08,-40.09l0 -598.75c0,-22.1 17.98,-40.08 40.08,-40.08l313 0c22.1,0 40.08,17.98 40.08,40.08l0 598.75c0,22.11 -17.98,40.09 -40.08,40.09z"/>
   <polygon fill="#F0F2FC" fill-rule="nonzero" points="527.88,741.05 780.59,741.05 780.59,488.34 527.88,488.34 "/>
   <path fill="#337FC9" fill-rule="nonzero" d="M553.21 724.58l0 0 10.04 0 0 -10.05 -10.04 0 0 -10.04 -10.04 0 0 10.04 0 0 0 10.05 10.04 0zm0 -220.95l-10.04 0 0 10.04 0 0 0 10.04 10.04 0 0 -10.04 10.04 0 0 -10.04 -10.04 0 0 0zm201.45 10.04l10.64 0 0 -10.04 -10.64 0 0 10.04zm-30.13 0l10.04 0 0 -10.04 -10.04 0 -0 0 -10.04 0 0 10.04 10.04 0 0 0zm-20.09 -0l0 -10.04 -10.04 0 0 10.04 -10.04 0 0 10.04 10.04 0 0 0 10.04 0 0 -10.04 0 -0zm-20.08 0l0 -10.04 -10.64 0 0 10.04 -10.04 0 0 10.04 10.04 0 0 0 10.64 0 0 -10.04 0 -0zm-60.86 0l10.04 0 0 -10.04 -10.04 0 0 0 -10.04 0 0 10.04 10.04 0 0 0zm-20.08 -0l0 -10.04 -10.04 0 0 10.04 0 0 0 10.04 10.04 0 0 -10.04 0 -0zm-20.09 0l10.04 0 0 -10.04 -10.04 0 -0 0 -10.04 0 -10.04 0 0 10.04 10.04 0 10.04 0 0 0zm161.28 10.04l10.04 0 0 -10.04 -10.04 0 0 10.04zm-101.03 0l10.04 0 0 -10.04 -10.04 0 -10.04 0 0 10.04 10.04 0zm-90.39 10.05l0 -10.05 -10.04 0 0 10.05 0 10.04 0 0 0 10.04 10.04 0 0 -10.04 0 0 0 -10.04zm201.45 0l10.64 0 0 -10.05 -10.64 0 0 10.05zm-10.04 0l10.04 0 0 -10.05 -10.04 0 -10.04 0 0 10.05 -10.04 0 0 -10.05 -10.04 0 0 10.05 0 10.04 0 0 0 10.04 10.04 0 0 -10.04 10.04 0 0 10.04 10.04 0 10.04 0 0 -10.04 -10.04 0 0 -10.04zm-40.17 0l10.04 0 0 -10.05 -10.04 0 0 0 -10.04 0 0 10.05 10.04 0 0 0zm-20.08 0l0 -10.05 -10.64 0 -0 0 -10.04 0 0 10.05 10.04 0 0 10.04 0 0 0 10.04 10.64 0 0 -10.04 0 0 0 -10.04zm-20.69 0l0 -10.05 -10.04 0 -0 0 -10.04 0 -10.04 0 0 10.05 10.04 0 0 10.04 10.04 0 0 0 10.04 0 0 -10.04zm-40.17 0l0 -10.05 -10.04 0 0 10.05 0 10.04 10.04 0 0 0 10.04 0 0 -10.04 -10.04 0zm-20.08 0l0 -10.05 -10.04 0 0 10.05 0 10.04 0 0 0 10.04 10.04 0 0 -10.04 0 0 0 -10.04zm-20.09 0l0 -10.05 -10.04 0 -10.04 0 0 10.05 0 10.04 10.04 0 10.04 0 0 -10.04zm171.33 20.09l10.64 0 0 -10.04 -10.64 0 0 10.04zm-50.21 0l10.04 0 0 -10.04 -10.04 0 0 10.04zm-20.08 0l10.04 0 0 -10.04 -10.04 0 0 10.04zm-141.2 10.04l10.04 0 0 0 10.04 0 0 -10.04 -10.04 0 0 0 -10.04 0 0 10.04zm211.5 0l10.64 0 0 -10.04 -10.64 0 0 10.04zm-30.13 0l10.04 0 0 -10.04 -10.04 0 0 10.04zm-20.08 0l10.04 0 0 -10.04 -10.04 0 0 0 -10.04 0 0 10.04 -10.04 0 0 10.04 10.04 0 0 0 10.04 0 0 -10.04zm-40.77 0l0 -10.04 -10.04 0 0 10.04 -10.04 0 0 10.04 10.04 0 0 0 10.04 0 0 -10.04 0 0zm-30.13 0l0 -10.04 -10.04 0 0 0 -10.04 0 0 10.04 10.04 0 0 10.04 10.04 0 0 -10.04 0 0zm-40.17 0l10.04 0 0 -10.04 -10.04 0 0 10.04zm-10.04 0l10.04 0 0 -10.04 -10.04 0 -0 0 -10.04 0 -10.04 0 0 10.04 10.04 0 10.04 0 0 0zm90.38 10.04l10.64 0 0 -10.04 -10.64 0 0 10.04zm-120.51 0l-10.04 0 0 10.04 0 10.04 10.04 0 0 10.04 10.04 0 0 -10.04 0 -0 0 -10.04 0 -10.04 -10.04 0 0 0zm191.41 10.04l0 -10.04 -10.04 0 -10.04 0 -0 0 -10.04 0 0 10.04 0 10.04 0 0 0 10.04 10.04 0 0 0 10.04 0 10.04 0 0 -10.04 10.04 0 0 -10.04 -10.04 0zm-20.08 0l10.04 0 0 10.04 -10.04 0 0 -10.04zm-20.09 0l10.04 0 0 -10.04 -10.04 0 0 0 -10.04 0 0 0 -10.04 0 0 10.04 0 10.04 0 0 0 10.04 10.04 0 0 -10.04 10.04 0 0 10.04 10.04 0 0 -10.04 -10.04 0 0 -10.04zm-40.77 0l10.04 0 0 10.04 -10.04 0 0 10.04 10.04 0 0 0 10.64 0 0 -10.04 0 -0 0 -10.04 -10.64 0 0 -10.04 -10.04 0 0 10.04zm-0 0l0 -10.04 -10.04 0 0 10.04 -10.04 0 0 -10.04 -10.04 0 0 10.04 0 10.04 0 0 0 10.04 10.04 0 0 -10.04 10.04 0 0 10.04 10.04 0 0 -10.04 0 -0 0 -10.04zm-40.17 0l10.04 0 0 -10.04 -10.04 0 0 10.04zm-10.04 0l0 -10.04 -10.04 0 -0 0 -10.04 0 0 10.04 0 10.04 10.04 0 0 10.04 10.04 0 0 -10.04 0 -0 0 -10.04zm151.83 10.04l0 -10.04 -10.64 0 0 10.04 0 0 0 10.04 10.64 0 0 -10.04 0 -0zm-181.96 0l0 -10.04 -10.04 0 0 10.04 -10.04 0 0 10.04 10.04 0 10.04 0 0 0 10.04 0 0 -10.04 -10.04 0zm40.17 10.04l10.04 0 0 -10.04 -10.04 0 0 10.04zm-70.3 10.04l0 -10.04 -10.04 0 0 10.04 0 0 0 10.04 0 0 0 10.04 10.04 0 0 0 10.04 0 0 -10.04 0 -0 0 -10.04 -10.04 0zm191.41 0l0 -10.04 -10.04 0 0 10.04 -10.04 0 0 10.04 0 0 0 10.04 10.04 0 10.04 0 0 -10.04 10.04 0 0 -10.04 -10.04 0zm-40.17 0l0 -10.04 -10.04 0 0 0 -10.04 0 0 10.04 10.04 0 0 10.04 10.04 0 0 0 10.04 0 0 -10.04 -10.04 0zm-50.81 0l10.04 0 0 -10.04 -10.04 0 0 10.04zm-20.08 -0l0 -10.04 -10.04 0 0 0 -10.04 0 0 10.04 0 0 0 10.04 10.04 0 0 10.04 10.04 0 0 -10.04 0 -0 0 -10.04 0 -0zm-30.13 0l10.04 0 0 -10.04 -10.04 0 -0 0 -10.04 0 0 10.04 10.04 0 0 0zm-20.09 0l10.04 0 0 -10.04 -10.04 0 -0 0 -10.04 0 0 10.04 -10.04 0 0 10.04 10.04 0 0 10.04 10.04 0 0 0 10.04 0 0 -10.04 -10.04 0 0 -10.04zm181.96 10.04l0 -10.04 -10.64 0 0 10.04 0 0 0 10.04 10.64 0 0 -10.04 0 -0zm-91.58 0l0 -10.04 -10.04 0 0 10.04 0 0 0 10.04 10.04 0 0 0 10.64 0 0 -10.04 -10.64 0zm-20.08 10.04l10.04 0 0 -10.04 -10.04 0 -0 0 -10.04 0 -10.04 0 0 10.04 10.04 0 10.04 0 0 0zm-50.21 0l10.04 0 0 -10.04 -10.04 0 -0 0 -10.04 0 0 10.04 10.04 0 0 0zm131.15 10.04l0 -10.04 -10.04 0 -0 0 -10.04 0 0 10.04 0 0 0 10.04 10.04 0 0 0 10.04 0 0 -10.04 0 0zm-30.13 0l0 -10.04 -10.04 0 0 0 -10.04 0 0 10.04 0 0 0 10.04 10.04 0 0 0 10.04 0 0 0 10.04 0 0 -10.04 -10.04 0zm-30.73 0l0 -10.04 -10.04 0 0 10.04 0 0 0 10.04 10.04 0 0 0 10.64 0 0 -10.04 -10.64 0zm-30.13 0l0 -10.04 -10.04 0 0 10.04 0 0 0 10.04 10.04 0 0 -10.04 0 0zm-20.09 0l0 -10.04 -10.04 0 0 10.04 0 0 0 10.04 10.04 0 0 0 10.04 0 0 -10.04 -10.04 0zm-20.09 0l10.04 0 0 -10.04 -10.04 0 0 10.04zm-20.08 0l0 -10.04 -10.04 0 -10.04 0 0 10.04 0 0 0 10.04 10.04 0 10.04 0 0 0 10.04 0 0 -10.04 -10.04 0zm171.33 10.04l10.64 0 0 -10.04 -10.64 0 0 10.04zm-10.04 0l10.04 0 0 -10.04 -10.04 0 0 10.04zm-90.98 0l10.04 0 0 -10.04 -10.04 0 0 10.04zm-100.43 0l10.04 0 0 -10.04 -10.04 0 0 10.04zm131.16 10.04l10.04 0 0 -10.04 -10.04 0 0 10.04zm-10.64 0l0 -10.04 -10.04 0 0 10.04 0 10.04 0 0 0 10.04 10.04 0 0 -10.04 0 0 0 -10.04zm-20.08 0l10.04 0 0 -10.04 -10.04 0 -0 0 -10.04 0 0 10.04 -10.04 0 0 10.04 0 0 0 10.04 10.04 0 0 -10.04 10.04 0 0 10.04 10.04 0 0 -10.04 -10.04 0 0 -10.04zm-100.43 0l-10.04 0 0 10.04 0 0 0 10.04 10.04 0 0 -10.04 10.04 0 0 -10.04 -10.04 0 0 0zm212.09 10.04l0 -10.04 -10.64 0 0 10.04 0 0 0 10.04 10.64 0 0 -10.04 0 0zm-20.68 0l10.04 0 0 -10.04 -10.04 0 -10.04 0 -10.04 0 -0 0 -10.04 0 0 10.04 10.04 0 0 0 10.04 0 10.04 0zm-30.13 0l0 -10.04 -10.04 0 0 10.04 0 0 0 10.04 10.04 0 0 -10.04 0 0zm-90.98 0l0 -10.04 -10.04 0 0 10.04 0 0 0 10.04 10.04 0 0 0 10.04 0 0 -10.04 -10.04 0zm-20.08 0l0 -10.04 -10.04 0 0 10.04 0 0 0 10.04 10.04 0 0 -10.04 0 0zm-20.09 0l10.04 0 0 -10.04 -10.04 0 -0 0 -10.04 0 -10.04 0 0 10.04 10.04 0 10.04 0 0 0zm101.03 10.04l10.04 0 0 -10.04 -10.04 0 0 10.04zm-131.16 10.04l0 -10.04 -10.04 0 0 10.04 0 0 0 10.04 10.04 0 0 -10.04 0 -0zm212.09 0l0 -10.04 -10.64 0 0 10.04 0 0 0 10.04 10.64 0 0 -10.04 0 -0zm-20.68 0l0 -10.04 -10.04 0 -10.04 0 0 10.04 0 0 0 10.04 10.04 0 10.04 0 0 -10.04 0 -0zm-30.13 0l0 -10.04 -10.04 0 0 10.04 0 0 0 10.04 10.04 0 0 -10.04 0 -0zm-50.81 0l0 -10.04 -10.04 0 0 10.04 0 0 0 10.04 10.04 0 0 -10.04 0 -0zm-20.08 0l0 -10.04 -10.04 0 0 10.04 0 0 0 10.04 10.04 0 0 -10.04 0 -0zm-20.09 0l0 -10.04 -10.04 0 0 10.04 0 0 0 10.04 10.04 0 0 0 10.04 0 0 -10.04 -10.04 0zm-20.08 0l0 -10.04 -10.04 0 0 10.04 0 0 0 10.04 10.04 0 0 -10.04 0 -0zm-20.09 0l0 -10.04 -10.04 0 -10.04 0 0 10.04 0 0 0 10.04 10.04 0 10.04 0 0 -10.04 0 -0zm101.03 10.04l10.04 0 0 -10.04 -10.04 0 0 10.04zm-10.64 0l10.64 0 0 -10.04 -10.64 0 -0 0 -10.04 0 0 10.04 10.04 0 0 0zm91.58 10.04l0 -10.04 -10.64 0 0 10.04 0 0 0 10.05 10.64 0 0 -10.05 0 0zm-50.81 0l0 -10.04 -10.04 0 0 10.04 0 0 0 10.05 10.04 0 0 -10.05 0 0zm-30.13 0l0 -10.04 -10.64 0 -0 0 -10.04 0 0 10.04 10.04 0 0 10.05 10.64 0 0 -10.05 0 0zm-20.69 0l0 -10.04 -10.04 0 -0 0 -10.04 0 0 10.04 10.04 0 0 10.05 10.04 0 0 -10.05 0 0zm-30.13 0l0 -10.04 -10.04 0 0 10.04 -10.04 0 0 10.05 10.04 0 0 0 10.04 0 0 -10.05 0 0zm-30.13 0l0 -10.04 -10.04 0 0 10.04 0 0 0 10.05 10.04 0 0 -10.05 0 0zm141.2 10.05l10.04 0 0 -10.05 -10.04 0 -10.04 0 -10.04 0 -0 0 -10.04 0 0 10.05 10.04 0 0 0 10.04 0 10.04 0zm-60.26 0l10.04 0 0 -10.05 -10.04 0 0 10.05zm-101.03 0l10.04 0 0 -10.05 -10.04 0 -0 0 -10.04 0 -10.04 0 0 10.05 10.04 0 10.04 0 0 0z"/>
   <path fill="#E0E4FA" fill-rule="nonzero" d="M558.79 467.56l-49.23 0c-1.95,0.02 -3.53,1.61 -3.53,3.57l0 48.71c0,1.97 1.6,3.58 3.57,3.58 1.97,0 3.58,-1.6 3.58,-3.58l0 -45.14 45.57 0c1.97,0 3.57,-1.6 3.57,-3.57 0,-1.96 -1.58,-3.55 -3.53,-3.57z"/>
   <path fill="#E0E4FA" fill-rule="nonzero" d="M798.87 523.63c-1.98,0 -3.57,-1.6 -3.57,-3.58l0 -45.57 -45.14 0c-1.97,0 -3.57,-1.6 -3.57,-3.57 0,-1.97 1.6,-3.57 3.57,-3.57l48.71 0c1.97,0 3.57,1.6 3.57,3.57l0 49.14c0,1.97 -1.6,3.58 -3.57,3.58z"/>
   <path fill="#E0E4FA" fill-rule="nonzero" d="M798.87 768.4l-49.15 0c-1.97,0 -3.57,-1.6 -3.57,-3.58 0,-1.97 1.6,-3.57 3.57,-3.57l45.57 0 0 -45.14c0,-1.97 1.6,-3.58 3.57,-3.58 1.97,0 3.57,1.6 3.57,3.58l0 48.71c0,1.97 -1.6,3.58 -3.57,3.58z"/>
   <path fill="#E0E4FA" fill-rule="nonzero" d="M558.31 768.62l-48.71 0c-1.97,0 -3.57,-1.6 -3.57,-3.58l0 -49.14c0,-1.97 1.6,-3.58 3.57,-3.58 1.97,0 3.58,1.6 3.58,3.58l0 45.57 45.14 0c1.97,0 3.57,1.6 3.57,3.57 0,1.97 -1.6,3.58 -3.57,3.58z"/>
   <path fill="#233862" fill-rule="nonzero" d="M843.73 718.18c11.65,-3.39 24.81,0.5 33.03,9.43 20.35,22.09 5.34,39.12 15.52,54.59 6.15,9.34 11.32,25.71 -7.74,35.39 -8.82,4.48 -35.06,27.87 -40.44,28.42 -54.47,5.59 -55.44,-49.66 -37.09,-65.68 25.81,-22.51 2.23,-52.09 36.7,-62.15z"/>
   <path fill="#ED985F" fill-rule="nonzero" d="M872.2 803.6c0,0 49.71,24.08 59.02,23.68 9.31,-0.41 67.51,-20.9 67.51,-20.9l-1.46 9.87c0,0 -44.28,25.46 -59.76,26.91 -15.24,1.42 -67.35,-13.68 -72.38,-16.87 -5.03,-3.19 -7.55,-19.46 7.07,-22.69z"/>
   <path fill="#FFB27D" fill-rule="nonzero" d="M877.67 826.32c-4.5,3.13 -10.15,5.7 -17.24,7.34 -26.58,6.14 -36.77,-16.32 -40.6,-31.74 3.62,-2.07 7.04,-2.53 9,-2.77 1.92,-0.22 3.94,-0.38 5.62,-0.46 2.98,-2.29 7.43,-11.64 8.42,-26.17l1.25 0.34 20.95 5.74c0,0 -0.96,6.65 -1.43,12.95 -0.36,4.93 -0.42,9.63 0.51,10.78 1.64,0.36 2.62,0.59 2.62,0.59l0.01 0.02c0.28,0.47 6.36,10.46 10.89,23.4z"/>
   <path fill="#ED985F" fill-rule="nonzero" d="M865.06 778.59c0,0 -0.96,6.65 -1.43,12.95 -11.87,-1.19 -17.37,-12.49 -19.52,-18.68l20.95 5.73z"/>
   <path fill="#FFB27D" fill-rule="nonzero" d="M868.61 784.83c0,0 -28.17,-1.55 -26.94,-19.08 1.24,-17.53 -1.56,-29.54 16.48,-29.28 18.04,0.25 21.06,7.19 22.07,13.13 1.01,5.95 -4.25,35.19 -11.61,35.23z"/>
   <path fill="#233862" fill-rule="nonzero" d="M880.08 739.81c-3.97,-5.58 -7.34,-4.66 -9.29,-3.21 -14.77,-9.56 -25.58,2.23 -25.58,2.23 -2.78,12.44 -12.37,18.99 -12.37,18.99 0,0 4.99,3.99 16.94,1.34 15.29,-3.39 20.54,-16.65 21.25,-18.68 1.61,1.66 3.69,2.72 5.28,6.33 1.89,4.29 3.08,6.79 3.11,13.84 0,0 6.62,-12.47 0.67,-20.85z"/>
   <path fill="#F99746" fill-rule="nonzero" d="M811.8 883.59c-2.54,-13 -10.83,-64.96 -2.54,-81.69 2.98,-6 14.67,-6.55 27.5,-6.02 3.99,2.58 19.2,12.31 25.44,11.1 0.07,-0.01 0.19,-0.04 0.35,-0.08 2.94,-0.74 4.05,-2.8 1.6,-4.59 0,0 5.63,0.4 13.52,1.88 4.46,0.84 16.69,8.36 16.69,8.36 0,0 -5.55,8.63 -14.47,12.4 1.52,13.58 -0.74,19.56 -14.82,50.92 -11.9,26.5 1.6,50.36 1.6,50.36 0,0 -70.04,56.32 -70.44,27.64 -0.29,-21.59 18.83,-53.66 15.57,-70.29z"/>
   <path fill="#94B0ED" fill-rule="nonzero" d="M870.14 987.47c3.81,-0.43 7.24,-2.52 9.37,-5.71 0.34,-0.5 0.7,-1.05 1.08,-1.63 7.97,-12.07 11.08,-49.03 29.01,-88.42 4.38,-9.59 20.05,-11.31 24.33,-22.15 0,0 10.53,-35.13 -20.14,-36.17 -30.67,-1.03 -82.13,97.74 -82.95,108.1 -0.79,10.04 -20.27,52.68 39.3,45.96z"/>
   <path fill="#0D2644" fill-rule="nonzero" d="M992.03 987.28l-43.65 0c0,0 -1.63,-7.15 1.23,-12.02 2.54,-4.3 1.57,-6.75 -0.32,-10.31 1.97,0.83 4.53,1.58 7.35,1.42 2.18,-0.13 4.48,-1.14 6.48,-2.34 1.88,2.2 9.93,11.56 12.45,13.41 2.86,2.1 15.56,1.35 16.44,9.84z"/>
   <path fill="#94B0ED" fill-rule="nonzero" d="M934.93 843.56c2.63,19.7 12.89,81.9 30.99,112.24 5.84,9.78 -14.7,15.27 -14.81,15.24 -2.76,-0.72 -7.35,-5.11 -9.46,-7.02 -14.7,-13.25 -44.54,-50.76 -44.54,-80.84 0,-14.66 -0.26,-42.67 10.41,-49.78 6.56,-4.39 26.37,2.34 27.41,10.16z"/>
   <path fill="#ED7D2B" fill-rule="nonzero" d="M813.52 826.29c0,0 8.86,18.02 50.21,30.76 41.35,12.73 17.7,-19.26 17.7,-19.26l-57.81 -20.2 -10.1 8.71z"/>
   <path fill="#AEC3FF" fill-rule="nonzero" d="M848.83 987.52c0,0 2.21,-3.32 3.62,-8.25 2.34,-8.23 3.18,-14.22 7.69,-27.05 4.73,-13.47 10.35,-30.03 17.37,-47.27 2.17,-5.32 4.46,-10.71 6.91,-16.08 4.37,-9.59 16.39,-8.26 20.67,-19.1 0,0 16.68,-37.57 -13.99,-38.61 -30.67,-1.03 -88.95,100.51 -92.29,110.35 -3.67,10.76 -16.84,56.32 50.03,46.01z"/>
   <path fill="#163560" fill-rule="nonzero" d="M960 987.28l-43.65 0c0,0 -1.63,-7.15 1.23,-12.02 2.53,-4.3 1.56,-6.75 -0.31,-10.31 1.98,0.83 4.53,1.58 7.35,1.42 2.17,-0.13 4.48,-1.14 6.49,-2.34 1.88,2.2 9.92,11.56 12.44,13.41 2.85,2.1 15.58,1.35 16.46,9.84z"/>
   <path fill="#A1B9F6" fill-rule="nonzero" d="M860.13 952.23c-11.2,-26.38 4.93,-76.36 4.93,-76.36 6.65,4.6 10.61,16.03 12.44,29.09 -7.02,17.24 -12.64,33.8 -17.37,47.27l0 0z"/>
   <path fill="#AEC3FF" fill-rule="nonzero" d="M909.45 842.17c2.63,19.7 6.33,83.29 24.44,113.64 5.83,9.78 -14.71,15.27 -14.82,15.24 -2.75,-0.72 -7.34,-5.11 -9.46,-7.02 -14.7,-13.25 -44.54,-50.76 -44.54,-80.84 0,-14.66 17.21,-41.49 27.87,-48.61 6.57,-4.39 15.47,-0.24 16.51,7.59z"/>
   <path fill="#DB6B3A" fill-rule="nonzero" d="M1003.94 780.98l-44.71 -4.74c-1.3,-0.14 -2.52,0.62 -3.01,1.84l-15.98 42.03c-0.7,1.84 0.61,3.83 2.58,3.91l44.36 1.79c1.2,0.05 2.31,-0.66 2.78,-1.77l16.33 -39.06c0.74,-1.79 -0.43,-3.78 -2.35,-3.99z"/>
   <path fill="#F78248" fill-rule="nonzero" d="M1007.82 781.39l-44.7 -4.75c-1.3,-0.14 -2.54,0.62 -3.01,1.84l-15.98 42.03c-0.7,1.84 0.61,3.83 2.58,3.91l44.36 1.79c1.2,0.05 2.3,-0.66 2.77,-1.77l16.34 -39.06c0.74,-1.79 -0.43,-3.78 -2.36,-3.98z"/>
   <path fill="#EBF3FA" fill-rule="nonzero" d="M983.05 801.01c0.54,-1.5 -0.23,-2.72 -1.73,-2.72 -1.5,0 -3.15,1.22 -3.7,2.72 -0.54,1.5 0.22,2.72 1.72,2.72 1.5,0 3.17,-1.22 3.71,-2.72z"/>
   <path fill="#EBF3FA" fill-rule="nonzero" d="M1006.48 785.36c0.27,-0.74 -0.11,-1.33 -0.84,-1.33 -0.74,0 -1.56,0.59 -1.83,1.33 -0.26,0.74 0.12,1.34 0.85,1.34 0.74,0 1.56,-0.6 1.82,-1.34z"/>
   <path fill="#FFB27D" fill-rule="nonzero" d="M819.83 801.91c0,0 61.95,22.81 71.26,22.35 6.02,-0.3 56.03,-17.88 56.03,-17.88l4.49 8.49c0,0 -48.68,31.28 -62.06,31.13 -26.42,-0.3 -71,-16.52 -76.03,-19.71 -5.03,-3.19 -8.31,-21.15 6.31,-24.38z"/>
   <path fill="#FFB27D" fill-rule="nonzero" d="M947.12 806.38c0,0 4.49,-6.91 8.96,-7.11 4.48,-0.2 12.2,3.05 14.83,3.56 2.65,0.51 10.17,2.95 7.93,6.61 -2.24,3.65 -12.59,4.47 -17.07,3.65 -4.47,-0.81 -10.16,1.79 -10.16,1.79l-4.49 -8.49z"/>
   <path fill="#FFB27D" fill-rule="nonzero" d="M954.86 799.48c0,0 7.11,-3.26 9.14,-3.87 2.03,-0.61 1.62,0.01 1.01,1.93 -0.61,1.93 -4.27,3.77 -4.27,4.37 0,0.61 -5.89,-2.44 -5.89,-2.44z"/>
   <path fill="#FFB27D" fill-rule="nonzero" d="M1003.21 802.72c0,0 -2.83,-9.34 -5.95,-6.41 -3.24,3.05 -1.27,6.11 -0.88,10.01 0.77,7.45 2.26,7.13 3.23,6.79 0.94,-0.34 4.66,-6.65 3.6,-10.39z"/>
   <path fill="#FFB27D" fill-rule="nonzero" d="M1003.39 804.14c0,0 1.44,7.96 -6.12,12.11l2.24 -5.47 3.88 -6.63z"/>
   <path fill="white" fill-rule="nonzero" d="M873.89 774.76c0,0 -2.66,-1.05 -10.16,-0.44 0,0 0.4,2.92 5.92,3.21 3.13,0.16 4.23,-2.77 4.23,-2.77z"/>
   <path fill="#F99746" fill-rule="nonzero" d="M851.75 813.16c0,0 -5.54,17.55 -24.57,21.54 0,0 -31.42,-9.69 -15.78,-31.1 0,0 15.47,-11.49 40.35,9.56z"/>
   <path fill="#FFB27D" fill-rule="nonzero" d="M1003.39 805.27c0,0 1.3,-4.37 1.39,-5.14 0.07,-0.76 -0.02,-1.14 -0.69,-0.6 -0.68,0.53 -1.69,1.94 -1.4,3.26 0.3,1.33 0.7,2.48 0.7,2.48z"/>
   <path fill="white" fill-rule="nonzero" d="M599.99 853.89c0,14 9.17,20.93 20.93,20.93 11.69,0 21.51,-6.93 21.51,-20.93l0 -30.25 -12.34 0 0 30.32c0,5.99 -3.1,9.46 -8.95,9.46 -5.85,0 -8.81,-3.46 -8.81,-9.46l0 -30.32 -12.34 0 0 30.25zm63.45 -7.58l0 -12.71 6.71 0c4.91,0 7,2.45 7,6.35 0,3.9 -2.09,6.35 -7,6.35l-6.71 0zm26.28 -6.35c0,-9.31 -6.21,-16.31 -18.62,-16.31l-20 0 0 50.68 12.34 0 0 -18.19 7.65 0c12.92,0 18.62,-7.8 18.62,-16.17zm6.42 34.36l12.34 0 0 -50.68 -12.34 0 0 50.68z"/>
   <path fill="white" fill-rule="nonzero" d="M568.05 896.21l0 -6.06 3.2 0c2.34,0 3.34,1.17 3.34,3.03 0,1.86 -1,3.03 -3.34,3.03l-3.2 0zm12.54 -3.03c0,-4.45 -2.96,-7.79 -8.89,-7.79l-9.55 0 0 24.19 5.89 0 0 -8.68 3.65 0c6.17,0 8.89,-3.72 8.89,-7.72zm19.57 16.4l6.24 0 -8.75 -24.19 -6.82 0 -8.75 24.19 6.17 0 1.45 -4.27 9.03 0 1.45 4.27zm-2.96 -8.82l-5.96 0 2.96 -8.86 3 8.86zm18.33 0.83l0 8 5.89 0 0 -8 8.37 -16.2 -6.62 0 -4.65 10.13 -4.69 -10.13 -6.68 0 8.37 16.2zm16.64 8l5.89 0 0 -14.54 5.44 14.54 4.76 0 5.41 -14.51 0 14.51 5.89 0 0 -24.19 -6.93 0 -6.72 16.75 -6.79 -16.75 -6.96 0 0 24.19zm46.45 -24.19l-14.82 0 0 24.19 14.82 0 0 -4.72 -8.93 0 0 -5.31 7.89 0 0 -4.55 -7.89 0 0 -4.89 8.93 0 0 -4.72zm19.57 0l0 14.99 -9.86 -14.99 -5.89 0 0 24.19 5.89 0 0 -14.92 9.86 14.92 5.89 0 0 -24.19 -5.89 0zm8.86 4.72l6.41 0 0 19.47 5.89 0 0 -19.47 6.41 0 0 -4.72 -18.71 0 0 4.72zm39.25 12.27c0,-8.1 -11.96,-6.2 -11.96,-10.41 0,-1.52 1.07,-2.24 2.48,-2.21 1.59,0.03 2.69,0.97 2.79,2.52l6.38 0c-0.24,-4.62 -3.79,-7.24 -9.06,-7.24 -5.07,0 -8.82,2.55 -8.82,7.13 -0.07,8.58 12.03,6.17 12.03,10.65 0,1.41 -1.1,2.27 -2.83,2.27 -1.66,0 -2.83,-0.9 -3,-2.76l-6.27 0c0.17,4.89 4.24,7.48 9.44,7.48 5.65,0 8.82,-3.38 8.82,-7.44z"/>
  </g>
 </g>
</svg>
