<svg xmlns="http://www.w3.org/2000/svg" width="90.392" height="63" viewBox="0 0 90.392 63">
  <g id="Layer_x0020_1" transform="translate(0 0.006)">
    <g id="_2904342430336" transform="translate(0 -0.006)">
      <path id="Path_5620" data-name="Path 5620" d="M3119.385.672l43.248,33.614a3.248,3.248,0,0,1,.57,4.545l-17.177,22.1a3.248,3.248,0,0,1-4.545.57l-43.249-33.614a3.249,3.249,0,0,1-.569-4.545l17.177-22.1a3.248,3.248,0,0,1,4.545-.57Z" transform="translate(-3073.489 0.006)" fill="#f3f3f3" fill-rule="evenodd"/>
      <path id="Path_5621" data-name="Path 5621" d="M5462.8,717.677a1.961,1.961,0,0,0,.344,2.874,1.874,1.874,0,0,0,2.382.063l-.856-.665a.891.891,0,0,1-.987-.11,1.175,1.175,0,0,1,1.429-1.839.891.891,0,0,1,.351.93l.855.665a1.878,1.878,0,0,0-.645-2.3A1.966,1.966,0,0,0,5462.8,717.677Zm4.049,3.826a.622.622,0,0,1,1.021-.112l.213.166.641-.824a1.2,1.2,0,0,0-1.146-.169l.329-.423-.778-.6-1.974,2.54.779.6Zm2.891,1.006a.557.557,0,0,1,.138.808l-.975-.757A.611.611,0,0,1,5469.745,722.509Zm.352,2.055-.828-.644a.524.524,0,0,1-.6-.069.6.6,0,0,1-.1-.862l1.762,1.369a2.475,2.475,0,0,0,.19-.217,1.516,1.516,0,0,0-.282-2.249,1.655,1.655,0,0,0-2.03,2.612A1.5,1.5,0,0,0,5470.1,724.564Zm.65-.188a1.491,1.491,0,0,0,.1,2.181,1.112,1.112,0,0,0,1.094.208l-.283.364.778.6,2.618-3.368-.778-.6-.917,1.179a1.181,1.181,0,0,0-.482-1,1.48,1.48,0,0,0-2.131.431Zm1.9,1.483a.718.718,0,0,1-1.043.2.726.726,0,0,1-.063-1.064.708.708,0,1,1,1.107.868Zm.356,2.313.778.605,1.974-2.54-.778-.605Zm2.571-2.5a.536.536,0,1,0-.139-.78A.542.542,0,0,0,5475.572,725.673Zm-.419,2.756a.993.993,0,0,0,.21,1.58l.4.308.513-.66-.277-.216c-.173-.134-.187-.248-.071-.4l.792-1.02.51.4.5-.646-.51-.4.481-.619-.778-.6-.481.619-.31-.24-.5.646.31.24-.785,1.01Zm3.117,1.269a1.962,1.962,0,0,0,.344,2.874,1.874,1.874,0,0,0,2.382.063l-.856-.665a.891.891,0,0,1-.987-.11,1.174,1.174,0,0,1,1.429-1.839.891.891,0,0,1,.351.93l.855.665a1.88,1.88,0,0,0-.645-2.3A1.966,1.966,0,0,0,5478.27,729.7Zm3.191,3.006a1.49,1.49,0,0,0,.1,2.178,1.138,1.138,0,0,0,1.1.216l-.279.36.778.605,1.974-2.54-.778-.6-.28.36a1.119,1.119,0,0,0-.475-1,1.48,1.48,0,0,0-2.131.431Zm1.9,1.483a.718.718,0,0,1-1.043.2.727.727,0,0,1-.063-1.064.708.708,0,1,1,1.107.868Zm2.05,1.74a.622.622,0,0,1,1.021-.112l.214.166.641-.824a1.2,1.2,0,0,0-1.147-.169l.329-.423-.778-.6-1.974,2.54.778.6.916-1.179Zm1.089.693a1.491,1.491,0,0,0,.1,2.181,1.112,1.112,0,0,0,1.094.208l-.283.364.778.6,2.618-3.368-.778-.6-.917,1.179a1.18,1.18,0,0,0-.482-1,1.48,1.48,0,0,0-2.131.431Zm1.9,1.483a.718.718,0,0,1-1.043.2.727.727,0,0,1-.063-1.064.708.708,0,1,1,1.107.868Z" transform="translate(-5420.891 -711.399)" fill="#327dc7"/>
      <path id="Path_5622" data-name="Path 5622" d="M4972.5,1457.688l-.415.534.394.306.416-.535,1.4-.648-.442-.344-.838.436.213-.921-.447-.347Zm2.456,1.734a.846.846,0,1,0-1.187.138A.8.8,0,0,0,4974.951,1459.422Zm-.936-.727a.344.344,0,1,1,.534.416.356.356,0,0,1-.521.109A.348.348,0,0,1,4974.015,1458.7Zm2.914,1.234-.394-.306-.542.7a.315.315,0,1,1-.5-.385l.542-.7-.391-.3-.584.751a.619.619,0,0,0,.072.935.592.592,0,0,0,.536.114l-.136.175.394.306Zm.142,1.215a.315.315,0,0,1,.517-.056l.108.084.324-.417a.607.607,0,0,0-.581-.085l.167-.214-.395-.306-1,1.286.394.306.464-.6Zm2.926.637-.779,1,.12-1.514-.394-.306-1.257,1.617.394.306.775-1-.116,1.51.394.306,1.257-1.617Zm-.154,1.44a.754.754,0,0,0,.049,1.1.575.575,0,0,0,.554.109l-.141.182.394.306,1-1.286-.394-.306-.142.182a.567.567,0,0,0-.24-.509A.749.749,0,0,0,4979.844,1463.222Zm.961.751a.363.363,0,0,1-.528.1.368.368,0,0,1-.032-.539.358.358,0,1,1,.56.439Zm1.952,2.548.392.3.583-.751a.628.628,0,0,0-.1-.955.656.656,0,0,0-.62-.1.608.608,0,0,0-.251-.58.575.575,0,0,0-.512-.117l.125-.161-.394-.306-1,1.286.394.306.543-.7a.313.313,0,1,1,.493.383l-.543.7.392.3.542-.7a.313.313,0,1,1,.493.383Zm2-.029a.281.281,0,0,1,.07.409l-.493-.383A.309.309,0,0,1,4984.76,1466.492Zm.178,1.04-.419-.326a.266.266,0,0,1-.3-.035.3.3,0,0,1-.052-.437l.891.693a1.194,1.194,0,0,0,.1-.11.767.767,0,0,0-.143-1.139.838.838,0,0,0-1.028,1.323A.762.762,0,0,0,4984.938,1467.533Z" transform="translate(-4934.359 -1445.122)" fill="#327dc7"/>
      <path id="Path_5623" data-name="Path 5623" d="M3315.179,2058.62l48.363,37.59-5.069,6.522-48.363-37.589Z" transform="translate(-3284.998 -2043.002)" fill="#fff" fill-rule="evenodd"/>
      <path id="Path_5624" data-name="Path 5624" d="M3958.03,2674.043l9.9,7.691a1.252,1.252,0,0,1,.219,1.751l-.6.766a1.251,1.251,0,0,1-1.751.219l-9.9-7.692a1.252,1.252,0,0,1-.22-1.751l.6-.766A1.252,1.252,0,0,1,3958.03,2674.043Z" transform="translate(-3925.414 -2653.497)" fill="#337ec8" fill-rule="evenodd"/>
      <path id="Path_5625" data-name="Path 5625" d="M3.239,3760.76H58.014A3.248,3.248,0,0,1,61.253,3764v27.99a3.248,3.248,0,0,1-3.239,3.239H3.239A3.248,3.248,0,0,1,0,3791.989V3764a3.248,3.248,0,0,1,3.239-3.239Z" transform="translate(0 -3732.229)" fill="#e2e2e2" fill-rule="evenodd"/>
      <path id="Path_5626" data-name="Path 5626" d="M465.44,4327.069a1.962,1.962,0,0,0,2.035,2.058,1.874,1.874,0,0,0,1.92-1.413h-1.084a.891.891,0,0,1-.847.519,1.175,1.175,0,0,1,0-2.329.891.891,0,0,1,.847.519h1.084a1.879,1.879,0,0,0-1.92-1.418,1.966,1.966,0,0,0-2.035,2.064Zm5.546.536c0-.553.271-.715.738-.715h.271v-1.043a1.2,1.2,0,0,0-1.009.57v-.536H470v3.217h.986Zm2.9-.979a.556.556,0,0,1,.605.554h-1.234A.61.61,0,0,1,473.885,4326.625Zm1.539,1.407h-1.049a.525.525,0,0,1-.513.311.6.6,0,0,1-.611-.617h2.231a2.483,2.483,0,0,0,.017-.288,1.516,1.516,0,0,0-1.6-1.6,1.655,1.655,0,0,0,0,3.309,1.5,1.5,0,0,0,1.528-1.112Zm.4-.547a1.491,1.491,0,0,0,1.418,1.66,1.112,1.112,0,0,0,.992-.507v.461h.986v-4.266h-.986v1.493a1.181,1.181,0,0,0-.992-.49,1.481,1.481,0,0,0-1.418,1.648Zm2.41.005a.718.718,0,0,1-.7.8.727.727,0,0,1-.7-.8.708.708,0,1,1,1.407.006Zm1.7,1.608h.986v-3.217h-.986Zm.5-3.551a.536.536,0,1,0-.588-.53A.543.543,0,0,0,480.428,4325.547Zm1.36,2.433a.994.994,0,0,0,1.136,1.119h.5v-.836h-.352c-.219,0-.3-.081-.3-.271V4326.7h.646v-.819h-.646v-.784h-.986v.784H481.4v.819h.392Zm3.24-.911a1.961,1.961,0,0,0,2.035,2.058,1.874,1.874,0,0,0,1.92-1.413H487.9a.891.891,0,0,1-.847.519,1.175,1.175,0,0,1,0-2.329.891.891,0,0,1,.847.519h1.084a1.879,1.879,0,0,0-1.92-1.418,1.966,1.966,0,0,0-2.035,2.064Zm4.364.416a1.49,1.49,0,0,0,1.412,1.66,1.136,1.136,0,0,0,1-.5v.456h.986v-3.217H491.8v.456a1.12,1.12,0,0,0-.992-.5A1.481,1.481,0,0,0,489.392,4327.484Zm2.41.005a.718.718,0,0,1-.7.8.726.726,0,0,1-.7-.8.708.708,0,1,1,1.407.005Zm2.686.116c0-.554.271-.715.738-.715h.271v-1.044a1.2,1.2,0,0,0-1.009.571v-.537H493.5v3.217h.986Zm1.285-.121a1.491,1.491,0,0,0,1.418,1.66,1.112,1.112,0,0,0,.992-.507v.461h.986v-4.266h-.986v1.493a1.181,1.181,0,0,0-.992-.49A1.48,1.48,0,0,0,495.773,4327.484Zm2.41.005a.718.718,0,0,1-.7.8.726.726,0,0,1-.7-.8.708.708,0,1,1,1.406.005Z" transform="translate(-461.909 -4291.672)" fill="#327dc7"/>
      <path id="Path_5627" data-name="Path 5627" d="M488.189,5446.131v.677h.5v-.677l.709-1.372h-.56l-.394.858-.4-.858h-.566l.709,1.372Zm3-.137a.846.846,0,1,0-.852.837A.8.8,0,0,0,491.192,5445.994Zm-1.185,0c0-.277.158-.405.339-.405s.339.128.339.405a.357.357,0,0,1-.344.406C490.159,5446.4,490.007,5446.268,490.007,5445.994Zm3.058-.814h-.5v.884a.315.315,0,1,1-.627,0v-.884h-.5v.951a.62.62,0,0,0,.63.695.594.594,0,0,0,.493-.24v.222h.5Zm.858.873c0-.28.137-.362.374-.362h.137v-.529a.607.607,0,0,0-.511.29v-.271h-.5v1.628h.5v-.755Zm2.7-1.293v1.27l-.835-1.27h-.5v2.048h.5v-1.263l.835,1.263h.5v-2.048Zm.762,1.231a.754.754,0,0,0,.715.84.575.575,0,0,0,.5-.254v.23h.5v-1.628h-.5v.23a.568.568,0,0,0-.5-.254.749.749,0,0,0-.718.834Zm1.22,0a.364.364,0,0,1-.356.4.368.368,0,0,1-.356-.406.359.359,0,1,1,.712,0Zm3.1.814h.5v-.951a.629.629,0,0,0-.662-.695.655.655,0,0,0-.549.3.609.609,0,0,0-.554-.3.574.574,0,0,0-.476.223v-.2h-.5v1.628h.5v-.884a.313.313,0,1,1,.625,0v.884h.5v-.884a.313.313,0,1,1,.625,0v.884Zm1.564-1.251a.282.282,0,0,1,.306.28h-.625a.309.309,0,0,1,.318-.28Zm.779.712h-.531a.266.266,0,0,1-.26.157.3.3,0,0,1-.309-.312h1.129a1.258,1.258,0,0,0,.009-.146.767.767,0,0,0-.811-.811.838.838,0,0,0,0,1.675.761.761,0,0,0,.773-.563Z" transform="translate(-483.782 -5403.452)" fill="#327dc7"/>
      <path id="Path_5628" data-name="Path 5628" d="M0,6586.7H61.253v8.261H0Z" transform="translate(0 -6536.729)" fill="#fff" fill-rule="evenodd"/>
      <path id="Path_5629" data-name="Path 5629" d="M488.718,6902.709h12.533a1.251,1.251,0,0,1,1.248,1.248v.971a1.251,1.251,0,0,1-1.248,1.248H488.718a1.251,1.251,0,0,1-1.248-1.248v-.971A1.251,1.251,0,0,1,488.718,6902.709Z" transform="translate(-483.772 -6850.341)" fill="#337ec8" fill-rule="evenodd"/>
    </g>
  </g>
</svg>
