<svg xmlns="http://www.w3.org/2000/svg" xmlns:xlink="http://www.w3.org/1999/xlink" width="63.364" height="70.79" viewBox="0 0 63.364 70.79">
  <defs>
    <linearGradient id="linear-gradient" x1="0.5" x2="0.5" y2="1" gradientUnits="objectBoundingBox">
      <stop offset="0" stop-color="#fff" stop-opacity="0.4"/>
      <stop offset="1" stop-color="#d17918" stop-opacity="0.4"/>
    </linearGradient>
    <linearGradient id="linear-gradient-2" x1="0.5" y1="0" x2="0.5" y2="1" xlink:href="#linear-gradient"/>
    <linearGradient id="linear-gradient-3" x1="0.5" y1="0" x2="0.5" y2="1" xlink:href="#linear-gradient"/>
    <linearGradient id="linear-gradient-7" x1="0.5" y1="0" x2="0.5" y2="1" xlink:href="#linear-gradient"/>
    <linearGradient id="linear-gradient-14" x1="0.149" y1="0.395" x2="0.851" y2="0.605" xlink:href="#linear-gradient"/>
    <linearGradient id="linear-gradient-15" x1="0.851" y1="0.395" x2="0.149" y2="0.605" xlink:href="#linear-gradient"/>
  </defs>
  <g id="Layer_x0020_1" transform="translate(0 0.004)">
    <g id="_2939847299392" transform="translate(0 -0.004)">
      <g id="Group_2843" data-name="Group 2843" transform="translate(0 0)">
        <path id="Path_6080" data-name="Path 6080" d="M41.794,851.292c0,2.288-9.356,4.143-20.9,4.143S0,853.58,0,851.292s9.356-4.143,20.9-4.143S41.794,849,41.794,851.292Z" transform="translate(0 -793.994)" fill="rgba(204,204,204,0.6)"/>
        <path id="Path_6081" data-name="Path 6081" d="M217.79,295.349s-3.65-18.495-17.384-26.669h-9.814c-13.734,8.174-17.385,26.669-17.385,26.669-4.015,21.506,20.938,18.767,20.938,18.767h2.707s24.954,2.739,20.938-18.767Z" transform="translate(-161.929 -251.821)" fill="#e8c37b"/>
        <path id="Path_6082" data-name="Path 6082" d="M236.657,295.349s-3.65-18.495-17.384-26.669h-5.455c9.329,8.215,11.949,21.484,11.949,21.484,3.668,19.643-19.124,17.142-19.124,17.142h-2.472a28.083,28.083,0,0,1-11.271-1.326c4.586,9.839,20.112,8.138,20.112,8.138h2.707s24.954,2.739,20.938-18.768Z" transform="translate(-180.796 -251.821)" fill="#dab872"/>
        <path id="Path_6083" data-name="Path 6083" d="M285.668,4.832c-.509-.67-1.313-2.111-.44-2.778,1.138-.87,3.371.052,4.53.375a13.2,13.2,0,0,0,4.854.627A19.867,19.867,0,0,0,299.528,1.4c1.461-.594,3-1.659,4.742-1.121,1.827.564,2.546,2.162,4.655,2.363,3.705.352,5.894-2.974,9.369-2.618,1.806.184,1.6,1.31.587,2.084L305.444,16.855H295.63L285.668,4.832Z" transform="translate(-266.968 0.004)" fill="#e8c37b"/>
        <g id="Group_2840" data-name="Group 2840" transform="translate(21.712 36.974)">
          <g id="Group_2839" data-name="Group 2839">
            <path id="Path_6084" data-name="Path 6084" d="M611.186,987.818c-4.515,0-8.176-1.408-8.176-3.144s3.661-3.144,8.176-3.144,8.176,1.407,8.176,3.144S615.7,987.818,611.186,987.818Z" transform="translate(-586.885 -956.916)" fill="rgba(204,204,204,0.6)"/>
            <path id="Path_6085" data-name="Path 6085" d="M747.936,835.148c-4.515,0-8.176-1.408-8.176-3.144s3.661-3.144,8.176-3.144,8.176,1.407,8.176,3.144S752.451,835.148,747.936,835.148Z" transform="translate(-715.054 -813.826)" fill="rgba(204,204,204,0.6)"/>
            <path id="Path_6086" data-name="Path 6086" d="M730.467,1027.636c-4.513-.152-8.219,1.131-8.278,2.866s3.552,3.266,8.065,3.419,8.219-1.131,8.278-2.866-3.552-3.266-8.065-3.419Z" transform="translate(-698.586 -1000.118)" fill="rgba(204,204,204,0.6)"/>
            <path id="Path_6087" data-name="Path 6087" d="M365.2,944.766c4.513-.152,8.219,1.131,8.278,2.866s-3.552,3.266-8.065,3.419-8.219-1.131-8.277-2.866S360.692,944.919,365.2,944.766Z" transform="translate(-356.441 -922.448)" fill="rgba(204,204,204,0.6)"/>
            <g id="Group_2740" data-name="Group 2740" transform="translate(5.169 18.615)">
              <g id="Group_2739" data-name="Group 2739">
                <g id="Group_2738" data-name="Group 2738">
                  <g id="Group_2737" data-name="Group 2737">
                    <path id="Path_6088" data-name="Path 6088" d="M428.41,937.525c0,1.736,3.661,3.144,8.176,3.144s8.176-1.408,8.176-3.144V936.04H428.41Z" transform="translate(-428.409 -932.896)" fill="#ff931d"/>
                    <g id="Group_2734" data-name="Group 2734" transform="translate(0 3.151)">
                      <path id="Path_6089" data-name="Path 6089" d="M546.31,948.2v3.851q.384.014.778.014V948.2h-.778Z" transform="translate(-538.912 -947.443)" fill="#d17918"/>
                      <path id="Path_6090" data-name="Path 6090" d="M521.18,948.21v3.733c.422.049.859.085,1.307.107v-3.839H521.18Z" transform="translate(-515.358 -947.453)" fill="#d17918"/>
                      <path id="Path_6091" data-name="Path 6091" d="M433.9,940.59v-4.45h-5.5v1.479C428.4,938.995,430.7,940.164,433.9,940.59Z" transform="translate(-428.4 -936.14)" fill="#d17918"/>
                      <path id="Path_6092" data-name="Path 6092" d="M605.12,948.21v3.66l.266-.04v-3.62Z" transform="translate(-594.031 -947.453)" fill="#d17918"/>
                      <path id="Path_6093" data-name="Path 6093" d="M588.91,951.99l.266-.026V948.21h-.266v3.781Z" transform="translate(-578.839 -947.453)" fill="#d17918"/>
                      <path id="Path_6094" data-name="Path 6094" d="M568.36,948.2v3.856c.13,0,.26-.008.389-.014V948.2h-.389Z" transform="translate(-559.578 -947.443)" fill="#d17918"/>
                    </g>
                    <g id="Group_2736" data-name="Group 2736">
                      <path id="Path_6095" data-name="Path 6095" d="M436.576,892.219c-4.515,0-8.176-1.408-8.176-3.144s3.661-3.144,8.176-3.144,8.176,1.408,8.176,3.144S441.091,892.219,436.576,892.219Z" transform="translate(-428.4 -885.93)" fill="#ff931d"/>
                      <path id="Path_6096" data-name="Path 6096" d="M441.192,891.859c-.232.008-.466.013-.7.013-4.515,0-8.176-1.407-8.176-3.144,0-1.079,1.415-2.031,3.569-2.6-4.186.137-7.472,1.486-7.472,3.132,0,1.737,3.661,3.144,8.176,3.144a18.461,18.461,0,0,0,4.607-.547Z" transform="translate(-428.409 -886.117)" fill="url(#linear-gradient)"/>
                      <path id="Path_6097" data-name="Path 6097" d="M444.859,892.087c-.134-1.692-3.739-3.047-8.17-3.047s-8.035,1.355-8.169,3.047c.134,1.691,3.739,3.046,8.169,3.046S444.724,893.777,444.859,892.087Zm-8.17,2.657h0c-3.669,0-6.655-1.148-6.655-2.559s2.985-2.559,6.655-2.559,6.656,1.148,6.656,2.559S440.359,894.744,436.689,894.744Z" transform="translate(-428.512 -888.845)" fill="#d17918"/>
                      <path id="Path_6098" data-name="Path 6098" d="M499.652,929.08l-3.162.909v.632l3.236-1a3.289,3.289,0,0,0,1.375.584c.048.011.1.019.146.029v.563h1.174v-.433c.256.011.5.013.7.008v.425H504.3v-1.691h-1.174v.816c-.2.007-.44.008-.7-.009v-.807h-1.174v.576a1.467,1.467,0,0,1-.678-.482l-.917-.121Z" transform="translate(-492.218 -926.373)" fill="#d17918"/>
                      <path id="Path_6099" data-name="Path 6099" d="M443.241,889.074c0,1.411-2.986,2.559-6.656,2.559s-6.655-1.148-6.655-2.559,2.985-2.559,6.655-2.559S443.241,887.663,443.241,889.074Zm1.521,0h0c0-1.736-3.661-3.144-8.176-3.144s-8.176,1.408-8.176,3.144,3.661,3.144,8.176,3.144S444.762,890.81,444.762,889.074Z" transform="translate(-428.409 -885.93)" fill="#ffbf21"/>
                      <g id="Group_2735" data-name="Group 2735" transform="translate(2.401 0.923)">
                        <path id="Path_6100" data-name="Path 6100" d="M466.66,902.861c0-1.225,2.591-2.221,5.775-2.221s5.776,1,5.776,2.221-2.591,2.221-5.776,2.221S466.66,904.086,466.66,902.861Zm11.3,0h0c0-1.171-2.477-2.123-5.522-2.123s-5.522.953-5.522,2.123,2.477,2.124,5.522,2.124S477.957,904.033,477.957,902.861Z" transform="translate(-466.66 -900.64)" fill="#ffbf21"/>
                      </g>
                      <path id="Path_6101" data-name="Path 6101" d="M499.652,922.35l-3.162.909v.631l3.236-1a3.288,3.288,0,0,0,1.375.583c.048.011.1.02.146.029v.563h1.174v-.433c.256.011.5.012.7.008v.425H504.3v-1.692h-1.174v.816c-.2.007-.44.008-.7-.009v-.807h-1.174v.576a1.472,1.472,0,0,1-.678-.482Z" transform="translate(-492.218 -920.065)" fill="#ffbf21"/>
                    </g>
                  </g>
                </g>
              </g>
            </g>
            <g id="Group_2747" data-name="Group 2747" transform="translate(5.169 15.471)">
              <g id="Group_2746" data-name="Group 2746">
                <g id="Group_2745" data-name="Group 2745">
                  <g id="Group_2744" data-name="Group 2744">
                    <path id="Path_6102" data-name="Path 6102" d="M428.41,887.415c0,1.736,3.661,3.144,8.176,3.144s8.176-1.408,8.176-3.144V885.93H428.41Z" transform="translate(-428.409 -882.786)" fill="#ff931d"/>
                    <g id="Group_2741" data-name="Group 2741" transform="translate(0 3.151)">
                      <path id="Path_6103" data-name="Path 6103" d="M546.31,898.081v3.851q.384.014.778.014V898.08h-.778Z" transform="translate(-538.912 -897.324)" fill="#d17918"/>
                      <path id="Path_6104" data-name="Path 6104" d="M521.18,898.09v3.733c.422.049.859.085,1.307.107V898.09Z" transform="translate(-515.358 -897.333)" fill="#d17918"/>
                      <path id="Path_6105" data-name="Path 6105" d="M433.9,890.48v-4.45h-5.5v1.48C428.4,888.885,430.7,890.053,433.9,890.48Z" transform="translate(-428.4 -886.03)" fill="#d17918"/>
                      <path id="Path_6106" data-name="Path 6106" d="M605.12,898.09v3.66l.266-.04v-3.62Z" transform="translate(-594.031 -897.333)" fill="#d17918"/>
                      <path id="Path_6107" data-name="Path 6107" d="M588.91,901.87l.266-.026V898.09h-.266Z" transform="translate(-578.839 -897.333)" fill="#d17918"/>
                      <path id="Path_6108" data-name="Path 6108" d="M568.36,898.09v3.856c.13,0,.26-.008.389-.014V898.09Z" transform="translate(-559.578 -897.333)" fill="#d17918"/>
                    </g>
                    <g id="Group_2743" data-name="Group 2743">
                      <path id="Path_6109" data-name="Path 6109" d="M436.576,842.108c-4.515,0-8.176-1.407-8.176-3.144s3.661-3.144,8.176-3.144,8.176,1.407,8.176,3.144S441.091,842.108,436.576,842.108Z" transform="translate(-428.4 -835.82)" fill="#ff931d"/>
                      <path id="Path_6110" data-name="Path 6110" d="M441.192,841.74c-.232.008-.466.012-.7.012-4.515,0-8.176-1.407-8.176-3.144,0-1.079,1.415-2.032,3.569-2.6-4.186.137-7.472,1.486-7.472,3.132,0,1.737,3.661,3.144,8.176,3.144a18.461,18.461,0,0,0,4.607-.547Z" transform="translate(-428.409 -835.998)" fill="url(#linear-gradient-2)"/>
                      <path id="Path_6111" data-name="Path 6111" d="M444.859,841.967c-.134-1.691-3.739-3.047-8.17-3.047s-8.035,1.355-8.169,3.047c.134,1.691,3.739,3.046,8.169,3.046S444.724,843.657,444.859,841.967Zm-8.17,2.657h0c-3.669,0-6.655-1.148-6.655-2.559s2.985-2.559,6.655-2.559,6.656,1.148,6.656,2.559S440.359,844.624,436.689,844.624Z" transform="translate(-428.512 -838.725)" fill="#d17918"/>
                      <path id="Path_6112" data-name="Path 6112" d="M499.652,878.961l-3.162.909v.631l3.236-1a3.3,3.3,0,0,0,1.375.583c.048.011.1.019.146.028v.563h1.174v-.433c.256.011.5.013.7.008v.425H504.3v-1.691h-1.174v.816c-.2.007-.44.007-.7-.009v-.807h-1.174v.576a1.467,1.467,0,0,1-.678-.482l-.917-.121Z" transform="translate(-492.218 -876.253)" fill="#d17918"/>
                      <path id="Path_6113" data-name="Path 6113" d="M443.241,838.964c0,1.411-2.986,2.559-6.656,2.559s-6.655-1.148-6.655-2.559,2.985-2.559,6.655-2.559S443.241,837.553,443.241,838.964Zm1.521,0h0c0-1.737-3.661-3.144-8.176-3.144s-8.176,1.407-8.176,3.144,3.661,3.144,8.176,3.144S444.762,840.7,444.762,838.964Z" transform="translate(-428.409 -835.82)" fill="#ffbf21"/>
                      <g id="Group_2742" data-name="Group 2742" transform="translate(2.401 0.923)">
                        <path id="Path_6114" data-name="Path 6114" d="M466.66,852.751c0-1.225,2.591-2.221,5.775-2.221s5.776,1,5.776,2.221-2.591,2.221-5.776,2.221S466.66,853.976,466.66,852.751Zm11.3,0h0c0-1.171-2.477-2.124-5.522-2.124s-5.522.953-5.522,2.124,2.477,2.123,5.522,2.123S477.957,853.922,477.957,852.751Z" transform="translate(-466.66 -850.53)" fill="#ffbf21"/>
                      </g>
                      <path id="Path_6115" data-name="Path 6115" d="M499.652,872.23l-3.162.909v.631l3.236-1a3.289,3.289,0,0,0,1.375.584c.048.011.1.019.146.029v.563h1.174v-.433c.256.011.5.012.7.008v.425H504.3v-1.692h-1.174v.817c-.2.007-.44.008-.7-.009v-.807h-1.174v.576a1.472,1.472,0,0,1-.678-.483l-.917-.12Z" transform="translate(-492.218 -869.945)" fill="#ffbf21"/>
                    </g>
                  </g>
                </g>
              </g>
            </g>
            <g id="Group_2754" data-name="Group 2754" transform="translate(5.169 12.327)">
              <g id="Group_2753" data-name="Group 2753">
                <g id="Group_2752" data-name="Group 2752">
                  <g id="Group_2751" data-name="Group 2751">
                    <path id="Path_6116" data-name="Path 6116" d="M428.41,837.305c0,1.736,3.661,3.144,8.176,3.144s8.176-1.408,8.176-3.144V835.82H428.41Z" transform="translate(-428.409 -832.676)" fill="#ff931d"/>
                    <g id="Group_2748" data-name="Group 2748" transform="translate(0 3.15)">
                      <path id="Path_6117" data-name="Path 6117" d="M546.31,847.98v3.851q.384.014.778.014V847.98Z" transform="translate(-538.912 -847.223)" fill="#d17918"/>
                      <path id="Path_6118" data-name="Path 6118" d="M521.18,847.98v3.733c.422.049.859.085,1.307.107V847.98Z" transform="translate(-515.358 -847.223)" fill="#d17918"/>
                      <path id="Path_6119" data-name="Path 6119" d="M433.9,840.36v-4.45h-5.5v1.479C428.4,838.765,430.7,839.933,433.9,840.36Z" transform="translate(-428.4 -835.91)" fill="#d17918"/>
                      <path id="Path_6120" data-name="Path 6120" d="M605.12,847.98v3.66c.089-.013.179-.026.266-.04v-3.62Z" transform="translate(-594.031 -847.223)" fill="#d17918"/>
                      <path id="Path_6121" data-name="Path 6121" d="M588.91,851.76l.266-.026V847.98h-.266Z" transform="translate(-578.839 -847.223)" fill="#d17918"/>
                      <path id="Path_6122" data-name="Path 6122" d="M568.36,847.98v3.856c.13,0,.26-.008.389-.014V847.98Z" transform="translate(-559.578 -847.223)" fill="#d17918"/>
                    </g>
                    <g id="Group_2750" data-name="Group 2750">
                      <path id="Path_6123" data-name="Path 6123" d="M436.576,792c-4.515,0-8.176-1.407-8.176-3.144s3.661-3.144,8.176-3.144,8.176,1.407,8.176,3.144S441.091,792,436.576,792Z" transform="translate(-428.4 -785.71)" fill="#ff931d"/>
                      <path id="Path_6124" data-name="Path 6124" d="M441.192,791.63q-.347.011-.7.012c-4.515,0-8.176-1.407-8.176-3.144,0-1.079,1.415-2.032,3.569-2.6-4.186.137-7.472,1.486-7.472,3.132,0,1.737,3.661,3.144,8.176,3.144a18.464,18.464,0,0,0,4.607-.547Z" transform="translate(-428.409 -785.888)" fill="url(#linear-gradient-3)"/>
                      <path id="Path_6125" data-name="Path 6125" d="M444.859,791.857c-.134-1.691-3.739-3.047-8.17-3.047s-8.035,1.356-8.169,3.047c.134,1.691,3.739,3.046,8.169,3.046S444.724,793.547,444.859,791.857Zm-8.17,2.657h0c-3.669,0-6.655-1.148-6.655-2.559s2.985-2.559,6.655-2.559,6.656,1.148,6.656,2.559S440.359,794.514,436.689,794.514Z" transform="translate(-428.512 -788.615)" fill="#d17918"/>
                      <path id="Path_6126" data-name="Path 6126" d="M499.652,828.851l-3.162.909v.632l3.236-1a3.3,3.3,0,0,0,1.375.584c.048.011.1.019.146.028v.563h1.174v-.433c.256.011.5.013.7.008v.425H504.3v-1.691h-1.174v.816c-.2.007-.44.008-.7-.009v-.807h-1.174v.576a1.472,1.472,0,0,1-.678-.482l-.917-.121Z" transform="translate(-492.218 -826.143)" fill="#d17918"/>
                      <path id="Path_6127" data-name="Path 6127" d="M443.241,788.854c0,1.411-2.986,2.559-6.656,2.559s-6.655-1.148-6.655-2.559,2.985-2.559,6.655-2.559S443.241,787.443,443.241,788.854Zm1.521,0h0c0-1.737-3.661-3.144-8.176-3.144s-8.176,1.407-8.176,3.144S432.071,792,436.586,792,444.762,790.591,444.762,788.854Z" transform="translate(-428.409 -785.71)" fill="#ffbf21"/>
                      <g id="Group_2749" data-name="Group 2749" transform="translate(2.401 0.923)">
                        <path id="Path_6128" data-name="Path 6128" d="M466.66,802.641c0-1.225,2.591-2.221,5.775-2.221s5.776,1,5.776,2.221-2.591,2.221-5.776,2.221S466.66,803.866,466.66,802.641Zm11.3,0h0c0-1.171-2.477-2.124-5.522-2.124s-5.522.953-5.522,2.124,2.477,2.123,5.522,2.123S477.957,803.812,477.957,802.641Z" transform="translate(-466.66 -800.42)" fill="#ffbf21"/>
                      </g>
                      <path id="Path_6129" data-name="Path 6129" d="M499.652,822.12l-3.162.909v.631l3.236-1a3.289,3.289,0,0,0,1.375.584l.146.029v.563h1.174v-.433c.256.011.5.012.7.008v.425H504.3v-1.692h-1.174v.817c-.2.007-.44.008-.7-.009v-.807h-1.174v.576a1.472,1.472,0,0,1-.678-.482l-.917-.12Z" transform="translate(-492.218 -819.835)" fill="#ffbf21"/>
                    </g>
                  </g>
                </g>
              </g>
            </g>
            <g id="Group_2761" data-name="Group 2761" transform="translate(25.3 12.577)">
              <g id="Group_2760" data-name="Group 2760">
                <g id="Group_2759" data-name="Group 2759">
                  <g id="Group_2758" data-name="Group 2758">
                    <path id="Path_6130" data-name="Path 6130" d="M749.23,841.3c0,1.736,3.661,3.144,8.176,3.144s8.177-1.408,8.177-3.144V839.81H749.231V841.3Z" transform="translate(-749.23 -836.666)" fill="#ff931d"/>
                    <g id="Group_2755" data-name="Group 2755" transform="translate(0 3.151)">
                      <path id="Path_6131" data-name="Path 6131" d="M867.13,851.971v3.851q.384.014.778.014V851.97h-.778Z" transform="translate(-859.732 -851.213)" fill="#d17918"/>
                      <path id="Path_6132" data-name="Path 6132" d="M842.01,851.98v3.733c.422.049.859.085,1.307.107v-3.839H842.01Z" transform="translate(-836.188 -851.223)" fill="#d17918"/>
                      <path id="Path_6133" data-name="Path 6133" d="M754.728,844.36v-4.45h-5.5v1.48C749.23,842.765,751.528,843.934,754.728,844.36Z" transform="translate(-749.23 -839.91)" fill="#d17918"/>
                      <path id="Path_6134" data-name="Path 6134" d="M925.95,851.98v3.66l.266-.04v-3.62Z" transform="translate(-914.861 -851.223)" fill="#d17918"/>
                      <path id="Path_6135" data-name="Path 6135" d="M909.74,855.77l.266-.026V851.99h-.266v3.78Z" transform="translate(-899.669 -851.232)" fill="#d17918"/>
                      <path id="Path_6136" data-name="Path 6136" d="M889.19,851.971v3.856c.13,0,.26-.008.389-.014V851.97h-.389Z" transform="translate(-880.408 -851.213)" fill="#d17918"/>
                    </g>
                    <g id="Group_2757" data-name="Group 2757">
                      <path id="Path_6137" data-name="Path 6137" d="M757.406,795.988c-4.515,0-8.176-1.408-8.176-3.144s3.661-3.144,8.176-3.144,8.177,1.408,8.177,3.144S761.922,795.988,757.406,795.988Z" transform="translate(-749.23 -789.7)" fill="#ff931d"/>
                      <path id="Path_6138" data-name="Path 6138" d="M762.013,795.629c-.232.008-.466.013-.7.013-4.515,0-8.176-1.407-8.176-3.144,0-1.079,1.415-2.031,3.569-2.6-4.186.137-7.472,1.486-7.472,3.132,0,1.737,3.661,3.144,8.176,3.144A18.461,18.461,0,0,0,762.013,795.629Z" transform="translate(-749.23 -789.887)" fill="url(#linear-gradient)"/>
                      <path id="Path_6139" data-name="Path 6139" d="M765.669,795.857c-.134-1.692-3.739-3.047-8.17-3.047s-8.035,1.355-8.17,3.047c.134,1.691,3.739,3.046,8.17,3.046S765.535,797.547,765.669,795.857Zm-8.17,2.657h0c-3.669,0-6.655-1.148-6.655-2.559s2.985-2.559,6.655-2.559,6.656,1.148,6.656,2.559S761.17,798.514,757.5,798.514Z" transform="translate(-749.324 -792.615)" fill="#d17918"/>
                      <path id="Path_6140" data-name="Path 6140" d="M820.482,832.86l-3.162.909v.632l3.236-1a3.289,3.289,0,0,0,1.375.584c.048.011.1.019.146.029v.563h1.174v-.433c.256.011.5.013.7.008v.425h1.174v-1.691h-1.174v.816c-.2.007-.44.008-.7-.009v-.807h-1.174v.576a1.467,1.467,0,0,1-.678-.483l-.917-.121Z" transform="translate(-813.048 -830.152)" fill="#d17918"/>
                      <path id="Path_6141" data-name="Path 6141" d="M764.061,792.844c0,1.411-2.985,2.559-6.656,2.559s-6.655-1.148-6.655-2.559,2.985-2.559,6.655-2.559S764.061,791.433,764.061,792.844Zm1.521,0h0c0-1.736-3.661-3.144-8.177-3.144s-8.176,1.408-8.176,3.144,3.661,3.144,8.176,3.144S765.582,794.58,765.582,792.844Z" transform="translate(-749.23 -789.7)" fill="#ffbf21"/>
                      <g id="Group_2756" data-name="Group 2756" transform="translate(2.401 0.923)">
                        <path id="Path_6142" data-name="Path 6142" d="M787.49,806.631c0-1.225,2.591-2.221,5.775-2.221s5.776,1,5.776,2.221-2.591,2.221-5.776,2.221S787.49,807.856,787.49,806.631Zm11.3,0h0c0-1.171-2.477-2.123-5.522-2.123s-5.522.953-5.522,2.123,2.477,2.124,5.522,2.124S798.787,807.8,798.787,806.631Z" transform="translate(-787.49 -804.41)" fill="#ffbf21"/>
                      </g>
                      <path id="Path_6143" data-name="Path 6143" d="M820.482,826.12l-3.162.909v.631l3.236-1a3.289,3.289,0,0,0,1.375.584c.048.011.1.019.146.029v.563h1.174v-.433c.256.011.5.012.7.008v.425h1.174v-1.692h-1.174v.816c-.2.007-.44.008-.7-.009v-.807h-1.174v.576a1.472,1.472,0,0,1-.678-.483Z" transform="translate(-813.048 -823.835)" fill="#ffbf21"/>
                    </g>
                  </g>
                </g>
              </g>
            </g>
            <g id="Group_2768" data-name="Group 2768" transform="translate(25.3 9.433)">
              <g id="Group_2767" data-name="Group 2767">
                <g id="Group_2766" data-name="Group 2766">
                  <g id="Group_2765" data-name="Group 2765">
                    <path id="Path_6144" data-name="Path 6144" d="M749.23,791.185c0,1.736,3.661,3.144,8.176,3.144s8.177-1.408,8.177-3.144V789.7H749.231v1.485Z" transform="translate(-749.23 -786.556)" fill="#ff931d"/>
                    <g id="Group_2762" data-name="Group 2762" transform="translate(0 3.151)">
                      <path id="Path_6145" data-name="Path 6145" d="M867.13,801.861v3.851q.384.014.778.014V801.86h-.778Z" transform="translate(-859.732 -801.103)" fill="#d17918"/>
                      <path id="Path_6146" data-name="Path 6146" d="M842.01,801.87V805.6c.422.049.859.085,1.307.107V801.87Z" transform="translate(-836.188 -801.113)" fill="#d17918"/>
                      <path id="Path_6147" data-name="Path 6147" d="M754.728,794.25V789.8h-5.5v1.48C749.23,792.655,751.528,793.823,754.728,794.25Z" transform="translate(-749.23 -789.8)" fill="#d17918"/>
                      <path id="Path_6148" data-name="Path 6148" d="M925.95,801.87v3.66l.266-.04v-3.62Z" transform="translate(-914.861 -801.113)" fill="#d17918"/>
                      <path id="Path_6149" data-name="Path 6149" d="M909.74,805.65l.266-.026V801.87h-.266Z" transform="translate(-899.669 -801.113)" fill="#d17918"/>
                      <path id="Path_6150" data-name="Path 6150" d="M889.19,801.87v3.856c.13,0,.26-.008.389-.014V801.87Z" transform="translate(-880.408 -801.113)" fill="#d17918"/>
                    </g>
                    <g id="Group_2764" data-name="Group 2764">
                      <path id="Path_6151" data-name="Path 6151" d="M757.406,745.878c-4.515,0-8.176-1.407-8.176-3.144s3.661-3.144,8.176-3.144,8.177,1.407,8.177,3.144S761.922,745.878,757.406,745.878Z" transform="translate(-749.23 -739.59)" fill="#ff931d"/>
                      <path id="Path_6152" data-name="Path 6152" d="M762.013,745.51c-.232.008-.466.012-.7.012-4.515,0-8.176-1.407-8.176-3.144,0-1.079,1.415-2.032,3.569-2.6-4.186.137-7.472,1.486-7.472,3.132,0,1.737,3.661,3.144,8.176,3.144a18.461,18.461,0,0,0,4.607-.547Z" transform="translate(-749.23 -739.768)" fill="url(#linear-gradient-2)"/>
                      <path id="Path_6153" data-name="Path 6153" d="M765.669,745.747c-.134-1.691-3.739-3.047-8.17-3.047s-8.035,1.355-8.17,3.047c.134,1.691,3.739,3.046,8.17,3.046S765.535,747.437,765.669,745.747ZM757.5,748.4h0c-3.669,0-6.655-1.148-6.655-2.559s2.985-2.559,6.655-2.559,6.656,1.148,6.656,2.559S761.17,748.4,757.5,748.4Z" transform="translate(-749.324 -742.505)" fill="#d17918"/>
                      <path id="Path_6154" data-name="Path 6154" d="M820.482,782.741l-3.162.909v.631l3.236-1a3.3,3.3,0,0,0,1.375.583c.048.011.1.019.146.028v.563h1.174v-.433c.256.011.5.013.7.008v.425h1.174v-1.691h-1.174v.816c-.2.007-.44.007-.7-.009v-.807h-1.174v.576a1.468,1.468,0,0,1-.678-.483l-.917-.121Z" transform="translate(-813.048 -780.032)" fill="#d17918"/>
                      <path id="Path_6155" data-name="Path 6155" d="M764.061,742.734c0,1.411-2.985,2.559-6.656,2.559s-6.655-1.148-6.655-2.559,2.985-2.559,6.655-2.559S764.061,741.323,764.061,742.734Zm1.521,0h0c0-1.737-3.661-3.144-8.177-3.144s-8.176,1.407-8.176,3.144,3.661,3.144,8.176,3.144S765.582,744.471,765.582,742.734Z" transform="translate(-749.23 -739.59)" fill="#ffbf21"/>
                      <g id="Group_2763" data-name="Group 2763" transform="translate(2.401 0.923)">
                        <path id="Path_6156" data-name="Path 6156" d="M787.49,756.521c0-1.225,2.591-2.221,5.775-2.221s5.776,1,5.776,2.221-2.591,2.221-5.776,2.221S787.49,757.746,787.49,756.521Zm11.3,0h0c0-1.171-2.477-2.124-5.522-2.124s-5.522.953-5.522,2.124,2.477,2.123,5.522,2.123S798.787,757.692,798.787,756.521Z" transform="translate(-787.49 -754.3)" fill="#ffbf21"/>
                      </g>
                      <path id="Path_6157" data-name="Path 6157" d="M820.482,776.01l-3.162.909v.631l3.236-1a3.289,3.289,0,0,0,1.375.584l.146.029v.563h1.174V777.3c.256.011.5.012.7.008v.425h1.174v-1.692h-1.174v.817c-.2.007-.44.007-.7-.009v-.807h-1.174v.576a1.472,1.472,0,0,1-.678-.483l-.917-.12Z" transform="translate(-813.048 -773.725)" fill="#ffbf21"/>
                    </g>
                  </g>
                </g>
              </g>
            </g>
            <g id="Group_2775" data-name="Group 2775" transform="translate(25.3 6.288)">
              <g id="Group_2774" data-name="Group 2774">
                <g id="Group_2773" data-name="Group 2773">
                  <g id="Group_2772" data-name="Group 2772">
                    <path id="Path_6158" data-name="Path 6158" d="M749.23,741.075c0,1.736,3.661,3.144,8.176,3.144s8.177-1.408,8.177-3.144V739.59H749.231v1.485Z" transform="translate(-749.23 -736.446)" fill="#ff931d"/>
                    <g id="Group_2769" data-name="Group 2769" transform="translate(0 3.151)">
                      <path id="Path_6159" data-name="Path 6159" d="M867.13,751.76v3.851q.384.014.778.015V751.76Z" transform="translate(-859.732 -751.003)" fill="#d17918"/>
                      <path id="Path_6160" data-name="Path 6160" d="M842.01,751.76v3.733c.422.049.859.085,1.307.107V751.76Z" transform="translate(-836.188 -751.003)" fill="#d17918"/>
                      <path id="Path_6161" data-name="Path 6161" d="M754.728,744.14v-4.45h-5.5v1.48C749.23,742.545,751.528,743.713,754.728,744.14Z" transform="translate(-749.23 -739.69)" fill="#d17918"/>
                      <path id="Path_6162" data-name="Path 6162" d="M925.95,751.76v3.66c.089-.013.179-.026.266-.04v-3.62Z" transform="translate(-914.861 -751.003)" fill="#d17918"/>
                      <path id="Path_6163" data-name="Path 6163" d="M909.74,755.54l.266-.026V751.76h-.266Z" transform="translate(-899.669 -751.003)" fill="#d17918"/>
                      <path id="Path_6164" data-name="Path 6164" d="M889.19,751.76v3.856c.13,0,.26-.008.389-.014V751.76Z" transform="translate(-880.408 -751.003)" fill="#d17918"/>
                    </g>
                    <g id="Group_2771" data-name="Group 2771">
                      <path id="Path_6165" data-name="Path 6165" d="M757.406,695.768c-4.515,0-8.176-1.407-8.176-3.144s3.661-3.144,8.176-3.144,8.177,1.407,8.177,3.144S761.922,695.768,757.406,695.768Z" transform="translate(-749.23 -689.48)" fill="#ff931d"/>
                      <path id="Path_6166" data-name="Path 6166" d="M762.013,695.4c-.232.008-.466.012-.7.012-4.515,0-8.176-1.407-8.176-3.144,0-1.079,1.415-2.032,3.569-2.6-4.186.137-7.472,1.487-7.472,3.132,0,1.737,3.661,3.144,8.176,3.144a18.461,18.461,0,0,0,4.607-.547Z" transform="translate(-749.23 -689.658)" fill="url(#linear-gradient-3)"/>
                      <path id="Path_6167" data-name="Path 6167" d="M765.669,695.637c-.134-1.691-3.739-3.047-8.17-3.047s-8.035,1.356-8.17,3.047c.134,1.691,3.739,3.046,8.17,3.046S765.535,697.327,765.669,695.637Zm-8.17,2.657h0c-3.669,0-6.655-1.148-6.655-2.559s2.985-2.559,6.655-2.559,6.656,1.148,6.656,2.559S761.17,698.294,757.5,698.294Z" transform="translate(-749.324 -692.395)" fill="#d17918"/>
                      <path id="Path_6168" data-name="Path 6168" d="M820.482,732.631l-3.162.909v.632l3.236-1a3.3,3.3,0,0,0,1.375.583c.048.011.1.019.146.028v.563h1.174v-.433c.256.011.5.013.7.008v.425h1.174v-1.691h-1.174v.816c-.2.007-.44.008-.7-.009v-.807h-1.174v.576a1.471,1.471,0,0,1-.678-.482l-.917-.121Z" transform="translate(-813.048 -729.922)" fill="#d17918"/>
                      <path id="Path_6169" data-name="Path 6169" d="M764.061,692.624c0,1.411-2.985,2.559-6.656,2.559s-6.655-1.148-6.655-2.559,2.985-2.559,6.655-2.559S764.061,691.213,764.061,692.624Zm1.521,0h0c0-1.737-3.661-3.144-8.177-3.144s-8.176,1.407-8.176,3.144,3.661,3.144,8.176,3.144S765.582,694.361,765.582,692.624Z" transform="translate(-749.23 -689.48)" fill="#ffbf21"/>
                      <g id="Group_2770" data-name="Group 2770" transform="translate(2.401 0.923)">
                        <path id="Path_6170" data-name="Path 6170" d="M787.49,706.411c0-1.225,2.591-2.221,5.775-2.221s5.776,1,5.776,2.221-2.591,2.221-5.776,2.221S787.49,707.636,787.49,706.411Zm11.3,0h0c0-1.171-2.477-2.124-5.522-2.124s-5.522.953-5.522,2.124,2.477,2.123,5.522,2.123S798.787,707.582,798.787,706.411Z" transform="translate(-787.49 -704.19)" fill="#ffbf21"/>
                      </g>
                      <path id="Path_6171" data-name="Path 6171" d="M820.482,725.9l-3.162.909v.631l3.236-1a3.3,3.3,0,0,0,1.375.584c.048.011.1.019.146.029v.563h1.174v-.433c.256.011.5.012.7.008v.425h1.174v-1.692h-1.174v.817c-.2.007-.44.008-.7-.009v-.807h-1.174v.576a1.472,1.472,0,0,1-.678-.482l-.917-.12Z" transform="translate(-813.048 -723.615)" fill="#ffbf21"/>
                    </g>
                  </g>
                </g>
              </g>
            </g>
            <g id="Group_2782" data-name="Group 2782" transform="translate(25.3 3.144)">
              <g id="Group_2781" data-name="Group 2781">
                <g id="Group_2780" data-name="Group 2780">
                  <g id="Group_2779" data-name="Group 2779">
                    <path id="Path_6172" data-name="Path 6172" d="M749.23,690.965c0,1.736,3.661,3.144,8.176,3.144s8.177-1.408,8.177-3.144V689.48H749.231v1.485Z" transform="translate(-749.23 -686.336)" fill="#ff931d"/>
                    <g id="Group_2776" data-name="Group 2776" transform="translate(0 3.151)">
                      <path id="Path_6173" data-name="Path 6173" d="M867.13,701.631v3.851q.384.014.778.014V701.63h-.778Z" transform="translate(-859.732 -700.874)" fill="#d17918"/>
                      <path id="Path_6174" data-name="Path 6174" d="M842.01,701.64v3.733c.422.049.859.085,1.307.107v-3.839H842.01Z" transform="translate(-836.188 -700.883)" fill="#d17918"/>
                      <path id="Path_6175" data-name="Path 6175" d="M754.728,694.03v-4.45h-5.5v1.48C749.23,692.435,751.528,693.6,754.728,694.03Z" transform="translate(-749.23 -689.58)" fill="#d17918"/>
                      <path id="Path_6176" data-name="Path 6176" d="M925.95,701.64v3.66c.089-.013.179-.026.266-.04v-3.62Z" transform="translate(-914.861 -700.883)" fill="#d17918"/>
                      <path id="Path_6177" data-name="Path 6177" d="M909.74,705.43l.266-.026V701.65h-.266v3.78Z" transform="translate(-899.669 -700.893)" fill="#d17918"/>
                      <path id="Path_6178" data-name="Path 6178" d="M889.19,701.631v3.856c.13,0,.26-.008.389-.014V701.63h-.389Z" transform="translate(-880.408 -700.874)" fill="#d17918"/>
                    </g>
                    <g id="Group_2778" data-name="Group 2778">
                      <path id="Path_6179" data-name="Path 6179" d="M757.406,645.659c-4.515,0-8.176-1.408-8.176-3.144s3.661-3.144,8.176-3.144,8.177,1.408,8.177,3.144S761.922,645.659,757.406,645.659Z" transform="translate(-749.23 -639.37)" fill="#ff931d"/>
                      <path id="Path_6180" data-name="Path 6180" d="M762.013,645.3c-.232.008-.466.013-.7.013-4.515,0-8.176-1.407-8.176-3.144,0-1.079,1.415-2.031,3.569-2.6-4.186.137-7.472,1.486-7.472,3.132,0,1.736,3.661,3.144,8.176,3.144a18.461,18.461,0,0,0,4.607-.547Z" transform="translate(-749.23 -639.557)" fill="url(#linear-gradient-7)"/>
                      <path id="Path_6181" data-name="Path 6181" d="M765.669,645.527c-.134-1.692-3.739-3.047-8.17-3.047s-8.035,1.355-8.17,3.047c.134,1.691,3.739,3.046,8.17,3.046S765.535,647.217,765.669,645.527Zm-8.17,2.657h0c-3.669,0-6.655-1.148-6.655-2.559s2.985-2.559,6.655-2.559,6.656,1.148,6.656,2.559S761.17,648.184,757.5,648.184Z" transform="translate(-749.324 -642.285)" fill="#d17918"/>
                      <path id="Path_6182" data-name="Path 6182" d="M820.482,682.52l-3.162.909v.632l3.236-1a3.289,3.289,0,0,0,1.375.584c.048.011.1.019.146.029v.563h1.174v-.433c.256.011.5.013.7.008v.425h1.174v-1.691h-1.174v.816c-.2.007-.44.008-.7-.009v-.807h-1.174v.576a1.47,1.47,0,0,1-.678-.482l-.917-.121Z" transform="translate(-813.048 -679.813)" fill="#d17918"/>
                      <path id="Path_6183" data-name="Path 6183" d="M764.061,642.514c0,1.411-2.985,2.559-6.656,2.559s-6.655-1.148-6.655-2.559,2.985-2.559,6.655-2.559S764.061,641.1,764.061,642.514Zm1.521,0h0c0-1.737-3.661-3.144-8.177-3.144s-8.176,1.408-8.176,3.144,3.661,3.144,8.176,3.144S765.582,644.25,765.582,642.514Z" transform="translate(-749.23 -639.37)" fill="#ffbf21"/>
                      <g id="Group_2777" data-name="Group 2777" transform="translate(2.401 0.923)">
                        <path id="Path_6184" data-name="Path 6184" d="M787.49,656.3c0-1.225,2.591-2.221,5.775-2.221s5.776,1,5.776,2.221-2.591,2.221-5.776,2.221S787.49,657.526,787.49,656.3Zm11.3,0h0c0-1.171-2.477-2.124-5.522-2.124s-5.522.953-5.522,2.124,2.477,2.123,5.522,2.123S798.787,657.472,798.787,656.3Z" transform="translate(-787.49 -654.08)" fill="#ffbf21"/>
                      </g>
                      <path id="Path_6185" data-name="Path 6185" d="M820.482,675.78l-3.162.909v.631l3.236-1a3.288,3.288,0,0,0,1.375.584c.048.011.1.019.146.029v.563h1.174v-.433c.256.011.5.012.7.008v.425h1.174v-1.692h-1.174v.816c-.2.007-.44.008-.7-.009v-.807h-1.174v.576a1.472,1.472,0,0,1-.678-.483Z" transform="translate(-813.048 -673.495)" fill="#ffbf21"/>
                    </g>
                  </g>
                </g>
              </g>
            </g>
            <g id="Group_2789" data-name="Group 2789" transform="translate(25.3)">
              <g id="Group_2788" data-name="Group 2788">
                <g id="Group_2787" data-name="Group 2787">
                  <g id="Group_2786" data-name="Group 2786">
                    <path id="Path_6186" data-name="Path 6186" d="M749.23,640.855c0,1.736,3.661,3.144,8.176,3.144s8.177-1.408,8.177-3.144V639.37H749.231v1.485Z" transform="translate(-749.23 -636.226)" fill="#ff931d"/>
                    <g id="Group_2783" data-name="Group 2783" transform="translate(0 3.15)">
                      <path id="Path_6187" data-name="Path 6187" d="M867.13,651.521v3.851q.384.014.778.014V651.52h-.778Z" transform="translate(-859.732 -650.763)" fill="#d17918"/>
                      <path id="Path_6188" data-name="Path 6188" d="M842.01,651.53v3.733c.422.049.859.085,1.307.107v-3.839H842.01Z" transform="translate(-836.188 -650.773)" fill="#d17918"/>
                      <path id="Path_6189" data-name="Path 6189" d="M754.728,643.91v-4.45h-5.5v1.48C749.23,642.315,751.528,643.484,754.728,643.91Z" transform="translate(-749.23 -639.46)" fill="#d17918"/>
                      <path id="Path_6190" data-name="Path 6190" d="M925.95,651.53v3.66l.266-.04v-3.62Z" transform="translate(-914.861 -650.773)" fill="#d17918"/>
                      <path id="Path_6191" data-name="Path 6191" d="M909.74,655.32l.266-.026V651.54h-.266v3.781Z" transform="translate(-899.669 -650.782)" fill="#d17918"/>
                      <path id="Path_6192" data-name="Path 6192" d="M889.19,651.521v3.856c.13,0,.26-.008.389-.014V651.52h-.389Z" transform="translate(-880.408 -650.763)" fill="#d17918"/>
                    </g>
                    <g id="Group_2785" data-name="Group 2785">
                      <path id="Path_6193" data-name="Path 6193" d="M757.406,595.548c-4.515,0-8.176-1.408-8.176-3.144s3.661-3.144,8.176-3.144,8.177,1.407,8.177,3.144S761.922,595.548,757.406,595.548Z" transform="translate(-749.23 -589.26)" fill="#ff931d"/>
                      <path id="Path_6194" data-name="Path 6194" d="M762.013,595.179c-.232.007-.466.013-.7.013-4.515,0-8.176-1.407-8.176-3.144,0-1.079,1.415-2.031,3.569-2.6-4.186.137-7.472,1.487-7.472,3.132,0,1.737,3.661,3.144,8.176,3.144a18.428,18.428,0,0,0,4.607-.547Z" transform="translate(-749.23 -589.438)" fill="url(#linear-gradient-3)"/>
                      <path id="Path_6195" data-name="Path 6195" d="M765.669,595.407c-.134-1.691-3.739-3.047-8.17-3.047s-8.035,1.355-8.17,3.047c.134,1.691,3.739,3.047,8.17,3.047S765.535,597.1,765.669,595.407Zm-8.17,2.657h0c-3.669,0-6.655-1.148-6.655-2.559s2.985-2.559,6.655-2.559,6.656,1.148,6.656,2.559S761.17,598.064,757.5,598.064Z" transform="translate(-749.324 -592.165)" fill="#d17918"/>
                      <path id="Path_6196" data-name="Path 6196" d="M820.482,632.41l-3.162.909v.632l3.236-1a3.29,3.29,0,0,0,1.375.584c.048.011.1.019.146.028v.563h1.174V633.7c.256.011.5.013.7.008v.425h1.174v-1.691h-1.174v.816c-.2.007-.44.007-.7-.009v-.807h-1.174v.576a1.468,1.468,0,0,1-.678-.483Z" transform="translate(-813.048 -629.702)" fill="#d17918"/>
                      <path id="Path_6197" data-name="Path 6197" d="M764.061,592.4c0,1.411-2.985,2.559-6.656,2.559s-6.655-1.148-6.655-2.559,2.985-2.559,6.655-2.559S764.061,590.993,764.061,592.4Zm1.521,0h0c0-1.737-3.661-3.144-8.177-3.144s-8.176,1.407-8.176,3.144,3.661,3.144,8.176,3.144S765.582,594.14,765.582,592.4Z" transform="translate(-749.23 -589.26)" fill="#ffbf21"/>
                      <g id="Group_2784" data-name="Group 2784" transform="translate(2.401 0.923)">
                        <path id="Path_6198" data-name="Path 6198" d="M787.49,606.191c0-1.225,2.591-2.221,5.775-2.221s5.776,1,5.776,2.221-2.591,2.221-5.776,2.221S787.49,607.416,787.49,606.191Zm11.3,0h0c0-1.171-2.477-2.124-5.522-2.124s-5.522.953-5.522,2.124,2.477,2.123,5.522,2.123S798.787,607.362,798.787,606.191Z" transform="translate(-787.49 -603.97)" fill="#ffbf21"/>
                      </g>
                      <path id="Path_6199" data-name="Path 6199" d="M820.482,625.67l-3.162.909v.631l3.236-1a3.289,3.289,0,0,0,1.375.584c.048.011.1.019.146.029v.563h1.174v-.433c.256.011.5.012.7.008v.425h1.174V625.7h-1.174v.817c-.2.007-.44.008-.7-.009V625.7h-1.174v.576a1.472,1.472,0,0,1-.678-.483l-.917-.12Z" transform="translate(-813.048 -623.385)" fill="#ffbf21"/>
                    </g>
                  </g>
                </g>
              </g>
            </g>
            <g id="Group_2796" data-name="Group 2796" transform="translate(17.91 22.079)">
              <g id="Group_2795" data-name="Group 2795">
                <g id="Group_2794" data-name="Group 2794">
                  <g id="Group_2793" data-name="Group 2793">
                    <path id="Path_6200" data-name="Path 6200" d="M631.46,992.735c0,1.736,3.661,3.144,8.176,3.144s8.177-1.408,8.177-3.144V991.25H631.461v1.485Z" transform="translate(-631.459 -988.106)" fill="#ff931d"/>
                    <g id="Group_2790" data-name="Group 2790" transform="translate(0.001 3.151)">
                      <path id="Path_6201" data-name="Path 6201" d="M749.36,1003.411v3.851q.384.014.778.014v-3.866h-.778Z" transform="translate(-741.962 -1002.653)" fill="#d17918"/>
                      <path id="Path_6202" data-name="Path 6202" d="M724.24,1003.42v3.733c.422.049.859.085,1.307.107v-3.839H724.24Z" transform="translate(-718.418 -1002.663)" fill="#d17918"/>
                      <path id="Path_6203" data-name="Path 6203" d="M636.958,995.8v-4.45h-5.5v1.48C631.46,994.205,633.758,995.374,636.958,995.8Z" transform="translate(-631.46 -991.35)" fill="#d17918"/>
                      <path id="Path_6204" data-name="Path 6204" d="M808.18,1003.42v3.66l.266-.04v-3.62Z" transform="translate(-797.091 -1002.663)" fill="#d17918"/>
                      <path id="Path_6205" data-name="Path 6205" d="M791.96,1007.2l.266-.026v-3.754h-.266v3.78Z" transform="translate(-781.889 -1002.663)" fill="#d17918"/>
                      <path id="Path_6206" data-name="Path 6206" d="M771.42,1003.411v3.856c.131,0,.26-.008.389-.014v-3.843h-.389Z" transform="translate(-762.638 -1002.653)" fill="#d17918"/>
                    </g>
                    <g id="Group_2792" data-name="Group 2792">
                      <path id="Path_6207" data-name="Path 6207" d="M639.636,947.428c-4.515,0-8.176-1.408-8.176-3.144s3.661-3.144,8.176-3.144,8.177,1.408,8.177,3.144S644.152,947.428,639.636,947.428Z" transform="translate(-631.459 -941.14)" fill="#ff931d"/>
                      <path id="Path_6208" data-name="Path 6208" d="M644.243,947.069c-.232.008-.466.013-.7.013-4.515,0-8.176-1.407-8.176-3.144,0-1.079,1.415-2.031,3.569-2.6-4.186.137-7.472,1.486-7.472,3.132,0,1.737,3.661,3.144,8.176,3.144A18.461,18.461,0,0,0,644.243,947.069Z" transform="translate(-631.459 -941.327)" fill="url(#linear-gradient)"/>
                      <path id="Path_6209" data-name="Path 6209" d="M647.909,947.3c-.134-1.692-3.739-3.047-8.17-3.047s-8.035,1.355-8.169,3.047c.134,1.691,3.739,3.046,8.169,3.046S647.774,948.987,647.909,947.3Zm-8.17,2.657h0c-3.669,0-6.655-1.148-6.655-2.559s2.985-2.559,6.655-2.559,6.656,1.148,6.656,2.559S643.409,949.954,639.739,949.954Z" transform="translate(-631.563 -944.055)" fill="#d17918"/>
                      <path id="Path_6210" data-name="Path 6210" d="M702.712,984.29l-3.162.909v.632l3.237-1a3.287,3.287,0,0,0,1.375.583c.048.011.1.019.146.029v.563h1.174v-.433c.256.011.5.013.7.008v.425h1.174v-1.691h-1.174v.816c-.2.007-.44.008-.7-.009v-.807h-1.174v.576a1.468,1.468,0,0,1-.678-.482l-.917-.121Z" transform="translate(-695.277 -981.582)" fill="#d17918"/>
                      <path id="Path_6211" data-name="Path 6211" d="M646.281,944.284c0,1.411-2.985,2.559-6.656,2.559s-6.655-1.148-6.655-2.559,2.985-2.559,6.655-2.559S646.281,942.873,646.281,944.284Zm1.521,0h0c0-1.736-3.661-3.144-8.177-3.144s-8.176,1.408-8.176,3.144,3.661,3.144,8.176,3.144S647.8,946.02,647.8,944.284Z" transform="translate(-631.45 -941.14)" fill="#ffbf21"/>
                      <g id="Group_2791" data-name="Group 2791" transform="translate(2.401 0.923)">
                        <path id="Path_6212" data-name="Path 6212" d="M669.72,958.071c0-1.225,2.591-2.221,5.775-2.221s5.776,1,5.776,2.221-2.591,2.221-5.776,2.221S669.72,959.3,669.72,958.071Zm11.3,0h0c0-1.171-2.477-2.123-5.522-2.123s-5.522.952-5.522,2.123,2.477,2.124,5.522,2.124S681.018,959.243,681.018,958.071Z" transform="translate(-669.72 -955.85)" fill="#ffbf21"/>
                      </g>
                      <path id="Path_6213" data-name="Path 6213" d="M702.712,977.56l-3.162.909v.631l3.237-1a3.289,3.289,0,0,0,1.375.583c.048.011.1.019.146.029v.563h1.174v-.433c.256.011.5.012.7.008v.425h1.174v-1.692h-1.174v.816c-.2.007-.44.008-.7-.009v-.807h-1.174v.576a1.471,1.471,0,0,1-.678-.482Z" transform="translate(-695.277 -975.275)" fill="#ffbf21"/>
                    </g>
                  </g>
                </g>
              </g>
            </g>
            <g id="Group_2803" data-name="Group 2803" transform="translate(17.91 18.935)">
              <g id="Group_2802" data-name="Group 2802">
                <g id="Group_2801" data-name="Group 2801">
                  <g id="Group_2800" data-name="Group 2800">
                    <path id="Path_6214" data-name="Path 6214" d="M631.46,942.625c0,1.736,3.661,3.144,8.176,3.144s8.177-1.408,8.177-3.144V941.14H631.461v1.485Z" transform="translate(-631.459 -937.996)" fill="#ff931d"/>
                    <g id="Group_2797" data-name="Group 2797" transform="translate(0.001 3.151)">
                      <path id="Path_6215" data-name="Path 6215" d="M749.36,953.3v3.851q.384.014.778.014V953.3h-.778Z" transform="translate(-741.962 -952.543)" fill="#d17918"/>
                      <path id="Path_6216" data-name="Path 6216" d="M724.24,953.31v3.733c.422.049.859.085,1.307.107V953.31Z" transform="translate(-718.418 -952.553)" fill="#d17918"/>
                      <path id="Path_6217" data-name="Path 6217" d="M636.958,945.69v-4.45h-5.5v1.48C631.46,944.095,633.758,945.263,636.958,945.69Z" transform="translate(-631.46 -941.24)" fill="#d17918"/>
                      <path id="Path_6218" data-name="Path 6218" d="M808.18,953.31v3.66l.266-.04v-3.62Z" transform="translate(-797.091 -952.553)" fill="#d17918"/>
                      <path id="Path_6219" data-name="Path 6219" d="M791.96,957.08l.266-.026V953.3h-.266Z" transform="translate(-781.889 -952.543)" fill="#d17918"/>
                      <path id="Path_6220" data-name="Path 6220" d="M771.42,953.31v3.856c.131,0,.26-.008.389-.014V953.31Z" transform="translate(-762.638 -952.553)" fill="#d17918"/>
                    </g>
                    <g id="Group_2799" data-name="Group 2799">
                      <path id="Path_6221" data-name="Path 6221" d="M639.636,897.318c-4.515,0-8.176-1.407-8.176-3.144s3.661-3.144,8.176-3.144,8.177,1.407,8.177,3.144S644.152,897.318,639.636,897.318Z" transform="translate(-631.459 -891.03)" fill="#ff931d"/>
                      <path id="Path_6222" data-name="Path 6222" d="M644.243,896.95c-.232.008-.466.012-.7.012-4.515,0-8.176-1.407-8.176-3.144,0-1.079,1.415-2.032,3.569-2.6-4.186.137-7.472,1.486-7.472,3.132,0,1.737,3.661,3.144,8.176,3.144a18.461,18.461,0,0,0,4.607-.547Z" transform="translate(-631.459 -891.208)" fill="url(#linear-gradient-2)"/>
                      <path id="Path_6223" data-name="Path 6223" d="M647.909,897.177c-.134-1.691-3.739-3.047-8.17-3.047s-8.035,1.355-8.169,3.047c.134,1.691,3.739,3.046,8.169,3.046S647.774,898.867,647.909,897.177Zm-8.17,2.657h0c-3.669,0-6.655-1.148-6.655-2.559s2.985-2.559,6.655-2.559,6.656,1.148,6.656,2.559S643.409,899.834,639.739,899.834Z" transform="translate(-631.563 -893.935)" fill="#d17918"/>
                      <path id="Path_6224" data-name="Path 6224" d="M702.712,934.171l-3.162.909v.631l3.237-1a3.3,3.3,0,0,0,1.375.584c.048.011.1.019.146.028v.563h1.174v-.433c.256.011.5.013.7.008v.425h1.174V934.2h-1.174v.816c-.2.007-.44.007-.7-.009V934.2h-1.174v.576a1.467,1.467,0,0,1-.678-.483l-.917-.121Z" transform="translate(-695.277 -931.463)" fill="#d17918"/>
                      <path id="Path_6225" data-name="Path 6225" d="M646.281,894.174c0,1.411-2.985,2.559-6.656,2.559s-6.655-1.148-6.655-2.559,2.985-2.559,6.655-2.559S646.281,892.763,646.281,894.174Zm1.521,0h0c0-1.737-3.661-3.144-8.177-3.144s-8.176,1.407-8.176,3.144,3.661,3.144,8.176,3.144S647.8,895.911,647.8,894.174Z" transform="translate(-631.45 -891.03)" fill="#ffbf21"/>
                      <g id="Group_2798" data-name="Group 2798" transform="translate(2.401 0.923)">
                        <path id="Path_6226" data-name="Path 6226" d="M669.72,907.961c0-1.225,2.591-2.221,5.775-2.221s5.776,1,5.776,2.221-2.591,2.221-5.776,2.221S669.72,909.186,669.72,907.961Zm11.3,0h0c0-1.171-2.477-2.124-5.522-2.124s-5.522.952-5.522,2.124,2.477,2.123,5.522,2.123S681.018,909.132,681.018,907.961Z" transform="translate(-669.72 -905.74)" fill="#ffbf21"/>
                      </g>
                      <path id="Path_6227" data-name="Path 6227" d="M702.712,927.45l-3.162.909v.631l3.237-1a3.288,3.288,0,0,0,1.375.584c.048.011.1.019.146.029v.563h1.174v-.433c.256.011.5.012.7.008v.425h1.174v-1.692h-1.174v.817c-.2.007-.44.008-.7-.009v-.807h-1.174v.576a1.472,1.472,0,0,1-.678-.483l-.917-.12Z" transform="translate(-695.277 -925.165)" fill="#ffbf21"/>
                    </g>
                  </g>
                </g>
              </g>
            </g>
            <g id="Group_2810" data-name="Group 2810" transform="translate(17.91 15.791)">
              <g id="Group_2809" data-name="Group 2809">
                <g id="Group_2808" data-name="Group 2808">
                  <g id="Group_2807" data-name="Group 2807">
                    <path id="Path_6228" data-name="Path 6228" d="M631.46,892.515c0,1.736,3.661,3.144,8.176,3.144s8.177-1.408,8.177-3.144V891.03H631.461v1.485Z" transform="translate(-631.459 -887.886)" fill="#ff931d"/>
                    <g id="Group_2804" data-name="Group 2804" transform="translate(0.001 3.15)">
                      <path id="Path_6229" data-name="Path 6229" d="M749.36,903.2v3.851q.384.014.778.014V903.2Z" transform="translate(-741.962 -902.442)" fill="#d17918"/>
                      <path id="Path_6230" data-name="Path 6230" d="M724.24,903.2v3.733c.422.049.859.085,1.307.107V903.2Z" transform="translate(-718.418 -902.442)" fill="#d17918"/>
                      <path id="Path_6231" data-name="Path 6231" d="M636.958,895.57v-4.45h-5.5v1.48C631.46,893.975,633.758,895.143,636.958,895.57Z" transform="translate(-631.46 -891.12)" fill="#d17918"/>
                      <path id="Path_6232" data-name="Path 6232" d="M808.18,903.2v3.66c.089-.013.179-.026.266-.04V903.2Z" transform="translate(-797.091 -902.442)" fill="#d17918"/>
                      <path id="Path_6233" data-name="Path 6233" d="M791.96,906.971l.266-.026V903.19h-.266Z" transform="translate(-781.889 -902.433)" fill="#d17918"/>
                      <path id="Path_6234" data-name="Path 6234" d="M771.42,903.2v3.856c.131,0,.26-.008.389-.014V903.2Z" transform="translate(-762.638 -902.442)" fill="#d17918"/>
                    </g>
                    <g id="Group_2806" data-name="Group 2806">
                      <path id="Path_6235" data-name="Path 6235" d="M639.636,847.208c-4.515,0-8.176-1.407-8.176-3.144s3.661-3.144,8.176-3.144,8.177,1.407,8.177,3.144S644.152,847.208,639.636,847.208Z" transform="translate(-631.459 -840.92)" fill="#ff931d"/>
                      <path id="Path_6236" data-name="Path 6236" d="M644.243,846.84c-.232.008-.466.012-.7.012-4.515,0-8.176-1.407-8.176-3.144,0-1.079,1.415-2.032,3.569-2.6-4.186.137-7.472,1.486-7.472,3.132,0,1.737,3.661,3.144,8.176,3.144A18.461,18.461,0,0,0,644.243,846.84Z" transform="translate(-631.459 -841.098)" fill="url(#linear-gradient)"/>
                      <path id="Path_6237" data-name="Path 6237" d="M647.909,847.067c-.134-1.691-3.739-3.047-8.17-3.047s-8.035,1.356-8.169,3.047c.134,1.691,3.739,3.046,8.169,3.046S647.774,848.757,647.909,847.067Zm-8.17,2.657h0c-3.669,0-6.655-1.148-6.655-2.559s2.985-2.559,6.655-2.559,6.656,1.148,6.656,2.559S643.409,849.724,639.739,849.724Z" transform="translate(-631.563 -843.826)" fill="#d17918"/>
                      <path id="Path_6238" data-name="Path 6238" d="M702.712,884.061l-3.162.909v.632l3.237-1a3.3,3.3,0,0,0,1.375.584c.048.011.1.019.146.028v.563h1.174v-.433c.256.011.5.013.7.008v.425h1.174v-1.691h-1.174v.816c-.2.007-.44.008-.7-.009v-.807h-1.174v.576a1.472,1.472,0,0,1-.678-.483l-.917-.121Z" transform="translate(-695.277 -881.353)" fill="#d17918"/>
                      <path id="Path_6239" data-name="Path 6239" d="M646.281,844.064c0,1.411-2.985,2.559-6.656,2.559s-6.655-1.148-6.655-2.559,2.985-2.559,6.655-2.559S646.281,842.653,646.281,844.064Zm1.521,0h0c0-1.737-3.661-3.144-8.177-3.144s-8.176,1.407-8.176,3.144,3.661,3.144,8.176,3.144S647.8,845.8,647.8,844.064Z" transform="translate(-631.45 -840.92)" fill="#ffbf21"/>
                      <g id="Group_2805" data-name="Group 2805" transform="translate(2.401 0.923)">
                        <path id="Path_6240" data-name="Path 6240" d="M669.72,857.851c0-1.225,2.591-2.221,5.775-2.221s5.776,1,5.776,2.221-2.591,2.221-5.776,2.221S669.72,859.076,669.72,857.851Zm11.3,0h0c0-1.171-2.477-2.124-5.522-2.124s-5.522.952-5.522,2.124,2.477,2.123,5.522,2.123S681.018,859.022,681.018,857.851Z" transform="translate(-669.72 -855.63)" fill="#ffbf21"/>
                      </g>
                      <path id="Path_6241" data-name="Path 6241" d="M702.712,877.34l-3.162.909v.631l3.237-1a3.3,3.3,0,0,0,1.375.584c.048.011.1.019.146.029v.563h1.174v-.433c.256.011.5.012.7.008v.425h1.174v-1.692h-1.174v.817c-.2.007-.44.008-.7-.009v-.807h-1.174v.576a1.471,1.471,0,0,1-.678-.482l-.917-.12Z" transform="translate(-695.277 -875.055)" fill="#ffbf21"/>
                    </g>
                  </g>
                </g>
              </g>
            </g>
            <g id="Group_2817" data-name="Group 2817" transform="translate(17.91 12.647)">
              <g id="Group_2816" data-name="Group 2816">
                <g id="Group_2815" data-name="Group 2815">
                  <g id="Group_2814" data-name="Group 2814">
                    <path id="Path_6242" data-name="Path 6242" d="M631.46,842.405c0,1.736,3.661,3.144,8.176,3.144s8.177-1.408,8.177-3.144V840.92H631.461v1.485Z" transform="translate(-631.459 -837.776)" fill="#ff931d"/>
                    <g id="Group_2811" data-name="Group 2811" transform="translate(0.001 3.15)">
                      <path id="Path_6243" data-name="Path 6243" d="M749.36,853.071v3.851q.384.014.778.014V853.07h-.778Z" transform="translate(-741.962 -852.313)" fill="#d17918"/>
                      <path id="Path_6244" data-name="Path 6244" d="M724.24,853.08v3.733c.422.049.859.085,1.307.107v-3.839H724.24Z" transform="translate(-718.418 -852.323)" fill="#d17918"/>
                      <path id="Path_6245" data-name="Path 6245" d="M636.958,845.46v-4.45h-5.5v1.48c0,1.375,2.3,2.544,5.5,2.97Z" transform="translate(-631.46 -841.01)" fill="#d17918"/>
                      <path id="Path_6246" data-name="Path 6246" d="M808.18,853.08v3.66c.089-.013.179-.026.266-.04v-3.62Z" transform="translate(-797.091 -852.323)" fill="#d17918"/>
                      <path id="Path_6247" data-name="Path 6247" d="M791.96,856.87l.266-.026V853.09h-.266v3.78Z" transform="translate(-781.889 -852.332)" fill="#d17918"/>
                      <path id="Path_6248" data-name="Path 6248" d="M771.42,853.071v3.856c.131,0,.26-.008.389-.014V853.07h-.389Z" transform="translate(-762.638 -852.313)" fill="#d17918"/>
                    </g>
                    <g id="Group_2813" data-name="Group 2813">
                      <path id="Path_6249" data-name="Path 6249" d="M639.636,797.1c-4.515,0-8.176-1.408-8.176-3.144s3.661-3.144,8.176-3.144,8.177,1.408,8.177,3.144S644.152,797.1,639.636,797.1Z" transform="translate(-631.459 -790.81)" fill="#ff931d"/>
                      <path id="Path_6250" data-name="Path 6250" d="M644.243,796.729c-.232.008-.466.013-.7.013-4.515,0-8.176-1.407-8.176-3.144,0-1.079,1.415-2.031,3.569-2.6-4.186.137-7.472,1.486-7.472,3.132,0,1.736,3.661,3.144,8.176,3.144A18.431,18.431,0,0,0,644.243,796.729Z" transform="translate(-631.459 -790.988)" fill="url(#linear-gradient)"/>
                      <path id="Path_6251" data-name="Path 6251" d="M647.909,796.957c-.134-1.692-3.739-3.047-8.17-3.047s-8.035,1.355-8.169,3.047c.134,1.691,3.739,3.046,8.169,3.046S647.774,798.647,647.909,796.957Zm-8.17,2.657h0c-3.669,0-6.655-1.148-6.655-2.559s2.985-2.559,6.655-2.559,6.656,1.148,6.656,2.559S643.409,799.614,639.739,799.614Z" transform="translate(-631.563 -793.715)" fill="#d17918"/>
                      <path id="Path_6252" data-name="Path 6252" d="M702.712,833.96l-3.162.909v.632l3.237-1a3.289,3.289,0,0,0,1.375.583c.048.011.1.019.146.029v.563h1.174v-.433c.256.011.5.013.7.008v.425h1.174v-1.691h-1.174v.816c-.2.007-.44.008-.7-.009v-.807h-1.174v.576a1.467,1.467,0,0,1-.678-.483l-.917-.121Z" transform="translate(-695.277 -831.253)" fill="#d17918"/>
                      <path id="Path_6253" data-name="Path 6253" d="M646.281,793.954c0,1.411-2.985,2.559-6.656,2.559s-6.655-1.148-6.655-2.559,2.985-2.559,6.655-2.559S646.281,792.543,646.281,793.954Zm1.521,0h0c0-1.737-3.661-3.144-8.177-3.144s-8.176,1.408-8.176,3.144,3.661,3.144,8.176,3.144S647.8,795.69,647.8,793.954Z" transform="translate(-631.45 -790.81)" fill="#ffbf21"/>
                      <g id="Group_2812" data-name="Group 2812" transform="translate(2.401 0.923)">
                        <path id="Path_6254" data-name="Path 6254" d="M669.72,807.741c0-1.225,2.591-2.221,5.775-2.221s5.776,1,5.776,2.221-2.591,2.221-5.776,2.221S669.72,808.966,669.72,807.741Zm11.3,0h0c0-1.171-2.477-2.124-5.522-2.124s-5.522.953-5.522,2.124,2.477,2.123,5.522,2.123S681.018,808.912,681.018,807.741Z" transform="translate(-669.72 -805.52)" fill="#ffbf21"/>
                      </g>
                      <path id="Path_6255" data-name="Path 6255" d="M702.712,827.22l-3.162.909v.631l3.237-1a3.287,3.287,0,0,0,1.375.584c.048.011.1.019.146.029v.563h1.174v-.433c.256.011.5.012.7.008v.425h1.174v-1.692h-1.174v.816c-.2.007-.44.008-.7-.009v-.807h-1.174v.576a1.472,1.472,0,0,1-.678-.483Z" transform="translate(-695.277 -824.935)" fill="#ffbf21"/>
                    </g>
                  </g>
                </g>
              </g>
            </g>
            <g id="Group_2824" data-name="Group 2824" transform="translate(17.91 9.502)">
              <g id="Group_2823" data-name="Group 2823">
                <g id="Group_2822" data-name="Group 2822">
                  <g id="Group_2821" data-name="Group 2821">
                    <path id="Path_6256" data-name="Path 6256" d="M631.46,792.3c0,1.736,3.661,3.144,8.176,3.144s8.177-1.408,8.177-3.144V790.81H631.461V792.3Z" transform="translate(-631.459 -787.665)" fill="#ff931d"/>
                    <g id="Group_2818" data-name="Group 2818" transform="translate(0.001 3.151)">
                      <path id="Path_6257" data-name="Path 6257" d="M749.36,802.961v3.851q.384.014.778.014V802.96h-.778Z" transform="translate(-741.962 -802.203)" fill="#d17918"/>
                      <path id="Path_6258" data-name="Path 6258" d="M724.24,802.97V806.7c.422.049.859.085,1.307.107v-3.839H724.24Z" transform="translate(-718.418 -802.213)" fill="#d17918"/>
                      <path id="Path_6259" data-name="Path 6259" d="M636.958,795.35V790.9h-5.5v1.48C631.46,793.755,633.758,794.924,636.958,795.35Z" transform="translate(-631.46 -790.9)" fill="#d17918"/>
                      <path id="Path_6260" data-name="Path 6260" d="M808.18,802.97v3.66l.266-.04v-3.62Z" transform="translate(-797.091 -802.213)" fill="#d17918"/>
                      <path id="Path_6261" data-name="Path 6261" d="M791.96,806.76l.266-.026V802.98h-.266v3.78Z" transform="translate(-781.889 -802.222)" fill="#d17918"/>
                      <path id="Path_6262" data-name="Path 6262" d="M771.42,802.961v3.856c.131,0,.26-.008.389-.014V802.96h-.389Z" transform="translate(-762.638 -802.203)" fill="#d17918"/>
                    </g>
                    <g id="Group_2820" data-name="Group 2820">
                      <path id="Path_6263" data-name="Path 6263" d="M639.636,746.988c-4.515,0-8.176-1.408-8.176-3.144s3.661-3.144,8.176-3.144,8.177,1.407,8.177,3.144S644.152,746.988,639.636,746.988Z" transform="translate(-631.459 -740.699)" fill="#ff931d"/>
                      <path id="Path_6264" data-name="Path 6264" d="M644.243,746.619c-.232.008-.466.013-.7.013-4.515,0-8.176-1.407-8.176-3.144,0-1.079,1.415-2.031,3.569-2.6-4.186.137-7.472,1.486-7.472,3.132,0,1.737,3.661,3.144,8.176,3.144A18.461,18.461,0,0,0,644.243,746.619Z" transform="translate(-631.459 -740.877)" fill="url(#linear-gradient-3)"/>
                      <path id="Path_6265" data-name="Path 6265" d="M647.909,746.847c-.134-1.691-3.739-3.047-8.17-3.047s-8.035,1.355-8.169,3.047c.134,1.691,3.739,3.047,8.169,3.047S647.774,748.538,647.909,746.847Zm-8.17,2.657h0c-3.669,0-6.655-1.148-6.655-2.559s2.985-2.559,6.655-2.559,6.656,1.148,6.656,2.559S643.409,749.5,639.739,749.5Z" transform="translate(-631.563 -743.605)" fill="#d17918"/>
                      <path id="Path_6266" data-name="Path 6266" d="M702.712,783.85l-3.162.909v.632l3.237-1a3.288,3.288,0,0,0,1.375.584c.048.011.1.019.146.028v.563h1.174v-.433c.256.011.5.013.7.008v.425h1.174v-1.691h-1.174v.816c-.2.007-.44.007-.7-.009v-.807h-1.174v.576a1.467,1.467,0,0,1-.678-.483Z" transform="translate(-695.277 -781.142)" fill="#d17918"/>
                      <path id="Path_6267" data-name="Path 6267" d="M646.281,743.834c0,1.411-2.985,2.559-6.656,2.559s-6.655-1.148-6.655-2.559,2.985-2.559,6.655-2.559S646.281,742.423,646.281,743.834Zm1.521,0h0c0-1.737-3.661-3.144-8.177-3.144s-8.176,1.407-8.176,3.144,3.661,3.144,8.176,3.144S647.8,745.57,647.8,743.834Z" transform="translate(-631.45 -740.69)" fill="#ffbf21"/>
                      <g id="Group_2819" data-name="Group 2819" transform="translate(2.401 0.923)">
                        <path id="Path_6268" data-name="Path 6268" d="M669.72,757.621c0-1.225,2.591-2.221,5.775-2.221s5.776,1,5.776,2.221-2.591,2.221-5.776,2.221S669.72,758.846,669.72,757.621Zm11.3,0h0c0-1.171-2.477-2.124-5.522-2.124s-5.522.953-5.522,2.124,2.477,2.123,5.522,2.123S681.018,758.792,681.018,757.621Z" transform="translate(-669.72 -755.4)" fill="#ffbf21"/>
                      </g>
                      <path id="Path_6269" data-name="Path 6269" d="M702.712,777.11l-3.162.909v.631l3.237-1a3.287,3.287,0,0,0,1.375.584c.048.011.1.019.146.029v.563h1.174V778.4c.256.011.5.012.7.008v.425h1.174v-1.692h-1.174v.817c-.2.007-.44.008-.7-.009v-.807h-1.174v.576a1.472,1.472,0,0,1-.678-.483l-.917-.12Z" transform="translate(-695.277 -774.825)" fill="#ffbf21"/>
                    </g>
                  </g>
                </g>
              </g>
            </g>
            <path id="Path_6270" data-name="Path 6270" d="M432.334,802.014c-1.225-.3-2.744,1.318-3.9,3.907l0,.011c.01.034.021.068.034.1.005.014.01.029.016.043a1.4,1.4,0,0,0,.065.139l.014.024c.021.038.044.077.069.114l.034.049.008.012c-.015.021-.03.042-.044.063s-.033.054-.048.08-.027.045-.038.068-.027.056-.039.085-.021.044-.029.066-.021.061-.03.092-.014.041-.019.061-.014.068-.021.1c0,.018-.008.035-.01.053a1.2,1.2,0,0,0-.011.158v1.486a1.283,1.283,0,0,0,.009.147c0,.015.005.031.008.046.006.034.012.068.02.1,0,.017.008.033.013.05.01.034.021.068.034.1.005.014.01.029.016.043a1.384,1.384,0,0,0,.065.139l.014.024c.021.038.044.077.068.114l.034.05.008.012c-.015.021-.03.042-.043.063s-.033.055-.049.082-.026.044-.038.067-.027.057-.04.086-.02.043-.028.065-.021.061-.031.093-.014.041-.019.061-.014.069-.021.1c0,.018-.008.035-.01.052a1.2,1.2,0,0,0-.011.157v1.486a1.284,1.284,0,0,0,.009.147c0,.015.005.031.008.046.006.035.012.068.02.1,0,.017.008.033.013.05.01.034.021.068.034.1.005.014.01.029.016.043a1.473,1.473,0,0,0,.065.14l.014.024c.021.038.044.077.069.115l.033.049c.021.029.043.059.065.089l.041.051c.024.03.051.06.078.089l.041.045c.04.042.083.083.127.124l.05.044.1.082c.023.019.046.037.07.055l.09.068.08.057.1.064c.028.019.056.038.085.055.056.035.113.07.172.1l.111.062.088.048.124.063.085.041.137.065.067.03q.26.116.548.221l.058.021.189.066.055.018c.27.09.558.172.857.247a19.1,19.1,0,0,0,1.35-3.8c1.078-4.385.585-8.276-1.1-8.69Z" transform="translate(-423.222 -788.63)" fill="rgba(204,204,204,0.6)"/>
            <g id="Group_2831" data-name="Group 2831" transform="translate(0 11.83)">
              <g id="Group_2830" data-name="Group 2830">
                <g id="Group_2829" data-name="Group 2829">
                  <g id="Group_2828" data-name="Group 2828">
                    <path id="Path_6271" data-name="Path 6271" d="M366.291,794.979c1.614.64,4.272-2.245,5.935-6.442s1.7-8.12.089-8.759l-1.381-.547-6.024,15.2Z" transform="translate(-363.725 -779.141)" fill="#ff931d"/>
                    <g id="Group_2825" data-name="Group 2825" transform="translate(1.191 5.016)">
                      <path id="Path_6272" data-name="Path 6272" d="M419.66,905.573l3.581,1.419q.154-.352.3-.718l-3.594-1.424Z" transform="translate(-416.23 -901.895)" fill="#d17918"/>
                      <path id="Path_6273" data-name="Path 6273" d="M410.4,921.585l3.471,1.375q.3-.562.58-1.176l-3.57-1.414-.481,1.215Z" transform="translate(-407.551 -916.441)" fill="#d17918"/>
                      <path id="Path_6274" data-name="Path 6274" d="M371.162,941.72l-4.137-1.64L365,945.191l1.375.545C367.654,946.243,369.587,944.537,371.162,941.72Z" transform="translate(-365 -934.914)" fill="#d17918"/>
                      <path id="Path_6275" data-name="Path 6275" d="M441.32,858l3.4,1.348c.021-.087.041-.176.061-.262l-3.365-1.333-.1.247Z" transform="translate(-436.531 -857.75)" fill="#d17918"/>
                      <path id="Path_6276" data-name="Path 6276" d="M438.864,874.46c.025-.086.05-.172.073-.257l-3.49-1.383-.1.247Z" transform="translate(-430.936 -871.875)" fill="#d17918"/>
                      <path id="Path_6277" data-name="Path 6277" d="M427.78,890.462l3.585,1.421c.045-.123.088-.245.13-.367l-3.572-1.416-.143.361Z" transform="translate(-423.841 -888.07)" fill="#d17918"/>
                    </g>
                    <g id="Group_2827" data-name="Group 2827">
                      <path id="Path_6278" data-name="Path 6278" d="M353.143,786.652c-1.663,4.2-4.321,7.082-5.935,6.442s-1.574-4.562.089-8.759,4.321-7.083,5.935-6.443,1.574,4.562-.089,8.759Z" transform="translate(-346.022 -777.804)" fill="#ff931d"/>
                      <path id="Path_6279" data-name="Path 6279" d="M354.335,847.36c-.078.218-.16.438-.248.658-1.663,4.2-4.321,7.082-5.935,6.442-1-.4-1.367-2.064-1.1-4.275-1.415,3.942-1.371,7.5.159,8.1,1.615.639,4.272-2.245,5.935-6.442A18.47,18.47,0,0,0,354.335,847.36Z" transform="translate(-346.025 -842.996)" fill="url(#linear-gradient-14)"/>
                      <path id="Path_6280" data-name="Path 6280" d="M356.042,779.048c-1.622-.5-4.21,2.354-5.842,6.472s-1.7,7.969-.177,8.717c1.621.5,4.21-2.354,5.842-6.472s1.7-7.969.178-8.717Zm-.54,8.574h0c-1.352,3.411-3.519,5.764-4.831,5.244s-1.279-3.718.072-7.13,3.519-5.764,4.831-5.244S356.855,784.211,355.5,787.622Z" transform="translate(-348.744 -778.918)" fill="#d17918"/>
                      <path id="Path_6281" data-name="Path 6281" d="M397.31,844.438l-.32,3.275.587.233.265-3.376a3.291,3.291,0,0,0,1.049-1.064c.028-.041.054-.083.08-.125l.524.208.432-1.091-.4-.159c.1-.233.194-.456.266-.649l.4.157.432-1.091-1.572-.623-.432,1.091.759.3c-.066.185-.156.412-.267.649l-.75-.3-.432,1.091.535.212a1.473,1.473,0,0,1-.7.453l-.451.808Z" transform="translate(-393.792 -836.219)" fill="#d17918"/>
                      <path id="Path_6282" data-name="Path 6282" d="M352.671,779.316c1.312.52,1.279,3.718-.073,7.13s-3.519,5.764-4.831,5.244-1.279-3.718.072-7.13S351.359,778.8,352.671,779.316Zm.56-1.414h0c-1.614-.64-4.272,2.245-5.935,6.443s-1.7,8.119-.089,8.759,4.272-2.245,5.935-6.442,1.7-8.12.089-8.759Z" transform="translate(-346.022 -777.813)" fill="#ffbf21"/>
                      <g id="Group_2826" data-name="Group 2826" transform="translate(1.233 2.258)">
                        <path id="Path_6283" data-name="Path 6283" d="M366.512,824.6c-1.139-.451-1.111-3.227.063-6.187s3.054-5,4.193-4.551,1.11,3.227-.063,6.187-3.054,5-4.193,4.55Zm4.162-10.5h0c-1.089-.431-2.887,1.521-4.009,4.351s-1.148,5.485-.06,5.916,2.887-1.521,4.008-4.351,1.149-5.485.06-5.916Z" transform="translate(-365.676 -813.794)" fill="#ffbf21"/>
                      </g>
                      <path id="Path_6284" data-name="Path 6284" d="M391.05,841.958l-.32,3.275.587.233.264-3.376a3.286,3.286,0,0,0,1.05-1.064c.028-.041.054-.083.08-.125l.524.208.432-1.091-.4-.159c.1-.234.193-.456.265-.649l.4.157.432-1.091-1.572-.623-.432,1.091.759.3c-.066.185-.156.412-.267.649l-.75-.3-.432,1.091.535.212a1.474,1.474,0,0,1-.7.453l-.45.808Z" transform="translate(-387.925 -833.895)" fill="#ffbf21"/>
                    </g>
                  </g>
                </g>
              </g>
            </g>
            <path id="Path_6285" data-name="Path 6285" d="M742.463,875.347c2.937-.477,5-1.6,5-2.9v-1.485a1.332,1.332,0,0,1,0-1.659V867.82a1.332,1.332,0,0,1,0-1.659v-1.485a1.332,1.332,0,0,1,0-1.659v-.021c-1.677-.588-4.807,1.94-7.2,5.889a16.47,16.47,0,0,0-2.482,6.656c.151.011.3.021.457.028h0c.343.017.692.026,1.047.026.336,0,.665-.009.99-.024h.005a19.519,19.519,0,0,0,2.029-.2l.154-.023Z" transform="translate(-713.198 -845.74)" fill="rgba(204,204,204,0.6)"/>
            <g id="Group_2838" data-name="Group 2838" transform="translate(31.501 16.712)">
              <g id="Group_2837" data-name="Group 2837">
                <g id="Group_2836" data-name="Group 2836">
                  <g id="Group_2835" data-name="Group 2835">
                    <path id="Path_6286" data-name="Path 6286" d="M855.262,872.779c-1.614.64-4.272-2.245-5.935-6.442s-1.7-8.12-.089-8.759l1.381-.547,6.024,15.2Z" transform="translate(-848.052 -856.94)" fill="#ff931d"/>
                    <g id="Group_2832" data-name="Group 2832" transform="translate(0.332 5.017)">
                      <path id="Path_6287" data-name="Path 6287" d="M872.25,983.373l-3.58,1.419q-.154-.352-.3-.718l3.594-1.424Z" transform="translate(-867.427 -979.695)" fill="#d17918"/>
                      <path id="Path_6288" data-name="Path 6288" d="M878.951,999.385l-3.47,1.375q-.3-.562-.58-1.176l3.57-1.414.482,1.215Z" transform="translate(-873.547 -994.241)" fill="#d17918"/>
                      <path id="Path_6289" data-name="Path 6289" d="M886.66,1019.51l4.137-1.64,2.025,5.111-1.375.545c-1.279.507-3.211-1.2-4.787-4.016Z" transform="translate(-884.569 -1012.705)" fill="#d17918"/>
                      <path id="Path_6290" data-name="Path 6290" d="M856.8,935.8l-3.4,1.348c-.021-.087-.041-.176-.061-.262l3.365-1.333.1.247Z" transform="translate(-853.34 -935.55)" fill="#d17918"/>
                      <path id="Path_6291" data-name="Path 6291" d="M857.4,952.26c-.025-.086-.05-.172-.073-.257l3.49-1.383.1.247L857.4,952.26Z" transform="translate(-857.08 -949.675)" fill="#d17918"/>
                      <path id="Path_6292" data-name="Path 6292" d="M866.585,968.262,863,969.683c-.045-.123-.088-.245-.13-.367l3.572-1.416.143.361Z" transform="translate(-862.272 -965.87)" fill="#d17918"/>
                    </g>
                    <g id="Group_2834" data-name="Group 2834" transform="translate(1.38)">
                      <path id="Path_6293" data-name="Path 6293" d="M871.337,864.443c1.663,4.2,4.321,7.082,5.935,6.442s1.574-4.562-.089-8.759-4.321-7.083-5.935-6.443-1.574,4.562.089,8.759Z" transform="translate(-870.062 -855.594)" fill="#ff931d"/>
                      <path id="Path_6294" data-name="Path 6294" d="M871.42,925.16c.078.218.16.438.248.658,1.663,4.2,4.321,7.082,5.935,6.442,1-.4,1.367-2.064,1.1-4.275,1.415,3.942,1.371,7.5-.159,8.1-1.614.639-4.272-2.245-5.935-6.442A18.472,18.472,0,0,1,871.42,925.16Z" transform="translate(-871.334 -920.795)" fill="url(#linear-gradient-15)"/>
                      <path id="Path_6295" data-name="Path 6295" d="M871.345,865.564c1.632,4.119,4.22,6.97,5.842,6.472,1.523-.748,1.455-4.6-.177-8.717s-4.22-6.971-5.842-6.472C869.645,857.595,869.713,861.445,871.345,865.564Zm.29-7.274h0c1.312-.52,3.479,1.833,4.831,5.244s1.385,6.61.073,7.13-3.479-1.833-4.832-5.244S870.323,858.811,871.635,858.29Z" transform="translate(-870.07 -856.715)" fill="#d17918"/>
                      <path id="Path_6296" data-name="Path 6296" d="M898.358,922.238l.32,3.275-.587.233-.265-3.376a3.285,3.285,0,0,1-1.049-1.064c-.028-.041-.054-.083-.08-.125l-.524.208-.432-1.091.4-.159c-.1-.233-.194-.456-.266-.649l-.395.157-.432-1.091,1.572-.623.432,1.091-.759.3c.066.184.156.412.267.649l.75-.3.432,1.091-.535.212a1.474,1.474,0,0,0,.7.453l.45.808Z" transform="translate(-893.482 -914.019)" fill="#d17918"/>
                      <path id="Path_6297" data-name="Path 6297" d="M871.8,857.107c1.312-.52,3.479,1.833,4.831,5.244s1.384,6.61.072,7.13-3.479-1.832-4.831-5.244S870.486,857.626,871.8,857.107Zm-.56-1.414h0c-1.615.639-1.574,4.562.089,8.759s4.321,7.082,5.935,6.442,1.574-4.562-.089-8.759-4.321-7.083-5.935-6.443Z" transform="translate(-870.052 -855.603)" fill="#ffbf21"/>
                      <g id="Group_2833" data-name="Group 2833" transform="translate(1.234 2.259)">
                        <path id="Path_6298" data-name="Path 6298" d="M890.615,897.844c-1.173-2.961-1.2-5.736-.063-6.187s3.019,1.59,4.193,4.551,1.2,5.736.063,6.187-3.019-1.591-4.193-4.55Zm.09-.036h0c1.122,2.831,2.92,4.783,4.008,4.351s1.062-3.085-.06-5.916-2.92-4.782-4.009-4.351S889.583,894.978,890.705,897.809Z" transform="translate(-889.716 -891.594)" fill="#ffbf21"/>
                      </g>
                      <path id="Path_6299" data-name="Path 6299" d="M904.609,919.757l.32,3.275-.587.233-.264-3.376a3.286,3.286,0,0,1-1.05-1.064c-.028-.041-.053-.083-.08-.125l-.524.208-.432-1.091.4-.159c-.1-.234-.193-.456-.266-.649l-.4.157-.432-1.091,1.573-.623.432,1.091-.759.3c.066.185.156.412.267.649l.75-.3.432,1.091-.535.212a1.474,1.474,0,0,0,.7.453l.45.808Z" transform="translate(-899.339 -911.694)" fill="#ffbf21"/>
                    </g>
                  </g>
                </g>
              </g>
            </g>
          </g>
          <path id="Path_6300" data-name="Path 6300" d="M457.692,821.425l-.334-.845-.333.845-.845.333.845.333.333.845.334-.845.845-.333Z" transform="translate(-449.268 -806.065)" fill="#fff"/>
          <path id="Path_6301" data-name="Path 6301" d="M840.062,807.165l-.333-.845-.333.845-.845.333.845.333.333.845.333-.845.845-.333Z" transform="translate(-807.646 -792.7)" fill="#fff"/>
          <path id="Path_6302" data-name="Path 6302" d="M965.392,656.985l-.334-.845-.333.845-.845.333.845.334.333.844.334-.844.845-.334Z" transform="translate(-925.112 -651.944)" fill="#fff"/>
          <path id="Path_6303" data-name="Path 6303" d="M644.322,904.885l-.333-.845-.333.845-.845.333.845.333.333.845.333-.845.845-.333Z" transform="translate(-624.188 -884.289)" fill="#fff"/>
        </g>
        <path id="Path_6304" data-name="Path 6304" d="M384.4,268.68s-4.523,3.3-5.941,5.825c0,0,6.044-4.481,9.275-5.825Z" transform="translate(-354.713 -251.821)" fill="#dab872"/>
        <path id="Path_6305" data-name="Path 6305" d="M494.79,268.68a12.819,12.819,0,0,1,5.191,5.825,12.538,12.538,0,0,0-2.037-5.825Z" transform="translate(-463.744 -251.821)" fill="#dab872"/>
        <path id="Path_6306" data-name="Path 6306" d="M605.12,401.01a64.124,64.124,0,0,1,4.722,12.007S610.2,405.906,605.12,401.01Z" transform="translate(-567.151 -375.848)" fill="#dab872"/>
        <path id="Path_6307" data-name="Path 6307" d="M669.72,412.62a64.124,64.124,0,0,1,4.722,12.007S674.8,417.516,669.72,412.62Z" transform="translate(-627.697 -386.729)" fill="#e8c37b"/>
        <path id="Path_6308" data-name="Path 6308" d="M593.19,434.4a27.355,27.355,0,0,1,9.8.366A12.706,12.706,0,0,0,593.19,434.4Z" transform="translate(-555.969 -406.366)" fill="#e8c37b"/>
        <path id="Path_6309" data-name="Path 6309" d="M611.07,478.471a27.355,27.355,0,0,1,9.8.366A12.706,12.706,0,0,0,611.07,478.471Z" transform="translate(-572.727 -447.671)" fill="#e8c37b"/>
        <g id="Group_2841" data-name="Group 2841" transform="translate(37.221 27.225)">
          <path id="Path_6310" data-name="Path 6310" d="M611.061,478.647a28.279,28.279,0,0,1,4.082-.284q-.112-.264-.23-.533a11.542,11.542,0,0,0-3.853.816Z" transform="translate(-609.939 -475.073)" fill="#dab872"/>
          <path id="Path_6311" data-name="Path 6311" d="M597.127,434.416q-.132-.263-.268-.526a11.533,11.533,0,0,0-3.659.809,28.12,28.12,0,0,1,3.928-.282Z" transform="translate(-593.2 -433.89)" fill="#dab872"/>
        </g>
        <path id="Path_6312" data-name="Path 6312" d="M390.421,33.3l6.549,12.251V32.49c-.125.052-.252.1-.379.155l-.068.028c-.127.051-.256.1-.385.151l-.015.006q-.2.075-.4.146l-.082.028q-.156.055-.314.105l-.106.034q-.181.057-.361.109l-.032.009q-.193.054-.384.1l-.1.023c-.1.021-.192.041-.288.058l-.11.019c-.126.021-.251.04-.375.052a10.509,10.509,0,0,1-3.147-.209Z" transform="translate(-365.922 -30.451)" fill="#dab872"/>
        <path id="Path_6313" data-name="Path 6313" d="M356.462,36.746c-.137-.038-.289-.085-.452-.136l5.434,8.328-3.975-7.929c-.342-.082-.678-.171-1.007-.263Z" transform="translate(-333.672 -34.313)" fill="#dab872"/>
        <path id="Path_6314" data-name="Path 6314" d="M584.61,2.116c1.013-.774,1.22-1.9-.587-2.084-3.166-.324-5.264,2.407-8.415,2.629l-7.248,14.2h2.814L584.61,2.117Z" transform="translate(-532.697 -0.005)" fill="#dab872"/>
        <path id="Path_6315" data-name="Path 6315" d="M582.3,35.586l5.365-10.717a4.879,4.879,0,0,1-2.527-1.149Z" transform="translate(-545.763 -22.231)" fill="#dab872"/>
        <g id="Group_2842" data-name="Group 2842" transform="translate(17.383 26.56)">
          <path id="Path_6316" data-name="Path 6316" d="M287.653,444.025a10.376,10.376,0,1,1,10.623-10.373A10.512,10.512,0,0,1,287.653,444.025Zm0-19.414h0a9.045,9.045,0,1,0,9.293,9.042A9.181,9.181,0,0,0,287.653,424.611Z" transform="translate(-277.03 -423.28)" fill="#524641"/>
        </g>
        <path id="Path_6317" data-name="Path 6317" d="M386.21,491.393l3.991,5.34h2.773l-4.383-5.466a5.626,5.626,0,0,0,2.564-2.322c.046-.082.084-.164.126-.247h2.473v-1.982h-1.9a7.219,7.219,0,0,0,.033-1.185h1.867V483.55h-7.425v1.982h3.585a4.67,4.67,0,0,1-.042,1.185h-3.543V488.7h2.529a4.748,4.748,0,0,1-2.119,1.145Z" transform="translate(-361.977 -453.209)" fill="#524641"/>
      </g>
      <g id="Group_2846" data-name="Group 2846" transform="translate(25.702 13.7)">
        <g id="Group_2844" data-name="Group 2844" transform="translate(0 0)">
          <path id="Path_6318" data-name="Path 6318" d="M425.068,220.983a.838.838,0,0,1-.184-.02c-4.956-1.094-14.119,0-14.211.014a.985.985,0,0,1-1.047-.948,1.046,1.046,0,0,1,.842-1.178c.387-.047,9.541-1.143,14.781.014A1.07,1.07,0,0,1,426,220.12a.986.986,0,0,1-.931.863Z" transform="translate(-409.621 -218.336)" fill="#ff931d"/>
        </g>
        <g id="Group_2845" data-name="Group 2845" transform="translate(0.605)">
          <path id="Path_6319" data-name="Path 6319" d="M504.64,218.94l-.471.018a6.868,6.868,0,0,0-.878,2.187l.4-.02A6.5,6.5,0,0,1,504.64,218.94Z" transform="translate(-498.017 -218.902)" fill="#bf6e16"/>
          <path id="Path_6320" data-name="Path 6320" d="M462.52,221.17l-.471.034a7,7,0,0,0-.819,2.214l.4-.033a6.647,6.647,0,0,1,.894-2.215Z" transform="translate(-458.597 -220.992)" fill="#bf6e16"/>
          <path id="Path_6321" data-name="Path 6321" d="M483.615,219.86l-.472.026a6.949,6.949,0,0,0-.853,2.2l.4-.026a6.546,6.546,0,0,1,.929-2.2Z" transform="translate(-478.335 -219.764)" fill="#bf6e16"/>
          <path id="Path_6322" data-name="Path 6322" d="M441.337,222.85l-.469.041a7.064,7.064,0,0,0-.779,2.224l.4-.039a6.719,6.719,0,0,1,.851-2.226Z" transform="translate(-438.783 -222.566)" fill="#bf6e16"/>
          <path id="Path_6323" data-name="Path 6323" d="M419.968,224.95a7.111,7.111,0,0,0-.708,2.111.857.857,0,0,0,.376.073,6.775,6.775,0,0,1,.8-2.234Z" transform="translate(-419.26 -224.488)" fill="#bf6e16"/>
          <path id="Path_6324" data-name="Path 6324" d="M628.588,223.324q-.2-.034-.407-.064a7.025,7.025,0,0,0-.752,2.053l.378.049A6.682,6.682,0,0,1,628.588,223.324Z" transform="translate(-614.368 -222.951)" fill="#bf6e16"/>
          <path id="Path_6325" data-name="Path 6325" d="M648.325,226.685l-.023-.005a7.136,7.136,0,0,0-.672,2.035c.111.022.221.044.329.068.014,0,.029,0,.044.005a6.832,6.832,0,0,1,.651-1.953.888.888,0,0,0-.329-.151Z" transform="translate(-633.301 -226.156)" fill="#bf6e16"/>
          <path id="Path_6326" data-name="Path 6326" d="M587.872,219.458c-.146-.01-.292-.019-.439-.028a6.887,6.887,0,0,0-.853,2.1l.39.016A6.5,6.5,0,0,1,587.872,219.458Z" transform="translate(-576.081 -219.361)" fill="#bf6e16"/>
          <path id="Path_6327" data-name="Path 6327" d="M608.316,220.984c-.14-.016-.281-.031-.424-.044a6.945,6.945,0,0,0-.812,2.077q.194.014.385.031a6.6,6.6,0,0,1,.85-2.063Z" transform="translate(-595.295 -220.776)" fill="#bf6e16"/>
          <path id="Path_6328" data-name="Path 6328" d="M567.261,218.614q-.225-.008-.451-.014a6.837,6.837,0,0,0-.88,2.127l.393,0A6.475,6.475,0,0,1,567.261,218.614Z" transform="translate(-556.727 -218.583)" fill="#bf6e16"/>
          <path id="Path_6329" data-name="Path 6329" d="M546.042,218.33a6.847,6.847,0,0,0-.892,2.15l.4-.005a6.465,6.465,0,0,1,.956-2.142Z" transform="translate(-537.251 -218.33)" fill="#bf6e16"/>
          <path id="Path_6330" data-name="Path 6330" d="M525.618,218.411l-.466.008a6.861,6.861,0,0,0-.892,2.17l.4-.013a6.476,6.476,0,0,1,.96-2.165Z" transform="translate(-517.672 -218.405)" fill="#bf6e16"/>
        </g>
        <path id="Path_6331" data-name="Path 6331" d="M425.07,236.834a.837.837,0,0,1-.184-.02c-4.956-1.094-14.119,0-14.211.014a.937.937,0,0,1-.961-.607,1.184,1.184,0,0,0-.086.571.986.986,0,0,0,1.047.948c.092-.011,9.255-1.108,14.211-.014a.842.842,0,0,0,.184.02.986.986,0,0,0,.931-.863,1.175,1.175,0,0,0-.077-.662.948.948,0,0,1-.855.614Z" transform="translate(-409.623 -235.097)" fill="rgba(179,179,179,0.8)"/>
      </g>
      <g id="Group_2849" data-name="Group 2849" transform="translate(25.702 15.848)">
        <g id="Group_2847" data-name="Group 2847" transform="translate(0 0)">
          <path id="Path_6332" data-name="Path 6332" d="M425.068,255.223a.837.837,0,0,1-.184-.02c-4.956-1.094-14.119,0-14.211.014a.985.985,0,0,1-1.047-.948,1.046,1.046,0,0,1,.842-1.178c.387-.047,9.541-1.143,14.781.014A1.07,1.07,0,0,1,426,254.36a.986.986,0,0,1-.931.863Z" transform="translate(-409.621 -252.576)" fill="rgba(255,147,29,0.8)"/>
        </g>
        <g id="Group_2848" data-name="Group 2848" transform="translate(0.605)">
          <path id="Path_6333" data-name="Path 6333" d="M504.64,253.18l-.471.018a6.868,6.868,0,0,0-.878,2.187l.4-.02A6.5,6.5,0,0,1,504.64,253.18Z" transform="translate(-498.017 -253.142)" fill="rgba(191,110,22,0.8)"/>
          <path id="Path_6334" data-name="Path 6334" d="M462.52,255.41l-.471.034a7,7,0,0,0-.819,2.214l.4-.033a6.647,6.647,0,0,1,.894-2.215Z" transform="translate(-458.597 -255.232)" fill="rgba(191,110,22,0.8)"/>
          <path id="Path_6335" data-name="Path 6335" d="M483.615,254.1l-.472.026a6.949,6.949,0,0,0-.853,2.2l.4-.026a6.546,6.546,0,0,1,.929-2.2Z" transform="translate(-478.335 -254.004)" fill="rgba(191,110,22,0.8)"/>
          <path id="Path_6336" data-name="Path 6336" d="M441.337,257.09l-.469.041a7.064,7.064,0,0,0-.779,2.224l.4-.039a6.72,6.72,0,0,1,.851-2.226Z" transform="translate(-438.783 -256.806)" fill="rgba(191,110,22,0.8)"/>
          <path id="Path_6337" data-name="Path 6337" d="M419.968,259.18a7.111,7.111,0,0,0-.708,2.111.848.848,0,0,0,.376.072,6.775,6.775,0,0,1,.8-2.234l-.467.05Z" transform="translate(-419.26 -258.718)" fill="rgba(191,110,22,0.8)"/>
          <path id="Path_6338" data-name="Path 6338" d="M628.588,257.564q-.2-.034-.407-.064a7.025,7.025,0,0,0-.752,2.053l.378.049A6.682,6.682,0,0,1,628.588,257.564Z" transform="translate(-614.368 -257.191)" fill="rgba(191,110,22,0.8)"/>
          <path id="Path_6339" data-name="Path 6339" d="M648.325,260.925l-.023-.005a7.136,7.136,0,0,0-.672,2.035c.111.022.221.044.329.068.014,0,.029,0,.044.005a6.832,6.832,0,0,1,.651-1.953.888.888,0,0,0-.329-.151Z" transform="translate(-633.301 -260.396)" fill="rgba(191,110,22,0.8)"/>
          <path id="Path_6340" data-name="Path 6340" d="M587.872,253.7c-.146-.01-.292-.019-.439-.028a6.887,6.887,0,0,0-.853,2.1l.39.016A6.5,6.5,0,0,1,587.872,253.7Z" transform="translate(-576.081 -253.601)" fill="rgba(191,110,22,0.8)"/>
          <path id="Path_6341" data-name="Path 6341" d="M608.316,255.224c-.14-.016-.281-.031-.424-.044a6.945,6.945,0,0,0-.812,2.077q.194.014.385.031a6.6,6.6,0,0,1,.85-2.063Z" transform="translate(-595.295 -255.016)" fill="rgba(191,110,22,0.8)"/>
          <path id="Path_6342" data-name="Path 6342" d="M567.261,252.854q-.225-.008-.451-.014a6.837,6.837,0,0,0-.88,2.127l.393,0A6.475,6.475,0,0,1,567.261,252.854Z" transform="translate(-556.727 -252.823)" fill="rgba(191,110,22,0.8)"/>
          <path id="Path_6343" data-name="Path 6343" d="M546.042,252.57a6.847,6.847,0,0,0-.892,2.15l.4-.005a6.459,6.459,0,0,1,.956-2.142Z" transform="translate(-537.251 -252.57)" fill="rgba(191,110,22,0.8)"/>
          <path id="Path_6344" data-name="Path 6344" d="M525.618,252.651l-.466.008a6.861,6.861,0,0,0-.892,2.17l.4-.013a6.476,6.476,0,0,1,.96-2.165Z" transform="translate(-517.672 -252.645)" fill="rgba(191,110,22,0.8)"/>
        </g>
        <path id="Path_6345" data-name="Path 6345" d="M425.07,271.074a.837.837,0,0,1-.184-.02c-4.956-1.094-14.119,0-14.211.014a.937.937,0,0,1-.961-.607,1.184,1.184,0,0,0-.086.571.986.986,0,0,0,1.047.948c.092-.011,9.255-1.108,14.211-.014a.843.843,0,0,0,.184.02.986.986,0,0,0,.931-.863,1.175,1.175,0,0,0-.077-.662.948.948,0,0,1-.855.614Z" transform="translate(-409.623 -269.337)" fill="rgba(179,179,179,0.8)"/>
      </g>
    </g>
  </g>
</svg>
