<?xml version="1.0" encoding="UTF-8"?>
<!DOCTYPE svg PUBLIC "-//W3C//DTD SVG 1.1//EN" "http://www.w3.org/Graphics/SVG/1.1/DTD/svg11.dtd">
<!-- Creator: CorelDRAW -->
<svg xmlns="http://www.w3.org/2000/svg" xml:space="preserve" width="9.1305mm" height="9.4093mm" version="1.1" shape-rendering="geometricPrecision" text-rendering="geometricPrecision" image-rendering="optimizeQuality" fill-rule="evenodd" clip-rule="evenodd"
viewBox="0 0 30.45 31.38"
 xmlns:xlink="http://www.w3.org/1999/xlink"
 xmlns:xodm="http://www.corel.com/coreldraw/odm/2003">
 <g id="Layer_x0020_1">
  <metadata id="CorelCorpID_0Corel-Layer"/>
  <g id="_2418008979808">
   <path fill="#FF9900" fill-rule="nonzero" d="M26.71 25.83c-12.95,6.16 -20.99,1.01 -26.13,-2.13 -0.32,-0.2 -0.86,0.05 -0.39,0.59 1.71,2.08 7.33,7.09 14.66,7.09 7.34,0 11.7,-4 12.25,-4.7 0.54,-0.69 0.16,-1.07 -0.39,-0.85l0 0zm3.64 -2.01c-0.35,-0.45 -2.11,-0.54 -3.23,-0.4 -1.11,0.13 -2.79,0.81 -2.64,1.22 0.07,0.15 0.23,0.08 0.99,0.02 0.77,-0.08 2.92,-0.35 3.36,0.24 0.45,0.59 -0.69,3.4 -0.89,3.85 -0.2,0.45 0.08,0.57 0.45,0.27 0.37,-0.3 1.04,-1.08 1.49,-2.19 0.45,-1.11 0.72,-2.66 0.46,-3.01l0 0z"/>
   <g>
    <path fill="black" d="M18 13.25c0,1.62 0.04,2.97 -0.78,4.4 -0.66,1.17 -1.71,1.89 -2.87,1.89 -1.59,0 -2.52,-1.21 -2.52,-3.01 0,-3.54 3.17,-4.18 6.17,-4.18l0 0.9zm4.19 10.12c-0.27,0.25 -0.67,0.26 -0.98,0.1 -1.38,-1.14 -1.62,-1.68 -2.38,-2.77 -2.28,2.32 -3.89,3.02 -6.84,3.02 -3.49,0 -6.21,-2.15 -6.21,-6.47 0,-3.37 1.83,-5.66 4.43,-6.78 2.25,-0.99 5.4,-1.17 7.81,-1.44l0 -0.54c0,-0.99 0.08,-2.15 -0.5,-3.01 -0.51,-0.76 -1.48,-1.08 -2.33,-1.08 -1.58,0 -3,0.81 -3.34,2.49 -0.07,0.37 -0.34,0.74 -0.72,0.76l-4.03 -0.43c-0.34,-0.08 -0.71,-0.35 -0.62,-0.87 0.93,-4.88 5.34,-6.35 9.28,-6.35 2.02,0 4.66,0.54 6.25,2.07 2.02,1.89 1.83,4.4 1.83,7.14l0 6.47c0,1.94 0.81,2.8 1.56,3.85 0.27,0.37 0.33,0.82 -0.01,1.1 -0.85,0.71 -2.35,2.02 -3.18,2.76l-0.01 -0.01 0 0zm0 0l0 0 0 0z"/>
   </g>
  </g>
 </g>
</svg>
