<?xml version="1.0" encoding="UTF-8"?>
<!DOCTYPE svg PUBLIC "-//W3C//DTD SVG 1.1//EN" "http://www.w3.org/Graphics/SVG/1.1/DTD/svg11.dtd">
<!-- Creator: CorelDRAW -->
<svg xmlns="http://www.w3.org/2000/svg" xml:space="preserve" width="6.4679mm" height="6.4681mm" version="1.1" shape-rendering="geometricPrecision" text-rendering="geometricPrecision" image-rendering="optimizeQuality" fill-rule="evenodd" clip-rule="evenodd"
viewBox="0 0 9.48 9.48"
 xmlns:xlink="http://www.w3.org/1999/xlink"
 xmlns:xodm="http://www.corel.com/coreldraw/odm/2003">
 <g id="Layer_x0020_1">
  <metadata id="CorelCorpID_0Corel-Layer"/>
  <g id="_2669815275536">
   <path fill="#EFEFEF" d="M9.35 4.52c0,0 -0.95,4.62 -5.08,4.94 -2.09,0.16 -3.16,-1.11 -3.71,-2.4 -0.7,-1.65 -0.72,-3.4 -0.2,-5.09 0.36,-1.18 1.07,-2.25 2.46,-1.9 2.83,0.7 3.15,1.38 4.84,0.99 1.69,-0.4 2.05,1.95 1.69,3.47z"/>
   <g>
    <path fill="#257ACD" d="M2.29 5.18l4.91 0c0.29,0 0.53,0.24 0.53,0.53l0 0.94c0,0.29 -0.24,0.53 -0.53,0.53l-4.91 0c-0.29,0 -0.53,-0.24 -0.53,-0.53l0 -0.94c0,-0.29 0.24,-0.53 0.53,-0.53z"/>
    <path fill="black" fill-rule="nonzero" d="M2.29 5.03l2.31 0 0 -1.9 0.29 0 0 1.9 2.31 0c0.19,0 0.35,0.08 0.48,0.2 0.12,0.12 0.2,0.29 0.2,0.48l0 0.94c0,0.18 -0.08,0.35 -0.2,0.48 -0.12,0.12 -0.29,0.2 -0.48,0.2l-0.07 0 0 0.55 -0.29 0 0 -0.55 -4.17 0 0 0.55 -0.29 0 0 -0.55 -0.07 0c-0.19,0 -0.35,-0.08 -0.48,-0.2 -0.12,-0.12 -0.2,-0.29 -0.2,-0.48l0 -0.94c0,-0.19 0.08,-0.35 0.2,-0.48 0.12,-0.12 0.29,-0.2 0.48,-0.2zm0.23 -0.79c-0.11,-0.2 -0.21,-0.41 -0.27,-0.64 -0.06,-0.22 -0.09,-0.45 -0.09,-0.68 0,-0.24 0.03,-0.47 0.09,-0.68 0.06,-0.23 0.15,-0.44 0.27,-0.64l0.25 0.15c-0.1,0.17 -0.18,0.36 -0.24,0.56 -0.05,0.19 -0.08,0.4 -0.08,0.61 0,0.21 0.03,0.41 0.08,0.61 0.05,0.2 0.13,0.39 0.24,0.56l-0.25 0.15zm4.45 0c0.11,-0.2 0.21,-0.41 0.27,-0.64 0.06,-0.22 0.09,-0.45 0.09,-0.68 0,-0.24 -0.03,-0.47 -0.09,-0.68 -0.06,-0.23 -0.15,-0.44 -0.27,-0.64l-0.25 0.15c0.1,0.17 0.18,0.36 0.24,0.56 0.05,0.19 0.08,0.4 0.08,0.61 0,0.21 -0.03,0.41 -0.08,0.61 -0.05,0.2 -0.13,0.39 -0.24,0.56l0.25 0.15zm-1.43 -0.79c0.05,-0.08 0.09,-0.16 0.12,-0.25 0.03,-0.09 0.04,-0.18 0.04,-0.28 0,-0.09 -0.01,-0.19 -0.04,-0.28 -0.03,-0.09 -0.07,-0.18 -0.12,-0.25l-0.25 0.16c0.04,0.06 0.06,0.12 0.08,0.18 0.02,0.06 0.03,0.13 0.03,0.2 0,0.07 -0.01,0.13 -0.03,0.2 -0.02,0.06 -0.05,0.12 -0.08,0.18l0.25 0.16zm0.71 0.39c0.08,-0.14 0.15,-0.29 0.19,-0.44 0.04,-0.15 0.06,-0.31 0.06,-0.48 0,-0.16 -0.02,-0.33 -0.06,-0.48 -0.04,-0.16 -0.11,-0.31 -0.19,-0.44l-0.25 0.15c0.07,0.11 0.12,0.24 0.16,0.37 0.03,0.13 0.05,0.26 0.05,0.4 0,0.14 -0.02,0.27 -0.05,0.4 -0.04,0.13 -0.09,0.26 -0.16,0.37l0.25 0.15zm-2.3 -0.39c-0.05,-0.08 -0.09,-0.16 -0.12,-0.25 -0.03,-0.09 -0.04,-0.18 -0.04,-0.28 0,-0.09 0.01,-0.19 0.04,-0.28 0.03,-0.09 0.07,-0.18 0.12,-0.25l0.25 0.16c-0.04,0.06 -0.06,0.12 -0.08,0.18 -0.02,0.06 -0.03,0.13 -0.03,0.2 0,0.07 0.01,0.13 0.03,0.2 0.02,0.06 0.05,0.12 0.08,0.18l-0.25 0.16zm-0.71 0.39c-0.08,-0.14 -0.15,-0.29 -0.19,-0.44 -0.04,-0.15 -0.06,-0.31 -0.06,-0.48 0,-0.16 0.02,-0.33 0.06,-0.48 0.04,-0.16 0.11,-0.31 0.19,-0.44l0.25 0.15c-0.07,0.11 -0.12,0.24 -0.16,0.37 -0.03,0.13 -0.05,0.26 -0.05,0.4 0,0.14 0.02,0.27 0.05,0.4 0.04,0.13 0.09,0.26 0.16,0.37l-0.25 0.15zm3.96 1.48l-4.91 0c-0.1,0 -0.2,0.04 -0.27,0.11 -0.07,0.07 -0.11,0.16 -0.11,0.27l0 0.94c0,0.11 0.04,0.2 0.11,0.27 0.07,0.07 0.17,0.11 0.27,0.11l4.91 0c0.11,0 0.2,-0.04 0.27,-0.11 0.07,-0.07 0.11,-0.16 0.11,-0.27l0 -0.94c0,-0.1 -0.04,-0.2 -0.11,-0.27 -0.07,-0.07 -0.16,-0.11 -0.27,-0.11z"/>
    <path fill="black" d="M2.69 5.8c0.21,0 0.38,0.17 0.38,0.38 0,0.21 -0.17,0.38 -0.38,0.38 -0.21,0 -0.38,-0.17 -0.38,-0.38 0,-0.21 0.17,-0.38 0.38,-0.38zm4.1 0c0.21,0 0.38,0.17 0.38,0.38 0,0.21 -0.17,0.38 -0.38,0.38 -0.21,0 -0.38,-0.17 -0.38,-0.38 0,-0.21 0.17,-0.38 0.38,-0.38zm-2.67 0c0.21,0 0.38,0.17 0.38,0.38 0,0.21 -0.17,0.38 -0.38,0.38 -0.21,0 -0.38,-0.17 -0.38,-0.38 0,-0.21 0.17,-0.38 0.38,-0.38z"/>
   </g>
   <path fill="#A4AFC3" fill-rule="nonzero" d="M5.21 0.4c0.11,0 0.22,0.05 0.29,0.12 0.07,0.07 0.12,0.18 0.12,0.29 0,0.11 -0.05,0.22 -0.12,0.29 -0.07,0.07 -0.18,0.12 -0.29,0.12 -0.11,0 -0.22,-0.05 -0.29,-0.12 -0.07,-0.07 -0.12,-0.18 -0.12,-0.29 0,-0.11 0.05,-0.22 0.12,-0.29 0.07,-0.07 0.18,-0.12 0.29,-0.12zm0.08 0.33c-0.02,-0.02 -0.05,-0.03 -0.08,-0.03 -0.03,0 -0.06,0.01 -0.08,0.03 -0.02,0.02 -0.03,0.05 -0.03,0.08 0,0.03 0.01,0.06 0.03,0.08 0.02,0.02 0.05,0.03 0.08,0.03 0.03,0 0.06,-0.01 0.08,-0.03 0.02,-0.02 0.03,-0.05 0.03,-0.08 0,-0.03 -0.01,-0.06 -0.03,-0.08z"/>
  </g>
 </g>
</svg>
