<?xml version="1.0" encoding="UTF-8"?>
<!DOCTYPE svg PUBLIC "-//W3C//DTD SVG 1.1//EN" "http://www.w3.org/Graphics/SVG/1.1/DTD/svg11.dtd">
<!-- Creator: CorelDRAW -->
<svg xmlns="http://www.w3.org/2000/svg" xml:space="preserve" width="6.4679mm" height="6.4681mm" version="1.1" shape-rendering="geometricPrecision" text-rendering="geometricPrecision" image-rendering="optimizeQuality" fill-rule="evenodd" clip-rule="evenodd"
viewBox="0 0 9.63 9.63"
 xmlns:xlink="http://www.w3.org/1999/xlink"
 xmlns:xodm="http://www.corel.com/coreldraw/odm/2003">
 <g id="Layer_x0020_1">
  <metadata id="CorelCorpID_0Corel-Layer"/>
  <g id="_2669809177344">
   <path fill="#EFEFEF" d="M9.5 4.59c0,0 -0.96,4.69 -5.16,5.02 -2.13,0.17 -3.21,-1.12 -3.77,-2.44 -0.71,-1.68 -0.73,-3.45 -0.2,-5.17 0.37,-1.2 1.08,-2.28 2.5,-1.93 2.87,0.71 3.2,1.4 4.92,1 1.72,-0.4 2.08,1.98 1.72,3.52z"/>
   <g>
    <polygon fill="#257ACD" points="3.62,6.13 6.01,6.13 6.01,5.37 3.62,5.37 "/>
    <polygon fill="#257ACD" points="6.01,6.13 3.62,6.13 3.62,6.8 6.01,6.8 "/>
    <path fill="black" fill-rule="nonzero" d="M2.56 6.8l0.08 0 0.83 0 0 -1.43 -0.68 0c-0.09,0 -0.16,0.03 -0.22,0.09 -0.06,0.06 -0.09,0.13 -0.09,0.22l0 0.3 0.43 0 0 0.3 -0.43 0 0 0.43c0,0.02 0.01,0.05 0.03,0.06 0.02,0.02 0.04,0.02 0.06,0.03l0 0zm0.41 -4.26l3.69 0c-0.02,-0.13 -0.07,-0.25 -0.16,-0.33 -0.1,-0.1 -0.24,-0.17 -0.4,-0.17l-2.57 0c-0.16,0 -0.3,0.06 -0.4,0.17 -0.09,0.09 -0.15,0.2 -0.16,0.33zm3.69 0.3l-1.7 0 0 1.72 0.56 0c0.18,0 0.34,0.07 0.45,0.19 0.09,0.09 0.15,0.2 0.18,0.33l0.51 0 0 -2.24zm-2 1.72l0 -1.72 -1.7 0 0 2.24 0.51 0c0.02,-0.13 0.09,-0.24 0.18,-0.33 0.12,-0.12 0.28,-0.19 0.45,-0.19l0.56 0zm-2 -1.44l-0.49 0c-0.09,0 -0.16,0.03 -0.22,0.09 -0.06,0.06 -0.09,0.13 -0.09,0.22l0 1.01 -0.3 0 0 -1.01c0,-0.17 0.07,-0.32 0.18,-0.43 0.11,-0.11 0.26,-0.18 0.43,-0.18l0.49 0 0 -0.21c0,-0.24 0.1,-0.45 0.25,-0.61 0.16,-0.16 0.37,-0.25 0.61,-0.25l2.57 0c0.24,0 0.45,0.1 0.61,0.25 0.16,0.16 0.25,0.37 0.25,0.61l0 0.21 0.49 0c0.17,0 0.32,0.07 0.43,0.18 0.11,0.11 0.18,0.26 0.18,0.43l0 1.01 -0.3 0 0 -1.01c0,-0.08 -0.03,-0.16 -0.09,-0.22 -0.06,-0.06 -0.13,-0.09 -0.22,-0.09l-0.49 0 0 1.97c0.12,0.02 0.23,0.08 0.31,0.17 0.11,0.11 0.18,0.26 0.18,0.43l0 1.03c0,0.11 -0.04,0.2 -0.11,0.27 -0.05,0.05 -0.12,0.09 -0.2,0.11l0 0.25c0,0.15 -0.06,0.28 -0.16,0.38 -0.1,0.1 -0.23,0.16 -0.38,0.16l-0.03 0c-0.15,0 -0.28,-0.06 -0.38,-0.16 -0.1,-0.1 -0.16,-0.23 -0.16,-0.38l0 -0.24 -0.01 0 -2.41 0 0 0.24c0,0.15 -0.06,0.28 -0.16,0.38 -0.1,0.1 -0.23,0.16 -0.38,0.16l-0.03 0c-0.15,0 -0.28,-0.06 -0.38,-0.16 -0.1,-0.1 -0.16,-0.23 -0.16,-0.38l0 -0.25c-0.08,-0.01 -0.14,-0.05 -0.2,-0.11 -0.07,-0.07 -0.11,-0.17 -0.11,-0.27l0 -1.03c0,-0.17 0.07,-0.32 0.18,-0.43 0.08,-0.08 0.19,-0.14 0.31,-0.17l0 -1.97zm1.1 3.69l2.1 0 0 -0.52 -2.1 0 0 0.52zm2.4 0l0.01 0 0.89 0 0 0c0.02,-0 0.04,-0.01 0.06,-0.03 0.02,-0.02 0.03,-0.04 0.03,-0.06l0 -0.43 -0.43 0 0 -0.3 0.43 0 0 -0.3c0,-0.09 -0.03,-0.16 -0.09,-0.22 -0.06,-0.06 -0.13,-0.09 -0.22,-0.09l-0.68 0 0 1.43zm-0.3 -1.43l-2.1 0 0 0.61 2.1 0 0 -0.61zm-0.02 -0.3c-0.02,-0.05 -0.04,-0.09 -0.08,-0.12 -0.06,-0.06 -0.15,-0.1 -0.24,-0.1l-1.41 0c-0.09,0 -0.18,0.04 -0.24,0.1 -0.03,0.03 -0.06,0.07 -0.08,0.12l2.05 0zm0.48 2.02l0 0.24c0,0.07 0.03,0.13 0.07,0.17 0.04,0.04 0.11,0.07 0.17,0.07l0.03 0c0.07,0 0.13,-0.03 0.17,-0.07 0.04,-0.04 0.07,-0.11 0.07,-0.17l0 -0.24 -0.52 0zm-3.53 0l0 0.24c0,0.07 0.03,0.13 0.07,0.17 0.04,0.04 0.11,0.07 0.17,0.07l0.03 0c0.07,0 0.13,-0.03 0.17,-0.07 0.04,-0.04 0.07,-0.11 0.07,-0.17l0 -0.24 -0.52 0z"/>
    <path fill="#257ACD" d="M2.97 2.54l3.69 0c-0.02,-0.13 -0.07,-0.25 -0.16,-0.33 -0.1,-0.1 -0.24,-0.17 -0.4,-0.17l-2.57 0c-0.16,0 -0.3,0.06 -0.4,0.17 -0.09,0.09 -0.15,0.2 -0.16,0.33z"/>
    <path fill="#257ACD" d="M5.52 4.85l-1.41 0c-0.09,0 -0.18,0.04 -0.24,0.1 -0.03,0.03 -0.06,0.07 -0.08,0.12l2.05 0c-0.02,-0.05 -0.04,-0.09 -0.08,-0.12 -0.06,-0.06 -0.15,-0.1 -0.24,-0.1z"/>
   </g>
   <path fill="#A4AFC3" fill-rule="nonzero" d="M8.22 6.92c0.11,0 0.22,0.05 0.29,0.12 0.08,0.08 0.12,0.18 0.12,0.29 0,0.11 -0.05,0.22 -0.12,0.29 -0.08,0.08 -0.18,0.12 -0.29,0.12 -0.11,0 -0.22,-0.05 -0.29,-0.12 -0.08,-0.08 -0.12,-0.18 -0.12,-0.29 0,-0.11 0.05,-0.22 0.12,-0.29 0.08,-0.08 0.18,-0.12 0.29,-0.12zm0.08 0.33c-0.02,-0.02 -0.05,-0.03 -0.08,-0.03 -0.03,0 -0.06,0.01 -0.08,0.03 -0.02,0.02 -0.03,0.05 -0.03,0.08 0,0.03 0.01,0.06 0.03,0.08 0.02,0.02 0.05,0.03 0.08,0.03 0.03,0 0.06,-0.01 0.08,-0.03 0.02,-0.02 0.03,-0.05 0.03,-0.08 0,-0.03 -0.01,-0.06 -0.03,-0.08z"/>
  </g>
 </g>
</svg>
