<?xml version="1.0" encoding="UTF-8"?>
<!DOCTYPE svg PUBLIC "-//W3C//DTD SVG 1.1//EN" "http://www.w3.org/Graphics/SVG/1.1/DTD/svg11.dtd">
<!-- Creator: CorelDRAW -->
<svg xmlns="http://www.w3.org/2000/svg" xml:space="preserve" width="6.4679mm" height="6.4681mm" version="1.1" shape-rendering="geometricPrecision" text-rendering="geometricPrecision" image-rendering="optimizeQuality" fill-rule="evenodd" clip-rule="evenodd"
viewBox="0 0 8.12 8.12"
 xmlns:xlink="http://www.w3.org/1999/xlink"
 xmlns:xodm="http://www.corel.com/coreldraw/odm/2003">
 <g id="Layer_x0020_1">
  <metadata id="CorelCorpID_0Corel-Layer"/>
  <g id="_2669868918832">
   <path fill="#EFEFEF" d="M8.02 4.25c0,0 -0.81,-3.96 -4.35,-4.24 -1.79,-0.14 -2.71,0.95 -3.18,2.06 -0.6,1.42 -0.62,2.91 -0.17,4.37 0.31,1.01 0.91,1.92 2.11,1.63 2.43,-0.6 2.7,-1.18 4.15,-0.85 1.45,0.34 1.76,-1.67 1.45,-2.97z"/>
   <g>
    <path fill="#257ACD" d="M1.76 1.99l0.48 0c0.15,0 0.27,0.12 0.27,0.27l0 0.48c0,0.15 -0.12,0.27 -0.27,0.27l-0.48 0c-0.15,0 -0.27,-0.12 -0.27,-0.27l0 -0.48c0,-0.15 0.12,-0.27 0.27,-0.27z"/>
    <polygon fill="#257ACD" points="5.5,1.67 6.37,1.67 6.37,2.35 5.5,2.35 "/>
    <path fill="black" fill-rule="nonzero" d="M6.76 2.35l0 0.42c0,0.17 -0.07,0.33 -0.18,0.44 -0.11,0.11 -0.27,0.18 -0.44,0.18l-0.07 0 0 0.44 -0.25 0 0 -0.44 -0.08 0c-0.17,0 -0.33,-0.07 -0.44,-0.18 -0.11,-0.11 -0.18,-0.27 -0.18,-0.44l0 -0.54 0.26 0 0 -0.69 0.13 0 1 0 0 0.69 0.26 0 0 0.13zm-5.01 -0.49l0.14 0 0 -0.55 0.25 0 0 0.55 0.1 0c0.11,0 0.21,0.04 0.28,0.12 0.07,0.07 0.12,0.17 0.12,0.28l0 0.48c0,0.11 -0.04,0.21 -0.12,0.28 -0.07,0.07 -0.17,0.12 -0.28,0.12l-0.1 0 0 1.59c0,0.44 0.16,0.84 0.42,1.16 -0.09,-0.2 -0.15,-0.43 -0.15,-0.67 0,-0.44 0.18,-0.84 0.47,-1.13 0.29,-0.29 0.69,-0.47 1.13,-0.47 0.44,0 0.84,0.18 1.13,0.47 0.29,0.29 0.47,0.69 0.47,1.13 0,0.17 -0.03,0.34 -0.08,0.5 0.18,-0.29 0.29,-0.63 0.29,-0.99l0 -0.36 0.25 0 0 0.36c0,0.57 -0.23,1.1 -0.61,1.47 -0.32,0.32 -0.76,0.54 -1.24,0.6l-0.01 0c-0.07,0.01 -0.13,0.01 -0.2,0.01l-0 -0 -0.02 0 -0.01 0c-0.57,0 -1.1,-0.23 -1.47,-0.61 -0.38,-0.38 -0.61,-0.9 -0.61,-1.47l0 -1.59 -0.14 0c-0.11,0 -0.21,-0.04 -0.28,-0.12 -0.07,-0.07 -0.12,-0.17 -0.12,-0.28l0 -0.48c0,-0.11 0.04,-0.21 0.12,-0.28 0.07,-0.07 0.17,-0.12 0.28,-0.12zm3.2 2.41c-0.24,-0.24 -0.58,-0.39 -0.95,-0.39 -0.37,0 -0.71,0.15 -0.95,0.39 -0.24,0.24 -0.39,0.58 -0.39,0.95 0,0.37 0.15,0.71 0.39,0.95 0.24,0.24 0.57,0.39 0.93,0.39l0.01 0c0.06,-0 0.12,-0 0.18,-0.01 0.3,-0.04 0.57,-0.18 0.78,-0.38 0.24,-0.24 0.39,-0.58 0.39,-0.95 0,-0.37 -0.15,-0.71 -0.39,-0.95zm0.66 -2.04l0.63 0 0 -0.43 -0.63 0 0 0.43zm0.89 0.54l0 -0.29 -0.01 0 -1.13 0 -0.01 0 0 0.29c0,0.1 0.04,0.2 0.11,0.27 0.07,0.07 0.16,0.11 0.27,0.11l0.4 0c0.1,0 0.2,-0.04 0.27,-0.11 0.07,-0.07 0.11,-0.16 0.11,-0.27zm-4.27 -0.66l-0.48 0c-0.04,0 -0.08,0.02 -0.1,0.04 -0.03,0.03 -0.04,0.06 -0.04,0.1l0 0.48c0,0.04 0.02,0.08 0.04,0.1 0.03,0.03 0.06,0.04 0.1,0.04l0.48 0c0.04,0 0.08,-0.02 0.1,-0.04 0.03,-0.03 0.04,-0.06 0.04,-0.1l0 -0.48c0,-0.04 -0.02,-0.08 -0.04,-0.1 -0.03,-0.03 -0.06,-0.04 -0.1,-0.04z"/>
   </g>
   <path fill="#A4AFC3" fill-rule="nonzero" d="M4.51 0.47l0.47 0.44 -0.17 0.18 -0.47 -0.44 0.17 -0.18zm-0.16 1.56l0.44 -0.47 0.18 0.17 -0.44 0.47 -0.18 -0.17zm1.71 -1.4l-0.44 0.47 -0.18 -0.17 0.44 -0.47 0.18 0.17z"/>
  </g>
 </g>
</svg>
