<?xml version="1.0" encoding="UTF-8"?>
<!DOCTYPE svg PUBLIC "-//W3C//DTD SVG 1.1//EN" "http://www.w3.org/Graphics/SVG/1.1/DTD/svg11.dtd">
<!-- Creator: CorelDRAW -->
<svg xmlns="http://www.w3.org/2000/svg" xml:space="preserve" width="6.4681mm" height="6.4679mm" version="1.1" shape-rendering="geometricPrecision" text-rendering="geometricPrecision" image-rendering="optimizeQuality" fill-rule="evenodd" clip-rule="evenodd"
viewBox="0 0 9.18 9.18"
 xmlns:xlink="http://www.w3.org/1999/xlink"
 xmlns:xodm="http://www.corel.com/coreldraw/odm/2003">
 <g id="Layer_x0020_1">
  <metadata id="CorelCorpID_0Corel-Layer"/>
  <g id="_2669864722848">
   <path fill="#EFEFEF" d="M4.38 0.12c0,0 4.47,0.92 4.79,4.92 0.16,2.03 -1.07,3.07 -2.33,3.6 -1.6,0.68 -3.29,0.7 -4.94,0.19 -1.14,-0.35 -2.18,-1.03 -1.84,-2.38 0.68,-2.74 1.34,-3.05 0.96,-4.69 -0.38,-1.64 1.89,-1.99 3.36,-1.64z"/>
   <g>
    <g>
     <path fill="#257ACD" d="M3.55 5.93l-0.19 0.05c-0.03,0.01 -0.07,0.02 -0.1,0.02l0.08 0.27c0.01,0.04 0.04,0.07 0.07,0.09 0.03,0.02 0.07,0.02 0.11,0.01 0.04,-0.01 0.07,-0.04 0.09,-0.07 0.02,-0.03 0.02,-0.07 0.01,-0.11l-0.07 -0.26z"/>
     <path fill="#257ACD" d="M6.74 5.02l0.07 0.26c0.01,0.04 0.04,0.07 0.07,0.09 0.03,0.02 0.07,0.02 0.11,0.01 0.04,-0.01 0.07,-0.04 0.09,-0.07 0.02,-0.03 0.02,-0.07 0.01,-0.11l-0.08 -0.27c-0.03,0.01 -0.06,0.02 -0.1,0.03l-0.19 0.05z"/>
     <path fill="black" fill-rule="nonzero" d="M2.83 4.88l0.72 -0.2 0.09 0.32 -0.72 0.2 -0.09 -0.32zm3.26 -0.92l0.72 -0.2 0.09 0.32 -0.72 0.2 -0.09 -0.32z"/>
     <path fill="#257ACD" d="M2.67 4.3l3.97 -1.13 -1.05 -1.11c-0.11,-0.12 -0.29,-0.18 -0.41,-0.14l-1.93 0.55c-0.12,0.03 -0.24,0.18 -0.27,0.34l-0.31 1.49z"/>
     <path fill="black" fill-rule="nonzero" d="M2.88 4.07l3.45 -0.98 -0.86 -0.91c-0.04,-0.04 -0.08,-0.07 -0.13,-0.08 -0.04,-0.01 -0.08,-0.02 -0.11,-0.01l-1.93 0.55c-0.03,0.01 -0.06,0.03 -0.09,0.07 -0.03,0.04 -0.06,0.09 -0.07,0.14l-0.26 1.23zm3.88 -1c0.12,0.02 0.23,0.05 0.33,0.11 0.21,0.11 0.37,0.31 0.44,0.55l0.03 0.11c0.07,0.24 0.03,0.49 -0.08,0.7 -0.04,0.08 -0.1,0.15 -0.17,0.22l0.1 0.36c0.04,0.13 0.02,0.25 -0.04,0.36 -0.06,0.11 -0.16,0.19 -0.29,0.23 -0.13,0.04 -0.26,0.02 -0.36,-0.04 -0.11,-0.06 -0.19,-0.16 -0.23,-0.29l-0.07 -0.26 -2.56 0.72 0.07 0.26c0.04,0.13 0.02,0.25 -0.04,0.36 -0.06,0.11 -0.16,0.19 -0.29,0.23 -0.13,0.04 -0.26,0.02 -0.36,-0.04 -0.11,-0.06 -0.19,-0.16 -0.23,-0.29l-0.1 -0.36c-0.09,-0.02 -0.18,-0.05 -0.25,-0.1 -0.21,-0.11 -0.37,-0.31 -0.44,-0.55l-0.03 -0.11c-0.07,-0.24 -0.03,-0.49 0.08,-0.7 0.06,-0.1 0.13,-0.19 0.22,-0.26l0.32 -1.51c0.02,-0.1 0.07,-0.2 0.14,-0.28 0.07,-0.09 0.16,-0.15 0.25,-0.18l1.93 -0.55c0.09,-0.03 0.2,-0.02 0.31,0.02 0.1,0.03 0.19,0.09 0.26,0.17l1.06 1.12zm0.26 1.87c-0.03,0.01 -0.06,0.02 -0.1,0.03l-0.19 0.05 0.07 0.26c0.01,0.04 0.04,0.07 0.07,0.09 0.03,0.02 0.07,0.02 0.11,0.01 0.04,-0.01 0.07,-0.04 0.09,-0.07 0.02,-0.03 0.02,-0.07 0.01,-0.11l-0.08 -0.27zm-3.47 0.99l-0.19 0.05c-0.03,0.01 -0.07,0.02 -0.1,0.02l0.08 0.27c0.01,0.04 0.04,0.07 0.07,0.09 0.03,0.02 0.07,0.02 0.11,0.01 0.04,-0.01 0.07,-0.04 0.09,-0.07 0.02,-0.03 0.02,-0.07 0.01,-0.11l-0.07 -0.26zm2.94 -2.51l-3.56 1.01c-0.16,0.04 -0.28,0.15 -0.35,0.28 -0.07,0.13 -0.1,0.29 -0.05,0.45l0.03 0.11c0.04,0.16 0.15,0.28 0.28,0.35 0.13,0.07 0.29,0.1 0.45,0.05l3.56 -1.01c0.16,-0.04 0.28,-0.15 0.35,-0.28 0.07,-0.13 0.1,-0.29 0.05,-0.45l-0.03 -0.11c-0.04,-0.16 -0.15,-0.28 -0.28,-0.35 -0.13,-0.07 -0.29,-0.1 -0.45,-0.05z"/>
    </g>
    <path fill="black" fill-rule="nonzero" d="M1.46 6.45l0.43 0c0.11,-0 0.22,-0.01 0.39,0.2l0.31 0.41c0.07,0.09 0.13,0.09 0.18,0.09l0.06 -0 0.82 0c0.06,0 0.15,0.01 0.28,-0.16l0.24 -0.31c0.19,-0.25 0.37,-0.24 0.63,-0.24l0.14 0 2.79 0 0 0.28 -2.79 0 -0.15 -0c-0.18,-0.01 -0.29,-0.01 -0.4,0.13l-0.24 0.31c-0.21,0.28 -0.39,0.27 -0.51,0.27l-0.81 -0 -0.04 0c-0.12,0.01 -0.25,0.02 -0.42,-0.2l-0.31 -0.41c-0.07,-0.1 -0.11,-0.09 -0.15,-0.09 -0.15,0 -0.29,0 -0.44,0l0 -0.28z"/>
   </g>
   <path fill="#A4AFC3" fill-rule="nonzero" d="M0.48 1.62l0.54 0.49 -0.19 0.21 -0.54 -0.49 0.19 -0.21zm1.59 1.94l-0.54 -0.49 0.19 -0.21 0.54 0.49 -0.19 0.21zm-1.76 -0.18l0.49 -0.54 0.21 0.19 -0.49 0.54 -0.21 -0.19zm1.94 -1.59l-0.49 0.54 -0.21 -0.19 0.49 -0.54 0.21 0.19z"/>
  </g>
 </g>
</svg>
