<?xml version="1.0" encoding="UTF-8"?>
<!DOCTYPE svg PUBLIC "-//W3C//DTD SVG 1.1//EN" "http://www.w3.org/Graphics/SVG/1.1/DTD/svg11.dtd">
<!-- Creator: CorelDRAW -->
<svg xmlns="http://www.w3.org/2000/svg" xml:space="preserve" width="6.4681mm" height="6.4679mm" version="1.1" shape-rendering="geometricPrecision" text-rendering="geometricPrecision" image-rendering="optimizeQuality" fill-rule="evenodd" clip-rule="evenodd"
viewBox="0 0 9.53 9.53"
 xmlns:xlink="http://www.w3.org/1999/xlink"
 xmlns:xodm="http://www.corel.com/coreldraw/odm/2003">
 <g id="Layer_x0020_1">
  <metadata id="CorelCorpID_0Corel-Layer"/>
  <g id="_2631173426560">
   <path fill="#EFEFEF" d="M4.55 0.13c0,0 4.64,0.95 4.97,5.11 0.17,2.1 -1.11,3.18 -2.41,3.73 -1.66,0.7 -3.42,0.72 -5.12,0.2 -1.18,-0.36 -2.26,-1.07 -1.91,-2.47 0.7,-2.85 1.39,-3.16 0.99,-4.87 -0.4,-1.7 1.96,-2.06 3.49,-1.7z"/>
   <g>
    <path fill="#257ACD" d="M4.77 2.45c0.31,0 0.55,0.25 0.55,0.55 0,0.31 -0.25,0.55 -0.55,0.55 -0.31,0 -0.55,-0.25 -0.55,-0.55 0,-0.31 0.25,-0.55 0.55,-0.55z"/>
    <path fill="black" fill-rule="nonzero" d="M4.77 2.3c0.19,0 0.37,0.08 0.5,0.21 0.13,0.13 0.21,0.3 0.21,0.5 0,0.19 -0.08,0.37 -0.21,0.5 -0.13,0.13 -0.3,0.21 -0.5,0.21 -0.19,0 -0.37,-0.08 -0.5,-0.21 -0.13,-0.13 -0.21,-0.3 -0.21,-0.5 0,-0.19 0.08,-0.37 0.21,-0.5 0.13,-0.13 0.3,-0.21 0.5,-0.21zm0.29 0.41c-0.07,-0.07 -0.18,-0.12 -0.29,-0.12 -0.11,0 -0.21,0.05 -0.29,0.12 -0.07,0.07 -0.12,0.18 -0.12,0.29 0,0.11 0.05,0.21 0.12,0.29 0.07,0.07 0.18,0.12 0.29,0.12 0.11,0 0.21,-0.05 0.29,-0.12 0.07,-0.07 0.12,-0.18 0.12,-0.29 0,-0.11 -0.05,-0.21 -0.12,-0.29z"/>
    <path fill="#257ACD" d="M4.77 4.21c0.31,0 0.55,0.25 0.55,0.55 0,0.31 -0.25,0.55 -0.55,0.55 -0.31,0 -0.55,-0.25 -0.55,-0.55 0,-0.31 0.25,-0.55 0.55,-0.55z"/>
    <path fill="black" fill-rule="nonzero" d="M4.77 4.06c0.19,0 0.37,0.08 0.5,0.21 0.13,0.13 0.21,0.3 0.21,0.5 0,0.19 -0.08,0.37 -0.21,0.5 -0.13,0.13 -0.3,0.21 -0.5,0.21 -0.19,0 -0.37,-0.08 -0.5,-0.21 -0.13,-0.13 -0.21,-0.3 -0.21,-0.5 0,-0.19 0.08,-0.37 0.21,-0.5 0.13,-0.13 0.3,-0.21 0.5,-0.21zm0.29 0.41c-0.07,-0.07 -0.18,-0.12 -0.29,-0.12 -0.11,0 -0.21,0.05 -0.29,0.12 -0.07,0.07 -0.12,0.18 -0.12,0.29 0,0.11 0.05,0.21 0.12,0.29 0.07,0.07 0.18,0.12 0.29,0.12 0.11,0 0.21,-0.05 0.29,-0.12 0.07,-0.07 0.12,-0.18 0.12,-0.29 0,-0.11 -0.05,-0.21 -0.12,-0.29z"/>
    <path fill="#257ACD" d="M4.77 5.98c0.31,0 0.55,0.25 0.55,0.55 0,0.31 -0.25,0.55 -0.55,0.55 -0.31,0 -0.55,-0.25 -0.55,-0.55 0,-0.31 0.25,-0.55 0.55,-0.55z"/>
    <path fill="black" fill-rule="nonzero" d="M4.77 5.83c0.19,0 0.37,0.08 0.5,0.21 0.13,0.13 0.21,0.3 0.21,0.5 0,0.19 -0.08,0.37 -0.21,0.5 -0.13,0.13 -0.3,0.21 -0.5,0.21 -0.19,0 -0.37,-0.08 -0.5,-0.21 -0.13,-0.13 -0.21,-0.3 -0.21,-0.5 0,-0.19 0.08,-0.37 0.21,-0.5 0.13,-0.13 0.3,-0.21 0.5,-0.21zm0.29 0.41c-0.07,-0.07 -0.18,-0.12 -0.29,-0.12 -0.11,0 -0.21,0.05 -0.29,0.12 -0.07,0.07 -0.12,0.18 -0.12,0.29 0,0.11 0.05,0.21 0.12,0.29 0.07,0.07 0.18,0.12 0.29,0.12 0.11,0 0.21,-0.05 0.29,-0.12 0.07,-0.07 0.12,-0.18 0.12,-0.29 0,-0.11 -0.05,-0.21 -0.12,-0.29z"/>
    <path fill="#257ACD" d="M3.19 4.01l0 -1.31 -0.55 0c-0.05,0 -0.09,0.02 -0.12,0.05 -0.03,0.03 -0.05,0.07 -0.05,0.12l0 0.98c0,0.05 0.02,0.09 0.05,0.12 0.03,0.03 0.07,0.05 0.12,0.05l0.55 0z"/>
    <path fill="#257ACD" d="M3.19 4.99l-0.55 0c-0.05,0 -0.09,0.02 -0.12,0.05 -0.03,0.03 -0.05,0.07 -0.05,0.12l0 0.98c0,0.05 0.02,0.09 0.05,0.12 0.03,0.03 0.07,0.05 0.12,0.05l0.55 0 0 -1.31z"/>
    <path fill="#257ACD" d="M6.35 2.7l0 1.31 0.55 0c0.05,0 0.09,-0.02 0.12,-0.05 0.03,-0.03 0.05,-0.07 0.05,-0.12l0 -0.98c0,-0.05 -0.02,-0.09 -0.05,-0.12 -0.03,-0.03 -0.07,-0.05 -0.12,-0.05l-0.55 0z"/>
    <path fill="#257ACD" d="M6.89 4.99l-0.55 0 0 1.31 0.55 0c0.05,0 0.09,-0.02 0.12,-0.05 0.03,-0.03 0.05,-0.07 0.05,-0.12l0 -0.98c0,-0.05 -0.02,-0.09 -0.05,-0.12 -0.03,-0.03 -0.07,-0.05 -0.12,-0.05z"/>
    <path fill="black" fill-rule="nonzero" d="M3.95 1.59l1.63 0c0.21,0 0.4,0.09 0.54,0.22 0.14,0.14 0.22,0.33 0.22,0.54l0 0.05 0.55 0c0.13,0 0.24,0.05 0.32,0.13 0.08,0.08 0.14,0.2 0.14,0.32l0 0.98c0,0.13 -0.05,0.24 -0.13,0.32 -0.08,0.08 -0.2,0.14 -0.32,0.14l-0.55 0 0 0.39 0.55 0c0.13,0 0.24,0.05 0.32,0.13 0.08,0.08 0.14,0.2 0.14,0.32l0 0.98c0,0.13 -0.05,0.24 -0.13,0.32 -0.08,0.08 -0.2,0.14 -0.32,0.14l-0.55 0 0 0.59c0,0.21 -0.09,0.4 -0.22,0.54 -0.14,0.14 -0.33,0.22 -0.54,0.22l-1.63 0c-0.21,0 -0.4,-0.09 -0.54,-0.22 -0.14,-0.14 -0.22,-0.33 -0.22,-0.54l0 -0.59 -0.55 0c-0.13,0 -0.24,-0.05 -0.32,-0.13 -0.08,-0.08 -0.14,-0.2 -0.14,-0.32l0 -0.98c0,-0.13 0.05,-0.24 0.13,-0.32 0.08,-0.08 0.2,-0.14 0.32,-0.14l0.55 0 0 -0.39 -0.55 0c-0.13,0 -0.24,-0.05 -0.32,-0.13 -0.08,-0.08 -0.14,-0.2 -0.14,-0.32l0 -0.98c0,-0.13 0.05,-0.24 0.13,-0.32 0.08,-0.08 0.2,-0.14 0.32,-0.14l0.55 0 0 -0.05c0,-0.21 0.09,-0.4 0.22,-0.54 0.14,-0.14 0.33,-0.22 0.54,-0.22zm2.4 3.4l0 1.31 0.55 0c0.05,0 0.09,-0.02 0.12,-0.05 0.03,-0.03 0.05,-0.07 0.05,-0.12l0 -0.98c0,-0.05 -0.02,-0.09 -0.05,-0.12 -0.03,-0.03 -0.07,-0.05 -0.12,-0.05l-0.55 0zm-3.16 1.31l0 -1.31 -0.55 0c-0.05,0 -0.09,0.02 -0.12,0.05 -0.03,0.03 -0.05,0.07 -0.05,0.12l0 0.98c0,0.05 0.02,0.09 0.05,0.12 0.03,0.03 0.07,0.05 0.12,0.05l0.55 0zm3.16 -3.6l0 1.31 0.55 0c0.05,0 0.09,-0.02 0.12,-0.05 0.03,-0.03 0.05,-0.07 0.05,-0.12l0 -0.98c0,-0.05 -0.02,-0.09 -0.05,-0.12 -0.03,-0.03 -0.07,-0.05 -0.12,-0.05l-0.55 0zm-3.16 1.31l0 -1.31 -0.55 0c-0.05,0 -0.09,0.02 -0.12,0.05 -0.03,0.03 -0.05,0.07 -0.05,0.12l0 0.98c0,0.05 0.02,0.09 0.05,0.12 0.03,0.03 0.07,0.05 0.12,0.05l0.55 0zm2.4 -2.13l-1.63 0c-0.13,0 -0.25,0.05 -0.33,0.14 -0.09,0.08 -0.14,0.2 -0.14,0.33l0 4.83c0,0.13 0.05,0.25 0.14,0.33 0.08,0.08 0.2,0.14 0.33,0.14l1.63 0c0.13,0 0.25,-0.05 0.33,-0.14 0.08,-0.08 0.14,-0.2 0.14,-0.33l0 -4.83c0,-0.13 -0.05,-0.25 -0.14,-0.33 -0.08,-0.08 -0.2,-0.14 -0.33,-0.14z"/>
   </g>
   <path fill="#A4AFC3" fill-rule="nonzero" d="M8.53 0.61c0.11,0 0.22,0.05 0.29,0.12 0.07,0.07 0.12,0.18 0.12,0.29 0,0.11 -0.05,0.22 -0.12,0.29 -0.07,0.07 -0.18,0.12 -0.29,0.12 -0.11,0 -0.22,-0.05 -0.29,-0.12 -0.07,-0.07 -0.12,-0.18 -0.12,-0.29 0,-0.11 0.05,-0.22 0.12,-0.29 0.07,-0.07 0.18,-0.12 0.29,-0.12zm0.08 0.33c-0.02,-0.02 -0.05,-0.03 -0.08,-0.03 -0.03,0 -0.06,0.01 -0.08,0.03 -0.02,0.02 -0.03,0.05 -0.03,0.08 0,0.03 0.01,0.06 0.03,0.08 0.02,0.02 0.05,0.03 0.08,0.03 0.03,0 0.06,-0.01 0.08,-0.03 0.02,-0.02 0.03,-0.05 0.03,-0.08 0,-0.03 -0.01,-0.06 -0.03,-0.08z"/>
  </g>
 </g>
</svg>
