<?xml version="1.0" encoding="UTF-8"?>
<!DOCTYPE svg PUBLIC "-//W3C//DTD SVG 1.1//EN" "http://www.w3.org/Graphics/SVG/1.1/DTD/svg11.dtd">
<!-- Creator: CorelDRAW -->
<svg xmlns="http://www.w3.org/2000/svg" xml:space="preserve" width="6.4681mm" height="6.4679mm" version="1.1" shape-rendering="geometricPrecision" text-rendering="geometricPrecision" image-rendering="optimizeQuality" fill-rule="evenodd" clip-rule="evenodd"
viewBox="0 0 9.68 9.68"
 xmlns:xlink="http://www.w3.org/1999/xlink"
 xmlns:xodm="http://www.corel.com/coreldraw/odm/2003">
 <g id="Layer_x0020_1">
  <metadata id="CorelCorpID_0Corel-Layer"/>
  <g id="_2631175898640">
   <path fill="#EFEFEF" d="M4.62 9.55c0,0 4.72,-0.97 5.05,-5.19 0.17,-2.14 -1.13,-3.23 -2.45,-3.79 -1.69,-0.72 -3.47,-0.73 -5.21,-0.2 -1.2,0.37 -2.29,1.09 -1.94,2.51 0.71,2.89 1.41,3.22 1.01,4.94 -0.4,1.73 1.99,2.1 3.54,1.73z"/>
   <g>
    <path fill="#257ACD" d="M7.97 3.05l0 1.73c0,0.33 -0.27,0.6 -0.6,0.6l-0.51 0 0 -0.32c0,-0.21 -0.08,-0.39 -0.22,-0.53 -0.14,-0.14 -0.32,-0.22 -0.53,-0.22l-3.27 0 0 -1.26 5.13 0z"/>
    <path fill="#257ACD" d="M2.9 5.04l0.43 0c0.15,0 0.26,0.12 0.26,0.26l0 0.43c0,0.15 -0.12,0.26 -0.26,0.26l-0.43 0c-0.15,0 -0.26,-0.12 -0.26,-0.26l0 -0.43c0,-0.15 0.12,-0.26 0.26,-0.26z"/>
    <path fill="black" fill-rule="nonzero" d="M2.32 4.16l3.93 0c0.21,0 0.39,0.08 0.53,0.22 0.14,0.14 0.22,0.32 0.22,0.53l0 2.18c0,0.21 -0.08,0.39 -0.22,0.53 -0.14,0.14 -0.32,0.22 -0.53,0.22l-3.93 0c-0.21,0 -0.39,-0.08 -0.53,-0.22 -0.14,-0.14 -0.22,-0.32 -0.22,-0.53l0 -2.18c0,-0.21 0.08,-0.39 0.22,-0.53 0.14,-0.14 0.32,-0.22 0.53,-0.22zm0.58 0.74l0.43 0c0.11,0 0.22,0.05 0.29,0.12 0.07,0.08 0.12,0.18 0.12,0.29l0 0.43c0,0.11 -0.05,0.22 -0.12,0.29 -0.07,0.07 -0.18,0.12 -0.29,0.12l-0.43 0c-0.11,0 -0.22,-0.05 -0.29,-0.12 -0.08,-0.07 -0.12,-0.18 -0.12,-0.29l0 -0.43c0,-0.11 0.05,-0.22 0.12,-0.29 0.08,-0.08 0.18,-0.12 0.29,-0.12zm0.43 0.3l-0.43 0c-0.03,0 -0.06,0.01 -0.08,0.03 -0.02,0.02 -0.03,0.05 -0.03,0.08l0 0.43c0,0.03 0.01,0.06 0.03,0.08 0.02,0.02 0.05,0.03 0.08,0.03l0.43 0c0.03,0 0.06,-0.01 0.08,-0.03 0.02,-0.02 0.03,-0.05 0.03,-0.08l0 -0.43c0,-0.03 -0.01,-0.06 -0.03,-0.08 -0.02,-0.02 -0.05,-0.03 -0.08,-0.03zm-0.89 1.43l3.69 0 0 0.3 -3.69 0 0 -0.3zm3.81 -2.17l-3.93 0c-0.12,0 -0.24,0.05 -0.32,0.13 -0.08,0.08 -0.13,0.19 -0.13,0.32l0 2.18c0,0.12 0.05,0.24 0.13,0.32 0.08,0.08 0.2,0.13 0.32,0.13l3.93 0c0.12,0 0.24,-0.05 0.32,-0.13 0.08,-0.08 0.13,-0.19 0.13,-0.32l0 -2.18c0,-0.12 -0.05,-0.24 -0.13,-0.32 -0.08,-0.08 -0.19,-0.13 -0.32,-0.13z"/>
    <path fill="black" fill-rule="nonzero" d="M2.68 3.05l0 -0.25 0 -0.21c0,-0.21 0.08,-0.39 0.22,-0.53 0.14,-0.14 0.32,-0.22 0.53,-0.22l3.93 0c0.21,0 0.39,0.08 0.53,0.22 0.14,0.14 0.22,0.32 0.22,0.53l0 0.6 0 1.58c0,0.15 -0.05,0.29 -0.13,0.41 -0.08,0.12 -0.2,0.22 -0.33,0.28l-0.12 -0.27c0.08,-0.03 0.15,-0.09 0.2,-0.17 0.05,-0.07 0.08,-0.16 0.08,-0.25l0 -1.58 -4.83 0 0 0.28 -0.3 0 0 -0.28 0 -0.15zm5.13 -0.15l0 -0.3c0,-0.12 -0.05,-0.24 -0.13,-0.32 -0.08,-0.08 -0.19,-0.13 -0.32,-0.13l-3.93 0c-0.12,0 -0.24,0.05 -0.32,0.13 -0.08,0.08 -0.13,0.19 -0.13,0.32l0 0.21 0 0.1 4.83 0z"/>
   </g>
   <path fill="#A4AFC3" fill-rule="nonzero" d="M1.04 1.19c0.12,0 0.22,0.05 0.3,0.12 0.08,0.08 0.12,0.18 0.12,0.3 0,0.12 -0.05,0.22 -0.12,0.3 -0.08,0.08 -0.18,0.12 -0.3,0.12 -0.12,0 -0.22,-0.05 -0.3,-0.12 -0.08,-0.08 -0.12,-0.18 -0.12,-0.3 0,-0.12 0.05,-0.22 0.12,-0.3 0.08,-0.08 0.18,-0.12 0.3,-0.12zm0.08 0.33c-0.02,-0.02 -0.05,-0.03 -0.08,-0.03 -0.03,0 -0.06,0.01 -0.08,0.03 -0.02,0.02 -0.03,0.05 -0.03,0.08 0,0.03 0.01,0.06 0.03,0.08 0.02,0.02 0.05,0.03 0.08,0.03 0.03,0 0.06,-0.01 0.08,-0.03 0.02,-0.02 0.03,-0.05 0.03,-0.08 0,-0.03 -0.01,-0.06 -0.03,-0.08z"/>
  </g>
 </g>
</svg>
