<?xml version="1.0" encoding="UTF-8"?>
<!DOCTYPE svg PUBLIC "-//W3C//DTD SVG 1.1//EN" "http://www.w3.org/Graphics/SVG/1.1/DTD/svg11.dtd">
<!-- Creator: CorelDRAW -->
<svg xmlns="http://www.w3.org/2000/svg" xml:space="preserve" width="6.4679mm" height="6.4681mm" version="1.1" shape-rendering="geometricPrecision" text-rendering="geometricPrecision" image-rendering="optimizeQuality" fill-rule="evenodd" clip-rule="evenodd"
viewBox="0 0 9.02 9.02"
 xmlns:xlink="http://www.w3.org/1999/xlink"
 xmlns:xodm="http://www.corel.com/coreldraw/odm/2003">
 <g id="Layer_x0020_1">
  <metadata id="CorelCorpID_0Corel-Layer"/>
  <g id="_2631062482832">
   <path fill="#EFEFEF" d="M0.12 4.3c0,0 0.9,4.4 4.83,4.71 1.99,0.16 3.01,-1.05 3.53,-2.29 0.67,-1.57 0.68,-3.23 0.19,-4.85 -0.34,-1.12 -1.02,-2.14 -2.34,-1.81 -2.69,0.66 -3,1.32 -4.61,0.94 -1.61,-0.38 -1.95,1.86 -1.61,3.3z"/>
   <g>
    <g>
     <path fill="#257ACD" d="M2.54 3.96l1.13 -1.17 -0.92 -0.89c-0.1,-0.09 -0.25,-0.09 -0.34,0.01l-0.8 0.82c-0.09,0.1 -0.09,0.25 0.01,0.34l0.92 0.89z"/>
     <path fill="black" fill-rule="nonzero" d="M2.53 3.76l0.37 -0.39 -0.45 -0.44 0.19 -0.2 0.45 0.44 0.37 -0.39 -0.82 -0.8c-0.02,-0.02 -0.05,-0.03 -0.07,-0.03 -0.03,0 -0.05,0.01 -0.07,0.03l-0.8 0.82c-0.02,0.02 -0.03,0.05 -0.03,0.07 0,0.03 0.01,0.05 0.03,0.07l0.82 0.8zm-0.38 0.39l0.18 -0.19 -0.82 -0.8c-0.08,-0.07 -0.11,-0.17 -0.12,-0.27 -0,-0.1 0.03,-0.2 0.11,-0.27l0.8 -0.82c0.07,-0.08 0.17,-0.11 0.27,-0.12 0.1,-0 0.2,0.03 0.27,0.11l0.82 0.8 0.28 -0.29 3.11 3.01c0.15,0.14 0.22,0.33 0.23,0.52 0,0.19 -0.07,0.38 -0.21,0.53l-0.85 0.88c-0.14,0.15 -0.33,0.22 -0.52,0.23 -0.19,0 -0.38,-0.07 -0.53,-0.21l-3.11 -3.01 0.1 -0.1zm1.8 -1.46l-0.09 0.09 -0.1 0.1 -1.23 1.27 -0.09 0.09 2.91 2.82c0.09,0.09 0.21,0.13 0.33,0.13 0.12,-0 0.24,-0.05 0.33,-0.14l0.85 -0.88c0.09,-0.09 0.13,-0.21 0.13,-0.33 -0,-0.12 -0.05,-0.24 -0.14,-0.33l-2.91 -2.82z"/>
    </g>
    <path fill="black" fill-rule="nonzero" d="M5.68 2.58c0.09,-0.11 0.21,-0.19 0.33,-0.25 0.12,-0.06 0.26,-0.09 0.41,-0.09 0.14,0 0.28,0.03 0.41,0.09 0.13,0.06 0.24,0.15 0.33,0.25l-0.21 0.18c-0.07,-0.08 -0.15,-0.14 -0.24,-0.18 -0.09,-0.04 -0.19,-0.06 -0.29,-0.06 -0.1,0 -0.2,0.02 -0.29,0.06 -0.09,0.04 -0.17,0.1 -0.24,0.18l-0.21 -0.18zm0.74 0.39c0.14,0 0.25,0.11 0.25,0.25 0,0.14 -0.11,0.25 -0.25,0.25 -0.14,0 -0.25,-0.11 -0.25,-0.25 0,-0.14 0.11,-0.25 0.25,-0.25zm-1.2 -0.92c0.16,-0.16 0.34,-0.29 0.55,-0.38 0.2,-0.08 0.42,-0.13 0.65,-0.13 0.23,0 0.45,0.05 0.65,0.13 0.21,0.09 0.39,0.22 0.55,0.38l-0.2 0.19c-0.13,-0.13 -0.29,-0.24 -0.46,-0.31 -0.17,-0.07 -0.35,-0.11 -0.54,-0.11 -0.19,0 -0.38,0.04 -0.54,0.11 -0.17,0.07 -0.33,0.18 -0.46,0.31l-0.2 -0.19z"/>
   </g>
   <path fill="#A4AFC3" fill-rule="nonzero" d="M2.18 6.19c0.11,0 0.21,0.04 0.28,0.11 0.07,0.07 0.11,0.17 0.11,0.28 0,0.11 -0.04,0.21 -0.11,0.28 -0.07,0.07 -0.17,0.11 -0.28,0.11 -0.11,0 -0.21,-0.04 -0.28,-0.11 -0.07,-0.07 -0.11,-0.17 -0.11,-0.28 0,-0.11 0.04,-0.21 0.11,-0.28 0.07,-0.07 0.17,-0.11 0.28,-0.11zm0.08 0.31c-0.02,-0.02 -0.05,-0.03 -0.08,-0.03 -0.03,0 -0.06,0.01 -0.08,0.03 -0.02,0.02 -0.03,0.05 -0.03,0.08 0,0.03 0.01,0.06 0.03,0.08 0.02,0.02 0.05,0.03 0.08,0.03 0.03,0 0.06,-0.01 0.08,-0.03 0.02,-0.02 0.03,-0.05 0.03,-0.08 0,-0.03 -0.01,-0.06 -0.03,-0.08z"/>
  </g>
 </g>
</svg>
