<?xml version="1.0" encoding="UTF-8"?>
<!DOCTYPE svg PUBLIC "-//W3C//DTD SVG 1.1//EN" "http://www.w3.org/Graphics/SVG/1.1/DTD/svg11.dtd">
<!-- Creator: CorelDRAW -->
<svg xmlns="http://www.w3.org/2000/svg" xml:space="preserve" width="6.4679mm" height="6.4681mm" version="1.1" shape-rendering="geometricPrecision" text-rendering="geometricPrecision" image-rendering="optimizeQuality" fill-rule="evenodd" clip-rule="evenodd"
viewBox="0 0 10.17 10.17"
 xmlns:xlink="http://www.w3.org/1999/xlink"
 xmlns:xodm="http://www.corel.com/coreldraw/odm/2003">
 <g id="Layer_x0020_1">
  <metadata id="CorelCorpID_0Corel-Layer"/>
  <g id="_2669815215728">
   <path fill="#EFEFEF" d="M10.04 5.32c0,0 -1.02,-4.96 -5.45,-5.31 -2.25,-0.18 -3.4,1.19 -3.99,2.58 -0.75,1.78 -0.77,3.65 -0.21,5.47 0.39,1.26 1.15,2.41 2.64,2.04 3.04,-0.75 3.38,-1.48 5.2,-1.06 1.82,0.42 2.2,-2.1 1.82,-3.72z"/>
   <g>
    <path fill="#257ACD" d="M7.8 5.14c-0.9,0.92 -2.38,0.94 -3.31,0.04 -0.92,-0.9 -0.94,-2.38 -0.04,-3.31l3.35 3.27z"/>
    <path fill="black" fill-rule="nonzero" d="M2.54 8.21l4.31 0 -0.32 -0.42c-0.01,-0.01 -0.02,-0.02 -0.04,-0.03 -0.01,-0.01 -0.03,-0.01 -0.03,-0.01l-3.53 0c-0.01,0 -0.02,0 -0.03,0.01 -0.02,0.01 -0.03,0.02 -0.04,0.03l-0.32 0.42zm5.38 -2.96c-0.48,0.49 -1.12,0.74 -1.75,0.75 -0.2,0 -0.39,-0.02 -0.59,-0.06l0.24 1.49 0.65 0c0.06,0 0.12,0.02 0.18,0.05 0.05,0.03 0.11,0.07 0.14,0.12l0.38 0.51c0.05,0.07 0.08,0.14 0.08,0.2 0,0.03 -0.01,0.06 -0.02,0.09 -0.01,0.03 -0.04,0.06 -0.06,0.08 -0.04,0.03 -0.09,0.05 -0.15,0.05l-4.63 0c-0.06,0 -0.11,-0.02 -0.15,-0.05 -0.03,-0.02 -0.05,-0.05 -0.07,-0.08l-0 -0c-0.01,-0.03 -0.02,-0.06 -0.02,-0.09 0,-0.06 0.03,-0.13 0.08,-0.2l0.38 -0.51c0.04,-0.05 0.09,-0.09 0.14,-0.12 0.06,-0.03 0.12,-0.05 0.18,-0.05l0.74 0 0.52 -2.35 0 0c-0.37,-0.45 -0.55,-1 -0.56,-1.54 -0.01,-0.64 0.23,-1.28 0.71,-1.77l0.11 -0.11 1.39 1.35 0.56 -0.12c-0.01,-0.04 -0.02,-0.09 -0.02,-0.13 -0,-0.13 0.05,-0.25 0.14,-0.35 0.1,-0.1 0.22,-0.15 0.35,-0.15 0.13,-0 0.25,0.05 0.35,0.14 0.1,0.1 0.15,0.22 0.15,0.35 0,0.13 -0.04,0.25 -0.14,0.35 -0.1,0.1 -0.22,0.15 -0.35,0.15 -0.04,0 -0.08,-0 -0.12,-0.01l-0.1 0.57 1.37 1.34 -0.11 0.11zm-2.67 0.59c-0.28,-0.11 -0.55,-0.27 -0.79,-0.49l-0.46 2.07 1.5 0 -0.25 -1.59zm0.87 -2.57l0.27 0.27 0.06 -0.34 -0.33 0.07zm0.95 -0.53c-0,-0.05 -0.02,-0.09 -0.05,-0.13 -0.04,-0.03 -0.08,-0.05 -0.13,-0.05 -0.05,0 -0.09,0.02 -0.13,0.05 -0.04,0.04 -0.05,0.08 -0.05,0.13 0,0.05 0.02,0.09 0.06,0.13 0.04,0.04 0.08,0.05 0.13,0.05 0.05,-0 0.09,-0.02 0.13,-0.06 0.03,-0.04 0.05,-0.08 0.05,-0.13zm-0.9 2.95c0.51,-0.01 1.02,-0.19 1.42,-0.55l-3.11 -3.04c-0.35,0.41 -0.52,0.92 -0.51,1.43 0.01,0.56 0.23,1.11 0.66,1.53 0.43,0.42 0.99,0.63 1.55,0.62z"/>
   </g>
   <path fill="#A4AFC3" fill-rule="nonzero" d="M1.71 1.38c0.12,0 0.23,0.05 0.31,0.13 0.08,0.08 0.13,0.19 0.13,0.31 0,0.12 -0.05,0.23 -0.13,0.31 -0.08,0.08 -0.19,0.13 -0.31,0.13 -0.12,0 -0.23,-0.05 -0.31,-0.13 -0.08,-0.08 -0.13,-0.19 -0.13,-0.31 0,-0.12 0.05,-0.23 0.13,-0.31 0.08,-0.08 0.19,-0.13 0.31,-0.13zm0.09 0.35c-0.02,-0.02 -0.05,-0.04 -0.09,-0.04 -0.03,0 -0.07,0.01 -0.09,0.04 -0.02,0.02 -0.04,0.05 -0.04,0.09 0,0.03 0.01,0.07 0.04,0.09 0.02,0.02 0.05,0.04 0.09,0.04 0.03,0 0.07,-0.01 0.09,-0.04 0.02,-0.02 0.04,-0.05 0.04,-0.09 0,-0.03 -0.01,-0.07 -0.04,-0.09z"/>
  </g>
 </g>
</svg>
