<?xml version="1.0" encoding="UTF-8"?>
<!DOCTYPE svg PUBLIC "-//W3C//DTD SVG 1.1//EN" "http://www.w3.org/Graphics/SVG/1.1/DTD/svg11.dtd">
<!-- Creator: CorelDRAW -->
<svg xmlns="http://www.w3.org/2000/svg" xml:space="preserve" width="6.4679mm" height="6.4681mm" version="1.1" shape-rendering="geometricPrecision" text-rendering="geometricPrecision" image-rendering="optimizeQuality" fill-rule="evenodd" clip-rule="evenodd"
viewBox="0 0 10.59 10.59"
 xmlns:xlink="http://www.w3.org/1999/xlink"
 xmlns:xodm="http://www.corel.com/coreldraw/odm/2003">
 <g id="Layer_x0020_1">
  <metadata id="CorelCorpID_0Corel-Layer"/>
  <g id="_2669811253120">
   <path fill="#EFEFEF" d="M0.14 5.54c0,0 1.06,-5.16 5.67,-5.52 2.34,-0.18 3.54,1.24 4.15,2.68 0.78,1.85 0.8,3.79 0.22,5.69 -0.4,1.31 -1.19,2.51 -2.74,2.13 -3.16,-0.78 -3.52,-1.54 -5.41,-1.1 -1.89,0.44 -2.29,-2.18 -1.89,-3.87z"/>
   <path fill="#A4AFC3" fill-rule="nonzero" d="M1.47 0.37l0.62 0.57 -0.22 0.24 -0.62 -0.57 0.22 -0.24zm-0.2 2.03l0.57 -0.62 0.24 0.22 -0.57 0.62 -0.24 -0.22zm2.23 -1.83l-0.57 0.62 -0.24 -0.22 0.57 -0.62 0.24 0.22z"/>
   <g>
    <path fill="#257ACD" d="M3.43 5.28c0,0.76 0.45,1.41 1.1,1.71l0 0.69 1.55 0 0 -0.69c0.65,-0.3 1.1,-0.95 1.1,-1.71 0,-1.04 -0.84,-1.88 -1.88,-1.88 -1.04,0 -1.88,0.84 -1.88,1.88zm2.86 0c0,-0.27 -0.11,-0.52 -0.29,-0.7 -0.18,-0.18 -0.43,-0.29 -0.7,-0.29l0 -0.33c0.36,0 0.69,0.15 0.93,0.39 0.24,0.24 0.39,0.57 0.39,0.93l-0.33 0z"/>
    <path fill="black" fill-rule="nonzero" d="M7.17 6.94l0.75 0.68 -0.22 0.24 -0.75 -0.68 0.22 -0.24zm-1.86 -3.7c0.56,0 1.07,0.23 1.44,0.6 0.37,0.37 0.6,0.88 0.6,1.44 0,0.41 -0.12,0.78 -0.32,1.1 -0.19,0.3 -0.46,0.54 -0.78,0.71l0 1.27c0,0.12 -0.05,0.24 -0.13,0.32 -0.08,0.08 -0.2,0.13 -0.32,0.13l-0.97 0c-0.13,0 -0.24,-0.05 -0.32,-0.13 -0.08,-0.08 -0.13,-0.2 -0.13,-0.32l0 -1.27c-0.32,-0.16 -0.59,-0.41 -0.78,-0.71 -0.21,-0.32 -0.32,-0.7 -0.32,-1.1 0,-0.56 0.23,-1.07 0.6,-1.44 0.37,-0.37 0.88,-0.6 1.44,-0.6zm-0.61 4.27l1.22 0 0 -0.63 0.1 -0.04c0.3,-0.14 0.56,-0.36 0.73,-0.63 0.17,-0.27 0.27,-0.59 0.27,-0.93 0,-0.47 -0.19,-0.9 -0.5,-1.21 -0.31,-0.31 -0.74,-0.5 -1.21,-0.5 -0.47,0 -0.9,0.19 -1.21,0.5 -0.31,0.31 -0.5,0.74 -0.5,1.21 0,0.34 0.1,0.66 0.27,0.93 0.18,0.28 0.43,0.5 0.73,0.63l0.1 0.04 0 0.63zm1.22 0.33l-1.22 0 0 0.52c0,0.04 0.01,0.07 0.04,0.09 0.02,0.02 0.06,0.04 0.09,0.04l0.97 0c0.03,0 0.07,-0.01 0.09,-0.04 0.02,-0.02 0.04,-0.05 0.04,-0.09l0 -0.52zm0.38 -2.56c0,-0.27 -0.11,-0.52 -0.29,-0.7 -0.18,-0.18 -0.43,-0.29 -0.7,-0.29l0 -0.33c0.36,0 0.69,0.15 0.93,0.39 0.24,0.24 0.39,0.57 0.39,0.93l-0.33 0zm-2.68 1.9l-0.75 0.67 -0.22 -0.24 0.75 -0.67 0.22 0.24zm-0.84 -1.7l-1.01 0.01 -0 -0.33 1.01 -0.01 0 0.33zm0.65 -1.85l-0.76 -0.67 0.21 -0.25 0.76 0.67 -0.21 0.25zm1.71 -0.84l-0.02 -1.01 0.33 -0 0.02 1.01 -0.33 0zm1.8 0.59l0.74 -0.68 0.22 0.24 -0.74 0.68 -0.22 -0.24zm0.86 1.74l1.01 0.03 -0.01 0.33 -1.01 -0.03 0.01 -0.33z"/>
   </g>
   <path fill="#A4AFC3" fill-rule="nonzero" d="M9.01 8.72c0.13,0 0.24,0.05 0.32,0.13 0.08,0.08 0.13,0.2 0.13,0.32 0,0.13 -0.05,0.24 -0.13,0.32 -0.08,0.08 -0.2,0.13 -0.32,0.13 -0.13,0 -0.24,-0.05 -0.32,-0.13 -0.08,-0.08 -0.13,-0.2 -0.13,-0.32 0,-0.13 0.05,-0.24 0.13,-0.32 0.08,-0.08 0.2,-0.13 0.32,-0.13zm0.09 0.37c-0.02,-0.02 -0.06,-0.04 -0.09,-0.04 -0.04,0 -0.07,0.01 -0.09,0.04 -0.02,0.02 -0.04,0.06 -0.04,0.09 0,0.04 0.01,0.07 0.04,0.09 0.02,0.02 0.06,0.04 0.09,0.04 0.04,0 0.07,-0.01 0.09,-0.04 0.02,-0.02 0.04,-0.06 0.04,-0.09 0,-0.04 -0.01,-0.07 -0.04,-0.09z"/>
  </g>
 </g>
</svg>
