<?xml version="1.0" encoding="UTF-8"?>
<!DOCTYPE svg PUBLIC "-//W3C//DTD SVG 1.1//EN" "http://www.w3.org/Graphics/SVG/1.1/DTD/svg11.dtd">
<!-- Creator: CorelDRAW -->
<svg xmlns="http://www.w3.org/2000/svg" xml:space="preserve" width="6.4681mm" height="6.4679mm" version="1.1" shape-rendering="geometricPrecision" text-rendering="geometricPrecision" image-rendering="optimizeQuality" fill-rule="evenodd" clip-rule="evenodd"
viewBox="0 0 9.77 9.77"
 xmlns:xlink="http://www.w3.org/1999/xlink"
 xmlns:xodm="http://www.corel.com/coreldraw/odm/2003">
 <g id="Layer_x0020_1">
  <metadata id="CorelCorpID_0Corel-Layer"/>
  <g id="_2669814298656">
   <path fill="#EFEFEF" d="M4.66 0.13c0,0 4.76,0.98 5.09,5.23 0.17,2.16 -1.14,3.26 -2.48,3.83 -1.7,0.72 -3.5,0.74 -5.25,0.2 -1.21,-0.37 -2.31,-1.1 -1.96,-2.53 0.72,-2.92 1.42,-3.24 1.02,-4.99 -0.41,-1.75 2.01,-2.12 3.58,-1.75z"/>
   <g>
    <path fill="#257ACD" d="M2.09 2.69l3.24 0c0.17,0 0.32,0.14 0.32,0.32l0 3.47 -2.15 0c-0.01,-0.16 -0.09,-0.31 -0.2,-0.42 -0.12,-0.12 -0.3,-0.2 -0.48,-0.2 -0.19,0 -0.36,0.08 -0.48,0.2 -0.11,0.11 -0.18,0.26 -0.2,0.42l-0.04 0c-0.17,0 -0.32,-0.14 -0.32,-0.32l0 -3.15c0,-0.17 0.14,-0.32 0.32,-0.32z"/>
    <path fill="#257ACD" d="M6.52 3.68l-0.72 0 0 0.87 1.3 0 -0.06 -0.41c-0.02,-0.12 -0.09,-0.24 -0.18,-0.32 -0.09,-0.08 -0.21,-0.13 -0.34,-0.13z"/>
    <path fill="black" fill-rule="nonzero" d="M2.09 2.54l3.24 0c0.13,0 0.25,0.05 0.33,0.14 0.08,0.08 0.14,0.2 0.14,0.33l0 0.36 0.72 0c0.2,0 0.39,0.08 0.54,0.21 0.15,0.13 0.25,0.31 0.28,0.51l0.07 0.53 0.75 0.6 0 1.42 -0.15 0 -0.51 0c-0.02,0.15 -0.09,0.29 -0.19,0.39 -0.12,0.12 -0.3,0.2 -0.48,0.2 -0.19,0 -0.36,-0.08 -0.48,-0.2 -0.1,-0.1 -0.17,-0.24 -0.19,-0.39l-0.34 0 -0.15 0 -2.16 0c-0.02,0.15 -0.09,0.29 -0.19,0.39 -0.12,0.12 -0.3,0.2 -0.48,0.2 -0.19,0 -0.36,-0.08 -0.48,-0.2 -0.1,-0.1 -0.17,-0.24 -0.19,-0.39l-0.04 0c-0.13,0 -0.25,-0.05 -0.33,-0.14 -0.08,-0.08 -0.14,-0.2 -0.14,-0.33l0 -3.15c0,-0.13 0.05,-0.25 0.14,-0.33 0.08,-0.08 0.2,-0.14 0.33,-0.14zm1.37 3.79l2.03 0 0 -3.32c0,-0.05 -0.02,-0.09 -0.05,-0.12 -0.03,-0.03 -0.07,-0.05 -0.12,-0.05l-3.24 0c-0.05,0 -0.09,0.02 -0.12,0.05 -0.03,0.03 -0.05,0.07 -0.05,0.12l0 3.15c0,0.05 0.02,0.09 0.05,0.12 0.03,0.03 0.07,0.05 0.12,0.05l0.07 0c0.03,-0.1 0.09,-0.2 0.17,-0.27 0.12,-0.12 0.29,-0.2 0.48,-0.2 0.19,0 0.36,0.08 0.48,0.2 0.08,0.08 0.13,0.17 0.17,0.27zm-0.38 -0.06c-0.07,-0.07 -0.16,-0.11 -0.27,-0.11 -0.11,0 -0.2,0.04 -0.27,0.11 -0.07,0.07 -0.11,0.16 -0.11,0.27 0,0.11 0.04,0.2 0.11,0.27 0.07,0.07 0.17,0.11 0.27,0.11 0.11,0 0.2,-0.04 0.27,-0.11 0.07,-0.07 0.11,-0.16 0.11,-0.27 0,-0.11 -0.04,-0.2 -0.11,-0.27zm4.38 0.06l0.39 0 0 -0.97 -0.64 -0.51 -1.42 0 0 1.48 0.37 0c0.03,-0.1 0.09,-0.2 0.17,-0.27 0.12,-0.12 0.29,-0.2 0.48,-0.2 0.19,0 0.36,0.08 0.48,0.2 0.08,0.08 0.13,0.17 0.17,0.27zm-0.38 -0.06c-0.07,-0.07 -0.16,-0.11 -0.27,-0.11 -0.11,0 -0.2,0.04 -0.27,0.11 -0.07,0.07 -0.11,0.16 -0.11,0.27 0,0.11 0.04,0.2 0.11,0.27 0.07,0.07 0.17,0.11 0.27,0.11 0.11,0 0.2,-0.04 0.27,-0.11 0.07,-0.07 0.11,-0.16 0.11,-0.27 0,-0.11 -0.04,-0.2 -0.11,-0.27zm-1.29 -2.6l0 0.87 1.3 0 -0.06 -0.41c-0.02,-0.12 -0.09,-0.24 -0.18,-0.32 -0.09,-0.08 -0.21,-0.13 -0.34,-0.13l-0.72 0z"/>
   </g>
   <path fill="#A4AFC3" fill-rule="nonzero" d="M2.04 0.96c0.12,0 0.22,0.05 0.3,0.12 0.08,0.08 0.12,0.18 0.12,0.3 0,0.12 -0.05,0.22 -0.12,0.3 -0.08,0.08 -0.18,0.12 -0.3,0.12 -0.12,0 -0.22,-0.05 -0.3,-0.12 -0.08,-0.08 -0.12,-0.18 -0.12,-0.3 0,-0.12 0.05,-0.22 0.12,-0.3 0.08,-0.08 0.18,-0.12 0.3,-0.12zm0.09 0.34c-0.02,-0.02 -0.05,-0.04 -0.09,-0.04 -0.03,0 -0.06,0.01 -0.09,0.04 -0.02,0.02 -0.04,0.05 -0.04,0.09 0,0.03 0.01,0.06 0.04,0.09 0.02,0.02 0.05,0.04 0.09,0.04 0.03,0 0.06,-0.01 0.09,-0.04 0.02,-0.02 0.04,-0.05 0.04,-0.09 0,-0.03 -0.01,-0.06 -0.04,-0.09z"/>
   <path fill="#A4AFC3" fill-rule="nonzero" d="M8.04 9.39l-0.34 -0.7 0.27 -0.13 0.34 0.7 -0.27 0.13zm0.86 -1.67l-0.7 0.34 -0.13 -0.27 0.7 -0.34 0.13 0.27zm-2.54 0.81l0.7 -0.34 0.13 0.27 -0.7 0.34 -0.13 -0.27z"/>
  </g>
 </g>
</svg>
