<?xml version="1.0" encoding="UTF-8"?>
<!DOCTYPE svg PUBLIC "-//W3C//DTD SVG 1.1//EN" "http://www.w3.org/Graphics/SVG/1.1/DTD/svg11.dtd">
<!-- Creator: CorelDRAW -->
<svg xmlns="http://www.w3.org/2000/svg" xml:space="preserve" width="6.4679mm" height="6.4681mm" version="1.1" shape-rendering="geometricPrecision" text-rendering="geometricPrecision" image-rendering="optimizeQuality" fill-rule="evenodd" clip-rule="evenodd"
viewBox="0 0 7.43 7.43"
 xmlns:xlink="http://www.w3.org/1999/xlink"
 xmlns:xodm="http://www.corel.com/coreldraw/odm/2003">
 <g id="Layer_x0020_1">
  <metadata id="CorelCorpID_0Corel-Layer"/>
  <g id="_2669811353216">
   <path fill="#EFEFEF" d="M0.1 3.89c0,0 0.74,-3.62 3.98,-3.87 1.64,-0.13 2.48,0.87 2.91,1.88 0.55,1.3 0.56,2.66 0.16,3.99 -0.28,0.92 -0.84,1.76 -1.93,1.49 -2.22,-0.55 -2.47,-1.08 -3.79,-0.77 -1.33,0.31 -1.61,-1.53 -1.33,-2.72z"/>
   <g>
    <path fill="black" fill-rule="nonzero" d="M3.64 4.48c0.19,0.05 0.33,0.14 0.42,0.25 0.06,0.08 0.1,0.18 0.11,0.28 0.15,-0.05 0.33,-0.11 0.53,-0.19 0.05,-0.02 0.1,-0.04 0.14,-0.05 0.16,-0.05 0.3,-0.04 0.42,0.01 0.12,0.05 0.21,0.15 0.27,0.27 0.01,0.03 0.03,0.06 0.03,0.1l0.03 0.09 -0.08 0.04c-1.06,0.57 -1.62,0.84 -2.16,0.86 -0.52,0.01 -1,-0.22 -1.86,-0.67l-0.08 0.22 -0.74 0 0 -1.91 0.09 -0.02c0.32,-0.06 0.57,-0.05 0.75,0.03 0.18,0.07 0.3,0.19 0.37,0.34 0.57,0.14 1.17,0.24 1.74,0.35zm-1.96 -0.28c-0.05,-0.09 -0.13,-0.16 -0.23,-0.2 -0.13,-0.05 -0.3,-0.06 -0.53,-0.03l0 1.49 0.35 0c0.14,-0.42 0.28,-0.84 0.42,-1.26zm2.27 0.88c-0.01,-0.08 -0.03,-0.15 -0.07,-0.2 -0.06,-0.07 -0.15,-0.13 -0.29,-0.17l-1.71 -0.34 -0.3 0.89c0.84,0.44 1.3,0.67 1.77,0.66 0.48,-0.01 1,-0.26 1.97,-0.78 -0.03,-0.06 -0.08,-0.11 -0.14,-0.14 -0.07,-0.03 -0.16,-0.03 -0.27,-0 -0.04,0.01 -0.08,0.02 -0.11,0.04l-0 0c-0.53,0.21 -0.86,0.3 -1.17,0.31 -0.31,0.01 -0.58,-0.07 -0.98,-0.19l0.07 -0.22c0.38,0.12 0.63,0.19 0.9,0.18 0.1,-0 0.21,-0.02 0.33,-0.05z"/>
    <path fill="#257ACD" d="M1.26 5.45c0.14,-0.42 0.28,-0.84 0.42,-1.26 -0.05,-0.09 -0.13,-0.16 -0.23,-0.2 -0.13,-0.05 -0.3,-0.06 -0.53,-0.03l0 1.49 0.35 0z"/>
    <path fill="black" fill-rule="nonzero" d="M3.79 2.95c-0.19,-0.05 -0.33,-0.14 -0.42,-0.25 -0.06,-0.08 -0.1,-0.18 -0.11,-0.28 -0.15,0.05 -0.33,0.11 -0.53,0.19 -0.05,0.02 -0.1,0.04 -0.14,0.05 -0.16,0.05 -0.3,0.04 -0.42,-0.01 -0.12,-0.05 -0.21,-0.15 -0.27,-0.27 -0.01,-0.03 -0.03,-0.06 -0.03,-0.1l-0.03 -0.09 0.08 -0.04c1.06,-0.57 1.62,-0.84 2.16,-0.86 0.52,-0.01 1,0.22 1.86,0.67l0.08 -0.22 0.74 0 0 1.91 -0.09 0.02c-0.32,0.06 -0.57,0.05 -0.75,-0.03 -0.18,-0.07 -0.3,-0.19 -0.37,-0.34 -0.57,-0.14 -1.17,-0.24 -1.74,-0.35zm1.96 0.28c0.05,0.09 0.13,0.16 0.23,0.2 0.13,0.05 0.3,0.06 0.53,0.03l0 -1.49 -0.35 0c-0.14,0.42 -0.28,0.84 -0.42,1.26zm-2.27 -0.88c0.01,0.08 0.03,0.15 0.07,0.2 0.06,0.07 0.15,0.13 0.29,0.17l1.71 0.34 0.3 -0.89c-0.84,-0.44 -1.3,-0.67 -1.77,-0.66 -0.48,0.01 -1,0.26 -1.97,0.78 0.03,0.06 0.08,0.11 0.14,0.14 0.07,0.03 0.16,0.03 0.27,0 0.04,-0.01 0.08,-0.02 0.11,-0.04l0 -0c0.53,-0.21 0.86,-0.3 1.17,-0.31 0.31,-0.01 0.58,0.07 0.98,0.19l-0.07 0.22c-0.38,-0.12 -0.63,-0.19 -0.9,-0.18 -0.1,0 -0.21,0.02 -0.33,0.05z"/>
    <path fill="#257ACD" d="M6.17 1.98c-0.14,0.42 -0.28,0.84 -0.42,1.26 0.05,0.09 0.13,0.16 0.23,0.2 0.13,0.05 0.3,0.06 0.53,0.03l0 -1.49 -0.35 0z"/>
   </g>
   <path fill="#A4AFC3" fill-rule="nonzero" d="M7.03 6.3l-0.43 -0.4 0.16 -0.17 0.43 0.4 -0.16 0.17zm-1.43 -0.14l0.4 -0.43 0.17 0.16 -0.4 0.43 -0.17 -0.16zm1.57 -1.28l-0.4 0.43 -0.17 -0.16 0.4 -0.43 0.17 0.16z"/>
  </g>
 </g>
</svg>
