<?xml version="1.0" encoding="UTF-8"?>
<!DOCTYPE svg PUBLIC "-//W3C//DTD SVG 1.1//EN" "http://www.w3.org/Graphics/SVG/1.1/DTD/svg11.dtd">
<!-- Creator: CorelDRAW -->
<svg xmlns="http://www.w3.org/2000/svg" xml:space="preserve" width="6.4679mm" height="6.6174mm" version="1.1" shape-rendering="geometricPrecision" text-rendering="geometricPrecision" image-rendering="optimizeQuality" fill-rule="evenodd" clip-rule="evenodd"
viewBox="0 0 10.73 10.98"
 xmlns:xlink="http://www.w3.org/1999/xlink"
 xmlns:xodm="http://www.corel.com/coreldraw/odm/2003">
 <g id="Layer_x0020_1">
  <metadata id="CorelCorpID_0Corel-Layer"/>
  <g id="_2669811210832">
   <path fill="#EFEFEF" d="M0.14 5.37c0,0 1.07,5.23 5.75,5.6 2.37,0.19 3.58,-1.25 4.2,-2.72 0.79,-1.87 0.81,-3.85 0.22,-5.77 -0.41,-1.33 -1.21,-2.54 -2.78,-2.16 -3.2,0.79 -3.56,1.57 -5.48,1.12 -1.92,-0.45 -2.32,2.21 -1.92,3.93z"/>
   <g>
    <path fill="#257ACD" d="M4.48 4.8c0.49,0.24 0.56,0.5 0.3,0.76l-1.48 1.5 -0.76 -0.32c-0.6,-0.22 -0.77,0.24 -0.31,0.58l0.87 0.59 0.6 0.87c0.35,0.46 0.81,0.29 0.58,-0.32l-0.32 -0.75 1.48 -1.49c0.26,-0.26 0.52,-0.2 0.76,0.29l1.14 2.13c0.21,0.4 0.68,0.31 0.58,-0.19l-0.76 -3.7 1.27 -1.22c0.87,-0.88 -0.11,-1.86 -0.99,-0.98l-1.21 1.28 -3.71 -0.72c-0.5,-0.1 -0.58,0.37 -0.18,0.58l2.14 1.11z"/>
    <path fill="black" fill-rule="nonzero" d="M4.56 4.65c0.29,0.14 0.45,0.3 0.51,0.46 0.07,0.19 0.01,0.38 -0.17,0.56l-1.56 1.58 -0.85 -0.36c-0.15,-0.06 -0.26,-0.06 -0.32,-0.03 -0.01,0.01 -0.02,0.01 -0.03,0.02 -0.01,0.01 -0.01,0.03 -0,0.05 0.01,0.07 0.07,0.17 0.19,0.26l0.89 0.6 0.62 0.89c0.09,0.12 0.19,0.18 0.26,0.19 0.02,0 0.03,0 0.05,-0 0.01,-0 0.02,-0.01 0.02,-0.03 0.03,-0.06 0.02,-0.17 -0.04,-0.31l-0.37 -0.85 1.56 -1.57c0.18,-0.18 0.36,-0.24 0.56,-0.18 0.17,0.06 0.32,0.22 0.47,0.5l1.14 2.13c0.05,0.09 0.12,0.15 0.17,0.16 0.02,0 0.03,0 0.05,-0 0.01,-0 0.02,-0.01 0.03,-0.02 0.03,-0.04 0.04,-0.11 0.02,-0.21l-0.78 -3.79 1.33 -1.28c0.27,-0.27 0.33,-0.54 0.27,-0.74 -0.02,-0.07 -0.06,-0.13 -0.11,-0.18 -0.05,-0.05 -0.11,-0.09 -0.18,-0.11 -0.2,-0.06 -0.47,0.01 -0.73,0.28l-1.27 1.34 -3.8 -0.73c-0.11,-0.02 -0.18,-0.01 -0.21,0.02 -0.01,0.01 -0.02,0.02 -0.02,0.03 -0,0.01 -0,0.03 0,0.05 0.01,0.06 0.07,0.12 0.16,0.17l2.14 1.11zm0.2 0.57c-0.03,-0.09 -0.14,-0.18 -0.35,-0.28l-2.15 -1.12c-0.19,-0.1 -0.3,-0.24 -0.33,-0.38 -0.02,-0.08 -0.02,-0.16 0,-0.23 0.02,-0.08 0.07,-0.14 0.14,-0.19 0.11,-0.08 0.27,-0.12 0.48,-0.08l3.62 0.7 1.15 -1.22c0.36,-0.37 0.76,-0.45 1.06,-0.36 0.13,0.04 0.24,0.1 0.32,0.19 0.09,0.09 0.15,0.2 0.19,0.32 0.09,0.3 0.01,0.7 -0.35,1.06l-1.2 1.16 0.74 3.61c0.04,0.21 0,0.37 -0.08,0.48 -0.05,0.07 -0.12,0.11 -0.19,0.14 -0.07,0.02 -0.15,0.03 -0.23,0.01 -0.14,-0.03 -0.29,-0.14 -0.39,-0.33l-1.14 -2.13c-0.1,-0.2 -0.2,-0.32 -0.28,-0.35 -0.06,-0.02 -0.13,0.01 -0.22,0.1l-1.4 1.42 0.28 0.66c0.09,0.24 0.09,0.43 0.03,0.57 -0.04,0.08 -0.1,0.15 -0.17,0.19 -0.07,0.04 -0.16,0.05 -0.24,0.04 -0.15,-0.02 -0.33,-0.12 -0.48,-0.32l-0.59 -0.85 -0.85 -0.58c-0.2,-0.15 -0.3,-0.32 -0.33,-0.48 -0.01,-0.09 0,-0.17 0.04,-0.25 0.04,-0.07 0.1,-0.13 0.19,-0.17 0.13,-0.06 0.33,-0.06 0.57,0.02l0.66 0.28 1.4 -1.42c0.08,-0.08 0.12,-0.16 0.09,-0.22z"/>
   </g>
   <path fill="#A4AFC3" fill-rule="nonzero" d="M9.39 5.02c0.13,0 0.24,0.05 0.33,0.14 0.08,0.08 0.14,0.2 0.14,0.33 0,0.13 -0.05,0.24 -0.14,0.33 -0.08,0.08 -0.2,0.14 -0.33,0.14 -0.13,0 -0.24,-0.05 -0.33,-0.14 -0.08,-0.08 -0.14,-0.2 -0.14,-0.33 0,-0.13 0.05,-0.24 0.14,-0.33 0.08,-0.08 0.2,-0.14 0.33,-0.14zm0.09 0.37c-0.02,-0.02 -0.06,-0.04 -0.09,-0.04 -0.04,0 -0.07,0.01 -0.09,0.04 -0.02,0.02 -0.04,0.06 -0.04,0.09 0,0.04 0.01,0.07 0.04,0.09 0.02,0.02 0.06,0.04 0.09,0.04 0.04,0 0.07,-0.01 0.09,-0.04 0.02,-0.02 0.04,-0.06 0.04,-0.09 0,-0.04 -0.01,-0.07 -0.04,-0.09z"/>
   <path fill="#A4AFC3" fill-rule="nonzero" d="M5.35 0l0.37 0.76 -0.3 0.14 -0.37 -0.77 0.3 -0.14zm-0.95 1.84l0.77 -0.37 0.14 0.3 -0.77 0.37 -0.14 -0.3zm2.79 -0.89l-0.77 0.37 -0.14 -0.3 0.76 -0.37 0.14 0.3z"/>
  </g>
 </g>
</svg>
