<?xml version="1.0" encoding="UTF-8"?>
<!DOCTYPE svg PUBLIC "-//W3C//DTD SVG 1.1//EN" "http://www.w3.org/Graphics/SVG/1.1/DTD/svg11.dtd">
<!-- Creator: CorelDRAW -->
<svg xmlns="http://www.w3.org/2000/svg" xml:space="preserve" width="6.7622mm" height="6.4679mm" version="1.1" shape-rendering="geometricPrecision" text-rendering="geometricPrecision" image-rendering="optimizeQuality" fill-rule="evenodd" clip-rule="evenodd"
viewBox="0 0 11.14 10.65"
 xmlns:xlink="http://www.w3.org/1999/xlink"
 xmlns:xodm="http://www.corel.com/coreldraw/odm/2003">
 <g id="Layer_x0020_1">
  <metadata id="CorelCorpID_0Corel-Layer"/>
  <g id="_2669809043168">
   <path fill="#EFEFEF" d="M5.57 0.14c0,0 -5.19,1.07 -5.56,5.71 -0.19,2.35 1.24,3.56 2.7,4.17 1.86,0.79 3.82,0.81 5.73,0.22 1.32,-0.4 2.52,-1.2 2.14,-2.76 -0.78,-3.18 -1.55,-3.54 -1.11,-5.44 0.44,-1.9 -2.19,-2.31 -3.9,-1.9z"/>
   <g>
    <path fill="black" fill-rule="nonzero" d="M2.32 5.87l0.81 0 0.25 0.69 0.92 -0.54 0.82 0.73 0.46 -0.88 2.76 0c0.15,0 0.29,0.06 0.39,0.16 0.1,0.1 0.16,0.24 0.16,0.39l0 1.18c0,0.15 -0.06,0.29 -0.16,0.39 -0.1,0.1 -0.24,0.16 -0.39,0.16l-6.02 0c-0.15,0 -0.29,-0.06 -0.39,-0.16 -0.1,-0.1 -0.16,-0.24 -0.16,-0.39l0 -1.18c0,-0.15 0.06,-0.29 0.16,-0.39 0.1,-0.1 0.24,-0.16 0.39,-0.16zm0.58 0.33l-0.58 0c-0.06,0 -0.12,0.03 -0.16,0.07 -0.04,0.04 -0.07,0.1 -0.07,0.16l0 1.18c0,0.06 0.03,0.12 0.07,0.16 0.04,0.04 0.1,0.07 0.16,0.07l6.02 0c0.06,0 0.12,-0.03 0.16,-0.07 0.04,-0.04 0.07,-0.1 0.07,-0.16l0 -1.18c0,-0.06 -0.03,-0.12 -0.07,-0.16 -0.04,-0.04 -0.1,-0.07 -0.16,-0.07l-2.56 0 -0.56 1.08 -0.95 -0.85 -1.05 0.62 -0.31 -0.85z"/>
    <path fill="#257ACD" d="M4.88 4.36c0,-0.33 -0.6,-1.49 -0.6,-1.49 0,0 -0.6,1.16 -0.6,1.49 0,0.33 0.27,0.6 0.6,0.6 0.33,0 0.6,-0.27 0.6,-0.6z"/>
    <path fill="black" fill-rule="nonzero" d="M4.43 2.79c0,0 0.62,1.19 0.62,1.56 0,0.21 -0.09,0.4 -0.22,0.54 -0.14,0.14 -0.33,0.23 -0.54,0.23 -0.21,0 -0.4,-0.09 -0.54,-0.22 -0.14,-0.14 -0.22,-0.33 -0.22,-0.54 0,-0.38 0.62,-1.56 0.62,-1.56l0.15 -0.29 0.15 0.29zm0.29 1.56c0,-0.19 -0.26,-0.77 -0.44,-1.12 -0.17,0.36 -0.44,0.93 -0.44,1.12 0,0.12 0.05,0.23 0.13,0.31 0.08,0.08 0.19,0.13 0.31,0.13 0.12,0 0.23,-0.05 0.31,-0.13 0.08,-0.08 0.13,-0.19 0.13,-0.31z"/>
   </g>
   <path fill="#A4AFC3" fill-rule="nonzero" d="M9.07 8.07l0.62 0.57 -0.22 0.24 -0.62 -0.57 0.22 -0.24zm1.84 2.25l-0.62 -0.57 0.22 -0.24 0.62 0.57 -0.22 0.24zm-2.04 -0.2l0.57 -0.62 0.24 0.22 -0.57 0.62 -0.24 -0.22zm2.25 -1.84l-0.57 0.62 -0.24 -0.22 0.57 -0.62 0.24 0.22z"/>
  </g>
 </g>
</svg>
