<?xml version="1.0" encoding="UTF-8"?>
<!DOCTYPE svg PUBLIC "-//W3C//DTD SVG 1.1//EN" "http://www.w3.org/Graphics/SVG/1.1/DTD/svg11.dtd">
<!-- Creator: CorelDRAW -->
<svg xmlns="http://www.w3.org/2000/svg" xml:space="preserve" width="6.4681mm" height="6.4679mm" version="1.1" shape-rendering="geometricPrecision" text-rendering="geometricPrecision" image-rendering="optimizeQuality" fill-rule="evenodd" clip-rule="evenodd"
viewBox="0 0 10.6 10.6"
 xmlns:xlink="http://www.w3.org/1999/xlink"
 xmlns:xodm="http://www.corel.com/coreldraw/odm/2003">
 <g id="Layer_x0020_1">
  <metadata id="CorelCorpID_0Corel-Layer"/>
  <g id="_2631066231840">
   <path fill="#EFEFEF" d="M5.06 0.14c0,0 5.17,1.06 5.53,5.68 0.18,2.34 -1.24,3.54 -2.69,4.15 -1.85,0.78 -3.8,0.8 -5.7,0.22 -1.32,-0.4 -2.51,-1.19 -2.13,-2.75 0.78,-3.17 1.55,-3.52 1.1,-5.41 -0.44,-1.89 2.18,-2.3 3.88,-1.89z"/>
   <g>
    <path fill="#257ACD" d="M4.83 4.05l-2.56 0c-0.19,0 -0.35,0.16 -0.35,0.35l0 0.66c0,0.2 0.16,0.35 0.35,0.35l6.01 0c0.19,0 0.35,-0.16 0.35,-0.35l0 -0.66c0,-0.2 -0.16,-0.35 -0.35,-0.35l-2.52 0 0 -0.03c4.8,-1.11 0.56,-4.03 -0.45,-0.16 -1.01,-3.86 -5.25,-0.96 -0.47,0.16l0 0.04z"/>
    <path fill="black" d="M3.21 5.59l-0.53 0 0 2.57c0,0.1 0.04,0.19 0.11,0.25 0.07,0.06 0.16,0.11 0.25,0.11l2.1 0 0 -2.93 -1.93 0zm2.36 -1.38l0.09 0 2.68 0c0.05,0 0.09,0.02 0.12,0.05 0.03,0.03 0.05,0.07 0.05,0.12l0 0.71c0,0.05 -0.02,0.09 -0.05,0.12 -0.03,0.03 -0.07,0.05 -0.12,0.05l-0.08 0 -0.65 0 -0.37 0 0 0.33 0.37 0 0.32 0 0 2.57c0,0.1 -0.04,0.19 -0.11,0.25 -0.06,0.06 -0.15,0.11 -0.25,0.11l-2.1 0 0 -2.93 0.84 0 0 -0.33 -0.84 0 0 -1.05 0.1 0zm1.21 -0.33c0.7,-0.27 1.09,-0.59 1.26,-0.9 0.22,-0.39 0.11,-0.76 -0.17,-0.99 -0.26,-0.21 -0.69,-0.31 -1.14,-0.18 -0.52,0.15 -1.08,0.6 -1.43,1.51 -0.35,-0.91 -0.91,-1.36 -1.43,-1.51 -0.45,-0.13 -0.87,-0.03 -1.14,0.18 -0.29,0.23 -0.4,0.6 -0.17,0.99 0.17,0.3 0.57,0.63 1.26,0.9l-1.55 0c-0.14,0 -0.26,0.06 -0.35,0.15 -0.09,0.09 -0.15,0.21 -0.15,0.35l0 0.71c0,0.14 0.06,0.26 0.15,0.35 0.09,0.09 0.21,0.15 0.35,0.15l0.08 0 0 2.57c0,0.19 0.08,0.36 0.2,0.48 0.12,0.12 0.3,0.2 0.48,0.2l4.53 0c0.19,0 0.36,-0.08 0.48,-0.2 0.12,-0.12 0.2,-0.3 0.2,-0.48l0 -2.57 0.08 0c0.14,0 0.26,-0.06 0.35,-0.15 0.09,-0.09 0.15,-0.21 0.15,-0.35l0 -0.71c0,-0.14 -0.06,-0.26 -0.15,-0.35 -0.09,-0.09 -0.21,-0.15 -0.35,-0.15l-1.55 0zm-1.83 0.33l0.09 0 0.1 0 0 1.05 -1.93 0 -0.86 0 -0.08 0c-0.05,0 -0.09,-0.02 -0.12,-0.05 -0.03,-0.03 -0.05,-0.07 -0.05,-0.12l0 -0.71c0,-0.05 0.02,-0.09 0.05,-0.12 0.03,-0.03 0.07,-0.05 0.12,-0.05l2.68 0zm0.03 -0.33l0.02 0 0.13 -0.03c-0.29,-1.08 -0.85,-1.58 -1.35,-1.72 -0.34,-0.1 -0.65,-0.03 -0.84,0.12 -0.16,0.13 -0.23,0.35 -0.09,0.58 0.21,0.37 0.84,0.77 2.14,1.06zm0.63 0l0.02 0c1.3,-0.29 1.93,-0.69 2.14,-1.06 0.13,-0.23 0.07,-0.44 -0.09,-0.58 -0.19,-0.15 -0.5,-0.21 -0.84,-0.12 -0.51,0.14 -1.06,0.64 -1.35,1.72l0.13 0.03z"/>
   </g>
   <path fill="#A4AFC3" fill-rule="nonzero" d="M0.16 2.64l0.73 0.41 -0.16 0.28 -0.73 -0.41 0.16 -0.28zm0.26 2.03l0.41 -0.73 0.28 0.16 -0.41 0.73 -0.28 -0.16zm1.76 -2.29l-0.41 0.73 -0.28 -0.16 0.41 -0.73 0.28 0.16z"/>
  </g>
 </g>
</svg>
