<?xml version="1.0" encoding="UTF-8"?>
<!DOCTYPE svg PUBLIC "-//W3C//DTD SVG 1.1//EN" "http://www.w3.org/Graphics/SVG/1.1/DTD/svg11.dtd">
<!-- Creator: CorelDRAW -->
<svg xmlns="http://www.w3.org/2000/svg" xml:space="preserve" width="6.4679mm" height="6.4681mm" version="1.1" shape-rendering="geometricPrecision" text-rendering="geometricPrecision" image-rendering="optimizeQuality" fill-rule="evenodd" clip-rule="evenodd"
viewBox="0 0 10.05 10.05"
 xmlns:xlink="http://www.w3.org/1999/xlink"
 xmlns:xodm="http://www.corel.com/coreldraw/odm/2003">
 <g id="Layer_x0020_1">
  <metadata id="CorelCorpID_0Corel-Layer"/>
  <g id="_2631180013264">
   <path fill="#EFEFEF" d="M0.13 5.26c0,0 1.01,-4.9 5.39,-5.24 2.22,-0.17 3.36,1.17 3.94,2.55 0.74,1.75 0.76,3.6 0.21,5.4 -0.38,1.25 -1.13,2.38 -2.61,2.02 -3,-0.74 -3.34,-1.47 -5.13,-1.05 -1.8,0.42 -2.18,-2.07 -1.8,-3.68z"/>
   <g>
    <path fill="black" fill-rule="nonzero" d="M2.09 6.78l2.74 0 0 -0.02c0,-0.02 -0,-0.03 -0.01,-0.05l-0.36 -1.34c-0,-0.01 -0.01,-0.01 -0.02,-0.02l-0.01 -0.01 -1.97 0 -0.01 0.01c-0.01,0.01 -0.01,0.01 -0.02,0.02l-0.36 1.34c-0,0.02 -0.01,0.03 -0.01,0.05l0 0.02zm3.11 0.31l-0.34 0 -0 0 -0 0 -0.44 0 -2.34 0c-0.03,0 -0.05,-0 -0.07,-0.01 -0.07,-0.02 -0.13,-0.07 -0.17,-0.13 -0.03,-0.05 -0.05,-0.12 -0.05,-0.19 0,-0.04 0.01,-0.08 0.02,-0.13l0.36 -1.34c0.02,-0.07 0.06,-0.14 0.12,-0.18 0.06,-0.05 0.13,-0.08 0.21,-0.08l1.97 0c0.07,0 0.15,0.03 0.21,0.08 0.06,0.05 0.1,0.11 0.12,0.18l0.26 0.96 0.26 -0.96c0.02,-0.07 0.06,-0.14 0.12,-0.18 0.06,-0.05 0.13,-0.08 0.21,-0.08l1.97 0c0.07,0 0.15,0.03 0.21,0.08 0.06,0.05 0.1,0.11 0.12,0.18l0.36 1.34c0.01,0.04 0.02,0.09 0.02,0.13 0,0.07 -0.02,0.14 -0.05,0.19 -0.04,0.07 -0.1,0.11 -0.17,0.13 -0.02,0.01 -0.05,0.01 -0.07,0.01l-2.36 0 -0.43 0 -0 0 -0 0zm0.02 -0.31l2.74 0 0 -0.02c0,-0.02 -0,-0.03 -0.01,-0.05l-0.36 -1.34c-0,-0.01 -0.01,-0.01 -0.02,-0.02l-0.01 -0.01 -1.97 0 -0.01 0.01c-0.01,0.01 -0.01,0.01 -0.02,0.02l-0.36 1.34c-0,0.02 -0.01,0.03 -0.01,0.05l0 0.02zm1.77 -0.97l-1.04 0 -0.15 0.55 -0.3 -0.08 0.21 -0.78 1.28 0 0 0.31zm-3.13 0l-1.04 0 -0.15 0.55 -0.3 -0.08 0.21 -0.78 1.28 0 0 0.31z"/>
    <path fill="#257ACD" d="M3.63 4.87l2.79 0c0.11,0 0.16,-0.12 0.12,-0.26l-0.36 -1.34c-0.02,-0.08 -0.1,-0.14 -0.18,-0.14l-1.97 0c-0.08,0 -0.15,0.06 -0.18,0.14l-0.36 1.34c-0.04,0.14 0.02,0.26 0.12,0.26z"/>
    <path fill="black" fill-rule="nonzero" d="M3.65 4.71l2.74 0 0 -0.02c0,-0.02 -0,-0.03 -0.01,-0.05l-0.36 -1.34c-0,-0.01 -0.01,-0.01 -0.02,-0.02l-0.01 -0.01 -1.97 0 -0.01 0.01c-0.01,0.01 -0.01,0.01 -0.02,0.02l-0.36 1.34c-0,0.02 -0.01,0.03 -0.01,0.05l0 0.02zm2.77 0.31l-2.79 0c-0.03,0 -0.05,-0 -0.07,-0.01 -0.07,-0.02 -0.13,-0.07 -0.17,-0.13 -0.03,-0.05 -0.05,-0.12 -0.05,-0.19 0,-0.04 0.01,-0.08 0.02,-0.13l0.36 -1.34c0.02,-0.07 0.06,-0.14 0.12,-0.18 0.06,-0.05 0.13,-0.08 0.21,-0.08l1.97 0c0.07,0 0.15,0.03 0.21,0.08 0.06,0.05 0.1,0.11 0.12,0.18l0.36 1.34c0.01,0.04 0.02,0.09 0.02,0.13 0,0.07 -0.02,0.14 -0.05,0.19 -0.04,0.07 -0.1,0.11 -0.17,0.13 -0.02,0.01 -0.05,0.01 -0.07,0.01z"/>
    <polygon fill="black" fill-rule="nonzero" points="5.43,3.75 4.39,3.75 4.24,4.29 3.94,4.21 4.15,3.44 5.43,3.44 "/>
   </g>
   <path fill="#A4AFC3" fill-rule="nonzero" d="M6.33 7.4l0.59 0.54 -0.21 0.23 -0.59 -0.54 0.21 -0.23zm1.74 2.12l-0.59 -0.54 0.21 -0.23 0.59 0.54 -0.21 0.23zm-1.93 -0.19l0.54 -0.59 0.23 0.21 -0.54 0.59 -0.23 -0.21zm2.12 -1.74l-0.54 0.59 -0.23 -0.21 0.54 -0.59 0.23 0.21z"/>
   <path fill="#A4AFC3" fill-rule="nonzero" d="M7.89 1.99c0.12,0 0.23,0.05 0.31,0.13 0.08,0.08 0.13,0.19 0.13,0.31 0,0.12 -0.05,0.23 -0.13,0.31 -0.08,0.08 -0.19,0.13 -0.31,0.13 -0.12,0 -0.23,-0.05 -0.31,-0.13 -0.08,-0.08 -0.13,-0.19 -0.13,-0.31 0,-0.12 0.05,-0.23 0.13,-0.31 0.08,-0.08 0.19,-0.13 0.31,-0.13zm0.09 0.35c-0.02,-0.02 -0.05,-0.04 -0.09,-0.04 -0.03,0 -0.07,0.01 -0.09,0.04 -0.02,0.02 -0.04,0.05 -0.04,0.09 0,0.03 0.01,0.07 0.04,0.09 0.02,0.02 0.05,0.04 0.09,0.04 0.03,0 0.07,-0.01 0.09,-0.04 0.02,-0.02 0.04,-0.05 0.04,-0.09 0,-0.03 -0.01,-0.07 -0.04,-0.09z"/>
  </g>
 </g>
</svg>
