<?xml version="1.0" encoding="UTF-8"?>
<!DOCTYPE svg PUBLIC "-//W3C//DTD SVG 1.1//EN" "http://www.w3.org/Graphics/SVG/1.1/DTD/svg11.dtd">
<!-- Creator: CorelDRAW -->
<svg xmlns="http://www.w3.org/2000/svg" xml:space="preserve" width="6.4679mm" height="6.4681mm" version="1.1" shape-rendering="geometricPrecision" text-rendering="geometricPrecision" image-rendering="optimizeQuality" fill-rule="evenodd" clip-rule="evenodd"
viewBox="0 0 8.81 8.81"
 xmlns:xlink="http://www.w3.org/1999/xlink"
 xmlns:xodm="http://www.corel.com/coreldraw/odm/2003">
 <g id="Layer_x0020_1">
  <metadata id="CorelCorpID_0Corel-Layer"/>
  <g id="_2631065220800">
   <path fill="#EFEFEF" d="M0.12 4.2c0,0 0.88,4.29 4.72,4.59 1.94,0.15 2.94,-1.03 3.45,-2.23 0.65,-1.54 0.67,-3.16 0.18,-4.73 -0.33,-1.09 -0.99,-2.09 -2.28,-1.77 -2.63,0.65 -2.92,1.28 -4.5,0.92 -1.57,-0.37 -1.91,1.81 -1.57,3.22z"/>
   <g>
    <path fill="#257ACD" d="M3.52 1.88c1.04,0 1.89,0.85 1.89,1.89l-3.78 0c0,-1.04 0.85,-1.89 1.89,-1.89z"/>
    <path fill="black" fill-rule="nonzero" d="M4.01 2.09c0.05,0.09 0.1,0.19 0.15,0.3 0.13,0.33 0.21,0.76 0.22,1.25l0.89 0c-0.03,-0.43 -0.22,-0.82 -0.51,-1.1 -0.2,-0.2 -0.46,-0.36 -0.75,-0.44zm-2.38 4.07l1.75 0 0 -2.25 -0.73 0 -1.16 0 0 -0.14c0,-0.56 0.23,-1.07 0.59,-1.43 0.37,-0.37 0.87,-0.59 1.43,-0.59 0.56,0 1.07,0.23 1.43,0.59 0.37,0.37 0.59,0.87 0.59,1.43l0 0.14 -1.16 0 -0.73 0 0 2.25 1.74 0 -0.02 -0.03c-0.25,-0.34 -0.34,-0.34 -0.72,-0.34l-0.05 0 0 -0.27 0.05 0c0.49,-0 0.61,-0 0.94,0.45l0.13 0.18c0.25,-0.01 0.42,-0.04 0.55,-0.1 0.16,-0.07 0.27,-0.2 0.39,-0.39l0.42 -0.71 0.23 0.14 -0.42 0.71c-0.15,0.25 -0.28,0.41 -0.51,0.51 -0.13,0.05 -0.28,0.09 -0.47,0.11l0.36 0.49 -0.22 0.16 -0.46 -0.64c-0.06,0 -0.11,0 -0.18,0l-2.71 0 -0.46 0.63 -0.22 -0.16 0.35 -0.47 -0.73 0 0 -0.27zm1.03 -2.52c0.01,-0.48 0.1,-0.92 0.22,-1.25 0.04,-0.11 0.09,-0.21 0.15,-0.3 -0.29,0.08 -0.54,0.24 -0.75,0.44 -0.29,0.29 -0.48,0.67 -0.51,1.1l0.89 0zm1.25 -1.15c-0.11,-0.29 -0.25,-0.47 -0.39,-0.47 -0.14,0 -0.28,0.18 -0.39,0.47 -0.11,0.3 -0.19,0.7 -0.2,1.15l1.18 0c-0.01,-0.45 -0.09,-0.85 -0.2,-1.15z"/>
   </g>
   <path fill="#A4AFC3" fill-rule="nonzero" d="M6.19 0.82l0.51 0.47 -0.18 0.2 -0.51 -0.47 0.18 -0.2zm1.52 1.86l-0.51 -0.47 0.18 -0.2 0.51 0.47 -0.18 0.2zm-1.69 -0.17l0.47 -0.51 0.2 0.18 -0.47 0.51 -0.2 -0.18zm1.86 -1.52l-0.47 0.51 -0.2 -0.18 0.47 -0.51 0.2 0.18z"/>
  </g>
 </g>
</svg>
