<?xml version="1.0" encoding="UTF-8"?>
<!DOCTYPE svg PUBLIC "-//W3C//DTD SVG 1.1//EN" "http://www.w3.org/Graphics/SVG/1.1/DTD/svg11.dtd">
<!-- Creator: CorelDRAW -->
<svg xmlns="http://www.w3.org/2000/svg" xml:space="preserve" width="6.4681mm" height="6.4679mm" version="1.1" shape-rendering="geometricPrecision" text-rendering="geometricPrecision" image-rendering="optimizeQuality" fill-rule="evenodd" clip-rule="evenodd"
viewBox="0 0 7.66 7.66"
 xmlns:xlink="http://www.w3.org/1999/xlink"
 xmlns:xodm="http://www.corel.com/coreldraw/odm/2003">
 <g id="Layer_x0020_1">
  <metadata id="CorelCorpID_0Corel-Layer"/>
  <g id="_2631174312368">
   <path fill="#EFEFEF" d="M3.65 0.1c0,0 3.73,0.77 4,4.11 0.13,1.69 -0.89,2.56 -1.94,3 -1.34,0.57 -2.75,0.58 -4.12,0.16 -0.95,-0.29 -1.82,-0.86 -1.54,-1.99 0.56,-2.29 1.12,-2.54 0.8,-3.91 -0.32,-1.37 1.58,-1.66 2.8,-1.37z"/>
   <g>
    <path fill="black" fill-rule="nonzero" d="M1.83 4.26l0.31 0 0 0.24 -0.31 0 0 -0.24zm3.69 0l0.31 0 0 0.24 -0.31 0 0 -0.24zm0 1.31l0.31 0 0 0.24 -0.31 0 0 -0.24zm0 -0.65l0.31 0 0 0.24 -0.31 0 0 -0.24zm-3.69 0.65l0.31 0 0 0.24 -0.31 0 0 -0.24zm0 -0.65l0.31 0 0 0.24 -0.31 0 0 -0.24z"/>
    <path fill="black" fill-rule="nonzero" d="M3.4 6.19l0.86 0 0 -0.61c0,-0.12 -0.05,-0.23 -0.13,-0.3 -0.08,-0.08 -0.19,-0.13 -0.3,-0.13 -0.12,0 -0.23,0.05 -0.3,0.13 -0.08,0.08 -0.13,0.19 -0.13,0.3l0 0.61zm0.98 0.24l-1.21 0 0 -0.85c0,-0.18 0.08,-0.35 0.2,-0.47 0.12,-0.12 0.29,-0.2 0.47,-0.2 0.18,0 0.35,0.08 0.47,0.2 0.12,0.12 0.2,0.29 0.2,0.47l0 0.85 -0.12 0z"/>
    <path fill="black" fill-rule="nonzero" d="M2.73 6.19l2.21 0 0 -2.96 0 -0.26 0 -1.18c0,-0.09 -0.04,-0.17 -0.09,-0.22 -0.06,-0.06 -0.14,-0.09 -0.22,-0.09l-1.58 0c-0.09,0 -0.17,0.04 -0.22,0.09 -0.06,0.06 -0.09,0.14 -0.09,0.22l0 1.21 0 0.26 0 2.93zm1.31 -3.34l0.26 0 0 -0.83 -0.26 0 0 0.33 -0.41 0 0 -0.33 -0.26 0 0 0.83 0.26 0 0 -0.34 0.41 0 0 0.34zm-0.75 0.54l1.1 0 0 0.24 -1.1 0 0 -0.24zm0 0.63l1.1 0 0 0.24 -1.1 0 0 -0.24zm-1.71 2.17l0.92 0 0 -2.82 -0.87 0.42c-0.04,0.02 -0.08,0.06 -0.11,0.1 -0.03,0.04 -0.04,0.08 -0.04,0.11l0 2.09c0,0.03 0.01,0.05 0.03,0.07 0.02,0.02 0.04,0.03 0.07,0.03zm3.6 0l0.92 0c0.03,0 0.05,-0.01 0.07,-0.03 0.02,-0.02 0.03,-0.05 0.03,-0.07l0 -2.09c0,-0.03 -0.02,-0.07 -0.04,-0.11 -0.03,-0.05 -0.07,-0.08 -0.11,-0.1l-0.86 -0.43 0 2.84zm0 -3.1l0.97 0.49c0.07,0.04 0.15,0.1 0.2,0.18 0.05,0.07 0.09,0.16 0.09,0.24l0 2.09c0,0.09 -0.04,0.18 -0.1,0.24 -0.06,0.06 -0.15,0.1 -0.24,0.1l-0.92 0 -0.12 0 -2.56 0 -0.92 0c-0.09,0 -0.18,-0.04 -0.24,-0.1 -0.06,-0.06 -0.1,-0.15 -0.1,-0.24l0 -2.09c0,-0.08 0.03,-0.17 0.09,-0.25 0.05,-0.08 0.13,-0.14 0.2,-0.18l0.97 -0.46 0 -1.32c0,-0.15 0.06,-0.29 0.16,-0.39 0.1,-0.1 0.24,-0.16 0.39,-0.16l1.58 0c0.15,0 0.29,0.06 0.39,0.16 0.1,0.1 0.16,0.24 0.16,0.39l0 1.3z"/>
    <path fill="#257ACD" d="M3.4 6.19l0.86 0 0 -0.61c0,-0.12 -0.05,-0.23 -0.13,-0.3 -0.08,-0.08 -0.19,-0.13 -0.3,-0.13 -0.12,0 -0.23,0.05 -0.3,0.13 -0.08,0.08 -0.13,0.19 -0.13,0.3l0 0.61z"/>
   </g>
   <path fill="#A4AFC3" fill-rule="nonzero" d="M0.42 1.11l0.45 0.41 -0.16 0.17 -0.45 -0.41 0.16 -0.17zm-0.15 1.47l0.41 -0.45 0.17 0.16 -0.41 0.45 -0.17 -0.16zm1.62 -1.32l-0.41 0.45 -0.17 -0.16 0.41 -0.45 0.17 0.16z"/>
  </g>
 </g>
</svg>
