<?xml version="1.0" encoding="UTF-8"?>
<!DOCTYPE svg PUBLIC "-//W3C//DTD SVG 1.1//EN" "http://www.w3.org/Graphics/SVG/1.1/DTD/svg11.dtd">
<!-- Creator: CorelDRAW -->
<svg xmlns="http://www.w3.org/2000/svg" xml:space="preserve" width="6.4679mm" height="6.4681mm" version="1.1" shape-rendering="geometricPrecision" text-rendering="geometricPrecision" image-rendering="optimizeQuality" fill-rule="evenodd" clip-rule="evenodd"
viewBox="0 0 10.18 10.18"
 xmlns:xlink="http://www.w3.org/1999/xlink"
 xmlns:xodm="http://www.corel.com/coreldraw/odm/2003">
 <g id="Layer_x0020_1">
  <metadata id="CorelCorpID_0Corel-Layer"/>
  <g id="_2630916673504">
   <path fill="#EFEFEF" d="M10.04 5.32c0,0 -1.02,-4.96 -5.46,-5.31 -2.25,-0.18 -3.4,1.19 -3.99,2.58 -0.75,1.78 -0.77,3.65 -0.21,5.47 0.39,1.26 1.15,2.41 2.64,2.04 3.04,-0.75 3.38,-1.48 5.2,-1.06 1.82,0.42 2.2,-2.1 1.82,-3.73z"/>
   <g>
    <path fill="#257ACD" d="M3.09 8.27l1.4 0 0 -1.36c0,-0.11 -0.09,-0.2 -0.2,-0.2l-1 0c-0.11,0 -0.2,0.09 -0.2,0.2l0 1.36z"/>
    <path fill="black" fill-rule="nonzero" d="M5.38 8.12l0 -5.32c0,-0.06 -0.03,-0.12 -0.07,-0.17 -0.04,-0.05 -0.09,-0.08 -0.15,-0.09l-3 -0.47 -0.03 -0c-0.04,0 -0.07,0.01 -0.09,0.03 -0.02,0.02 -0.04,0.05 -0.05,0.09l-0 0.03 0 5.9 0.94 0 0 -1.2c0,-0.1 0.04,-0.19 0.1,-0.25 0.06,-0.06 0.15,-0.1 0.25,-0.1l1 0c0.1,0 0.19,0.04 0.25,0.1 0.06,0.06 0.1,0.15 0.1,0.25l0 1.2 0.73 0zm-2.13 0l1.09 0 0 -1.2c0,-0.01 -0.01,-0.02 -0.01,-0.03 -0.01,-0.01 -0.02,-0.01 -0.03,-0.01l-1 0c-0.01,0 -0.02,0.01 -0.03,0.01 -0.01,0.01 -0.01,0.02 -0.01,0.03l0 1.2zm-1.57 0l0 -5.9c0,-0.02 0,-0.05 0.01,-0.08 0.02,-0.11 0.07,-0.21 0.15,-0.28 0.08,-0.07 0.18,-0.11 0.3,-0.11 0.02,0 0.05,0 0.08,0.01l3 0.47c0.14,0.02 0.26,0.1 0.34,0.2 0.09,0.1 0.14,0.23 0.14,0.37l0 1.66 2.33 0.36c0.14,0.02 0.26,0.1 0.34,0.2 0.09,0.1 0.14,0.23 0.14,0.37l0 2.73 1.07 0 0 0.31 -4.93 0 -1.72 0 -2.33 0 0 -0.31 1.07 0zm6.52 0l0 -2.73c0,-0.06 -0.03,-0.12 -0.07,-0.17 -0.04,-0.05 -0.09,-0.08 -0.15,-0.09l-2.28 -0.36 0 3.35 2.5 0z"/>
    <path fill="#257ACD" d="M5.69 4.77l0 3.35 2.5 0 0 -2.73c0,-0.06 -0.03,-0.12 -0.07,-0.17 -0.04,-0.05 -0.09,-0.08 -0.15,-0.09l-2.28 -0.36z"/>
    <polygon fill="#2B2A29" fill-rule="nonzero" points="6.59,5.59 7.29,5.59 7.29,5.91 6.59,5.91 "/>
    <polygon fill="#2B2A29" fill-rule="nonzero" points="6.59,6.4 7.29,6.4 7.29,6.71 6.59,6.71 "/>
    <polygon fill="#2B2A29" fill-rule="nonzero" points="6.59,7.2 7.29,7.2 7.29,7.52 6.59,7.52 "/>
    <path fill="black" fill-rule="nonzero" d="M2.69 2.98l0.7 0 0 0.31 -0.7 0 0 -0.31zm0 2.7l0.7 0 0 0.31 -0.7 0 0 -0.31zm1.45 0l0.7 0 0 0.31 -0.7 0 0 -0.31zm-1.45 -0.9l0.7 0 0 0.31 -0.7 0 0 -0.31zm1.45 0l0.7 0 0 0.31 -0.7 0 0 -0.31zm-1.45 -0.9l0.7 0 0 0.31 -0.7 0 0 -0.31zm1.45 0l0.7 0 0 0.31 -0.7 0 0 -0.31zm0 -0.9l0.7 0 0 0.31 -0.7 0 0 -0.31z"/>
   </g>
   <path fill="#A4AFC3" fill-rule="nonzero" d="M7.04 1.52l0.59 0.55 -0.21 0.23 -0.59 -0.55 0.21 -0.23zm1.76 2.15l-0.59 -0.55 0.21 -0.23 0.59 0.55 -0.21 0.23zm-1.95 -0.2l0.55 -0.59 0.23 0.21 -0.55 0.59 -0.23 -0.21zm2.15 -1.76l-0.55 0.59 -0.23 -0.21 0.55 -0.59 0.23 0.21z"/>
  </g>
 </g>
</svg>
