<?xml version="1.0" encoding="UTF-8"?>
<!DOCTYPE svg PUBLIC "-//W3C//DTD SVG 1.1//EN" "http://www.w3.org/Graphics/SVG/1.1/DTD/svg11.dtd">
<!-- Creator: CorelDRAW -->
<svg xmlns="http://www.w3.org/2000/svg" xml:space="preserve" width="6.4681mm" height="6.4679mm" version="1.1" shape-rendering="geometricPrecision" text-rendering="geometricPrecision" image-rendering="optimizeQuality" fill-rule="evenodd" clip-rule="evenodd"
viewBox="0 0 9.18 9.18"
 xmlns:xlink="http://www.w3.org/1999/xlink"
 xmlns:xodm="http://www.corel.com/coreldraw/odm/2003">
 <g id="Layer_x0020_1">
  <metadata id="CorelCorpID_0Corel-Layer"/>
  <g id="_2631066293712">
   <path fill="#EFEFEF" d="M4.8 0.12c0,0 -4.47,0.92 -4.79,4.92 -0.16,2.03 1.07,3.06 2.32,3.59 1.6,0.68 3.29,0.69 4.93,0.19 1.14,-0.35 2.17,-1.03 1.84,-2.38 -0.67,-2.74 -1.34,-3.05 -0.96,-4.69 0.38,-1.64 -1.89,-1.99 -3.36,-1.64z"/>
   <g>
    <path fill="#257ACD" d="M2.86 3.52l1.78 0c0.33,0 0.61,0.27 0.61,0.61l0 1.84c0,0.33 -0.27,0.61 -0.61,0.61l-1.78 0c-0.33,0 -0.61,-0.27 -0.61,-0.61l0 -1.84c0,-0.33 0.27,-0.61 0.61,-0.61z"/>
    <path fill="black" fill-rule="nonzero" d="M3.09 3.38l1.31 0 0 -0.36c0,-0.09 -0.04,-0.18 -0.1,-0.24 -0.06,-0.06 -0.15,-0.1 -0.24,-0.1l-0.64 0c-0.09,0 -0.18,0.04 -0.24,0.1 -0.06,0.06 -0.1,0.15 -0.1,0.24l0 0.36zm1.6 0c0.19,0.01 0.35,0.09 0.48,0.22 0.14,0.14 0.22,0.32 0.22,0.53l0 1.84c0,0.21 -0.08,0.39 -0.22,0.53 -0.13,0.13 -0.29,0.21 -0.48,0.22l0 0.36c0,0.17 -0.07,0.33 -0.18,0.44 -0.11,0.11 -0.27,0.18 -0.44,0.18l-0.64 0c-0.17,0 -0.33,-0.07 -0.44,-0.18 -0.11,-0.11 -0.18,-0.27 -0.18,-0.44l0 -0.36c-0.19,-0.01 -0.35,-0.09 -0.48,-0.22 -0.14,-0.14 -0.22,-0.32 -0.22,-0.53l0 -1.84c0,-0.21 0.08,-0.39 0.22,-0.53 0.13,-0.13 0.29,-0.21 0.48,-0.22l0 -0.36c0,-0.17 0.07,-0.33 0.18,-0.44 0.11,-0.11 0.27,-0.18 0.44,-0.18l0.64 0c0.17,0 0.33,0.07 0.44,0.18 0.11,0.11 0.18,0.27 0.18,0.44l0 0.36zm-0.28 3.33l-1.31 0 0 0.36c0,0.09 0.04,0.18 0.1,0.24 0.06,0.06 0.15,0.1 0.24,0.1l0.64 0c0.09,0 0.18,-0.04 0.24,-0.1 0.06,-0.06 0.1,-0.15 0.1,-0.24l0 -0.36zm1.12 -5.02l0.09 -0.1c0.21,-0.19 0.39,-0.14 0.53,0.01 0.14,0.16 0.22,0.43 0.27,0.62l0.01 0.04c0.07,0.23 0.07,0.24 -0.16,0.4l-0.04 0.03c0.07,0.08 0.13,0.16 0.2,0.24 0.08,0.09 0.16,0.17 0.25,0.24l0.14 0.13 0.14 0.1 0.14 0.09 0.08 0.04 0 -0.01c0.1,-0.29 0.13,-0.29 0.41,-0.24l0.05 0.01c0.14,0.02 0.3,0.06 0.43,0.12 0.12,0.05 0.22,0.13 0.28,0.22 0.08,0.14 0.07,0.25 0.01,0.36 -0.05,0.08 -0.12,0.14 -0.19,0.2 -0.49,0.38 -1.07,0.33 -1.58,0.06 -0.25,-0.13 -0.49,-0.32 -0.69,-0.53 -0.2,-0.21 -0.37,-0.46 -0.47,-0.7 -0.21,-0.48 -0.22,-0.98 0.11,-1.33l0 -0zm0.29 0.11l-0.08 0.09c-0.24,0.26 -0.22,0.64 -0.05,1.02 0.1,0.22 0.24,0.43 0.42,0.63 0.18,0.19 0.39,0.36 0.61,0.47 0.42,0.22 0.9,0.27 1.28,-0.03 0.05,-0.04 0.1,-0.08 0.12,-0.12 0.01,-0.02 0.01,-0.04 -0.01,-0.07 -0.02,-0.04 -0.08,-0.08 -0.15,-0.11 -0.1,-0.05 -0.24,-0.08 -0.35,-0.1l-0.05 -0.01c-0.07,-0.01 -0.08,-0.01 -0.1,0.06l-0 0.01c-0.01,0.02 -0.02,0.05 -0.03,0.06 -0.01,0.02 -0.03,0.04 -0.04,0.06l-0.01 0.01c-0.02,0.02 -0.04,0.03 -0.06,0.05 -0.02,0.01 -0.05,0.02 -0.08,0.03l-0.05 0.01c-0.29,-0.16 -0.43,-0.25 -0.68,-0.47 -0.09,-0.08 -0.18,-0.17 -0.27,-0.26 -0.09,-0.1 -0.17,-0.2 -0.25,-0.3l-0.02 -0.02 -0.01 -0.03c-0.01,-0.05 -0.02,-0.09 -0.01,-0.13 0.01,-0.05 0.03,-0.09 0.06,-0.13l0.01 -0.02 0.11 -0.07c0.06,-0.04 0.06,-0.04 0.05,-0.08l-0.01 -0.05c-0.05,-0.17 -0.12,-0.41 -0.21,-0.51 -0.03,-0.03 -0.07,-0.04 -0.12,0zm-1.17 1.86l-1.78 0c-0.13,0 -0.24,0.05 -0.33,0.14 -0.08,0.08 -0.14,0.2 -0.14,0.33l0 1.84c0,0.13 0.05,0.24 0.14,0.33 0.08,0.08 0.2,0.14 0.33,0.14l1.78 0c0.13,0 0.24,-0.05 0.33,-0.14 0.08,-0.08 0.14,-0.2 0.14,-0.33l0 -1.84c0,-0.13 -0.05,-0.24 -0.14,-0.33 -0.08,-0.08 -0.2,-0.14 -0.33,-0.14z"/>
   </g>
   <path fill="#A4AFC3" fill-rule="nonzero" d="M1.33 0.26l0.54 0.49 -0.19 0.21 -0.54 -0.49 0.19 -0.21zm-0.18 1.76l0.49 -0.54 0.21 0.19 -0.49 0.54 -0.21 -0.19zm1.94 -1.58l-0.49 0.54 -0.21 -0.19 0.49 -0.54 0.21 0.19z"/>
   <path fill="#A4AFC3" fill-rule="nonzero" d="M7.61 7.67c0.11,0 0.21,0.04 0.28,0.12 0.07,0.07 0.12,0.17 0.12,0.28 0,0.11 -0.04,0.21 -0.12,0.28 -0.07,0.07 -0.17,0.12 -0.28,0.12 -0.11,0 -0.21,-0.04 -0.28,-0.12 -0.07,-0.07 -0.12,-0.17 -0.12,-0.28 0,-0.11 0.04,-0.21 0.12,-0.28 0.07,-0.07 0.17,-0.12 0.28,-0.12zm0.08 0.32c-0.02,-0.02 -0.05,-0.03 -0.08,-0.03 -0.03,0 -0.06,0.01 -0.08,0.03 -0.02,0.02 -0.03,0.05 -0.03,0.08 0,0.03 0.01,0.06 0.03,0.08 0.02,0.02 0.05,0.03 0.08,0.03 0.03,0 0.06,-0.01 0.08,-0.03 0.02,-0.02 0.03,-0.05 0.03,-0.08 0,-0.03 -0.01,-0.06 -0.03,-0.08z"/>
  </g>
 </g>
</svg>
