<?xml version="1.0" encoding="UTF-8"?>
<!DOCTYPE svg PUBLIC "-//W3C//DTD SVG 1.1//EN" "http://www.w3.org/Graphics/SVG/1.1/DTD/svg11.dtd">
<!-- Creator: CorelDRAW -->
<svg xmlns="http://www.w3.org/2000/svg" xml:space="preserve" width="6.4681mm" height="6.4679mm" version="1.1" shape-rendering="geometricPrecision" text-rendering="geometricPrecision" image-rendering="optimizeQuality" fill-rule="evenodd" clip-rule="evenodd"
viewBox="0 0 10.66 10.66"
 xmlns:xlink="http://www.w3.org/1999/xlink"
 xmlns:xodm="http://www.corel.com/coreldraw/odm/2003">
 <g id="Layer_x0020_1">
  <metadata id="CorelCorpID_0Corel-Layer"/>
  <g id="_2667156324352">
   <path fill="#EFEFEF" d="M5.09 0.14c0,0 5.19,1.07 5.56,5.71 0.19,2.35 -1.24,3.56 -2.7,4.18 -1.86,0.79 -3.82,0.81 -5.73,0.22 -1.32,-0.4 -2.53,-1.2 -2.14,-2.76 0.78,-3.18 1.55,-3.54 1.11,-5.44 -0.44,-1.9 2.2,-2.31 3.9,-1.9z"/>
   <g>
    <path fill="black" fill-rule="nonzero" d="M1.74 6c-0.02,-0.11 -0.04,-0.22 -0.05,-0.33 -0.01,-0.12 -0.02,-0.23 -0.02,-0.34 0,-1.01 0.41,-1.92 1.07,-2.58 0.66,-0.66 1.58,-1.07 2.58,-1.07 0.53,0 1.04,0.12 1.5,0.32 0.4,0.18 0.76,0.43 1.07,0.74l0 -0.41 0.33 0 0 1.03 -1.06 0 0 -0.33 0.55 0c-0.29,-0.3 -0.64,-0.55 -1.03,-0.73 -0.42,-0.19 -0.88,-0.29 -1.37,-0.29 -0.92,0 -1.75,0.37 -2.35,0.97 -0.6,0.6 -0.97,1.43 -0.97,2.35 0,0.11 0,0.21 0.01,0.31 0.01,0.1 0.02,0.2 0.04,0.3l-0.32 0.06zm1.58 1.45l-0.56 0c0.3,0.36 0.67,0.66 1.09,0.87 0.44,0.22 0.94,0.34 1.47,0.34 0.92,0 1.75,-0.37 2.35,-0.97 0.6,-0.6 0.97,-1.43 0.97,-2.35 0,-0.1 -0,-0.19 -0.01,-0.29 -0.01,-0.1 -0.02,-0.19 -0.04,-0.28l0.32 -0.06c0.02,0.1 0.03,0.21 0.04,0.31 0.01,0.1 0.01,0.21 0.01,0.31 0,1.01 -0.41,1.92 -1.07,2.58 -0.66,0.66 -1.57,1.07 -2.58,1.07 -0.58,0 -1.13,-0.14 -1.62,-0.38 -0.43,-0.21 -0.81,-0.5 -1.12,-0.86l0 0.4 -0.33 0 0 -1.03 1.06 0 0 0.33z"/>
    <path fill="#257ACD" d="M5.21 3.55c0.99,0 1.8,0.76 1.87,1.73l-3.74 0c0.07,-0.97 0.88,-1.73 1.87,-1.73z"/>
    <path fill="black" fill-rule="nonzero" d="M5.3 5.44l0 1.36c0,0.14 -0.06,0.27 -0.15,0.36 -0.09,0.09 -0.22,0.15 -0.36,0.15 -0.14,0 -0.27,-0.06 -0.36,-0.15 -0.09,-0.09 -0.15,-0.22 -0.15,-0.36l0.33 0c0,0.05 0.02,0.1 0.05,0.13 0.03,0.03 0.08,0.05 0.13,0.05 0.05,0 0.1,-0.02 0.13,-0.05 0.03,-0.03 0.06,-0.08 0.06,-0.13l0 -1.36 -1.81 0 0.01 -0.18c0.04,-0.53 0.28,-1 0.65,-1.34 0.36,-0.34 0.85,-0.54 1.38,-0.54 0.53,0 1.02,0.21 1.38,0.54 0.37,0.34 0.61,0.81 0.65,1.34l0.01 0.18 -1.96 0zm1.07 -1.28c-0.3,-0.28 -0.71,-0.45 -1.16,-0.45 -0.45,0 -0.86,0.17 -1.16,0.45 -0.27,0.25 -0.45,0.58 -0.52,0.95l3.36 0c-0.07,-0.37 -0.25,-0.7 -0.52,-0.95z"/>
   </g>
   <path fill="#A4AFC3" fill-rule="nonzero" d="M0.51 1.7l0.62 0.57 -0.22 0.24 -0.62 -0.57 0.22 -0.24zm-0.2 2.05l0.57 -0.62 0.24 0.22 -0.57 0.62 -0.24 -0.22zm2.25 -1.84l-0.57 0.62 -0.24 -0.22 0.57 -0.62 0.24 0.22z"/>
  </g>
 </g>
</svg>
