<?xml version="1.0" encoding="UTF-8"?>
<!DOCTYPE svg PUBLIC "-//W3C//DTD SVG 1.1//EN" "http://www.w3.org/Graphics/SVG/1.1/DTD/svg11.dtd">
<!-- Creator: CorelDRAW -->
<svg xmlns="http://www.w3.org/2000/svg" xml:space="preserve" width="6.4679mm" height="6.4681mm" version="1.1" shape-rendering="geometricPrecision" text-rendering="geometricPrecision" image-rendering="optimizeQuality" fill-rule="evenodd" clip-rule="evenodd"
viewBox="0 0 9.3 9.3"
 xmlns:xlink="http://www.w3.org/1999/xlink"
 xmlns:xodm="http://www.corel.com/coreldraw/odm/2003">
 <g id="Layer_x0020_1">
  <metadata id="CorelCorpID_0Corel-Layer"/>
  <path fill="#EFEFEF" d="M9.17 4.86c0,0 -0.93,-4.53 -4.98,-4.85 -2.05,-0.16 -3.1,1.09 -3.64,2.36 -0.69,1.62 -0.7,3.33 -0.19,5 0.35,1.15 1.05,2.2 2.41,1.87 2.78,-0.68 3.09,-1.36 4.75,-0.97 1.66,0.39 2.01,-1.91 1.66,-3.4z"/>
  <g id="_2630908915504">
   <path fill="black" fill-rule="nonzero" d="M5.28 5.51c0.24,0.06 0.41,0.17 0.52,0.32 0.08,0.1 0.12,0.22 0.14,0.35 0.19,-0.06 0.41,-0.14 0.67,-0.24 0.06,-0.03 0.12,-0.05 0.18,-0.06 0.2,-0.06 0.38,-0.05 0.53,0.01 0.15,0.06 0.26,0.18 0.34,0.34 0.02,0.04 0.03,0.08 0.04,0.12l0.03 0.11 -0.1 0.05c-1.33,0.71 -2.03,1.06 -2.7,1.07 -0.65,0.01 -1.25,-0.28 -2.32,-0.84l-0.09 0.27 -0.93 0 0 -2.4 0.12 -0.02c0.41,-0.07 0.71,-0.06 0.94,0.03 0.22,0.09 0.37,0.24 0.47,0.43 0.72,0.18 1.46,0.3 2.18,0.44zm-2.46 -0.35c-0.07,-0.11 -0.16,-0.2 -0.29,-0.25 -0.16,-0.06 -0.38,-0.08 -0.67,-0.04l0 1.87 0.44 0c0.18,-0.52 0.35,-1.05 0.52,-1.57zm2.84 1.1c-0.01,-0.1 -0.04,-0.19 -0.09,-0.26 -0.07,-0.09 -0.19,-0.16 -0.36,-0.21l-2.14 -0.43 -0.38 1.11c1.05,0.55 1.63,0.84 2.22,0.83 0.6,-0.01 1.25,-0.33 2.46,-0.98 -0.04,-0.08 -0.1,-0.14 -0.18,-0.17 -0.09,-0.04 -0.2,-0.04 -0.34,-0 -0.05,0.01 -0.09,0.03 -0.14,0.05l-0.01 0c-0.66,0.26 -1.08,0.38 -1.46,0.39 -0.39,0.01 -0.72,-0.08 -1.22,-0.24l0.09 -0.27c0.47,0.15 0.78,0.24 1.12,0.23 0.13,-0 0.27,-0.02 0.42,-0.06z"/>
   <path fill="#257ACD" d="M2.3 6.73c0.18,-0.52 0.35,-1.05 0.52,-1.57 -0.07,-0.11 -0.16,-0.2 -0.29,-0.25 -0.16,-0.06 -0.38,-0.08 -0.67,-0.04l0 1.87 0.44 0z"/>
   <path fill="#2B2A29" d="M5.86 3.99c-0.18,-0.1 -0.33,-0.24 -0.44,-0.41 -0.13,-0.2 -0.19,-0.42 -0.19,-0.65 0,-0.32 0.13,-0.63 0.35,-0.85 0.23,-0.23 0.53,-0.35 0.85,-0.35 0.32,0 0.63,0.13 0.85,0.35 0.23,0.23 0.35,0.53 0.35,0.85 0,0.23 -0.07,0.46 -0.19,0.65 -0.11,0.17 -0.26,0.31 -0.44,0.41l0 0.71c0,0.08 -0.03,0.15 -0.09,0.21 -0.06,0.06 -0.13,0.09 -0.21,0.09l-0.56 0c-0.08,0 -0.15,-0.03 -0.21,-0.09 -0.06,-0.06 -0.09,-0.13 -0.09,-0.21l0 -0.71zm0.89 0.18l0 -0.35 0.08 -0.03c0.17,-0.08 0.31,-0.2 0.41,-0.35 0.1,-0.15 0.15,-0.33 0.15,-0.51 0,-0.25 -0.1,-0.49 -0.28,-0.67 -0.18,-0.18 -0.42,-0.28 -0.67,-0.28 -0.25,0 -0.49,0.1 -0.67,0.28 -0.18,0.18 -0.28,0.42 -0.28,0.67 0,0.18 0.05,0.36 0.15,0.51 0.1,0.15 0.24,0.28 0.41,0.35l0.08 0.03 0 0.35 0.63 0zm-0.63 0.26l0 0.26c0,0.01 0,0.02 0.01,0.03 0.01,0.01 0.02,0.01 0.03,0.01l0.56 0c0.01,0 0.02,-0 0.03,-0.01 0.01,-0.01 0.01,-0.02 0.01,-0.03l0 -0.26 -0.63 0z"/>
  </g>
  <path fill="#A4AFC3" fill-rule="nonzero" d="M0.77 1.27l0.54 0.5 -0.19 0.21 -0.54 -0.5 0.19 -0.21zm1.61 1.96l-0.54 -0.5 0.19 -0.21 0.54 0.5 -0.19 0.21zm-1.78 -0.18l0.5 -0.54 0.21 0.19 -0.5 0.54 -0.21 -0.19zm1.96 -1.61l-0.5 0.54 -0.21 -0.19 0.5 -0.54 0.21 0.19z"/>
 </g>
</svg>
