<?xml version="1.0" encoding="UTF-8"?>
<!DOCTYPE svg PUBLIC "-//W3C//DTD SVG 1.1//EN" "http://www.w3.org/Graphics/SVG/1.1/DTD/svg11.dtd">
<!-- Creator: CorelDRAW -->
<svg xmlns="http://www.w3.org/2000/svg" xml:space="preserve" width="6.4681mm" height="6.4679mm" version="1.1" shape-rendering="geometricPrecision" text-rendering="geometricPrecision" image-rendering="optimizeQuality" fill-rule="evenodd" clip-rule="evenodd"
viewBox="0 0 8.91 8.91"
 xmlns:xlink="http://www.w3.org/1999/xlink"
 xmlns:xodm="http://www.corel.com/coreldraw/odm/2003">
 <g id="Layer_x0020_1">
  <metadata id="CorelCorpID_0Corel-Layer"/>
  <g id="_2632201690176">
   <path fill="#EFEFEF" d="M4.25 0.12c0,0 4.34,0.89 4.65,4.78 0.15,1.97 -1.04,2.98 -2.26,3.49 -1.55,0.66 -3.19,0.67 -4.79,0.19 -1.11,-0.34 -2.11,-1 -1.79,-2.31 0.66,-2.66 1.3,-2.96 0.93,-4.55 -0.37,-1.59 1.84,-1.93 3.26,-1.59z"/>
   <g>
    <path fill="#257ACD" d="M3.38 4.39l0.95 0c0.1,0 0.19,0.09 0.19,0.19l0 1.53c0,0.1 -0.09,0.19 -0.19,0.19l-0.95 0c-0.1,0 -0.19,-0.09 -0.19,-0.19l0 -1.53c0,-0.1 0.09,-0.19 0.19,-0.19z"/>
    <path fill="black" fill-rule="nonzero" d="M3.38 4.25l0.95 0c0.09,0 0.17,0.04 0.23,0.1 0.06,0.06 0.1,0.14 0.1,0.23l0 1.53c0,0.09 -0.04,0.17 -0.1,0.23 -0.06,0.06 -0.14,0.1 -0.23,0.1l-0.95 0c-0.09,0 -0.17,-0.04 -0.23,-0.1 -0.06,-0.06 -0.1,-0.14 -0.1,-0.23l0 -1.53c0,-0.09 0.04,-0.17 0.1,-0.23 0.06,-0.06 0.14,-0.1 0.23,-0.1zm0.95 0.28l-0.95 0c-0.01,0 -0.03,0.01 -0.04,0.02 -0.01,0.01 -0.02,0.02 -0.02,0.04l0 1.53c0,0.01 0.01,0.03 0.02,0.04 0.01,0.01 0.02,0.02 0.04,0.02l0.95 0c0.01,0 0.03,-0.01 0.04,-0.02 0.01,-0.01 0.02,-0.02 0.02,-0.04l0 -1.53c0,-0.01 -0.01,-0.03 -0.02,-0.04 -0.01,-0.01 -0.02,-0.02 -0.04,-0.02z"/>
    <path fill="#257ACD" d="M2.96 3.31l1.79 0c0.01,-0.05 0.01,-0.09 0.01,-0.14 0,-0.25 -0.1,-0.48 -0.27,-0.64 -0.16,-0.16 -0.39,-0.27 -0.64,-0.27 -0.25,0 -0.48,0.1 -0.64,0.27 -0.16,0.16 -0.27,0.39 -0.27,0.64 0,0.05 0,0.1 0.01,0.14z"/>
    <path fill="black" fill-rule="nonzero" d="M3.05 3.26l1.62 0c0.01,-0.04 0.01,-0.08 0.01,-0.13 0,-0.23 -0.09,-0.43 -0.24,-0.58 -0.15,-0.15 -0.35,-0.24 -0.58,-0.24 -0.23,0 -0.43,0.09 -0.58,0.24 -0.15,0.15 -0.24,0.35 -0.24,0.58 0,0.04 0,0.09 0.01,0.13zm0.95 -1.51l0 0.3c0.25,0.03 0.47,0.14 0.64,0.31 0.2,0.2 0.32,0.47 0.32,0.77 0,0.04 -0,0.09 -0.01,0.13 0.14,0.01 0.27,0.07 0.37,0.16 0.1,0.1 0.16,0.24 0.16,0.4l0 0.05c0.24,-0.03 0.45,-0.14 0.61,-0.3 0.19,-0.19 0.31,-0.46 0.31,-0.75 0,-0.29 -0.12,-0.56 -0.31,-0.75 -0.19,-0.19 -0.46,-0.31 -0.75,-0.31l-1.34 0zm-0.28 0.3l0 -0.3 -0.42 0 0 -0.28 2.03 0c0.37,0 0.71,0.15 0.95,0.39 0.24,0.24 0.39,0.58 0.39,0.95 0,0.37 -0.15,0.71 -0.39,0.95 -0.21,0.21 -0.49,0.35 -0.8,0.39l0 2.72c0,0.15 -0.06,0.29 -0.16,0.4 -0.1,0.1 -0.24,0.17 -0.4,0.17l-2.12 0c-0.15,0 -0.3,-0.06 -0.4,-0.16 -0.1,-0.1 -0.16,-0.24 -0.16,-0.4l0 -3.06c0,-0.15 0.06,-0.29 0.16,-0.4 0.1,-0.1 0.22,-0.16 0.37,-0.16 -0,-0.04 -0.01,-0.09 -0.01,-0.13 0,-0.3 0.12,-0.58 0.32,-0.77 0.17,-0.17 0.39,-0.28 0.64,-0.31zm1.2 1.49l-2.12 0c-0.08,0 -0.15,0.03 -0.2,0.08 -0.05,0.05 -0.08,0.12 -0.08,0.2l0 3.06c0,0.08 0.03,0.15 0.08,0.2 0.05,0.05 0.12,0.08 0.2,0.08l2.12 0c0.08,0 0.15,-0.03 0.2,-0.08 0.05,-0.05 0.08,-0.12 0.08,-0.2l0 -3.06c0,-0.08 -0.03,-0.15 -0.08,-0.2 -0.05,-0.05 -0.12,-0.08 -0.2,-0.08z"/>
   </g>
   <path fill="#A4AFC3" fill-rule="nonzero" d="M2.04 0.45l0.52 0.48 -0.19 0.2 -0.52 -0.48 0.19 -0.2zm-0.17 1.71l0.48 -0.52 0.2 0.19 -0.48 0.52 -0.2 -0.19zm1.88 -1.54l-0.48 0.52 -0.2 -0.19 0.48 -0.52 0.2 0.19z"/>
  </g>
 </g>
</svg>
