<?xml version="1.0" encoding="UTF-8"?>
<!DOCTYPE svg PUBLIC "-//W3C//DTD SVG 1.1//EN" "http://www.w3.org/Graphics/SVG/1.1/DTD/svg11.dtd">
<!-- Creator: CorelDRAW -->
<svg xmlns="http://www.w3.org/2000/svg" xml:space="preserve" width="6.4681mm" height="6.4679mm" version="1.1" shape-rendering="geometricPrecision" text-rendering="geometricPrecision" image-rendering="optimizeQuality" fill-rule="evenodd" clip-rule="evenodd"
viewBox="0 0 9.39 9.38"
 xmlns:xlink="http://www.w3.org/1999/xlink"
 xmlns:xodm="http://www.corel.com/coreldraw/odm/2003">
 <g id="Layer_x0020_1">
  <metadata id="CorelCorpID_0Corel-Layer"/>
  <g id="_2630789895920">
   <path fill="#EFEFEF" d="M4.91 0.13c0,0 -4.57,0.94 -4.89,5.03 -0.16,2.07 1.1,3.13 2.38,3.68 1.64,0.69 3.36,0.71 5.04,0.2 1.16,-0.36 2.22,-1.06 1.88,-2.43 -0.69,-2.8 -1.37,-3.12 -0.98,-4.79 0.39,-1.68 -1.93,-2.03 -3.43,-1.68z"/>
   <g>
    <polygon fill="#257ACD" points="5.75,5.11 6.72,5.11 6.72,6.09 5.75,6.09 "/>
    <path fill="black" fill-rule="nonzero" d="M2.01 5.46l1.92 0 0 -0.86 -0.66 0c-0.28,0 -0.57,0.12 -0.81,0.31 -0.19,0.15 -0.34,0.34 -0.44,0.55zm2.75 -2.23c0.15,0 0.26,0.12 0.26,0.26 0,0.15 -0.12,0.26 -0.26,0.26 -0.15,0 -0.26,-0.12 -0.26,-0.26 0,-0.15 0.12,-0.26 0.26,-0.26zm-1.25 -0.95c0.16,-0.17 0.36,-0.3 0.57,-0.39 0.21,-0.09 0.44,-0.14 0.68,-0.14 0.24,0 0.47,0.05 0.68,0.14 0.22,0.09 0.41,0.22 0.57,0.39l-0.21 0.2c-0.13,-0.14 -0.3,-0.25 -0.48,-0.33 -0.17,-0.07 -0.36,-0.11 -0.56,-0.11 -0.2,0 -0.39,0.04 -0.56,0.11 -0.18,0.08 -0.34,0.19 -0.48,0.33l-0.21 -0.2zm0.48 0.55c0.1,-0.11 0.21,-0.2 0.35,-0.26 0.13,-0.06 0.27,-0.09 0.42,-0.09 0.15,0 0.29,0.03 0.42,0.09 0.13,0.06 0.25,0.15 0.35,0.26l-0.22 0.19c-0.07,-0.08 -0.15,-0.14 -0.25,-0.19 -0.09,-0.04 -0.19,-0.07 -0.3,-0.07 -0.11,0 -0.21,0.02 -0.3,0.07 -0.1,0.04 -0.18,0.11 -0.25,0.19l-0.22 -0.19zm1.75 2.15l1.12 0 0 0.49 0.9 0 0 0.29 -0.9 0 0 0.49 -1.27 0 0 -0.49 -3.68 0c-0.01,0.05 -0.01,0.1 -0.01,0.15 0,0.17 0.05,0.32 0.14,0.43 0.09,0.12 0.21,0.2 0.37,0.24 0.07,0.02 0.15,0.03 0.23,0.03l5.12 0 0 0.29 -5.12 0c-0.11,0 -0.21,-0.01 -0.31,-0.04 -0.22,-0.06 -0.4,-0.18 -0.52,-0.35 -0.12,-0.17 -0.19,-0.38 -0.19,-0.61 0,-0.11 0.01,-0.22 0.05,-0.33l0.01 -0.04c0.1,-0.33 0.32,-0.63 0.6,-0.85 0.29,-0.23 0.64,-0.37 0.99,-0.37l4.5 0 0 0.29 -3.55 0 0 0.86 1.38 0 0 -0.49 0.15 0zm0.83 0.29l-0.69 0 0 0.69 0.69 0 0 -0.69zm1.19 2.38l-5.29 0 0 -0.29 5.29 0 0 0.29z"/>
    <path fill="#257ACD" d="M2.01 5.46l1.92 0 0 -0.86 -0.66 0c-0.28,0 -0.57,0.12 -0.81,0.31 -0.19,0.15 -0.34,0.34 -0.44,0.55z"/>
   </g>
   <path fill="#A4AFC3" fill-rule="nonzero" d="M7.36 1.34c0.11,0 0.21,0.05 0.29,0.12 0.07,0.07 0.12,0.17 0.12,0.29 0,0.11 -0.05,0.21 -0.12,0.29 -0.07,0.07 -0.17,0.12 -0.29,0.12 -0.11,0 -0.21,-0.05 -0.29,-0.12 -0.07,-0.07 -0.12,-0.17 -0.12,-0.29 0,-0.11 0.05,-0.21 0.12,-0.29 0.07,-0.07 0.17,-0.12 0.29,-0.12zm0.08 0.32c-0.02,-0.02 -0.05,-0.03 -0.08,-0.03 -0.03,0 -0.06,0.01 -0.08,0.03 -0.02,0.02 -0.03,0.05 -0.03,0.08 0,0.03 0.01,0.06 0.03,0.08 0.02,0.02 0.05,0.03 0.08,0.03 0.03,0 0.06,-0.01 0.08,-0.03 0.02,-0.02 0.03,-0.05 0.03,-0.08 0,-0.03 -0.01,-0.06 -0.03,-0.08z"/>
  </g>
 </g>
</svg>
