<?xml version="1.0" encoding="UTF-8"?>
<!DOCTYPE svg PUBLIC "-//W3C//DTD SVG 1.1//EN" "http://www.w3.org/Graphics/SVG/1.1/DTD/svg11.dtd">
<!-- Creator: CorelDRAW -->
<svg xmlns="http://www.w3.org/2000/svg" xml:space="preserve" width="6.4681mm" height="6.4679mm" version="1.1" shape-rendering="geometricPrecision" text-rendering="geometricPrecision" image-rendering="optimizeQuality" fill-rule="evenodd" clip-rule="evenodd"
viewBox="0 0 10.54 10.54"
 xmlns:xlink="http://www.w3.org/1999/xlink"
 xmlns:xodm="http://www.corel.com/coreldraw/odm/2003">
 <g id="Layer_x0020_1">
  <metadata id="CorelCorpID_0Corel-Layer"/>
  <g id="_2630915544000">
   <path fill="#EFEFEF" d="M5.51 0.14c0,0 -5.14,1.06 -5.5,5.65 -0.18,2.33 1.23,3.52 2.67,4.13 1.84,0.78 3.78,0.8 5.67,0.22 1.31,-0.4 2.5,-1.19 2.12,-2.73 -0.78,-3.15 -1.54,-3.5 -1.1,-5.38 0.44,-1.88 -2.17,-2.28 -3.86,-1.88z"/>
   <g>
    <path fill="#257ACD" d="M4.32 3.93l1.9 0c0.21,0 0.39,0.18 0.39,0.39l0 1.62 -0.91 0.85 -1.37 0c-0.21,0 -0.39,-0.18 -0.39,-0.39l0 -2.08c0,-0.21 0.18,-0.39 0.39,-0.39z"/>
    <path fill="#257ACD" d="M4.36 1.92l1.83 0 0 0.41c0,0.13 -0.11,0.24 -0.24,0.24l-1.35 0c-0.13,0 -0.24,-0.11 -0.24,-0.24l0 -0.41z"/>
    <path fill="black" fill-rule="nonzero" d="M3.72 1.76l0.48 0 0.16 0 2 0 0.48 0c0.22,0 0.42,0.09 0.57,0.24 0.15,0.15 0.24,0.35 0.24,0.57l0 5.42c0,0.22 -0.09,0.42 -0.24,0.57 -0.15,0.15 -0.35,0.24 -0.57,0.24l-3.11 0c-0.22,0 -0.42,-0.09 -0.57,-0.24 -0.15,-0.15 -0.24,-0.35 -0.24,-0.57l0 -5.42c0,-0.22 0.09,-0.42 0.24,-0.57 0.15,-0.15 0.35,-0.24 0.57,-0.24zm0.61 2.01l1.9 0c0.15,0 0.29,0.06 0.39,0.16 0.1,0.1 0.16,0.24 0.16,0.39l0 1.69 -1.01 0.94 -1.44 0c-0.15,0 -0.29,-0.06 -0.39,-0.16 -0.1,-0.1 -0.16,-0.24 -0.16,-0.39l0 -2.08c0,-0.15 0.06,-0.29 0.16,-0.39 0.1,-0.1 0.24,-0.16 0.39,-0.16zm1.9 0.33l-1.9 0c-0.06,0 -0.12,0.03 -0.16,0.07 -0.04,0.04 -0.07,0.1 -0.07,0.16l0 2.08c0,0.06 0.03,0.12 0.07,0.16 0.04,0.04 0.1,0.07 0.16,0.07l1.31 0 0.81 -0.75 0 -1.55c0,-0.06 -0.03,-0.12 -0.07,-0.16 -0.04,-0.04 -0.1,-0.07 -0.16,-0.07zm-1.37 1.22l0.2 0.19 0.63 -0.67 0.24 0.22 -0.85 0.91 -0.43 -0.42 0.23 -0.23zm1.5 -3.23l0 0.24c0,0.11 -0.05,0.21 -0.12,0.29 -0.07,0.07 -0.17,0.12 -0.29,0.12l-1.35 0c-0.11,0 -0.21,-0.05 -0.29,-0.12 -0.07,-0.07 -0.12,-0.17 -0.12,-0.29l0 -0.24 -0.48 0c-0.13,0 -0.25,0.05 -0.34,0.14 -0.09,0.09 -0.14,0.21 -0.14,0.34l0 5.42c0,0.13 0.05,0.25 0.14,0.34 0.09,0.09 0.21,0.14 0.34,0.14l3.11 0c0.13,0 0.25,-0.05 0.34,-0.14 0.09,-0.09 0.14,-0.21 0.14,-0.34l0 -5.42c0,-0.13 -0.05,-0.25 -0.14,-0.34 -0.09,-0.09 -0.21,-0.14 -0.34,-0.14l-0.48 0zm-1.83 0l0 0.24c0,0.02 0.01,0.04 0.02,0.06 0.01,0.01 0.03,0.02 0.06,0.02l1.35 0c0.02,0 0.04,-0.01 0.06,-0.02 0.01,-0.01 0.02,-0.03 0.02,-0.06l0 -0.24 -1.51 0z"/>
   </g>
   <path fill="#A4AFC3" fill-rule="nonzero" d="M1 1.17l0.62 0.56 -0.22 0.24 -0.62 -0.56 0.22 -0.24zm-0.2 2.02l0.56 -0.62 0.24 0.22 -0.56 0.62 -0.24 -0.22zm2.23 -1.82l-0.56 0.62 -0.24 -0.22 0.56 -0.62 0.24 0.22z"/>
   <path fill="#A4AFC3" fill-rule="nonzero" d="M9 7.98c0.13,0 0.24,0.05 0.32,0.13 0.08,0.08 0.13,0.2 0.13,0.32 0,0.13 -0.05,0.24 -0.13,0.32 -0.08,0.08 -0.2,0.13 -0.32,0.13 -0.13,0 -0.24,-0.05 -0.32,-0.13 -0.08,-0.08 -0.13,-0.2 -0.13,-0.32 0,-0.13 0.05,-0.24 0.13,-0.32 0.08,-0.08 0.2,-0.13 0.32,-0.13zm0.09 0.36c-0.02,-0.02 -0.06,-0.04 -0.09,-0.04 -0.04,0 -0.07,0.01 -0.09,0.04 -0.02,0.02 -0.04,0.06 -0.04,0.09 0,0.04 0.01,0.07 0.04,0.09 0.02,0.02 0.06,0.04 0.09,0.04 0.04,0 0.07,-0.01 0.09,-0.04 0.02,-0.02 0.04,-0.06 0.04,-0.09 0,-0.04 -0.01,-0.07 -0.04,-0.09z"/>
  </g>
 </g>
</svg>
