<?xml version="1.0" encoding="UTF-8"?>
<!DOCTYPE svg PUBLIC "-//W3C//DTD SVG 1.1//EN" "http://www.w3.org/Graphics/SVG/1.1/DTD/svg11.dtd">
<!-- Creator: CorelDRAW -->
<svg xmlns="http://www.w3.org/2000/svg" xml:space="preserve" width="6.4679mm" height="6.4681mm" version="1.1" shape-rendering="geometricPrecision" text-rendering="geometricPrecision" image-rendering="optimizeQuality" fill-rule="evenodd" clip-rule="evenodd"
viewBox="0 0 7.88 7.88"
 xmlns:xlink="http://www.w3.org/1999/xlink"
 xmlns:xodm="http://www.corel.com/coreldraw/odm/2003">
 <g id="Layer_x0020_1">
  <metadata id="CorelCorpID_0Corel-Layer"/>
  <g id="_2631072988528">
   <path fill="#EFEFEF" d="M0.11 4.12c0,0 0.79,-3.84 4.22,-4.11 1.74,-0.14 2.63,0.92 3.09,2 0.58,1.38 0.6,2.82 0.16,4.24 -0.3,0.98 -0.89,1.87 -2.04,1.58 -2.35,-0.58 -2.62,-1.15 -4.03,-0.82 -1.41,0.33 -1.71,-1.62 -1.41,-2.89z"/>
   <path fill="#A4AFC3" fill-rule="nonzero" d="M1.31 2.03l0.62 -0.03 0.01 0.24 -0.62 0.03 -0.01 -0.24zm1.18 -0.96l0.03 0.62 -0.24 0.01 -0.03 -0.62 0.24 -0.01z"/>
   <g>
    <path fill="black" fill-rule="nonzero" d="M4.35 4.81c0.2,0.05 0.35,0.14 0.44,0.27 0.07,0.09 0.1,0.19 0.12,0.3 0.16,-0.05 0.35,-0.12 0.57,-0.2 0.05,-0.02 0.1,-0.04 0.15,-0.05 0.17,-0.05 0.32,-0.04 0.45,0.01 0.13,0.05 0.22,0.16 0.28,0.29 0.01,0.03 0.03,0.07 0.04,0.1l0.03 0.09 -0.09 0.05c-1.12,0.6 -1.72,0.9 -2.29,0.91 -0.55,0.01 -1.06,-0.23 -1.97,-0.71l-0.08 0.23 -0.79 0 0 -2.03 0.1 -0.02c0.34,-0.06 0.6,-0.05 0.8,0.03 0.19,0.07 0.31,0.2 0.4,0.37 0.61,0.15 1.24,0.25 1.85,0.38zm-2.08 -0.3c-0.06,-0.1 -0.14,-0.17 -0.25,-0.21 -0.14,-0.05 -0.32,-0.07 -0.57,-0.03l0 1.58 0.37 0c0.15,-0.44 0.3,-0.89 0.44,-1.33zm2.41 0.93c-0.01,-0.08 -0.03,-0.16 -0.08,-0.22 -0.06,-0.08 -0.16,-0.14 -0.3,-0.18l-1.81 -0.36 -0.32 0.94c0.89,0.47 1.38,0.71 1.88,0.7 0.51,-0.01 1.06,-0.28 2.09,-0.83 -0.04,-0.07 -0.09,-0.12 -0.15,-0.15 -0.07,-0.03 -0.17,-0.03 -0.28,-0 -0.04,0.01 -0.08,0.03 -0.12,0.04l-0 0c-0.56,0.22 -0.92,0.32 -1.24,0.33 -0.33,0.01 -0.61,-0.07 -1.03,-0.21l0.07 -0.23c0.4,0.13 0.66,0.2 0.95,0.19 0.11,-0 0.23,-0.02 0.36,-0.05z"/>
    <path fill="#257ACD" d="M1.82 5.85c0.15,-0.44 0.3,-0.89 0.44,-1.33 -0.06,-0.1 -0.14,-0.17 -0.25,-0.21 -0.14,-0.05 -0.32,-0.07 -0.57,-0.03l0 1.58 0.37 0z"/>
    <path fill="#257ACD" d="M3.74 2.2l2.59 0 0 -0.49c0,-0.15 -0.12,-0.28 -0.28,-0.28l-2.04 0c-0.15,0 -0.28,0.12 -0.28,0.28l0 0.49z"/>
    <path fill="black" fill-rule="nonzero" d="M4.02 1.31l2.04 0c0.11,0 0.21,0.04 0.28,0.12 0.07,0.07 0.12,0.17 0.12,0.28l0 1.54c0,0.11 -0.04,0.21 -0.12,0.28 -0.07,0.07 -0.17,0.12 -0.28,0.12l-2.04 0c-0.11,0 -0.21,-0.04 -0.28,-0.12 -0.07,-0.07 -0.12,-0.17 -0.12,-0.28l0 -1.54c0,-0.11 0.04,-0.21 0.12,-0.28 0.07,-0.07 0.17,-0.12 0.28,-0.12zm-0.15 0.77l2.35 0 0 -0.37c0,-0.04 -0.02,-0.08 -0.05,-0.11 -0.03,-0.03 -0.07,-0.05 -0.11,-0.05l-2.04 0c-0.04,0 -0.08,0.02 -0.11,0.05 -0.03,0.03 -0.05,0.07 -0.05,0.11l0 0.37zm2.35 0.24l-2.35 0 0 0.92c0,0.04 0.02,0.08 0.05,0.11 0.03,0.03 0.07,0.05 0.11,0.05l2.04 0c0.04,0 0.08,-0.02 0.11,-0.05 0.03,-0.03 0.05,-0.07 0.05,-0.11l0 -0.92z"/>
   </g>
  </g>
 </g>
</svg>
