<svg xmlns="http://www.w3.org/2000/svg" width="39.519" height="44.033" viewBox="0 0 39.519 44.033">
  <path id="Path_6646" data-name="Path 6646" d="M3422.828,12013.817l-19.73-19.713a5.086,5.086,0,0,0-.058.789v37.851a5.048,5.048,0,0,0,.061.8l19.728-19.729Zm4.665.006,6.386,6.38,6.881-3.91c2.4-1.369,2.4-3.6,0-4.947l-6.88-3.91-6.387,6.387Zm-2.328,2.329-19.69,19.689a4.02,4.02,0,0,0,1.9-.566l23.531-13.385-5.743-5.739Zm-19.7-24.344,19.7,19.68,5.742-5.742-23.521-13.362a3.9,3.9,0,0,0-1.916-.574Z" transform="translate(-3403.04 -11991.809)" fill-rule="evenodd"/>
</svg>
