<?xml version="1.0" encoding="UTF-8"?>
<!DOCTYPE svg PUBLIC "-//W3C//DTD SVG 1.1//EN" "http://www.w3.org/Graphics/SVG/1.1/DTD/svg11.dtd">
<!-- Creator: CorelDRAW -->
<svg xmlns="http://www.w3.org/2000/svg" xml:space="preserve" width="6.4679mm" height="6.4681mm" version="1.1" shape-rendering="geometricPrecision" text-rendering="geometricPrecision" image-rendering="optimizeQuality" fill-rule="evenodd" clip-rule="evenodd"
viewBox="0 0 9.82 9.82"
 xmlns:xlink="http://www.w3.org/1999/xlink"
 xmlns:xodm="http://www.corel.com/coreldraw/odm/2003">
 <g id="Layer_x0020_1">
  <metadata id="CorelCorpID_0Corel-Layer"/>
  <g id="_2630916179776">
   <path fill="#EFEFEF" d="M9.69 5.14c0,0 -0.98,-4.78 -5.26,-5.12 -2.17,-0.17 -3.28,1.15 -3.85,2.49 -0.73,1.71 -0.74,3.52 -0.21,5.28 0.37,1.22 1.11,2.33 2.55,1.97 2.93,-0.72 3.26,-1.43 5.01,-1.02 1.75,0.41 2.13,-2.02 1.75,-3.59z"/>
   <g>
    <path fill="#257ACD" d="M4.91 5.36c1.7,0 3.08,0.59 3.08,1.31 0,0.72 -1.38,1.31 -3.08,1.31 -1.7,0 -3.08,-0.59 -3.08,-1.31 0,-0.72 1.38,-1.31 3.08,-1.31z"/>
    <path fill="black" fill-rule="nonzero" d="M7.5 5.78c0.2,0.12 0.36,0.25 0.47,0.4 0.11,0.15 0.18,0.32 0.18,0.49 0,0.43 -0.38,0.8 -1,1.07 -0.58,0.24 -1.37,0.4 -2.24,0.4 -0.87,0 -1.66,-0.15 -2.24,-0.4 -0.61,-0.26 -1,-0.64 -1,-1.07 0,-0.17 0.06,-0.34 0.18,-0.49 0.11,-0.15 0.27,-0.28 0.47,-0.4l0.15 0.26c-0.17,0.1 -0.3,0.21 -0.38,0.32 -0.08,0.1 -0.12,0.2 -0.12,0.31 0,0.29 0.31,0.57 0.81,0.79 0.54,0.23 1.29,0.37 2.12,0.37 0.83,0 1.58,-0.14 2.12,-0.37 0.5,-0.21 0.81,-0.49 0.81,-0.79 0,-0.1 -0.04,-0.21 -0.11,-0.31 -0.09,-0.11 -0.21,-0.22 -0.38,-0.32l0.16 -0.26z"/>
    <path fill="#F3F3F1" d="M4.91 1.74c0,0 1.68,2.56 1.68,3.49 0,0.93 -0.75,1.68 -1.68,1.68 -0.93,0 -1.68,-0.75 -1.68,-1.68 0,-0.93 1.68,-3.49 1.68,-3.49z"/>
    <path fill="black" fill-rule="nonzero" d="M5.04 1.66c0,0.01 1.7,2.6 1.7,3.57 0,0.5 -0.2,0.96 -0.54,1.29 -0.33,0.33 -0.79,0.54 -1.29,0.54 -0.5,0 -0.96,-0.2 -1.29,-0.54 -0.33,-0.33 -0.54,-0.79 -0.54,-1.29 0,-0.97 1.7,-3.56 1.7,-3.57l0.13 -0.19 0.13 0.19zm1.4 3.57c0,-0.73 -1.14,-2.6 -1.52,-3.21 -0.39,0.61 -1.52,2.47 -1.52,3.21 0,0.42 0.17,0.8 0.45,1.08 0.28,0.28 0.66,0.45 1.08,0.45 0.42,0 0.8,-0.17 1.08,-0.45 0.28,-0.28 0.45,-0.66 0.45,-1.08z"/>
   </g>
   <path fill="#A4AFC3" fill-rule="nonzero" d="M1.41 0.72c0.12,0 0.22,0.05 0.3,0.12 0.08,0.08 0.12,0.18 0.12,0.3 0,0.12 -0.05,0.22 -0.12,0.3 -0.08,0.08 -0.18,0.12 -0.3,0.12 -0.12,0 -0.22,-0.05 -0.3,-0.12 -0.08,-0.08 -0.12,-0.18 -0.12,-0.3 0,-0.12 0.05,-0.22 0.12,-0.3 0.08,-0.08 0.18,-0.12 0.3,-0.12zm0.09 0.34c-0.02,-0.02 -0.05,-0.04 -0.09,-0.04 -0.03,0 -0.06,0.01 -0.09,0.04 -0.02,0.02 -0.04,0.05 -0.04,0.09 0,0.03 0.01,0.06 0.04,0.09 0.02,0.02 0.05,0.04 0.09,0.04 0.03,0 0.06,-0.01 0.09,-0.04 0.02,-0.02 0.04,-0.05 0.04,-0.09 0,-0.03 -0.01,-0.06 -0.04,-0.09z"/>
  </g>
 </g>
</svg>
